<svg xmlns="http://www.w3.org/2000/svg" xmlns:xlink="http://www.w3.org/1999/xlink" width="1000" zoomAndPan="magnify" viewBox="0 0 750 187.499995" height="250" preserveAspectRatio="xMidYMid meet" version="1.0"><defs><g/></defs><g fill="#ffffff" fill-opacity="1"><g transform="translate(11.364335, 115.932633)"><g><path d="M 32.625 -23.320312 C 30.703125 -25.492188 28.222656 -27.042969 25.429688 -27.785156 C 28.285156 -29.214844 30.082031 -32.128906 30.082031 -35.355469 C 30.082031 -40.066406 26.296875 -43.914062 21.585938 -43.914062 L 14.203125 -43.914062 L 14.203125 -42.488281 L 21.585938 -42.488281 C 25.492188 -42.488281 28.71875 -39.324219 28.71875 -35.355469 C 28.71875 -31.445312 25.492188 -28.285156 21.585938 -28.285156 L 20.902344 -28.285156 L 20.902344 -26.855469 L 21.769531 -26.855469 C 23.507812 -26.855469 25.183594 -25.554688 26.484375 -23.136719 C 27.785156 -20.652344 28.53125 -17.304688 28.53125 -13.769531 C 28.53125 -10.234375 27.785156 -6.882812 26.484375 -4.402344 C 25.183594 -1.984375 23.507812 -0.683594 21.769531 -0.683594 L 14.203125 -0.683594 L 14.203125 0.746094 L 21.769531 0.746094 C 29.773438 0.746094 36.222656 -5.769531 36.222656 -13.769531 C 36.222656 -17.304688 34.980469 -20.714844 32.625 -23.320312 Z M 10.792969 0.746094 L 10.792969 -43.914062 L 3.101562 -43.914062 L 3.101562 0.746094 Z M 10.792969 0.746094 "/></g></g></g><g fill="#ffffff" fill-opacity="1"><g transform="translate(51.922315, 115.932633)"><g><path d="M 29.277344 -0.683594 L 28.53125 -0.683594 L 28.53125 0.746094 L 36.90625 0.746094 L 29.398438 -9.488281 L 28.285156 -8.683594 L 31.507812 -4.28125 C 31.507812 -3.90625 31.507812 -3.472656 31.507812 -3.164062 C 31.507812 -2.046875 31.570312 -1.300781 31.324219 -0.992188 C 31.011719 -0.683594 29.957031 -0.683594 29.277344 -0.683594 Z M 36.222656 -29.398438 C 36.222656 -37.402344 29.773438 -43.914062 21.769531 -43.914062 L 14.203125 -43.914062 L 14.203125 -42.488281 L 21.769531 -42.488281 C 23.507812 -42.488281 25.183594 -41.183594 26.484375 -38.765625 C 27.785156 -36.285156 28.53125 -32.933594 28.53125 -29.398438 C 28.53125 -25.863281 27.785156 -22.515625 26.484375 -20.035156 C 25.183594 -17.613281 23.507812 -16.25 21.769531 -16.25 L 18.980469 -16.25 L 18.980469 -14.886719 L 22.453125 -14.886719 C 26.113281 -15.070312 29.460938 -16.5625 32.066406 -19.226562 C 34.734375 -21.957031 36.222656 -25.554688 36.222656 -29.398438 Z M 10.792969 0.746094 L 10.792969 -43.914062 L 3.101562 -43.914062 L 3.101562 0.746094 Z M 10.792969 0.746094 "/></g></g></g><g fill="#ffffff" fill-opacity="1"><g transform="translate(93.162442, 115.932633)"><g><path d="M 27.539062 -0.746094 L 26.855469 -0.746094 L 26.855469 0.683594 L 34.796875 0.683594 L 32.316406 -6.574219 L 26.671875 -22.699219 L 25.367188 -22.203125 L 30.949219 -6.203125 L 31.011719 -6.078125 C 31.507812 -4.589844 31.382812 -3.164062 30.703125 -2.171875 C 30.019531 -1.242188 28.902344 -0.746094 27.539062 -0.746094 Z M 17.925781 -43.914062 L 1.550781 0.746094 L 9.304688 0.746094 L 22.328125 -34.300781 L 18.917969 -43.914062 Z M 17.925781 -43.914062 "/></g></g></g><g fill="#ffffff" fill-opacity="1"><g transform="translate(132.294094, 115.932633)"><g><path d="M 10.792969 0.746094 L 10.792969 -43.914062 L 3.101562 -43.914062 L 3.101562 0.746094 Z M 10.792969 0.746094 "/></g></g></g><g fill="#ffffff" fill-opacity="1"><g transform="translate(148.914543, 115.932633)"><g><path d="M 4.09375 -43.914062 L 3.101562 -43.914062 L 3.101562 0.746094 L 10.792969 0.746094 L 10.792969 -32.5 L 35.042969 0.558594 L 35.167969 0.746094 L 36.90625 0.746094 Z M 34.859375 -36.90625 L 34.859375 -20.902344 L 36.222656 -20.902344 L 36.222656 -43.914062 L 28.53125 -43.914062 L 28.53125 -42.488281 L 29.277344 -42.488281 C 32.316406 -42.488281 34.859375 -39.945312 34.859375 -36.90625 Z M 34.859375 -36.90625 "/></g></g></g><g fill="#ffffff" fill-opacity="1"><g transform="translate(191.705031, 115.932633)"><g><path d="M 23.632812 -43.914062 L 23.632812 -42.488281 L 29.277344 -42.488281 C 32.375 -42.488281 34.859375 -39.945312 34.859375 -36.90625 L 34.859375 -36.160156 L 36.285156 -36.160156 L 36.285156 -43.914062 Z M 4.464844 -6.265625 L 4.464844 -6.945312 L 3.101562 -6.945312 L 3.101562 0.746094 L 15.691406 0.746094 L 15.691406 -0.683594 L 10.109375 -0.683594 C 7.007812 -0.683594 4.464844 -3.164062 4.464844 -6.265625 Z M 23.195312 -25.429688 L 16.125 -25.429688 C 11.472656 -25.429688 7.628906 -29.277344 7.628906 -33.925781 C 7.628906 -38.515625 11.351562 -42.363281 15.941406 -42.488281 C 16.003906 -42.488281 16.0625 -42.488281 16.125 -42.488281 L 20.34375 -42.488281 L 20.34375 -43.914062 L 16.125 -43.914062 C 16.0625 -43.914062 16.003906 -43.914062 15.878906 -43.914062 C 12.46875 -43.789062 9.242188 -42.425781 6.824219 -39.945312 C 4.402344 -37.523438 3.101562 -34.238281 3.101562 -30.828125 C 3.101562 -23.570312 8.929688 -17.738281 16.125 -17.738281 L 23.195312 -17.738281 C 27.910156 -17.738281 31.695312 -13.894531 31.695312 -9.179688 C 31.695312 -4.589844 27.972656 -0.804688 23.382812 -0.683594 C 23.320312 -0.683594 23.257812 -0.683594 23.195312 -0.683594 L 18.980469 -0.683594 L 18.980469 0.746094 L 23.195312 0.746094 C 23.257812 0.746094 23.382812 0.746094 23.445312 0.746094 C 26.855469 0.683594 30.082031 -0.746094 32.5 -3.164062 C 34.917969 -5.644531 36.285156 -8.929688 36.285156 -12.34375 C 36.285156 -19.539062 30.390625 -25.429688 23.195312 -25.429688 Z M 23.195312 -25.429688 "/></g></g></g><g fill="#ffffff" fill-opacity="1"><g transform="translate(233.813358, 115.932633)"><g/></g></g><g fill="#ffffff" fill-opacity="1"><g transform="translate(256.139125, 115.932633)"><g><path d="M 19.90625 -24.0625 L 32.25 -24.0625 L 32.25 -19.65625 L 19.90625 -19.65625 L 19.90625 -6.890625 L 15.453125 -6.890625 L 15.453125 -19.65625 L 3.109375 -19.65625 L 3.109375 -24.0625 L 15.453125 -24.0625 L 15.453125 -36.90625 L 19.90625 -36.90625 Z M 19.90625 -24.0625 "/></g></g></g><g fill="#ffffff" fill-opacity="1"><g transform="translate(294.340562, 115.932633)"><g/></g></g><g fill="#ffffff" fill-opacity="1"><g transform="translate(316.666332, 115.932633)"><g><path d="M 5.582031 -39.011719 C 2.976562 -35.851562 1.550781 -31.695312 1.550781 -27.289062 L 1.550781 -15.878906 C 1.550781 -11.472656 2.976562 -7.320312 5.582031 -4.15625 C 8.25 -0.992188 11.847656 0.746094 15.628906 0.746094 L 16.3125 0.746094 L 16.3125 -0.683594 L 15.628906 -0.683594 C 14.015625 -0.683594 12.46875 -2.171875 11.226562 -4.898438 C 9.925781 -7.816406 9.242188 -11.722656 9.242188 -15.878906 L 9.242188 -27.289062 C 9.242188 -31.445312 9.925781 -35.355469 11.226562 -38.269531 C 12.46875 -41 14.015625 -42.488281 15.628906 -42.488281 L 16.3125 -42.488281 L 16.3125 -43.914062 L 15.628906 -43.914062 C 11.847656 -43.914062 8.25 -42.113281 5.582031 -39.011719 Z M 30.578125 -39.011719 C 27.972656 -42.113281 24.375 -43.914062 20.59375 -43.914062 L 19.910156 -43.914062 L 19.910156 -42.488281 L 20.59375 -42.488281 C 27.601562 -42.488281 33.308594 -35.664062 33.308594 -27.289062 L 33.308594 -26.609375 L 34.671875 -26.609375 L 34.671875 -27.289062 C 34.671875 -31.695312 33.246094 -35.851562 30.578125 -39.011719 Z M 33.308594 -15.878906 C 33.308594 -7.503906 27.601562 -0.683594 20.59375 -0.683594 L 19.910156 -0.683594 L 19.910156 0.746094 L 20.59375 0.746094 C 24.375 0.746094 27.972656 -0.992188 30.578125 -4.15625 C 33.246094 -7.320312 34.671875 -11.472656 34.671875 -15.878906 L 34.671875 -16.5625 L 33.308594 -16.5625 Z M 33.308594 -15.878906 "/></g></g></g><g fill="#ffffff" fill-opacity="1"><g transform="translate(355.673958, 115.932633)"><g><path d="M 5.582031 -39.011719 C 2.976562 -35.851562 1.550781 -31.695312 1.550781 -27.289062 L 1.550781 -15.878906 C 1.550781 -11.472656 2.976562 -7.320312 5.582031 -4.15625 C 8.25 -0.992188 11.847656 0.746094 15.628906 0.746094 L 16.3125 0.746094 L 16.3125 -0.683594 L 15.628906 -0.683594 C 14.015625 -0.683594 12.46875 -2.171875 11.226562 -4.898438 C 9.925781 -7.816406 9.242188 -11.722656 9.242188 -15.878906 L 9.242188 -27.289062 C 9.242188 -31.445312 9.925781 -35.355469 11.226562 -38.269531 C 12.46875 -41 14.015625 -42.488281 15.628906 -42.488281 L 16.3125 -42.488281 L 16.3125 -43.914062 L 15.628906 -43.914062 C 11.847656 -43.914062 8.25 -42.113281 5.582031 -39.011719 Z M 30.578125 -39.011719 C 27.972656 -42.113281 24.375 -43.914062 20.59375 -43.914062 L 19.910156 -43.914062 L 19.910156 -42.488281 L 20.59375 -42.488281 C 22.203125 -42.488281 23.753906 -41 24.996094 -38.269531 C 26.296875 -35.355469 26.980469 -31.445312 26.980469 -27.289062 L 26.980469 -15.878906 C 26.980469 -11.722656 26.296875 -7.816406 24.996094 -4.898438 C 23.753906 -2.171875 22.203125 -0.683594 20.59375 -0.683594 L 19.910156 -0.683594 L 19.910156 0.746094 L 20.59375 0.746094 C 24.375 0.746094 27.972656 -0.992188 30.578125 -4.15625 C 33.246094 -7.320312 34.671875 -11.472656 34.671875 -15.878906 L 34.671875 -27.289062 C 34.671875 -31.695312 33.246094 -35.851562 30.578125 -39.011719 Z M 30.578125 -39.011719 "/></g></g></g><g fill="#ffffff" fill-opacity="1"><g transform="translate(394.68156, 115.932633)"><g><path d="M 34.859375 -6.265625 C 34.859375 -3.164062 32.316406 -0.683594 29.277344 -0.683594 L 28.53125 -0.683594 L 28.53125 0.746094 L 36.222656 0.746094 L 36.222656 -22.265625 L 34.859375 -22.265625 Z M 28.59375 -43.726562 L 15.628906 -8.929688 L 15.566406 -8.683594 L 18.917969 0.746094 L 20.035156 0.746094 L 36.347656 -43.726562 Z M 10.667969 -25.367188 L 6.449219 -37.523438 L 4.464844 -43.292969 L 4.28125 -43.851562 L 3.101562 -43.851562 L 3.101562 0.746094 L 10.792969 0.746094 L 10.792969 -20.839844 L 11.910156 -17.554688 L 13.210938 -17.988281 L 10.730469 -25.183594 Z M 10.667969 -25.367188 "/></g></g></g><g fill="#ffffff" fill-opacity="1"><g transform="translate(436.913908, 115.932633)"><g><path d="M 21.769531 -43.914062 L 14.203125 -43.914062 L 14.203125 -42.488281 L 21.769531 -42.488281 C 23.507812 -42.488281 25.183594 -41.183594 26.484375 -38.765625 C 27.785156 -36.285156 28.53125 -32.933594 28.53125 -29.398438 C 28.53125 -25.863281 27.785156 -22.515625 26.484375 -20.035156 C 25.183594 -17.613281 23.507812 -16.25 21.769531 -16.25 L 18.980469 -16.25 L 18.980469 -14.886719 L 22.453125 -14.886719 C 26.113281 -15.070312 29.460938 -16.5625 32.066406 -19.226562 C 34.734375 -21.957031 36.222656 -25.554688 36.222656 -29.398438 C 36.222656 -37.402344 29.773438 -43.914062 21.769531 -43.914062 Z M 10.792969 0.746094 L 10.792969 -43.914062 L 3.101562 -43.914062 L 3.101562 0.746094 Z M 10.792969 0.746094 "/></g></g></g><g fill="#ffffff" fill-opacity="1"><g transform="translate(477.471874, 115.932633)"><g><path d="M 12.777344 -4.714844 C 11.472656 -7.628906 10.792969 -11.535156 10.792969 -15.691406 L 10.792969 -43.726562 L 3.101562 -43.726562 L 3.101562 -15.691406 C 3.101562 -11.289062 4.527344 -7.132812 7.132812 -3.96875 C 9.800781 -0.804688 13.398438 0.929688 17.179688 0.929688 L 17.863281 0.929688 L 17.863281 -0.496094 L 17.179688 -0.496094 C 15.566406 -0.496094 14.015625 -1.984375 12.777344 -4.714844 Z M 34.859375 -15.691406 C 34.859375 -7.320312 29.152344 -0.496094 22.144531 -0.496094 L 21.460938 -0.496094 L 21.460938 0.929688 L 22.144531 0.929688 C 25.925781 0.929688 29.523438 -0.804688 32.128906 -3.96875 C 34.796875 -7.132812 36.222656 -11.289062 36.222656 -15.691406 L 36.222656 -16.375 L 34.859375 -16.375 Z M 28.53125 -43.664062 L 28.53125 -42.238281 L 29.277344 -42.238281 C 32.316406 -42.238281 34.859375 -39.695312 34.859375 -36.65625 L 34.859375 -28.78125 L 36.222656 -28.78125 L 36.222656 -43.664062 Z M 28.53125 -43.664062 "/></g></g></g><g fill="#ffffff" fill-opacity="1"><g transform="translate(519.580224, 115.932633)"><g><path d="M 28.53125 -43.914062 L 28.53125 -42.488281 L 29.277344 -42.488281 C 32.316406 -42.488281 34.859375 -39.945312 34.859375 -36.90625 L 34.859375 -36.160156 L 36.222656 -36.160156 L 36.222656 -43.914062 Z M 3.101562 -36.160156 L 4.464844 -36.160156 L 4.464844 -36.90625 C 4.464844 -39.945312 7.007812 -42.488281 10.046875 -42.488281 L 10.792969 -42.488281 L 10.792969 -43.914062 L 3.101562 -43.914062 Z M 23.507812 0.746094 L 23.507812 -43.914062 L 15.816406 -43.914062 L 15.816406 0.746094 Z M 23.507812 0.746094 "/></g></g></g><g fill="#ffffff" fill-opacity="1"><g transform="translate(561.688573, 115.932633)"><g><path d="M 27.539062 -0.746094 L 26.855469 -0.746094 L 26.855469 0.683594 L 34.796875 0.683594 L 32.316406 -6.574219 L 26.671875 -22.699219 L 25.367188 -22.203125 L 30.949219 -6.203125 L 31.011719 -6.078125 C 31.507812 -4.589844 31.382812 -3.164062 30.703125 -2.171875 C 30.019531 -1.242188 28.902344 -0.746094 27.539062 -0.746094 Z M 17.925781 -43.914062 L 1.550781 0.746094 L 9.304688 0.746094 L 22.328125 -34.300781 L 18.917969 -43.914062 Z M 17.925781 -43.914062 "/></g></g></g><g fill="#ffffff" fill-opacity="1"><g transform="translate(600.820242, 115.932633)"><g><path d="M 28.53125 -43.914062 L 28.53125 -42.488281 L 29.277344 -42.488281 C 32.316406 -42.488281 34.859375 -39.945312 34.859375 -36.90625 L 34.859375 -36.160156 L 36.222656 -36.160156 L 36.222656 -43.914062 Z M 3.101562 -36.160156 L 4.464844 -36.160156 L 4.464844 -36.90625 C 4.464844 -39.945312 7.007812 -42.488281 10.046875 -42.488281 L 10.792969 -42.488281 L 10.792969 -43.914062 L 3.101562 -43.914062 Z M 23.507812 0.746094 L 23.507812 -43.914062 L 15.816406 -43.914062 L 15.816406 0.746094 Z M 23.507812 0.746094 "/></g></g></g><g fill="#ffffff" fill-opacity="1"><g transform="translate(642.928592, 115.932633)"><g><path d="M 10.792969 0.746094 L 10.792969 -43.914062 L 3.101562 -43.914062 L 3.101562 0.746094 Z M 10.792969 0.746094 "/></g></g></g><g fill="#ffffff" fill-opacity="1"><g transform="translate(659.549065, 115.932633)"><g><path d="M 5.582031 -39.011719 C 2.976562 -35.851562 1.550781 -31.695312 1.550781 -27.289062 L 1.550781 -15.878906 C 1.550781 -11.472656 2.976562 -7.320312 5.582031 -4.15625 C 8.25 -0.992188 11.847656 0.746094 15.628906 0.746094 L 16.3125 0.746094 L 16.3125 -0.683594 L 15.628906 -0.683594 C 14.015625 -0.683594 12.46875 -2.171875 11.226562 -4.898438 C 9.925781 -7.816406 9.242188 -11.722656 9.242188 -15.878906 L 9.242188 -27.289062 C 9.242188 -31.445312 9.925781 -35.355469 11.226562 -38.269531 C 12.46875 -41 14.015625 -42.488281 15.628906 -42.488281 L 16.3125 -42.488281 L 16.3125 -43.914062 L 15.628906 -43.914062 C 11.847656 -43.914062 8.25 -42.113281 5.582031 -39.011719 Z M 30.578125 -39.011719 C 27.972656 -42.113281 24.375 -43.914062 20.59375 -43.914062 L 19.910156 -43.914062 L 19.910156 -42.488281 L 20.59375 -42.488281 C 22.203125 -42.488281 23.753906 -41 24.996094 -38.269531 C 26.296875 -35.355469 26.980469 -31.445312 26.980469 -27.289062 L 26.980469 -15.878906 C 26.980469 -11.722656 26.296875 -7.816406 24.996094 -4.898438 C 23.753906 -2.171875 22.203125 -0.683594 20.59375 -0.683594 L 19.910156 -0.683594 L 19.910156 0.746094 L 20.59375 0.746094 C 24.375 0.746094 27.972656 -0.992188 30.578125 -4.15625 C 33.246094 -7.320312 34.671875 -11.472656 34.671875 -15.878906 L 34.671875 -27.289062 C 34.671875 -31.695312 33.246094 -35.851562 30.578125 -39.011719 Z M 30.578125 -39.011719 "/></g></g></g><g fill="#ffffff" fill-opacity="1"><g transform="translate(698.556691, 115.932633)"><g><path d="M 4.09375 -43.914062 L 3.101562 -43.914062 L 3.101562 0.746094 L 10.792969 0.746094 L 10.792969 -32.5 L 35.042969 0.558594 L 35.167969 0.746094 L 36.90625 0.746094 Z M 34.859375 -36.90625 L 34.859375 -20.902344 L 36.222656 -20.902344 L 36.222656 -43.914062 L 28.53125 -43.914062 L 28.53125 -42.488281 L 29.277344 -42.488281 C 32.316406 -42.488281 34.859375 -39.945312 34.859375 -36.90625 Z M 34.859375 -36.90625 "/></g></g></g></svg>