<svg xmlns="http://www.w3.org/2000/svg" xmlns:xlink="http://www.w3.org/1999/xlink" width="1000" zoomAndPan="magnify" viewBox="0 0 750 187.499995" height="250" preserveAspectRatio="xMidYMid meet" version="1.0"><defs><g/><clipPath id="76d6e23121"><path d="M 0.996094 0 L 749 0 L 749 187 L 0.996094 187 Z M 0.996094 0 " clip-rule="nonzero"/></clipPath></defs><g clip-path="url(#76d6e23121)"><path fill="#ffffff" d="M 0.996094 0 L 749.003906 0 L 749.003906 187 L 0.996094 187 Z M 0.996094 0 " fill-opacity="1" fill-rule="nonzero"/><path fill="#ffffff" d="M 0.996094 0 L 749.003906 0 L 749.003906 187 L 0.996094 187 Z M 0.996094 0 " fill-opacity="1" fill-rule="nonzero"/></g><g fill="#ffffff" fill-opacity="1"><g transform="translate(21.376774, 113.802473)"><g><path d="M 8.640625 -5 L 8.640625 -8.640625 L 5 -8.640625 L 5 -5 Z M 13.21875 -5 L 13.21875 -8.640625 L 9.578125 -8.640625 L 9.578125 -5 Z M 17.796875 -5 L 17.796875 -8.640625 L 14.15625 -8.640625 L 14.15625 -5 Z M 22.375 -5 L 22.375 -8.640625 L 18.71875 -8.640625 L 18.71875 -5 Z M 8.640625 -9.578125 L 8.640625 -13.21875 L 5 -13.21875 L 5 -9.578125 Z M 26.9375 -9.578125 L 26.9375 -13.21875 L 23.296875 -13.21875 L 23.296875 -9.578125 Z M 8.640625 -14.15625 L 8.640625 -17.796875 L 5 -17.796875 L 5 -14.15625 Z M 26.9375 -14.15625 L 26.9375 -17.796875 L 23.296875 -17.796875 L 23.296875 -14.15625 Z M 8.640625 -18.71875 L 8.640625 -22.375 L 5 -22.375 L 5 -18.71875 Z M 13.21875 -18.71875 L 13.21875 -22.375 L 9.578125 -22.375 L 9.578125 -18.71875 Z M 17.796875 -18.71875 L 17.796875 -22.375 L 14.15625 -22.375 L 14.15625 -18.71875 Z M 22.375 -18.71875 L 22.375 -22.375 L 18.71875 -22.375 L 18.71875 -18.71875 Z M 8.640625 -23.296875 L 8.640625 -26.9375 L 5 -26.9375 L 5 -23.296875 Z M 26.9375 -23.296875 L 26.9375 -26.9375 L 23.296875 -26.9375 L 23.296875 -23.296875 Z M 8.640625 -27.875 L 8.640625 -31.515625 L 5 -31.515625 L 5 -27.875 Z M 26.9375 -27.875 L 26.9375 -31.515625 L 23.296875 -31.515625 L 23.296875 -27.875 Z M 8.640625 -32.453125 L 8.640625 -36.09375 L 5 -36.09375 L 5 -32.453125 Z M 13.21875 -32.453125 L 13.21875 -36.09375 L 9.578125 -36.09375 L 9.578125 -32.453125 Z M 17.796875 -32.453125 L 17.796875 -36.09375 L 14.15625 -36.09375 L 14.15625 -32.453125 Z M 22.375 -32.453125 L 22.375 -36.09375 L 18.71875 -36.09375 L 18.71875 -32.453125 Z M 0 0 L 0 -41.171875 L 32.015625 -41.171875 L 32.015625 0 Z M 0 0 "/></g></g></g><g fill="#ffffff" fill-opacity="1"><g transform="translate(56.899691, 113.802473)"><g><path d="M 8.640625 -5 L 8.640625 -8.640625 L 5 -8.640625 L 5 -5 Z M 26.9375 -5 L 26.9375 -8.640625 L 23.296875 -8.640625 L 23.296875 -5 Z M 8.640625 -9.578125 L 8.640625 -13.21875 L 5 -13.21875 L 5 -9.578125 Z M 26.9375 -9.578125 L 26.9375 -13.21875 L 23.296875 -13.21875 L 23.296875 -9.578125 Z M 8.640625 -14.15625 L 8.640625 -17.796875 L 5 -17.796875 L 5 -14.15625 Z M 26.9375 -14.15625 L 26.9375 -17.796875 L 23.296875 -17.796875 L 23.296875 -14.15625 Z M 8.640625 -18.71875 L 8.640625 -22.375 L 5 -22.375 L 5 -18.71875 Z M 13.21875 -18.71875 L 13.21875 -22.375 L 9.578125 -22.375 L 9.578125 -18.71875 Z M 17.796875 -18.71875 L 17.796875 -22.375 L 14.15625 -22.375 L 14.15625 -18.71875 Z M 22.375 -18.71875 L 22.375 -22.375 L 18.71875 -22.375 L 18.71875 -18.71875 Z M 8.640625 -23.296875 L 8.640625 -26.9375 L 5 -26.9375 L 5 -23.296875 Z M 26.9375 -23.296875 L 26.9375 -26.9375 L 23.296875 -26.9375 L 23.296875 -23.296875 Z M 8.640625 -27.875 L 8.640625 -31.515625 L 5 -31.515625 L 5 -27.875 Z M 26.9375 -27.875 L 26.9375 -31.515625 L 23.296875 -31.515625 L 23.296875 -27.875 Z M 8.640625 -32.453125 L 8.640625 -36.09375 L 5 -36.09375 L 5 -32.453125 Z M 13.21875 -32.453125 L 13.21875 -36.09375 L 9.578125 -36.09375 L 9.578125 -32.453125 Z M 17.796875 -32.453125 L 17.796875 -36.09375 L 14.15625 -36.09375 L 14.15625 -32.453125 Z M 22.375 -32.453125 L 22.375 -36.09375 L 18.71875 -36.09375 L 18.71875 -32.453125 Z M 0 0 L 0 -41.171875 L 32.015625 -41.171875 L 32.015625 0 Z M 0 0 "/></g></g></g><g fill="#ffffff" fill-opacity="1"><g transform="translate(92.422609, 113.802473)"><g><path d="M 8.640625 -5 L 8.640625 -8.640625 L 5 -8.640625 L 5 -5 Z M 26.9375 -5 L 26.9375 -8.640625 L 23.296875 -8.640625 L 23.296875 -5 Z M 8.640625 -9.578125 L 8.640625 -13.21875 L 5 -13.21875 L 5 -9.578125 Z M 26.9375 -9.578125 L 26.9375 -13.21875 L 23.296875 -13.21875 L 23.296875 -9.578125 Z M 8.640625 -14.15625 L 8.640625 -17.796875 L 5 -17.796875 L 5 -14.15625 Z M 26.9375 -14.15625 L 26.9375 -17.796875 L 23.296875 -17.796875 L 23.296875 -14.15625 Z M 8.640625 -18.71875 L 8.640625 -22.375 L 5 -22.375 L 5 -18.71875 Z M 13.21875 -18.71875 L 13.21875 -22.375 L 9.578125 -22.375 L 9.578125 -18.71875 Z M 17.796875 -18.71875 L 17.796875 -22.375 L 14.15625 -22.375 L 14.15625 -18.71875 Z M 22.375 -18.71875 L 22.375 -22.375 L 18.71875 -22.375 L 18.71875 -18.71875 Z M 26.9375 -18.71875 L 26.9375 -22.375 L 23.296875 -22.375 L 23.296875 -18.71875 Z M 8.640625 -23.296875 L 8.640625 -26.9375 L 5 -26.9375 L 5 -23.296875 Z M 26.9375 -23.296875 L 26.9375 -26.9375 L 23.296875 -26.9375 L 23.296875 -23.296875 Z M 13.21875 -27.875 L 13.21875 -31.515625 L 9.578125 -31.515625 L 9.578125 -27.875 Z M 22.375 -27.875 L 22.375 -31.515625 L 18.71875 -31.515625 L 18.71875 -27.875 Z M 17.796875 -32.453125 L 17.796875 -36.09375 L 14.15625 -36.09375 L 14.15625 -32.453125 Z M 0 0 L 0 -41.171875 L 32.015625 -41.171875 L 32.015625 0 Z M 0 0 "/></g></g></g><g fill="#ffffff" fill-opacity="1"><g transform="translate(127.945528, 113.802473)"><g><path d="M 13.21875 -5 L 13.21875 -8.640625 L 9.578125 -8.640625 L 9.578125 -5 Z M 17.796875 -5 L 17.796875 -8.640625 L 14.15625 -8.640625 L 14.15625 -5 Z M 22.375 -5 L 22.375 -8.640625 L 18.71875 -8.640625 L 18.71875 -5 Z M 17.796875 -9.578125 L 17.796875 -13.21875 L 14.15625 -13.21875 L 14.15625 -9.578125 Z M 17.796875 -14.15625 L 17.796875 -17.796875 L 14.15625 -17.796875 L 14.15625 -14.15625 Z M 17.796875 -18.71875 L 17.796875 -22.375 L 14.15625 -22.375 L 14.15625 -18.71875 Z M 17.796875 -23.296875 L 17.796875 -26.9375 L 14.15625 -26.9375 L 14.15625 -23.296875 Z M 17.796875 -27.875 L 17.796875 -31.515625 L 14.15625 -31.515625 L 14.15625 -27.875 Z M 13.21875 -32.453125 L 13.21875 -36.09375 L 9.578125 -36.09375 L 9.578125 -32.453125 Z M 17.796875 -32.453125 L 17.796875 -36.09375 L 14.15625 -36.09375 L 14.15625 -32.453125 Z M 22.375 -32.453125 L 22.375 -36.09375 L 18.71875 -36.09375 L 18.71875 -32.453125 Z M 0 0 L 0 -41.171875 L 32.015625 -41.171875 L 32.015625 0 Z M 0 0 "/></g></g></g><g fill="#ffffff" fill-opacity="1"><g transform="translate(163.468442, 113.802473)"><g><path d="M 8.640625 -5 L 8.640625 -8.640625 L 5 -8.640625 L 5 -5 Z M 26.9375 -5 L 26.9375 -8.640625 L 23.296875 -8.640625 L 23.296875 -5 Z M 8.640625 -9.578125 L 8.640625 -13.21875 L 5 -13.21875 L 5 -9.578125 Z M 26.9375 -9.578125 L 26.9375 -13.21875 L 23.296875 -13.21875 L 23.296875 -9.578125 Z M 8.640625 -14.15625 L 8.640625 -17.796875 L 5 -17.796875 L 5 -14.15625 Z M 26.9375 -14.15625 L 26.9375 -17.796875 L 23.296875 -17.796875 L 23.296875 -14.15625 Z M 8.640625 -18.71875 L 8.640625 -22.375 L 5 -22.375 L 5 -18.71875 Z M 22.375 -18.71875 L 22.375 -22.375 L 18.71875 -22.375 L 18.71875 -18.71875 Z M 26.9375 -18.71875 L 26.9375 -22.375 L 23.296875 -22.375 L 23.296875 -18.71875 Z M 8.640625 -23.296875 L 8.640625 -26.9375 L 5 -26.9375 L 5 -23.296875 Z M 17.796875 -23.296875 L 17.796875 -26.9375 L 14.15625 -26.9375 L 14.15625 -23.296875 Z M 26.9375 -23.296875 L 26.9375 -26.9375 L 23.296875 -26.9375 L 23.296875 -23.296875 Z M 8.640625 -27.875 L 8.640625 -31.515625 L 5 -31.515625 L 5 -27.875 Z M 13.21875 -27.875 L 13.21875 -31.515625 L 9.578125 -31.515625 L 9.578125 -27.875 Z M 26.9375 -27.875 L 26.9375 -31.515625 L 23.296875 -31.515625 L 23.296875 -27.875 Z M 8.640625 -32.453125 L 8.640625 -36.09375 L 5 -36.09375 L 5 -32.453125 Z M 26.9375 -32.453125 L 26.9375 -36.09375 L 23.296875 -36.09375 L 23.296875 -32.453125 Z M 0 0 L 0 -41.171875 L 32.015625 -41.171875 L 32.015625 0 Z M 0 0 "/></g></g></g><g fill="#ffffff" fill-opacity="1"><g transform="translate(198.991356, 113.802473)"><g><path d="M 13.21875 -5 L 13.21875 -8.640625 L 9.578125 -8.640625 L 9.578125 -5 Z M 17.796875 -5 L 17.796875 -8.640625 L 14.15625 -8.640625 L 14.15625 -5 Z M 22.375 -5 L 22.375 -8.640625 L 18.71875 -8.640625 L 18.71875 -5 Z M 8.640625 -9.578125 L 8.640625 -13.21875 L 5 -13.21875 L 5 -9.578125 Z M 26.9375 -9.578125 L 26.9375 -13.21875 L 23.296875 -13.21875 L 23.296875 -9.578125 Z M 26.9375 -14.15625 L 26.9375 -17.796875 L 23.296875 -17.796875 L 23.296875 -14.15625 Z M 13.21875 -18.71875 L 13.21875 -22.375 L 9.578125 -22.375 L 9.578125 -18.71875 Z M 17.796875 -18.71875 L 17.796875 -22.375 L 14.15625 -22.375 L 14.15625 -18.71875 Z M 22.375 -18.71875 L 22.375 -22.375 L 18.71875 -22.375 L 18.71875 -18.71875 Z M 8.640625 -23.296875 L 8.640625 -26.9375 L 5 -26.9375 L 5 -23.296875 Z M 8.640625 -27.875 L 8.640625 -31.515625 L 5 -31.515625 L 5 -27.875 Z M 26.9375 -27.875 L 26.9375 -31.515625 L 23.296875 -31.515625 L 23.296875 -27.875 Z M 13.21875 -32.453125 L 13.21875 -36.09375 L 9.578125 -36.09375 L 9.578125 -32.453125 Z M 17.796875 -32.453125 L 17.796875 -36.09375 L 14.15625 -36.09375 L 14.15625 -32.453125 Z M 22.375 -32.453125 L 22.375 -36.09375 L 18.71875 -36.09375 L 18.71875 -32.453125 Z M 0 0 L 0 -41.171875 L 32.015625 -41.171875 L 32.015625 0 Z M 0 0 "/></g></g></g><g fill="#ffffff" fill-opacity="1"><g transform="translate(234.514269, 113.802473)"><g><path d="M 0 0 L 0 -41.171875 L 32.015625 -41.171875 L 32.015625 0 Z M 0 0 "/></g></g></g><g fill="#ffffff" fill-opacity="1"><g transform="translate(270.037183, 113.802473)"><g><path d="M 17.796875 -9.578125 L 17.796875 -13.21875 L 14.15625 -13.21875 L 14.15625 -9.578125 Z M 17.796875 -14.15625 L 17.796875 -17.796875 L 14.15625 -17.796875 L 14.15625 -14.15625 Z M 8.640625 -18.71875 L 8.640625 -22.375 L 5 -22.375 L 5 -18.71875 Z M 13.21875 -18.71875 L 13.21875 -22.375 L 9.578125 -22.375 L 9.578125 -18.71875 Z M 17.796875 -18.71875 L 17.796875 -22.375 L 14.15625 -22.375 L 14.15625 -18.71875 Z M 22.375 -18.71875 L 22.375 -22.375 L 18.71875 -22.375 L 18.71875 -18.71875 Z M 26.9375 -18.71875 L 26.9375 -22.375 L 23.296875 -22.375 L 23.296875 -18.71875 Z M 17.796875 -23.296875 L 17.796875 -26.9375 L 14.15625 -26.9375 L 14.15625 -23.296875 Z M 17.796875 -27.875 L 17.796875 -31.515625 L 14.15625 -31.515625 L 14.15625 -27.875 Z M 0 0 L 0 -41.171875 L 32.015625 -41.171875 L 32.015625 0 Z M 0 0 "/></g></g></g><g fill="#ffffff" fill-opacity="1"><g transform="translate(305.56011, 113.802473)"><g><path d="M 0 0 L 0 -41.171875 L 32.015625 -41.171875 L 32.015625 0 Z M 0 0 "/></g></g></g><g fill="#ffffff" fill-opacity="1"><g transform="translate(341.083037, 113.802473)"><g><path d="M 13.21875 -5 L 13.21875 -8.640625 L 9.578125 -8.640625 L 9.578125 -5 Z M 17.796875 -5 L 17.796875 -8.640625 L 14.15625 -8.640625 L 14.15625 -5 Z M 22.375 -5 L 22.375 -8.640625 L 18.71875 -8.640625 L 18.71875 -5 Z M 8.640625 -9.578125 L 8.640625 -13.21875 L 5 -13.21875 L 5 -9.578125 Z M 26.9375 -9.578125 L 26.9375 -13.21875 L 23.296875 -13.21875 L 23.296875 -9.578125 Z M 8.640625 -14.15625 L 8.640625 -17.796875 L 5 -17.796875 L 5 -14.15625 Z M 8.640625 -18.71875 L 8.640625 -22.375 L 5 -22.375 L 5 -18.71875 Z M 8.640625 -23.296875 L 8.640625 -26.9375 L 5 -26.9375 L 5 -23.296875 Z M 8.640625 -27.875 L 8.640625 -31.515625 L 5 -31.515625 L 5 -27.875 Z M 26.9375 -27.875 L 26.9375 -31.515625 L 23.296875 -31.515625 L 23.296875 -27.875 Z M 13.21875 -32.453125 L 13.21875 -36.09375 L 9.578125 -36.09375 L 9.578125 -32.453125 Z M 17.796875 -32.453125 L 17.796875 -36.09375 L 14.15625 -36.09375 L 14.15625 -32.453125 Z M 22.375 -32.453125 L 22.375 -36.09375 L 18.71875 -36.09375 L 18.71875 -32.453125 Z M 0 0 L 0 -41.171875 L 32.015625 -41.171875 L 32.015625 0 Z M 0 0 "/></g></g></g><g fill="#ffffff" fill-opacity="1"><g transform="translate(376.605964, 113.802473)"><g><path d="M 13.21875 -5 L 13.21875 -8.640625 L 9.578125 -8.640625 L 9.578125 -5 Z M 17.796875 -5 L 17.796875 -8.640625 L 14.15625 -8.640625 L 14.15625 -5 Z M 22.375 -5 L 22.375 -8.640625 L 18.71875 -8.640625 L 18.71875 -5 Z M 8.640625 -9.578125 L 8.640625 -13.21875 L 5 -13.21875 L 5 -9.578125 Z M 26.9375 -9.578125 L 26.9375 -13.21875 L 23.296875 -13.21875 L 23.296875 -9.578125 Z M 8.640625 -14.15625 L 8.640625 -17.796875 L 5 -17.796875 L 5 -14.15625 Z M 26.9375 -14.15625 L 26.9375 -17.796875 L 23.296875 -17.796875 L 23.296875 -14.15625 Z M 8.640625 -18.71875 L 8.640625 -22.375 L 5 -22.375 L 5 -18.71875 Z M 26.9375 -18.71875 L 26.9375 -22.375 L 23.296875 -22.375 L 23.296875 -18.71875 Z M 8.640625 -23.296875 L 8.640625 -26.9375 L 5 -26.9375 L 5 -23.296875 Z M 26.9375 -23.296875 L 26.9375 -26.9375 L 23.296875 -26.9375 L 23.296875 -23.296875 Z M 8.640625 -27.875 L 8.640625 -31.515625 L 5 -31.515625 L 5 -27.875 Z M 26.9375 -27.875 L 26.9375 -31.515625 L 23.296875 -31.515625 L 23.296875 -27.875 Z M 13.21875 -32.453125 L 13.21875 -36.09375 L 9.578125 -36.09375 L 9.578125 -32.453125 Z M 17.796875 -32.453125 L 17.796875 -36.09375 L 14.15625 -36.09375 L 14.15625 -32.453125 Z M 22.375 -32.453125 L 22.375 -36.09375 L 18.71875 -36.09375 L 18.71875 -32.453125 Z M 0 0 L 0 -41.171875 L 32.015625 -41.171875 L 32.015625 0 Z M 0 0 "/></g></g></g><g fill="#ffffff" fill-opacity="1"><g transform="translate(412.128891, 113.802473)"><g><path d="M 8.640625 -5 L 8.640625 -8.640625 L 5 -8.640625 L 5 -5 Z M 26.9375 -5 L 26.9375 -8.640625 L 23.296875 -8.640625 L 23.296875 -5 Z M 8.640625 -9.578125 L 8.640625 -13.21875 L 5 -13.21875 L 5 -9.578125 Z M 26.9375 -9.578125 L 26.9375 -13.21875 L 23.296875 -13.21875 L 23.296875 -9.578125 Z M 8.640625 -14.15625 L 8.640625 -17.796875 L 5 -17.796875 L 5 -14.15625 Z M 17.796875 -14.15625 L 17.796875 -17.796875 L 14.15625 -17.796875 L 14.15625 -14.15625 Z M 26.9375 -14.15625 L 26.9375 -17.796875 L 23.296875 -17.796875 L 23.296875 -14.15625 Z M 8.640625 -18.71875 L 8.640625 -22.375 L 5 -22.375 L 5 -18.71875 Z M 17.796875 -18.71875 L 17.796875 -22.375 L 14.15625 -22.375 L 14.15625 -18.71875 Z M 26.9375 -18.71875 L 26.9375 -22.375 L 23.296875 -22.375 L 23.296875 -18.71875 Z M 8.640625 -23.296875 L 8.640625 -26.9375 L 5 -26.9375 L 5 -23.296875 Z M 17.796875 -23.296875 L 17.796875 -26.9375 L 14.15625 -26.9375 L 14.15625 -23.296875 Z M 26.9375 -23.296875 L 26.9375 -26.9375 L 23.296875 -26.9375 L 23.296875 -23.296875 Z M 8.640625 -27.875 L 8.640625 -31.515625 L 5 -31.515625 L 5 -27.875 Z M 13.21875 -27.875 L 13.21875 -31.515625 L 9.578125 -31.515625 L 9.578125 -27.875 Z M 22.375 -27.875 L 22.375 -31.515625 L 18.71875 -31.515625 L 18.71875 -27.875 Z M 26.9375 -27.875 L 26.9375 -31.515625 L 23.296875 -31.515625 L 23.296875 -27.875 Z M 8.640625 -32.453125 L 8.640625 -36.09375 L 5 -36.09375 L 5 -32.453125 Z M 26.9375 -32.453125 L 26.9375 -36.09375 L 23.296875 -36.09375 L 23.296875 -32.453125 Z M 0 0 L 0 -41.171875 L 32.015625 -41.171875 L 32.015625 0 Z M 0 0 "/></g></g></g><g fill="#ffffff" fill-opacity="1"><g transform="translate(447.651818, 113.802473)"><g><path d="M 8.640625 -5 L 8.640625 -8.640625 L 5 -8.640625 L 5 -5 Z M 8.640625 -9.578125 L 8.640625 -13.21875 L 5 -13.21875 L 5 -9.578125 Z M 8.640625 -14.15625 L 8.640625 -17.796875 L 5 -17.796875 L 5 -14.15625 Z M 8.640625 -18.71875 L 8.640625 -22.375 L 5 -22.375 L 5 -18.71875 Z M 13.21875 -18.71875 L 13.21875 -22.375 L 9.578125 -22.375 L 9.578125 -18.71875 Z M 17.796875 -18.71875 L 17.796875 -22.375 L 14.15625 -22.375 L 14.15625 -18.71875 Z M 22.375 -18.71875 L 22.375 -22.375 L 18.71875 -22.375 L 18.71875 -18.71875 Z M 8.640625 -23.296875 L 8.640625 -26.9375 L 5 -26.9375 L 5 -23.296875 Z M 26.9375 -23.296875 L 26.9375 -26.9375 L 23.296875 -26.9375 L 23.296875 -23.296875 Z M 8.640625 -27.875 L 8.640625 -31.515625 L 5 -31.515625 L 5 -27.875 Z M 26.9375 -27.875 L 26.9375 -31.515625 L 23.296875 -31.515625 L 23.296875 -27.875 Z M 8.640625 -32.453125 L 8.640625 -36.09375 L 5 -36.09375 L 5 -32.453125 Z M 13.21875 -32.453125 L 13.21875 -36.09375 L 9.578125 -36.09375 L 9.578125 -32.453125 Z M 17.796875 -32.453125 L 17.796875 -36.09375 L 14.15625 -36.09375 L 14.15625 -32.453125 Z M 22.375 -32.453125 L 22.375 -36.09375 L 18.71875 -36.09375 L 18.71875 -32.453125 Z M 0 0 L 0 -41.171875 L 32.015625 -41.171875 L 32.015625 0 Z M 0 0 "/></g></g></g><g fill="#ffffff" fill-opacity="1"><g transform="translate(483.174744, 113.802473)"><g><path d="M 13.21875 -5 L 13.21875 -8.640625 L 9.578125 -8.640625 L 9.578125 -5 Z M 17.796875 -5 L 17.796875 -8.640625 L 14.15625 -8.640625 L 14.15625 -5 Z M 22.375 -5 L 22.375 -8.640625 L 18.71875 -8.640625 L 18.71875 -5 Z M 8.640625 -9.578125 L 8.640625 -13.21875 L 5 -13.21875 L 5 -9.578125 Z M 26.9375 -9.578125 L 26.9375 -13.21875 L 23.296875 -13.21875 L 23.296875 -9.578125 Z M 8.640625 -14.15625 L 8.640625 -17.796875 L 5 -17.796875 L 5 -14.15625 Z M 26.9375 -14.15625 L 26.9375 -17.796875 L 23.296875 -17.796875 L 23.296875 -14.15625 Z M 8.640625 -18.71875 L 8.640625 -22.375 L 5 -22.375 L 5 -18.71875 Z M 26.9375 -18.71875 L 26.9375 -22.375 L 23.296875 -22.375 L 23.296875 -18.71875 Z M 8.640625 -23.296875 L 8.640625 -26.9375 L 5 -26.9375 L 5 -23.296875 Z M 26.9375 -23.296875 L 26.9375 -26.9375 L 23.296875 -26.9375 L 23.296875 -23.296875 Z M 8.640625 -27.875 L 8.640625 -31.515625 L 5 -31.515625 L 5 -27.875 Z M 26.9375 -27.875 L 26.9375 -31.515625 L 23.296875 -31.515625 L 23.296875 -27.875 Z M 8.640625 -32.453125 L 8.640625 -36.09375 L 5 -36.09375 L 5 -32.453125 Z M 26.9375 -32.453125 L 26.9375 -36.09375 L 23.296875 -36.09375 L 23.296875 -32.453125 Z M 0 0 L 0 -41.171875 L 32.015625 -41.171875 L 32.015625 0 Z M 0 0 "/></g></g></g><g fill="#ffffff" fill-opacity="1"><g transform="translate(518.697645, 113.802473)"><g><path d="M 17.796875 -5 L 17.796875 -8.640625 L 14.15625 -8.640625 L 14.15625 -5 Z M 17.796875 -9.578125 L 17.796875 -13.21875 L 14.15625 -13.21875 L 14.15625 -9.578125 Z M 17.796875 -14.15625 L 17.796875 -17.796875 L 14.15625 -17.796875 L 14.15625 -14.15625 Z M 17.796875 -18.71875 L 17.796875 -22.375 L 14.15625 -22.375 L 14.15625 -18.71875 Z M 17.796875 -23.296875 L 17.796875 -26.9375 L 14.15625 -26.9375 L 14.15625 -23.296875 Z M 17.796875 -27.875 L 17.796875 -31.515625 L 14.15625 -31.515625 L 14.15625 -27.875 Z M 8.640625 -32.453125 L 8.640625 -36.09375 L 5 -36.09375 L 5 -32.453125 Z M 13.21875 -32.453125 L 13.21875 -36.09375 L 9.578125 -36.09375 L 9.578125 -32.453125 Z M 17.796875 -32.453125 L 17.796875 -36.09375 L 14.15625 -36.09375 L 14.15625 -32.453125 Z M 22.375 -32.453125 L 22.375 -36.09375 L 18.71875 -36.09375 L 18.71875 -32.453125 Z M 26.9375 -32.453125 L 26.9375 -36.09375 L 23.296875 -36.09375 L 23.296875 -32.453125 Z M 0 0 L 0 -41.171875 L 32.015625 -41.171875 L 32.015625 0 Z M 0 0 "/></g></g></g><g fill="#ffffff" fill-opacity="1"><g transform="translate(554.220545, 113.802473)"><g><path d="M 8.640625 -5 L 8.640625 -8.640625 L 5 -8.640625 L 5 -5 Z M 26.9375 -5 L 26.9375 -8.640625 L 23.296875 -8.640625 L 23.296875 -5 Z M 8.640625 -9.578125 L 8.640625 -13.21875 L 5 -13.21875 L 5 -9.578125 Z M 26.9375 -9.578125 L 26.9375 -13.21875 L 23.296875 -13.21875 L 23.296875 -9.578125 Z M 8.640625 -14.15625 L 8.640625 -17.796875 L 5 -17.796875 L 5 -14.15625 Z M 26.9375 -14.15625 L 26.9375 -17.796875 L 23.296875 -17.796875 L 23.296875 -14.15625 Z M 8.640625 -18.71875 L 8.640625 -22.375 L 5 -22.375 L 5 -18.71875 Z M 13.21875 -18.71875 L 13.21875 -22.375 L 9.578125 -22.375 L 9.578125 -18.71875 Z M 17.796875 -18.71875 L 17.796875 -22.375 L 14.15625 -22.375 L 14.15625 -18.71875 Z M 22.375 -18.71875 L 22.375 -22.375 L 18.71875 -22.375 L 18.71875 -18.71875 Z M 26.9375 -18.71875 L 26.9375 -22.375 L 23.296875 -22.375 L 23.296875 -18.71875 Z M 8.640625 -23.296875 L 8.640625 -26.9375 L 5 -26.9375 L 5 -23.296875 Z M 26.9375 -23.296875 L 26.9375 -26.9375 L 23.296875 -26.9375 L 23.296875 -23.296875 Z M 13.21875 -27.875 L 13.21875 -31.515625 L 9.578125 -31.515625 L 9.578125 -27.875 Z M 22.375 -27.875 L 22.375 -31.515625 L 18.71875 -31.515625 L 18.71875 -27.875 Z M 17.796875 -32.453125 L 17.796875 -36.09375 L 14.15625 -36.09375 L 14.15625 -32.453125 Z M 0 0 L 0 -41.171875 L 32.015625 -41.171875 L 32.015625 0 Z M 0 0 "/></g></g></g><g fill="#ffffff" fill-opacity="1"><g transform="translate(589.743446, 113.802473)"><g><path d="M 17.796875 -5 L 17.796875 -8.640625 L 14.15625 -8.640625 L 14.15625 -5 Z M 17.796875 -9.578125 L 17.796875 -13.21875 L 14.15625 -13.21875 L 14.15625 -9.578125 Z M 17.796875 -14.15625 L 17.796875 -17.796875 L 14.15625 -17.796875 L 14.15625 -14.15625 Z M 17.796875 -18.71875 L 17.796875 -22.375 L 14.15625 -22.375 L 14.15625 -18.71875 Z M 17.796875 -23.296875 L 17.796875 -26.9375 L 14.15625 -26.9375 L 14.15625 -23.296875 Z M 17.796875 -27.875 L 17.796875 -31.515625 L 14.15625 -31.515625 L 14.15625 -27.875 Z M 8.640625 -32.453125 L 8.640625 -36.09375 L 5 -36.09375 L 5 -32.453125 Z M 13.21875 -32.453125 L 13.21875 -36.09375 L 9.578125 -36.09375 L 9.578125 -32.453125 Z M 17.796875 -32.453125 L 17.796875 -36.09375 L 14.15625 -36.09375 L 14.15625 -32.453125 Z M 22.375 -32.453125 L 22.375 -36.09375 L 18.71875 -36.09375 L 18.71875 -32.453125 Z M 26.9375 -32.453125 L 26.9375 -36.09375 L 23.296875 -36.09375 L 23.296875 -32.453125 Z M 0 0 L 0 -41.171875 L 32.015625 -41.171875 L 32.015625 0 Z M 0 0 "/></g></g></g><g fill="#ffffff" fill-opacity="1"><g transform="translate(625.266346, 113.802473)"><g><path d="M 13.21875 -5 L 13.21875 -8.640625 L 9.578125 -8.640625 L 9.578125 -5 Z M 17.796875 -5 L 17.796875 -8.640625 L 14.15625 -8.640625 L 14.15625 -5 Z M 22.375 -5 L 22.375 -8.640625 L 18.71875 -8.640625 L 18.71875 -5 Z M 17.796875 -9.578125 L 17.796875 -13.21875 L 14.15625 -13.21875 L 14.15625 -9.578125 Z M 17.796875 -14.15625 L 17.796875 -17.796875 L 14.15625 -17.796875 L 14.15625 -14.15625 Z M 17.796875 -18.71875 L 17.796875 -22.375 L 14.15625 -22.375 L 14.15625 -18.71875 Z M 17.796875 -23.296875 L 17.796875 -26.9375 L 14.15625 -26.9375 L 14.15625 -23.296875 Z M 17.796875 -27.875 L 17.796875 -31.515625 L 14.15625 -31.515625 L 14.15625 -27.875 Z M 13.21875 -32.453125 L 13.21875 -36.09375 L 9.578125 -36.09375 L 9.578125 -32.453125 Z M 17.796875 -32.453125 L 17.796875 -36.09375 L 14.15625 -36.09375 L 14.15625 -32.453125 Z M 22.375 -32.453125 L 22.375 -36.09375 L 18.71875 -36.09375 L 18.71875 -32.453125 Z M 0 0 L 0 -41.171875 L 32.015625 -41.171875 L 32.015625 0 Z M 0 0 "/></g></g></g><g fill="#ffffff" fill-opacity="1"><g transform="translate(660.789247, 113.802473)"><g><path d="M 13.21875 -5 L 13.21875 -8.640625 L 9.578125 -8.640625 L 9.578125 -5 Z M 17.796875 -5 L 17.796875 -8.640625 L 14.15625 -8.640625 L 14.15625 -5 Z M 22.375 -5 L 22.375 -8.640625 L 18.71875 -8.640625 L 18.71875 -5 Z M 8.640625 -9.578125 L 8.640625 -13.21875 L 5 -13.21875 L 5 -9.578125 Z M 26.9375 -9.578125 L 26.9375 -13.21875 L 23.296875 -13.21875 L 23.296875 -9.578125 Z M 8.640625 -14.15625 L 8.640625 -17.796875 L 5 -17.796875 L 5 -14.15625 Z M 26.9375 -14.15625 L 26.9375 -17.796875 L 23.296875 -17.796875 L 23.296875 -14.15625 Z M 8.640625 -18.71875 L 8.640625 -22.375 L 5 -22.375 L 5 -18.71875 Z M 26.9375 -18.71875 L 26.9375 -22.375 L 23.296875 -22.375 L 23.296875 -18.71875 Z M 8.640625 -23.296875 L 8.640625 -26.9375 L 5 -26.9375 L 5 -23.296875 Z M 26.9375 -23.296875 L 26.9375 -26.9375 L 23.296875 -26.9375 L 23.296875 -23.296875 Z M 8.640625 -27.875 L 8.640625 -31.515625 L 5 -31.515625 L 5 -27.875 Z M 26.9375 -27.875 L 26.9375 -31.515625 L 23.296875 -31.515625 L 23.296875 -27.875 Z M 13.21875 -32.453125 L 13.21875 -36.09375 L 9.578125 -36.09375 L 9.578125 -32.453125 Z M 17.796875 -32.453125 L 17.796875 -36.09375 L 14.15625 -36.09375 L 14.15625 -32.453125 Z M 22.375 -32.453125 L 22.375 -36.09375 L 18.71875 -36.09375 L 18.71875 -32.453125 Z M 0 0 L 0 -41.171875 L 32.015625 -41.171875 L 32.015625 0 Z M 0 0 "/></g></g></g><g fill="#ffffff" fill-opacity="1"><g transform="translate(696.312147, 113.802473)"><g><path d="M 8.640625 -5 L 8.640625 -8.640625 L 5 -8.640625 L 5 -5 Z M 26.9375 -5 L 26.9375 -8.640625 L 23.296875 -8.640625 L 23.296875 -5 Z M 8.640625 -9.578125 L 8.640625 -13.21875 L 5 -13.21875 L 5 -9.578125 Z M 26.9375 -9.578125 L 26.9375 -13.21875 L 23.296875 -13.21875 L 23.296875 -9.578125 Z M 8.640625 -14.15625 L 8.640625 -17.796875 L 5 -17.796875 L 5 -14.15625 Z M 26.9375 -14.15625 L 26.9375 -17.796875 L 23.296875 -17.796875 L 23.296875 -14.15625 Z M 8.640625 -18.71875 L 8.640625 -22.375 L 5 -22.375 L 5 -18.71875 Z M 22.375 -18.71875 L 22.375 -22.375 L 18.71875 -22.375 L 18.71875 -18.71875 Z M 26.9375 -18.71875 L 26.9375 -22.375 L 23.296875 -22.375 L 23.296875 -18.71875 Z M 8.640625 -23.296875 L 8.640625 -26.9375 L 5 -26.9375 L 5 -23.296875 Z M 17.796875 -23.296875 L 17.796875 -26.9375 L 14.15625 -26.9375 L 14.15625 -23.296875 Z M 26.9375 -23.296875 L 26.9375 -26.9375 L 23.296875 -26.9375 L 23.296875 -23.296875 Z M 8.640625 -27.875 L 8.640625 -31.515625 L 5 -31.515625 L 5 -27.875 Z M 13.21875 -27.875 L 13.21875 -31.515625 L 9.578125 -31.515625 L 9.578125 -27.875 Z M 26.9375 -27.875 L 26.9375 -31.515625 L 23.296875 -31.515625 L 23.296875 -27.875 Z M 8.640625 -32.453125 L 8.640625 -36.09375 L 5 -36.09375 L 5 -32.453125 Z M 26.9375 -32.453125 L 26.9375 -36.09375 L 23.296875 -36.09375 L 23.296875 -32.453125 Z M 0 0 L 0 -41.171875 L 32.015625 -41.171875 L 32.015625 0 Z M 0 0 "/></g></g></g></svg>