<svg xmlns="http://www.w3.org/2000/svg" xmlns:xlink="http://www.w3.org/1999/xlink" width="500" zoomAndPan="magnify" viewBox="0 0 375 374.999991" height="500" preserveAspectRatio="xMidYMid meet" version="1.0"><defs><clipPath id="641a3123af"><path d="M 12.5 44 L 364.25 44 L 364.25 329 L 12.5 329 Z M 12.5 44 " clip-rule="nonzero"/></clipPath></defs><g clip-path="url(#641a3123af)"><path fill="#ffffff" d="M 46.808594 78.648438 C 46.808594 69.871094 47 61.660156 46.714844 53.449219 C 46.621094 46.9375 49.359375 43.824219 55.773438 44.765625 C 81.351562 48.351562 107.398438 50.242188 132.3125 56.375 C 156.660156 62.414062 176.101562 77.703125 188.085938 101.769531 C 209.886719 62.414062 246.785156 51.84375 286.515625 46.84375 C 297.9375 45.425781 309.542969 45.523438 321.058594 44.765625 C 327.664062 44.296875 330.117188 47.21875 329.832031 53.730469 C 329.457031 61.941406 329.738281 70.152344 329.738281 78.835938 C 339.082031 80.25 347.574219 81.761719 356.070312 82.703125 C 361.730469 83.367188 364.28125 85.726562 364.183594 91.671875 C 364.089844 157.257812 364.089844 222.847656 364.183594 288.53125 C 364.183594 296.554688 360.410156 297.027344 353.898438 296.082031 C 319.074219 290.609375 284.347656 290.042969 249.898438 299.574219 C 229.515625 305.234375 210.828125 313.824219 194.125 327.128906 C 191.765625 329.019531 185.632812 329.679688 183.554688 328.074219 C 146.75 298.722656 103.8125 291.175781 58.511719 292.683594 C 46.335938 293.0625 34.070312 294.570312 21.988281 296.363281 C 15.289062 297.402344 12.550781 295.515625 12.648438 288.816406 C 12.742188 223.226562 12.742188 157.636719 12.648438 91.953125 C 12.648438 86.101562 14.816406 83.554688 20.667969 82.894531 C 29.066406 81.667969 37.464844 80.15625 46.808594 78.648438 Z M 55.585938 251.160156 C 103.433594 253.332031 150.148438 257.011719 184.40625 299.855469 C 184.40625 294.003906 184.40625 290.609375 184.40625 287.210938 C 184.40625 234.644531 184.121094 182.078125 184.59375 129.515625 C 184.78125 109.976562 177.515625 94.21875 162.792969 82.328125 C 131.554688 56.753906 94.183594 53.921875 55.585938 53.070312 C 55.585938 119.605469 55.585938 184.628906 55.585938 251.160156 Z M 320.492188 251.160156 C 320.492188 184.4375 320.492188 119.039062 320.492188 53.636719 C 286.328125 51.46875 246.878906 59.960938 223.949219 74.589844 C 203.46875 87.707031 191.859375 105.261719 192.238281 130.929688 C 192.992188 182.457031 192.425781 234.078125 192.425781 285.605469 C 192.425781 289.664062 192.425781 293.628906 192.425781 299.667969 C 226.777344 256.917969 273.304688 253.425781 320.492188 251.160156 Z M 329.644531 87.328125 C 329.644531 92.898438 329.644531 96.765625 329.644531 100.636719 C 329.644531 149.613281 329.363281 198.6875 329.832031 247.667969 C 329.929688 257.292969 326.910156 259.9375 317.566406 259.9375 C 303.597656 260.03125 289.441406 260.976562 275.570312 263.050781 C 250.65625 266.828125 226.96875 274.28125 208.941406 293.25 C 203.5625 298.820312 199.789062 305.898438 195.257812 312.3125 C 245.652344 281.738281 299.351562 280.039062 355.03125 287.210938 C 355.03125 221.339844 355.03125 156.316406 355.03125 90.632812 C 346.820312 89.59375 338.988281 88.554688 329.644531 87.328125 Z M 180.820312 312.3125 C 177.421875 307.125 175.0625 300.613281 170.4375 296.835938 C 159.960938 288.25 149.203125 279.472656 137.125 273.621094 C 113.71875 262.296875 87.957031 260.503906 62.285156 259.84375 C 46.902344 259.464844 46.808594 259.371094 46.808594 243.421875 C 46.808594 195.480469 46.808594 147.539062 46.808594 99.597656 C 46.808594 95.726562 46.808594 91.953125 46.808594 87.800781 C 42.75 87.988281 40.203125 87.988281 37.65625 88.367188 C 20.667969 90.539062 20.667969 90.539062 20.667969 107.429688 C 20.667969 163.300781 20.667969 219.167969 20.667969 275.035156 C 20.667969 278.8125 20.667969 282.585938 20.667969 287.398438 C 77.292969 280.039062 130.894531 281.832031 180.820312 312.3125 Z M 180.820312 312.3125 " fill-opacity="1" fill-rule="nonzero"/></g></svg>