<svg xmlns="http://www.w3.org/2000/svg" xmlns:xlink="http://www.w3.org/1999/xlink" width="500" zoomAndPan="magnify" viewBox="0 0 375 374.999991" height="500" preserveAspectRatio="xMidYMid meet" version="1.0"><path fill="#ffffff" d="M 372.164062 110.546875 C 371.65625 101.730469 374.890625 91.871094 369.035156 84.199219 C 358.773438 81.371094 348.539062 78.511719 338.246094 75.988281 C 337.703125 63.234375 338.710938 50.445312 337.777344 37.726562 C 336.292969 29.046875 325.730469 32.070312 319.601562 32.003906 C 266.5 34.660156 217.566406 64.710938 186.335938 106.941406 C 152.75 61.179688 97.695312 29.648438 40.046875 32 C 38.898438 32.976562 36.578125 34.925781 35.398438 35.902344 C 33.648438 49.128906 35.300781 62.625 34.589844 75.949219 C 22.917969 80.660156 5.65625 79.921875 0.101562 93.386719 C 2.289062 98.703125 2.796875 104.457031 2.5625 110.175781 C 2.054688 177.679688 3.027344 245.15625 2.085938 312.628906 C 1.210938 317.710938 2.152344 326.699219 9.453125 325.117188 C 33.046875 316.535156 58.453125 313.441406 83.488281 314.890625 C 117.511719 317.546875 152.847656 325.523438 180.808594 345.914062 C 183.539062 345.914062 188.953125 345.914062 191.644531 345.949219 C 207.125 334.066406 225.898438 327.609375 244.445312 322.257812 C 284.1875 311.121094 327.097656 312.160156 366.164062 325.519531 C 374.503906 324.109375 372.25 314.957031 372.324219 308.894531 C 371.964844 242.800781 372.269531 176.671875 372.164062 110.546875 Z M 16.761719 306.835938 C 16.964844 237.140625 16.730469 167.414062 16.863281 97.722656 C 22.820312 95.601562 28.808594 93.484375 34.800781 91.394531 C 34.667969 147.054688 34.699219 202.722656 34.765625 258.378906 C 33.996094 268.511719 46.648438 266.722656 53.246094 267.363281 C 92.621094 269.011719 128.457031 289.039062 157.0625 315.050781 C 112.90625 297.214844 62.628906 293.175781 16.761719 306.835938 Z M 208.980469 318.621094 C 230.820312 297.25 255.996094 278.070312 285.914062 269.820312 C 301.328125 264.601562 317.644531 264.101562 333.664062 262.585938 C 338.84375 261.945312 337.769531 255.488281 338.140625 251.851562 C 338.105469 198.609375 338.074219 145.375 338.105469 92.132812 C 344.53125 94.085938 350.964844 96.035156 357.421875 97.921875 C 358.332031 167.617188 357.457031 237.347656 357.859375 307.035156 C 308.898438 293.480469 255.425781 298.324219 208.980469 318.621094 Z M 208.980469 318.621094 " fill-opacity="1" fill-rule="nonzero"/></svg>