<svg xmlns="http://www.w3.org/2000/svg" xmlns:xlink="http://www.w3.org/1999/xlink" width="500" zoomAndPan="magnify" viewBox="0 0 375 374.999991" height="500" preserveAspectRatio="xMidYMid meet" version="1.0"><defs><clipPath id="23d8822395"><path d="M 11.238281 29.191406 L 171 29.191406 L 171 356.867188 L 11.238281 356.867188 Z M 11.238281 29.191406 " clip-rule="nonzero"/></clipPath><clipPath id="a89f770e96"><path d="M 192.351562 29.191406 L 352.246094 29.191406 L 352.246094 356.867188 L 192.351562 356.867188 Z M 192.351562 29.191406 " clip-rule="nonzero"/></clipPath></defs><path fill="#ff1469" d="M 124.15625 285.660156 L 123.640625 286.0625 C 121.351562 288.207031 117.132812 288.152344 114.621094 285.777344 C 113.417969 284.5625 112.726562 282.8125 112.726562 280.976562 C 112.726562 279.304688 113.292969 277.800781 114.40625 276.503906 C 114.449219 276.453125 114.496094 276.394531 114.539062 276.339844 L 114.730469 276.082031 C 117.496094 273.601562 121.644531 273.757812 124.089844 276.222656 C 125.339844 277.578125 126.058594 279.308594 126.058594 280.976562 C 126.058594 282.652344 125.351562 284.390625 124.15625 285.660156 Z M 110.363281 271.824219 C 110.234375 271.945312 110.117188 272.078125 110.015625 272.214844 L 109.710938 272.625 C 107.703125 275.003906 106.636719 277.890625 106.636719 280.976562 C 106.636719 284.410156 107.972656 287.722656 110.363281 290.132812 C 112.835938 292.476562 116.023438 293.769531 119.328125 293.769531 C 122.550781 293.769531 125.5625 292.613281 127.5625 290.710938 L 128.046875 290.347656 C 128.164062 290.257812 128.269531 290.164062 128.371094 290.0625 C 130.773438 287.636719 132.148438 284.328125 132.148438 280.976562 C 132.148438 277.75 130.875 274.59375 128.371094 271.890625 C 123.738281 267.21875 115.421875 267.023438 110.363281 271.824219 " fill-opacity="1" fill-rule="nonzero"/><path fill="#ff1469" d="M 105.222656 220.003906 L 104.707031 220.410156 C 102.253906 222.714844 98.09375 222.554688 95.683594 220.121094 C 94.445312 218.871094 93.792969 217.210938 93.792969 215.324219 C 93.792969 213.652344 94.359375 212.148438 95.472656 210.851562 C 95.519531 210.792969 95.566406 210.738281 95.605469 210.683594 L 95.832031 210.382812 C 98.121094 208.199219 102.054688 207.996094 104.757812 210.222656 C 104.863281 210.367188 104.976562 210.511719 105.109375 210.640625 C 106.324219 211.875 106.996094 213.539062 106.996094 215.324219 C 106.996094 217.152344 106.386719 218.765625 105.222656 220.003906 Z M 109.363281 206.167969 C 104.292969 201.367188 95.980469 201.570312 91.359375 206.238281 C 91.261719 206.339844 91.164062 206.445312 91.082031 206.5625 L 90.777344 206.964844 C 88.765625 209.347656 87.703125 212.234375 87.703125 215.324219 C 87.703125 218.804688 89.003906 222.03125 91.359375 224.40625 C 93.765625 226.835938 97.058594 228.230469 100.394531 228.230469 C 103.484375 228.230469 106.578125 227 108.632812 225.054688 L 109.113281 224.691406 C 109.230469 224.601562 109.339844 224.507812 109.4375 224.40625 C 111.792969 222.027344 113.089844 218.800781 113.089844 215.324219 C 113.089844 212.160156 111.96875 209.191406 109.917969 206.871094 C 109.773438 206.613281 109.585938 206.378906 109.363281 206.167969 " fill-opacity="1" fill-rule="nonzero"/><g clip-path="url(#23d8822395)"><path fill="#ff1469" d="M 167.695312 291.941406 C 166.007812 291.941406 164.648438 293.304688 164.648438 294.984375 L 164.648438 313.742188 C 164.648438 334.164062 148.214844 350.773438 128.015625 350.773438 C 107.8125 350.773438 91.378906 334.164062 91.378906 313.742188 L 91.378906 311.1875 C 91.378906 311.160156 91.378906 311.132812 91.378906 311.109375 C 91.378906 311.101562 91.378906 311.101562 91.378906 311.101562 L 91.378906 311.097656 C 91.371094 310.859375 91.339844 310.628906 91.277344 310.40625 C 91.277344 310.40625 91.277344 310.402344 91.277344 310.402344 C 91.140625 309.890625 90.875 309.429688 90.515625 309.0625 C 90.46875 309.042969 90.507812 309.054688 90.507812 309.054688 C 90.507812 309.050781 90.507812 309.046875 90.5 309.050781 L 90.5 309.046875 C 90.5 309.042969 90.496094 309.042969 90.496094 309.042969 L 90.496094 309.039062 C 90.140625 308.6875 89.707031 308.417969 89.210938 308.269531 C 89.210938 308.269531 89.207031 308.269531 89.203125 308.269531 C 88.957031 308.195312 88.699219 308.152344 88.429688 308.144531 C 88.414062 308.144531 88.394531 308.144531 88.378906 308.144531 C 66.761719 307.804688 49.171875 289.714844 49.171875 267.820312 C 49.171875 261.289062 50.636719 254.992188 53.414062 249.605469 C 53.597656 249.253906 53.703125 248.882812 53.742188 248.507812 C 53.742188 248.503906 53.742188 248.5 53.742188 248.496094 C 53.777344 248.113281 53.734375 247.726562 53.632812 247.363281 C 53.503906 246.917969 53.273438 246.503906 52.953125 246.15625 C 52.953125 246.152344 52.949219 246.152344 52.949219 246.148438 C 52.964844 246.152344 52.949219 246.144531 52.949219 246.144531 C 52.949219 246.144531 52.941406 246.140625 52.941406 246.140625 L 52.941406 246.136719 C 52.714844 245.894531 52.445312 245.683594 52.136719 245.519531 C 38.628906 238.347656 30.234375 224.394531 30.234375 209.109375 C 30.234375 203.214844 31.515625 197.386719 34.042969 191.78125 C 34.152344 191.554688 34.226562 191.3125 34.277344 191.070312 C 34.367188 190.628906 34.351562 190.183594 34.253906 189.761719 C 34.144531 189.320312 33.945312 188.902344 33.648438 188.539062 C 33.496094 188.355469 33.324219 188.1875 33.128906 188.039062 C 23.085938 180.121094 17.332031 168.226562 17.332031 155.390625 C 17.332031 136.046875 30.890625 119.1875 49.574219 115.265625 C 49.789062 115.226562 49.992188 115.164062 50.1875 115.082031 C 50.605469 114.910156 50.972656 114.648438 51.265625 114.328125 C 51.570312 114 51.796875 113.605469 51.933594 113.167969 C 51.996094 112.964844 52.035156 112.757812 52.054688 112.546875 C 54.203125 93.859375 69.839844 79.191406 88.453125 78.402344 C 88.777344 78.390625 89.09375 78.324219 89.382812 78.21875 C 89.382812 78.21875 89.382812 78.214844 89.394531 78.214844 L 89.398438 78.214844 C 89.832031 78.054688 90.214844 77.800781 90.519531 77.480469 C 90.835938 77.152344 91.082031 76.761719 91.226562 76.320312 C 91.226562 76.320312 91.226562 76.308594 91.226562 76.308594 C 91.230469 76.308594 91.230469 76.308594 91.230469 76.308594 C 91.328125 76.003906 91.378906 75.679688 91.378906 75.34375 L 91.378906 72.3125 C 91.378906 51.898438 107.8125 35.285156 128.015625 35.285156 C 148.214844 35.285156 164.648438 51.898438 164.648438 72.3125 L 164.648438 84.863281 C 164.648438 86.546875 166.007812 87.90625 167.695312 87.90625 C 169.375 87.90625 170.738281 86.546875 170.738281 84.863281 L 170.738281 72.3125 C 170.738281 48.539062 151.574219 29.195312 128.015625 29.195312 C 104.453125 29.195312 85.289062 48.539062 85.289062 72.3125 L 85.289062 72.539062 C 65.691406 74.699219 49.503906 90.105469 46.289062 109.78125 C 25.855469 115.050781 11.238281 133.890625 11.238281 155.390625 C 11.238281 169.335938 17.171875 182.320312 27.605469 191.371094 C 25.308594 197.125 24.144531 203.078125 24.144531 209.109375 C 24.144531 225.679688 32.738281 240.882812 46.753906 249.460938 C 44.34375 255.070312 43.078125 261.355469 43.078125 267.820312 C 43.078125 292.003906 61.753906 312.152344 85.289062 314.085938 C 85.476562 337.707031 104.566406 356.867188 128.015625 356.867188 C 151.574219 356.867188 170.738281 337.523438 170.738281 313.742188 L 170.738281 294.984375 C 170.738281 293.304688 169.375 291.941406 167.695312 291.941406 " fill-opacity="1" fill-rule="nonzero"/></g><path fill="#ff1469" d="M 132.605469 294.308594 C 132.46875 294.445312 132.34375 294.605469 132.234375 294.777344 C 128.691406 298.058594 124.132812 299.859375 119.328125 299.859375 C 114.3125 299.859375 109.644531 297.929688 106.179688 294.425781 C 102.628906 290.839844 100.671875 286.0625 100.671875 280.976562 C 100.671875 276.140625 102.441406 271.585938 105.667969 268.0625 C 105.863281 267.9375 106.046875 267.789062 106.210938 267.617188 C 109.582031 264.109375 114.363281 262.097656 119.328125 262.097656 C 124.347656 262.097656 129.015625 264.027344 132.605469 267.648438 C 136.15625 271.238281 138.113281 275.96875 138.113281 280.976562 C 138.113281 285.984375 136.15625 290.71875 132.605469 294.308594 Z M 136.8125 263.242188 C 132.191406 258.578125 125.984375 256.007812 119.328125 256.007812 C 113.007812 256.007812 106.894531 258.46875 102.421875 262.789062 C 102.21875 262.914062 102.023438 263.066406 101.847656 263.246094 C 97.164062 267.976562 94.578125 274.277344 94.578125 280.976562 C 94.578125 287.675781 97.164062 293.976562 101.847656 298.710938 C 106.46875 303.378906 112.675781 305.949219 119.328125 305.949219 C 125.921875 305.949219 132.160156 303.390625 136.898438 298.746094 C 137.070312 298.578125 137.226562 298.375 137.351562 298.160156 C 141.066406 294.226562 143.378906 289.304688 144.023438 284.023438 L 233.0625 284.023438 C 234.742188 284.023438 236.109375 282.660156 236.109375 280.976562 C 236.109375 279.292969 234.742188 277.933594 233.0625 277.933594 L 144.023438 277.933594 C 143.351562 272.453125 140.878906 267.351562 136.8125 263.242188 " fill-opacity="1" fill-rule="nonzero"/><path fill="#ff1469" d="M 170.738281 266.96875 L 170.738281 229.332031 C 170.738281 227.644531 169.375 226.285156 167.695312 226.285156 C 166.007812 226.285156 164.648438 227.644531 164.648438 229.332031 L 164.648438 266.96875 C 164.648438 268.652344 166.007812 270.015625 167.695312 270.015625 C 169.375 270.015625 170.738281 268.652344 170.738281 266.96875 " fill-opacity="1" fill-rule="nonzero"/><path fill="#ff1469" d="M 198.835938 266.96875 L 198.835938 229.332031 C 198.835938 227.644531 197.476562 226.285156 195.792969 226.285156 C 194.109375 226.285156 192.746094 227.644531 192.746094 229.332031 L 192.746094 266.96875 C 192.746094 268.652344 194.109375 270.015625 195.792969 270.015625 C 197.476562 270.015625 198.835938 268.652344 198.835938 266.96875 " fill-opacity="1" fill-rule="nonzero"/><path fill="#ff1469" d="M 198.835938 201.3125 L 198.835938 165.742188 C 198.835938 164.058594 197.476562 162.699219 195.792969 162.699219 C 194.109375 162.699219 192.746094 164.058594 192.746094 165.742188 L 192.746094 201.3125 C 192.746094 202.996094 194.109375 204.359375 195.792969 204.359375 C 197.476562 204.359375 198.835938 202.996094 198.835938 201.3125 " fill-opacity="1" fill-rule="nonzero"/><path fill="#ff1469" d="M 126.570312 103.671875 C 126.472656 103.773438 126.375 103.882812 126.289062 104.003906 L 126.140625 104.203125 C 123.65625 106.203125 119.863281 106.28125 117.203125 103.601562 C 115.9375 102.398438 115.261719 100.765625 115.261719 98.871094 C 115.261719 97.296875 115.761719 95.875 116.75 94.628906 L 116.949219 94.472656 C 117.089844 94.371094 117.21875 94.25 117.339844 94.121094 C 119.726562 91.554688 123.859375 91.445312 126.570312 94.191406 C 127.871094 95.503906 128.589844 97.164062 128.589844 98.871094 C 128.589844 100.652344 127.871094 102.359375 126.570312 103.671875 Z M 121.867188 86.078125 C 118.5 86.078125 115.386719 87.390625 113.074219 89.773438 L 112.785156 89.988281 C 112.613281 90.117188 112.453125 90.265625 112.3125 90.433594 C 110.257812 92.832031 109.167969 95.75 109.167969 98.871094 C 109.167969 102.425781 110.535156 105.675781 112.945312 107.957031 C 115.390625 110.421875 118.554688 111.78125 121.867188 111.78125 C 125.007812 111.78125 128.035156 110.652344 130.382812 108.59375 C 130.542969 108.449219 130.691406 108.289062 130.824219 108.113281 L 131.0625 107.789062 C 133.394531 105.355469 134.675781 102.195312 134.675781 98.871094 C 134.675781 95.546875 133.335938 92.363281 130.78125 89.785156 C 128.382812 87.359375 125.300781 86.078125 121.867188 86.078125 " fill-opacity="1" fill-rule="nonzero"/><path fill="#ff1469" d="M 135.167969 112.289062 C 131.492188 115.890625 126.765625 117.875 121.867188 117.875 C 117.039062 117.875 112.355469 115.890625 108.714844 112.320312 C 105.160156 108.730469 103.203125 103.953125 103.203125 98.871094 C 103.203125 93.757812 105.144531 89.039062 108.714844 85.542969 C 112.253906 81.960938 116.925781 79.988281 121.867188 79.988281 C 126.878906 79.988281 131.589844 81.960938 135.136719 85.542969 C 138.691406 89.132812 140.648438 93.867188 140.648438 98.871094 C 140.648438 103.953125 138.691406 108.730469 135.167969 112.289062 Z M 244.636719 95.828125 L 146.554688 95.828125 C 145.886719 90.351562 143.425781 85.261719 139.464844 81.257812 C 134.765625 76.515625 128.515625 73.902344 121.867188 73.902344 C 115.289062 73.902344 109.082031 76.515625 104.417969 81.222656 C 99.707031 85.839844 97.109375 92.109375 97.109375 98.871094 C 97.109375 105.566406 99.695312 111.867188 104.417969 116.636719 C 109.238281 121.359375 115.433594 123.964844 121.867188 123.964844 C 128.371094 123.964844 134.609375 121.359375 139.464844 116.601562 C 143.4375 112.59375 145.902344 107.460938 146.5625 101.914062 L 244.636719 101.914062 C 246.320312 101.914062 247.683594 100.554688 247.683594 98.871094 C 247.683594 97.1875 246.320312 95.828125 244.636719 95.828125 " fill-opacity="1" fill-rule="nonzero"/><g clip-path="url(#a89f770e96)"><path fill="#ff1469" d="M 352.246094 155.390625 C 352.246094 133.898438 337.679688 115.058594 317.308594 109.78125 C 313.984375 89.789062 298.046875 74.660156 278.195312 72.53125 L 278.195312 72.3125 C 278.195312 48.539062 259.027344 29.195312 235.472656 29.195312 C 211.914062 29.195312 192.746094 48.539062 192.746094 72.3125 L 192.746094 84.863281 C 192.746094 86.546875 194.109375 87.90625 195.792969 87.90625 C 197.476562 87.90625 198.835938 86.546875 198.835938 84.863281 L 198.835938 72.3125 C 198.835938 51.898438 215.269531 35.285156 235.472656 35.285156 C 255.675781 35.285156 272.105469 51.898438 272.105469 72.3125 L 272.105469 75.34375 C 272.105469 75.679688 272.15625 76.003906 272.253906 76.308594 C 272.253906 76.308594 272.253906 76.308594 272.261719 76.308594 C 272.261719 76.308594 272.261719 76.320312 272.261719 76.320312 C 272.40625 76.761719 272.652344 77.152344 272.964844 77.480469 C 273.273438 77.800781 273.652344 78.054688 274.085938 78.214844 L 274.09375 78.214844 C 274.144531 78.222656 274.101562 78.21875 274.101562 78.21875 C 274.390625 78.324219 274.707031 78.390625 275.035156 78.402344 C 293.601562 79.1875 309.292969 93.867188 311.554688 112.566406 C 311.578125 112.777344 311.617188 112.980469 311.683594 113.179688 C 311.820312 113.621094 312.054688 114.023438 312.359375 114.347656 C 312.652344 114.660156 313.007812 114.910156 313.414062 115.078125 C 313.609375 115.160156 313.816406 115.222656 314.03125 115.265625 C 332.644531 119.195312 346.152344 136.058594 346.152344 155.390625 C 346.152344 168.226562 340.398438 180.121094 330.359375 188.039062 C 330.152344 188.199219 329.96875 188.378906 329.8125 188.574219 C 329.527344 188.9375 329.332031 189.351562 329.230469 189.78125 C 329.128906 190.207031 329.125 190.652344 329.214844 191.09375 C 329.269531 191.347656 329.351562 191.589844 329.472656 191.828125 C 331.984375 197.15625 333.253906 202.96875 333.253906 209.109375 C 333.253906 224.394531 324.859375 238.347656 311.347656 245.519531 C 311.039062 245.683594 310.769531 245.894531 310.542969 246.136719 L 310.542969 246.140625 C 310.542969 246.140625 310.539062 246.144531 310.539062 246.144531 L 310.535156 246.148438 C 310.535156 246.152344 310.527344 246.152344 310.527344 246.15625 C 310.207031 246.503906 309.980469 246.917969 309.851562 247.363281 C 309.75 247.726562 309.707031 248.113281 309.742188 248.496094 C 309.742188 248.5 309.742188 248.5 309.742188 248.503906 C 309.742188 248.507812 309.742188 248.507812 309.742188 248.507812 C 309.78125 248.882812 309.890625 249.257812 310.074219 249.605469 C 312.925781 255.144531 314.4375 261.441406 314.4375 267.820312 C 314.4375 289.714844 296.789062 307.804688 275.105469 308.144531 C 275.089844 308.144531 275.070312 308.144531 275.058594 308.144531 C 274.785156 308.152344 274.527344 308.195312 274.28125 308.269531 C 274.277344 308.269531 274.273438 308.269531 274.273438 308.269531 C 273.777344 308.417969 273.34375 308.6875 272.992188 309.039062 L 272.992188 309.042969 C 272.992188 309.042969 272.984375 309.042969 272.984375 309.046875 L 272.984375 309.050781 C 272.964844 309.042969 272.980469 309.054688 272.976562 309.054688 C 272.976562 309.0625 272.980469 309.054688 272.96875 309.0625 C 272.613281 309.429688 272.347656 309.890625 272.210938 310.402344 C 272.210938 310.402344 272.210938 310.40625 272.207031 310.40625 C 272.148438 310.628906 272.113281 310.859375 272.105469 311.097656 L 272.105469 311.101562 C 272.105469 311.101562 272.105469 311.101562 272.105469 311.109375 C 272.105469 311.132812 272.105469 311.160156 272.105469 311.1875 L 272.105469 313.742188 C 272.105469 334.164062 255.675781 350.773438 235.472656 350.773438 C 215.269531 350.773438 198.835938 334.164062 198.835938 313.742188 L 198.835938 294.984375 C 198.835938 293.304688 197.476562 291.941406 195.792969 291.941406 C 194.109375 291.941406 192.746094 293.304688 192.746094 294.984375 L 192.746094 313.742188 C 192.746094 337.523438 211.914062 356.867188 235.472656 356.867188 C 258.917969 356.867188 278.007812 337.707031 278.195312 314.085938 C 301.796875 312.15625 320.527344 292.007812 320.527344 267.820312 C 320.527344 261.464844 319.222656 255.175781 316.738281 249.453125 C 330.75 240.878906 339.34375 225.675781 339.34375 209.109375 C 339.34375 202.867188 338.1875 196.902344 335.910156 191.347656 C 346.320312 182.300781 352.246094 169.324219 352.246094 155.390625 " fill-opacity="1" fill-rule="nonzero"/></g><path fill="#ff1469" d="M 198.835938 137.726562 L 198.835938 112.878906 C 198.835938 111.195312 197.476562 109.832031 195.792969 109.832031 C 194.109375 109.832031 192.746094 111.195312 192.746094 112.878906 L 192.746094 137.726562 C 192.746094 139.410156 194.109375 140.773438 195.792969 140.773438 C 197.476562 140.773438 198.835938 139.410156 198.835938 137.726562 " fill-opacity="1" fill-rule="nonzero"/><path fill="#ff1469" d="M 170.738281 201.3125 L 170.738281 165.742188 C 170.738281 164.058594 169.375 162.699219 167.695312 162.699219 C 166.007812 162.699219 164.648438 164.058594 164.648438 165.742188 L 164.648438 201.3125 C 164.648438 202.996094 166.007812 204.359375 167.695312 204.359375 C 169.375 204.359375 170.738281 202.996094 170.738281 201.3125 " fill-opacity="1" fill-rule="nonzero"/><path fill="#ff1469" d="M 113.550781 228.769531 C 113.410156 228.914062 113.285156 229.074219 113.175781 229.234375 C 105.800781 235.96875 94.210938 235.710938 87.160156 228.804688 C 83.660156 225.160156 81.730469 220.371094 81.730469 215.324219 C 81.730469 210.445312 83.496094 205.886719 86.714844 202.417969 C 86.917969 202.292969 87.109375 202.136719 87.28125 201.960938 C 90.695312 198.398438 95.351562 196.445312 100.394531 196.445312 C 105.441406 196.445312 110.101562 198.398438 113.519531 201.960938 C 113.667969 202.113281 113.832031 202.25 114.015625 202.367188 C 117.273438 205.953125 119.058594 210.535156 119.058594 215.324219 C 119.058594 220.402344 117.101562 225.179688 113.550781 228.769531 Z M 250.941406 215.324219 C 250.941406 213.640625 249.578125 212.277344 247.894531 212.277344 L 124.96875 212.277344 C 124.3125 206.855469 121.90625 201.78125 118.035156 197.742188 C 117.871094 197.574219 117.6875 197.425781 117.476562 197.300781 C 112.945312 192.8125 106.90625 190.351562 100.394531 190.351562 C 93.910156 190.351562 87.886719 192.800781 83.359375 197.261719 C 83.15625 197.386719 82.964844 197.535156 82.796875 197.710938 C 78.183594 202.371094 75.640625 208.625 75.640625 215.324219 C 75.640625 221.953125 78.171875 228.242188 82.828125 233.089844 C 87.660156 237.8125 93.890625 240.414062 100.394531 240.414062 C 106.902344 240.414062 113.140625 237.8125 117.96875 233.089844 C 118.164062 232.898438 118.324219 232.683594 118.453125 232.457031 C 122.085938 228.535156 124.339844 223.636719 124.972656 218.367188 L 247.894531 218.367188 C 249.578125 218.367188 250.941406 217.003906 250.941406 215.324219 " fill-opacity="1" fill-rule="nonzero"/><path fill="#ff1469" d="M 83.515625 158.609375 L 82.996094 159.023438 C 80.457031 161.410156 76.496094 161.273438 73.972656 158.730469 C 72.679688 157.421875 71.964844 155.714844 71.964844 153.929688 C 71.964844 152.378906 72.550781 150.898438 73.703125 149.527344 L 74.046875 149.179688 C 76.347656 146.703125 80.652344 146.476562 83.398438 149.25 C 84.617188 150.480469 85.289062 152.144531 85.289062 153.929688 C 85.289062 155.761719 84.675781 157.375 83.515625 158.609375 Z M 69.648438 144.964844 L 69.289062 145.332031 C 69.238281 145.382812 69.1875 145.433594 69.144531 145.488281 C 67.003906 147.976562 65.871094 150.894531 65.871094 153.929688 C 65.871094 157.332031 67.214844 160.5625 69.648438 163.015625 C 72.089844 165.480469 75.300781 166.839844 78.6875 166.839844 C 81.878906 166.839844 84.816406 165.671875 86.921875 163.664062 L 87.402344 163.300781 C 87.519531 163.210938 87.628906 163.117188 87.726562 163.015625 C 90.082031 160.636719 91.378906 157.410156 91.378906 153.929688 C 91.378906 150.527344 90.082031 147.347656 87.609375 144.84375 C 82.757812 139.953125 74.078125 140.183594 69.648438 144.964844 " fill-opacity="1" fill-rule="nonzero"/><path fill="#ff1469" d="M 91.839844 167.378906 C 88.292969 170.960938 83.625 172.929688 78.6875 172.929688 C 73.789062 172.929688 69.058594 170.949219 65.449219 167.410156 C 61.871094 163.6875 59.902344 158.898438 59.902344 153.929688 C 59.902344 149 61.914062 144.136719 65.417969 140.601562 C 68.960938 137.023438 73.671875 135.046875 78.6875 135.046875 C 83.625 135.046875 88.296875 137.023438 91.839844 140.601562 C 95.394531 144.1875 97.351562 148.921875 97.351562 153.929688 C 97.351562 159.015625 95.394531 163.789062 91.839844 167.378906 Z M 278.800781 153.929688 C 278.800781 152.246094 277.4375 150.882812 275.753906 150.882812 L 103.257812 150.882812 C 102.589844 145.40625 100.136719 140.316406 96.167969 136.316406 C 91.472656 131.574219 85.265625 128.957031 78.6875 128.957031 C 72.035156 128.957031 65.785156 131.574219 61.085938 136.316406 C 56.398438 141.054688 53.808594 147.308594 53.808594 153.929688 C 53.808594 160.480469 56.386719 166.765625 61.121094 171.695312 C 65.949219 176.417969 72.183594 179.023438 78.6875 179.023438 C 85.261719 179.023438 91.472656 176.410156 96.167969 171.660156 C 100.140625 167.652344 102.601562 162.519531 103.265625 156.976562 L 275.753906 156.976562 C 277.4375 156.976562 278.800781 155.613281 278.800781 153.929688 " fill-opacity="1" fill-rule="nonzero"/><path fill="#ff1469" d="M 170.738281 137.726562 L 170.738281 112.878906 C 170.738281 111.195312 169.375 109.832031 167.695312 109.832031 C 166.007812 109.832031 164.648438 111.195312 164.648438 112.878906 L 164.648438 137.726562 C 164.648438 139.410156 166.007812 140.773438 167.695312 140.773438 C 169.375 140.773438 170.738281 139.410156 170.738281 137.726562 " fill-opacity="1" fill-rule="nonzero"/></svg>