<svg xmlns="http://www.w3.org/2000/svg" xmlns:xlink="http://www.w3.org/1999/xlink" width="500" zoomAndPan="magnify" viewBox="0 0 375 374.999991" height="500" preserveAspectRatio="xMidYMid meet" version="1.0"><defs><clipPath id="a77630f75e"><path d="M 14.457031 85 L 360.957031 85 L 360.957031 199 L 14.457031 199 Z M 14.457031 85 " clip-rule="nonzero"/></clipPath><clipPath id="e59ad4cc28"><path d="M 14.457031 211 L 360.957031 211 L 360.957031 324.449219 L 14.457031 324.449219 Z M 14.457031 211 " clip-rule="nonzero"/></clipPath><clipPath id="dbd3b3ca73"><path d="M 107 49.949219 L 269 49.949219 L 269 98 L 107 98 Z M 107 49.949219 " clip-rule="nonzero"/></clipPath></defs><g clip-path="url(#a77630f75e)"><path fill="#ffffff" d="M 160.859375 198.65625 L 160.859375 178.351562 C 160.859375 174.765625 163.25 172.378906 166.832031 172.378906 L 208.636719 172.378906 C 212.222656 172.378906 214.609375 174.765625 214.609375 178.351562 L 214.609375 198.65625 L 360.929688 198.65625 L 360.929688 91.753906 C 360.929688 88.171875 358.542969 85.78125 354.957031 85.78125 L 20.511719 85.78125 C 16.929688 85.78125 14.539062 88.171875 14.539062 91.753906 L 14.539062 198.65625 Z M 160.859375 198.65625 " fill-opacity="1" fill-rule="nonzero"/></g><g clip-path="url(#e59ad4cc28)"><path fill="#ffffff" d="M 214.609375 211.199219 L 214.609375 231.503906 C 214.609375 235.085938 212.222656 237.476562 208.636719 237.476562 L 166.832031 237.476562 C 163.25 237.476562 160.859375 235.085938 160.859375 231.503906 L 160.859375 211.199219 L 14.539062 211.199219 L 14.539062 318.699219 C 14.539062 322.28125 16.929688 324.671875 20.511719 324.671875 L 354.957031 324.671875 C 358.542969 324.671875 360.929688 322.28125 360.929688 318.699219 L 360.929688 211.199219 Z M 214.609375 211.199219 " fill-opacity="1" fill-rule="nonzero"/></g><g clip-path="url(#dbd3b3ca73)"><path fill="#ffffff" d="M 262.386719 97.726562 L 113.082031 97.726562 C 109.5 97.726562 107.109375 95.335938 107.109375 91.753906 L 107.109375 55.917969 C 107.109375 52.335938 109.5 49.949219 113.082031 49.949219 L 262.386719 49.949219 C 265.972656 49.949219 268.359375 52.335938 268.359375 55.917969 L 268.359375 91.753906 C 268.359375 95.335938 265.972656 97.726562 262.386719 97.726562 Z M 119.054688 85.78125 L 256.414062 85.78125 L 256.414062 61.890625 L 119.054688 61.890625 Z M 119.054688 85.78125 " fill-opacity="1" fill-rule="nonzero"/></g></svg>