<svg xmlns="http://www.w3.org/2000/svg" xmlns:xlink="http://www.w3.org/1999/xlink" width="500" zoomAndPan="magnify" viewBox="0 0 375 374.999991" height="500" preserveAspectRatio="xMidYMid meet" version="1.0"><defs><clipPath id="d7376914ad"><path d="M 145 332 L 231 332 L 231 359.855469 L 145 359.855469 Z M 145 332 " clip-rule="nonzero"/></clipPath><clipPath id="2c60c4b54d"><path d="M 19.171875 184 L 72 184 L 72 196 L 19.171875 196 Z M 19.171875 184 " clip-rule="nonzero"/></clipPath><clipPath id="5f6035e2bb"><path d="M 303 172 L 355.921875 172 L 355.921875 184 L 303 184 Z M 303 172 " clip-rule="nonzero"/></clipPath></defs><path fill="#ffffff" d="M 225.449219 322.917969 L 149.761719 322.917969 C 148.078125 322.917969 146.722656 321.5625 146.722656 319.878906 L 146.722656 316.910156 C 146.722656 315.234375 148.078125 313.871094 149.761719 313.871094 L 225.449219 313.871094 C 227.132812 313.871094 228.488281 315.234375 228.488281 316.910156 L 228.488281 319.878906 C 228.488281 321.5625 227.132812 322.917969 225.449219 322.917969 " fill-opacity="1" fill-rule="nonzero"/><path fill="#ffffff" d="M 225.449219 304.066406 L 149.761719 304.066406 C 148.078125 304.066406 146.722656 302.703125 146.722656 301.027344 L 146.722656 298.058594 C 146.722656 296.375 148.078125 295.011719 149.761719 295.011719 L 225.449219 295.011719 C 227.132812 295.011719 228.488281 296.375 228.488281 298.058594 L 228.488281 301.027344 C 228.488281 302.703125 227.132812 304.066406 225.449219 304.066406 " fill-opacity="1" fill-rule="nonzero"/><g clip-path="url(#d7376914ad)"><path fill="#ffffff" d="M 229.535156 332.9375 C 229.953125 332.9375 230.222656 333.382812 230.027344 333.75 C 222.085938 349.085938 206.070312 359.574219 187.605469 359.574219 C 169.140625 359.574219 153.125 349.085938 145.183594 333.75 C 144.988281 333.382812 145.257812 332.9375 145.675781 332.9375 L 229.535156 332.9375 " fill-opacity="1" fill-rule="nonzero"/></g><path fill="#ffffff" d="M 203.761719 269.914062 C 208.667969 269.914062 215.136719 269.914062 221.683594 269.9375 L 221.734375 269.9375 C 223.273438 269.9375 225.542969 269.664062 227.410156 267.292969 C 230.371094 263.527344 233.425781 259.726562 236.390625 256.050781 C 241.648438 249.53125 247.082031 242.777344 252.195312 235.9375 C 271.734375 209.761719 275.171875 181.675781 262.40625 152.453125 C 249.191406 122.203125 220.636719 103.410156 187.898438 103.410156 C 170.167969 103.410156 153.066406 109.09375 138.433594 119.859375 C 103.570312 145.480469 95.207031 196.851562 120.167969 232.035156 C 125.746094 239.90625 131.878906 247.480469 137.816406 254.804688 C 141.214844 258.992188 144.722656 263.328125 148.070312 267.644531 C 149.835938 269.921875 152.136719 269.921875 153.367188 269.921875 L 153.425781 269.921875 C 158.492188 269.914062 163.984375 269.914062 170.714844 269.914062 C 174.628906 269.914062 178.539062 269.914062 182.457031 269.914062 L 187.554688 269.914062 C 190.257812 269.914062 192.960938 269.914062 195.667969 269.914062 C 198.363281 269.914062 201.066406 269.914062 203.761719 269.914062 Z M 230.027344 282.445312 C 221.949219 282.394531 214.007812 282.386719 207.980469 282.386719 C 204.613281 282.386719 201.242188 282.386719 197.867188 282.394531 C 194.503906 282.394531 191.136719 282.394531 187.765625 282.394531 L 187.597656 282.394531 C 184.273438 282.394531 180.960938 282.394531 177.636719 282.394531 C 174.277344 282.394531 170.921875 282.386719 167.566406 282.386719 C 161.4375 282.386719 153.351562 282.394531 145.171875 282.4375 L 145.132812 282.4375 C 144.058594 282.4375 143.765625 282.253906 143.25 281.589844 C 137.789062 274.652344 132.199219 267.628906 126.800781 260.839844 C 122.53125 255.492188 118.128906 249.949219 113.816406 244.492188 C 108.5 237.769531 104.132812 230.480469 100.832031 222.8125 C 97.660156 215.453125 95.441406 207.710938 94.261719 199.800781 C 91.960938 184.53125 93.515625 168.675781 98.757812 153.960938 C 104.003906 139.210938 112.84375 125.902344 124.3125 115.480469 C 130.25 110.089844 136.878906 105.46875 144.019531 101.75 C 151.453125 97.894531 159.472656 94.988281 167.859375 93.128906 C 174.296875 91.699219 180.902344 90.980469 187.503906 90.980469 C 208.441406 90.980469 229.234375 98.261719 246.042969 111.488281 C 254.414062 118.074219 261.519531 125.894531 267.1875 134.714844 C 273.054688 143.875 277.199219 153.867188 279.5 164.433594 C 282.742188 179.308594 282.808594 193.65625 279.683594 207.082031 C 276.570312 220.519531 270.175781 233.390625 260.691406 245.347656 C 257.5625 249.289062 254.429688 253.230469 251.300781 257.164062 C 244.996094 265.09375 238.484375 273.28125 232.113281 281.375 C 231.386719 282.304688 231 282.445312 230.0625 282.445312 L 230.027344 282.445312 " fill-opacity="1" fill-rule="nonzero"/><path fill="#ffffff" d="M 240.308594 191.980469 C 240.308594 195.808594 237.203125 198.914062 233.378906 198.914062 L 232.382812 198.914062 C 230.933594 198.914062 229.769531 200.085938 229.769531 201.53125 L 229.769531 207.792969 C 229.769531 213.066406 225.476562 217.363281 220.203125 217.363281 L 220.203125 217.296875 L 210.625 217.296875 C 208.632812 217.296875 207.015625 218.910156 207.015625 220.902344 C 207.015625 222.894531 208.632812 224.511719 210.625 224.511719 L 214.382812 224.511719 C 215.296875 224.511719 215.933594 225.421875 215.605469 226.277344 C 213.464844 231.84375 208.0625 235.8125 201.753906 235.8125 C 199.375 235.8125 197.449219 233.886719 197.449219 231.507812 L 197.449219 141.90625 C 197.449219 139.539062 199.375 137.613281 201.753906 137.613281 C 207.613281 137.613281 212.683594 141.027344 215.09375 145.976562 C 215.738281 147.296875 214.792969 148.847656 213.320312 148.847656 L 210.625 148.847656 C 208.632812 148.847656 207.015625 150.460938 207.015625 152.453125 C 207.015625 154.445312 208.632812 156.0625 210.625 156.0625 L 219.265625 156.0625 C 225.066406 156.0625 229.769531 160.757812 229.769531 166.558594 C 229.769531 167.070312 229.351562 167.488281 228.832031 167.488281 L 223.265625 167.488281 C 218.125 167.488281 213.957031 171.65625 213.957031 176.804688 L 213.957031 183.300781 C 213.957031 185.292969 215.574219 186.910156 217.566406 186.910156 C 219.558594 186.910156 221.171875 185.292969 221.171875 183.300781 L 221.171875 179.574219 C 221.171875 176.890625 223.347656 174.703125 226.035156 174.703125 L 234.691406 174.703125 L 234.691406 174.636719 C 237.890625 175.25 240.308594 178.070312 240.308594 181.441406 Z M 236.976562 167.757812 L 236.976562 165.628906 C 236.976562 157.527344 231.210938 150.746094 223.566406 149.179688 C 221.976562 138.566406 212.800781 130.398438 201.753906 130.398438 C 195.390625 130.398438 190.234375 135.554688 190.234375 141.90625 L 190.234375 231.507812 C 190.234375 237.871094 195.390625 243.027344 201.753906 243.027344 C 212.800781 243.027344 221.976562 234.855469 223.566406 224.242188 C 231.210938 222.675781 236.976562 215.898438 236.976562 207.792969 L 236.976562 205.667969 C 243.039062 204.070312 247.523438 198.535156 247.523438 191.980469 L 247.523438 181.441406 C 247.523438 174.886719 243.039062 169.355469 236.976562 167.757812 " fill-opacity="1" fill-rule="nonzero"/><path fill="#ffffff" d="M 134.902344 181.441406 C 134.902344 178.070312 137.320312 175.25 140.519531 174.636719 L 140.519531 174.703125 L 149.175781 174.703125 C 151.863281 174.703125 154.039062 176.890625 154.039062 179.574219 L 154.039062 183.300781 C 154.039062 185.292969 155.652344 186.910156 157.644531 186.910156 C 159.636719 186.910156 161.253906 185.292969 161.253906 183.300781 L 161.253906 176.804688 C 161.253906 171.65625 157.085938 167.488281 151.945312 167.488281 L 146.378906 167.488281 C 145.859375 167.488281 145.449219 167.070312 145.449219 166.558594 C 145.449219 160.757812 150.144531 156.0625 155.945312 156.0625 L 164.585938 156.0625 C 166.578125 156.0625 168.195312 154.445312 168.195312 152.453125 C 168.195312 150.460938 166.578125 148.847656 164.585938 148.847656 L 161.890625 148.847656 C 160.417969 148.847656 159.472656 147.296875 160.117188 145.976562 C 162.527344 141.027344 167.597656 137.613281 173.457031 137.613281 C 175.835938 137.613281 177.761719 139.539062 177.761719 141.90625 L 177.761719 231.507812 C 177.761719 233.886719 175.835938 235.8125 173.457031 235.8125 C 167.148438 235.8125 161.738281 231.84375 159.605469 226.277344 C 159.277344 225.421875 159.914062 224.511719 160.828125 224.511719 L 164.585938 224.511719 C 166.578125 224.511719 168.195312 222.894531 168.195312 220.902344 C 168.195312 218.910156 166.578125 217.296875 164.585938 217.296875 L 155.019531 217.296875 L 155.019531 217.363281 C 149.734375 217.363281 145.449219 213.066406 145.449219 207.792969 L 145.449219 201.53125 C 145.449219 200.085938 144.277344 198.914062 142.828125 198.914062 L 141.84375 198.914062 C 138.007812 198.914062 134.902344 195.808594 134.902344 191.980469 Z M 127.6875 181.441406 L 127.6875 191.980469 C 127.6875 198.535156 132.171875 204.070312 138.226562 205.667969 L 138.226562 207.792969 C 138.226562 215.898438 144 222.675781 151.644531 224.242188 C 153.234375 234.855469 162.410156 243.027344 173.457031 243.027344 C 179.820312 243.027344 184.976562 237.871094 184.976562 231.507812 L 184.976562 141.90625 C 184.976562 135.554688 179.820312 130.398438 173.457031 130.398438 C 162.410156 130.398438 153.234375 138.566406 151.644531 149.179688 C 144 150.746094 138.226562 157.527344 138.226562 165.628906 L 138.226562 167.757812 C 132.171875 169.355469 127.6875 174.886719 127.6875 181.441406 " fill-opacity="1" fill-rule="nonzero"/><path fill="#ffffff" d="M 181.503906 67.632812 C 178.488281 67.632812 176.035156 65.1875 176.035156 62.175781 L 176.035156 20.882812 C 176.035156 17.867188 178.488281 15.414062 181.503906 15.414062 C 184.515625 15.414062 186.96875 17.867188 186.96875 20.882812 L 186.96875 62.175781 C 186.96875 65.1875 184.515625 67.632812 181.503906 67.632812 " fill-opacity="1" fill-rule="nonzero"/><path fill="#ffffff" d="M 121.527344 86.976562 C 119.574219 86.976562 117.757812 85.929688 116.789062 84.25 L 96.136719 48.488281 C 94.628906 45.875 95.527344 42.527344 98.136719 41.019531 C 98.976562 40.542969 99.914062 40.292969 100.867188 40.292969 C 102.808594 40.292969 104.625 41.339844 105.605469 43.023438 L 126.246094 78.78125 C 127.753906 81.394531 126.859375 84.742188 124.246094 86.25 C 123.417969 86.726562 122.472656 86.976562 121.527344 86.976562 " fill-opacity="1" fill-rule="nonzero"/><path fill="#ffffff" d="M 79.226562 133.71875 C 78.28125 133.71875 77.335938 133.46875 76.507812 132.992188 L 40.746094 112.339844 C 38.136719 110.84375 37.238281 107.484375 38.746094 104.882812 C 39.71875 103.191406 41.535156 102.144531 43.484375 102.144531 C 44.4375 102.144531 45.375 102.40625 46.214844 102.882812 L 81.972656 123.523438 C 83.238281 124.261719 84.140625 125.433594 84.519531 126.847656 C 84.894531 128.253906 84.703125 129.726562 83.972656 130.992188 C 82.996094 132.683594 81.179688 133.71875 79.226562 133.71875 " fill-opacity="1" fill-rule="nonzero"/><g clip-path="url(#2c60c4b54d)"><path fill="#ffffff" d="M 24.699219 195.347656 C 21.695312 195.347656 19.242188 192.894531 19.242188 189.878906 C 19.242188 186.867188 21.695312 184.414062 24.699219 184.414062 L 65.992188 184.414062 C 69.007812 184.414062 71.460938 186.867188 71.460938 189.878906 C 71.460938 192.894531 69.007812 195.347656 65.992188 195.347656 L 24.699219 195.347656 " fill-opacity="1" fill-rule="nonzero"/></g><g clip-path="url(#5f6035e2bb)"><path fill="#ffffff" d="M 309.210938 183.285156 C 306.203125 183.285156 303.75 180.832031 303.75 177.816406 C 303.75 174.804688 306.203125 172.359375 309.210938 172.359375 L 350.511719 172.359375 C 353.515625 172.359375 355.96875 174.804688 355.96875 177.816406 C 355.96875 180.832031 353.515625 183.285156 350.511719 183.285156 L 309.210938 183.285156 " fill-opacity="1" fill-rule="nonzero"/></g><path fill="#ffffff" d="M 289.878906 123.15625 C 287.929688 123.15625 286.113281 122.109375 285.144531 120.417969 C 283.636719 117.816406 284.53125 114.46875 287.136719 112.960938 L 322.902344 92.316406 C 323.734375 91.832031 324.671875 91.582031 325.625 91.582031 C 327.574219 91.582031 329.390625 92.628906 330.363281 94.308594 C 331.089844 95.574219 331.28125 97.046875 330.90625 98.460938 C 330.53125 99.867188 329.625 101.046875 328.363281 101.777344 L 292.601562 122.417969 C 291.773438 122.90625 290.828125 123.15625 289.878906 123.15625 " fill-opacity="1" fill-rule="nonzero"/><path fill="#ffffff" d="M 243.113281 80.875 C 242.167969 80.875 241.222656 80.625 240.390625 80.148438 C 237.78125 78.640625 236.886719 75.292969 238.390625 72.679688 L 259.042969 36.917969 C 260.011719 35.238281 261.828125 34.191406 263.78125 34.191406 C 264.726562 34.191406 265.671875 34.441406 266.5 34.917969 C 269.113281 36.425781 270.007812 39.773438 268.5 42.386719 L 247.859375 78.144531 C 246.878906 79.828125 245.0625 80.875 243.113281 80.875 " fill-opacity="1" fill-rule="nonzero"/></svg>