<svg xmlns="http://www.w3.org/2000/svg" xmlns:xlink="http://www.w3.org/1999/xlink" width="500" zoomAndPan="magnify" viewBox="0 0 375 374.999991" height="500" preserveAspectRatio="xMidYMid meet" version="1.0"><defs><clipPath id="18b27c6732"><path d="M 11.128906 24.589844 L 366 24.589844 L 366 348.589844 L 11.128906 348.589844 Z M 11.128906 24.589844 " clip-rule="nonzero"/></clipPath></defs><g clip-path="url(#18b27c6732)"><path fill="#ffffff" d="M 188.628906 24.683594 C 90.683594 24.683594 11.289062 84.738281 11.289062 158.824219 C 11.289062 169.851562 13.097656 180.550781 16.414062 190.800781 C 24.523438 215.867188 41.894531 238.183594 65.6875 255.496094 C 66.054688 258.457031 66.21875 261.480469 66.21875 264.527344 C 66.21875 303.667969 38.273438 348.433594 38.273438 348.433594 C 88.820312 344.199219 142.730469 288.660156 142.730469 288.660156 C 142.730469 288.660156 142.617188 288.550781 142.4375 288.382812 C 157.160156 291.382812 172.648438 292.980469 188.628906 292.980469 C 253.265625 292.980469 309.804688 266.816406 340.800781 227.734375 C 356.769531 207.589844 365.972656 184.023438 365.972656 158.824219 C 365.972656 84.738281 286.574219 24.683594 188.628906 24.683594 Z M 188.628906 24.683594 " fill-opacity="1" fill-rule="nonzero"/></g></svg>