<svg xmlns="http://www.w3.org/2000/svg" xmlns:xlink="http://www.w3.org/1999/xlink" width="500" zoomAndPan="magnify" viewBox="0 0 375 374.999991" height="500" preserveAspectRatio="xMidYMid meet" version="1.0"><defs><g/><clipPath id="76880f5947"><path d="M 64.546875 85.402344 L 310.433594 85.402344 L 310.433594 317.152344 L 64.546875 317.152344 Z M 64.546875 85.402344 " clip-rule="nonzero"/></clipPath></defs><path fill="#f61dc6" d="M 170.0625 191.046875 L 190.757812 191.046875 L 190.757812 211.742188 L 170.0625 211.742188 Z M 169.066406 216.269531 L 191.753906 216.269531 C 193.703125 216.269531 195.285156 214.683594 195.285156 212.738281 L 195.285156 190.050781 C 195.285156 188.101562 193.703125 186.515625 191.753906 186.515625 L 169.066406 186.515625 C 167.117188 186.515625 165.535156 188.101562 165.535156 190.050781 L 165.535156 212.738281 C 165.535156 214.683594 167.117188 216.269531 169.066406 216.269531 " fill-opacity="1" fill-rule="nonzero"/><g clip-path="url(#76880f5947)"><path fill="#f61dc6" d="M 73.597656 186.347656 C 72.976562 184.464844 72.660156 182.5 72.660156 180.503906 C 72.660156 175.355469 74.714844 170.5625 78.449219 167.011719 C 79.125 166.367188 79.335938 165.371094 78.980469 164.507812 C 77.867188 161.816406 77.304688 158.964844 77.304688 156.027344 C 77.304688 147.011719 82.699219 138.992188 90.898438 135.550781 C 92.714844 138.066406 95.242188 142.625 95.34375 148.605469 C 95.28125 148.90625 95.28125 149.21875 95.339844 149.519531 C 95.332031 149.832031 95.320312 150.148438 95.300781 150.464844 C 94.867188 156.902344 91.726562 161.46875 89.894531 163.621094 C 89.082031 164.570312 89.195312 166 90.148438 166.8125 C 90.574219 167.175781 91.09375 167.351562 91.613281 167.351562 C 92.253906 167.351562 92.890625 167.082031 93.339844 166.558594 C 95.207031 164.367188 98.203125 160.082031 99.382812 154.09375 L 108.621094 163.332031 C 109.0625 163.773438 109.640625 163.992188 110.222656 163.992188 C 110.800781 163.992188 111.378906 163.773438 111.820312 163.332031 C 112.707031 162.445312 112.707031 161.011719 111.820312 160.128906 L 99.863281 148.171875 C 99.632812 140.570312 96.164062 134.9375 94.027344 132.171875 C 93.710938 130.800781 93.550781 129.386719 93.550781 127.96875 C 93.550781 117.695312 101.902344 109.34375 112.175781 109.34375 C 112.332031 109.34375 112.488281 109.34375 112.644531 109.347656 C 113.734375 109.375 114.691406 108.617188 114.914062 107.550781 C 117.058594 97.339844 126.199219 89.929688 136.648438 89.929688 C 148.898438 89.929688 158.859375 99.894531 158.859375 112.140625 L 158.859375 139.246094 C 158.429688 138.921875 157.882812 138.75 157.308594 138.800781 C 145.03125 139.890625 135.25 135.257812 130.511719 132.398438 C 129.441406 131.753906 128.046875 132.097656 127.402344 133.167969 C 126.757812 134.242188 127.101562 135.632812 128.171875 136.277344 C 132.851562 139.101562 142.003906 143.492188 153.636719 143.492188 C 154.964844 143.492188 156.320312 143.4375 157.707031 143.3125 C 158.140625 143.273438 158.535156 143.113281 158.859375 142.871094 L 158.859375 146.109375 C 158.839844 146.109375 158.820312 146.105469 158.800781 146.105469 C 158.777344 146.101562 158.75 146.101562 158.722656 146.097656 C 158.582031 146.085938 158.441406 146.078125 158.296875 146.078125 L 153.207031 146.078125 C 151.445312 146.078125 149.90625 147.0625 149.117188 148.511719 C 148.757812 149.171875 148.554688 149.925781 148.554688 150.730469 L 148.554688 160.421875 L 144.691406 160.421875 C 142.976562 160.421875 141.449219 161.25 140.488281 162.527344 C 139.890625 160.839844 139.035156 159.113281 137.824219 157.441406 C 135.082031 153.664062 131.582031 151.609375 129.132812 150.550781 C 127.988281 150.054688 126.652344 150.582031 126.15625 151.730469 C 125.660156 152.878906 126.191406 154.210938 127.335938 154.707031 C 129.265625 155.542969 132.019531 157.15625 134.160156 160.101562 C 137.929688 165.296875 137.328125 171.222656 136.894531 173.53125 C 130.402344 174.707031 127.429688 178.992188 125.335938 182.015625 C 124.070312 183.84375 123.261719 184.957031 122.5 184.914062 C 121.445312 184.851562 119.722656 182.898438 118.199219 181.175781 C 114.988281 177.535156 110.585938 172.550781 103.523438 173.296875 C 102.71875 173.378906 102.074219 173.390625 101.453125 173.402344 C 98.328125 173.460938 96.078125 173.734375 86.207031 178.691406 C 85.089844 179.253906 84.636719 180.613281 85.199219 181.730469 C 85.761719 182.847656 87.121094 183.300781 88.238281 182.738281 C 97.671875 178.003906 99.292969 177.972656 101.535156 177.929688 C 102.21875 177.917969 102.996094 177.902344 103.996094 177.796875 C 108.734375 177.300781 111.824219 180.792969 114.804688 184.171875 C 117.117188 186.789062 119.296875 189.261719 122.230469 189.433594 C 122.347656 189.441406 122.464844 189.445312 122.578125 189.445312 C 125.699219 189.445312 127.480469 186.875 129.058594 184.59375 C 131.164062 181.554688 133.53125 178.148438 139.441406 177.785156 L 139.441406 216.855469 C 133.527344 216.492188 131.164062 213.085938 129.058594 210.046875 C 127.421875 207.683594 125.566406 205.007812 122.230469 205.207031 C 119.296875 205.378906 117.117188 207.851562 114.804688 210.46875 C 111.824219 213.847656 108.734375 217.339844 103.996094 216.839844 C 102.996094 216.738281 102.21875 216.722656 101.535156 216.710938 C 99.292969 216.667969 97.671875 216.636719 88.238281 211.902344 C 87.121094 211.339844 85.761719 211.792969 85.199219 212.910156 C 84.636719 214.027344 85.089844 215.386719 86.207031 215.949219 C 96.078125 220.90625 98.328125 221.179688 101.453125 221.238281 C 102.074219 221.25 102.71875 221.261719 103.523438 221.34375 C 103.964844 221.390625 104.394531 221.414062 104.816406 221.417969 C 103.820312 223.085938 102.957031 225.121094 102.511719 227.539062 C 101.226562 234.511719 104.300781 239.835938 105.679688 241.804688 C 106.121094 242.429688 106.824219 242.765625 107.535156 242.765625 C 107.984375 242.765625 108.441406 242.632812 108.835938 242.351562 C 109.859375 241.636719 110.105469 240.222656 109.386719 239.199219 C 108.566406 238.03125 105.960938 233.792969 106.964844 228.359375 C 107.757812 224.050781 110.328125 221.324219 111.789062 220.085938 C 112.164062 219.765625 112.410156 219.347656 112.519531 218.902344 C 114.804688 217.308594 116.640625 215.230469 118.199219 213.464844 C 119.722656 211.742188 121.445312 209.789062 122.5 209.726562 C 123.265625 209.679688 124.070312 210.796875 125.335938 212.625 C 127.6875 216.019531 131.140625 221 139.441406 221.386719 L 139.441406 237.109375 C 139.441406 238.960938 140.402344 240.585938 141.847656 241.523438 C 142.667969 242.054688 143.644531 242.363281 144.691406 242.363281 L 148.707031 242.363281 L 148.707031 247.453125 C 148.515625 247.386719 148.3125 247.339844 148.101562 247.324219 C 146.851562 247.238281 145.773438 248.183594 145.6875 249.429688 C 145.121094 257.648438 140.292969 264.796875 133.386719 267.648438 C 129.542969 269.234375 123.242188 268.15625 114.652344 264.441406 C 114.1875 264.242188 113.855469 264.101562 113.609375 264.007812 C 113.382812 263.917969 113.148438 263.875 112.917969 263.863281 C 114.046875 258.484375 115.890625 253.273438 118.4375 248.289062 C 119.007812 247.175781 118.566406 245.8125 117.453125 245.242188 C 116.339844 244.675781 114.976562 245.113281 114.40625 246.230469 C 110.152344 254.546875 107.722656 263.457031 107.183594 272.710938 C 106.785156 279.605469 107.464844 286.492188 109.203125 293.203125 C 100.339844 291.777344 93.550781 284.078125 93.550781 274.820312 C 93.550781 273.371094 93.71875 271.925781 94.046875 270.523438 C 94.316406 269.382812 93.667969 268.222656 92.554688 267.855469 C 83.429688 264.847656 77.304688 256.367188 77.304688 246.757812 C 77.304688 243.824219 77.867188 240.972656 78.980469 238.28125 C 79.335938 237.414062 79.125 236.421875 78.449219 235.773438 C 74.714844 232.222656 72.660156 227.429688 72.660156 222.28125 C 72.660156 220.285156 72.976562 218.320312 73.597656 216.4375 C 73.824219 215.746094 73.707031 214.988281 73.28125 214.402344 C 70.527344 210.597656 69.074219 206.101562 69.074219 201.394531 C 69.074219 196.6875 70.527344 192.1875 73.28125 188.386719 C 73.707031 187.796875 73.824219 187.039062 73.597656 186.347656 Z M 160.683594 164.953125 L 167.257812 164.953125 C 168.507812 164.953125 169.523438 163.9375 169.523438 162.6875 L 169.523438 150.730469 C 169.523438 150.660156 169.578125 150.605469 169.648438 150.605469 L 174.734375 150.605469 C 174.800781 150.605469 174.859375 150.660156 174.859375 150.730469 L 174.859375 162.6875 C 174.859375 163.9375 175.871094 164.953125 177.121094 164.953125 L 183.699219 164.953125 C 184.949219 164.953125 185.960938 163.9375 185.960938 162.6875 L 185.960938 150.730469 C 185.960938 150.660156 186.015625 150.605469 186.085938 150.605469 L 191.171875 150.605469 C 191.242188 150.605469 191.296875 150.660156 191.296875 150.730469 L 191.296875 162.6875 C 191.296875 163.9375 192.308594 164.953125 193.5625 164.953125 L 200.136719 164.953125 C 201.386719 164.953125 202.402344 163.9375 202.402344 162.6875 L 202.402344 150.730469 C 202.402344 150.660156 202.457031 150.605469 202.523438 150.605469 L 207.613281 150.605469 C 207.679688 150.605469 207.734375 150.660156 207.734375 150.730469 L 207.734375 162.6875 C 207.734375 163.9375 208.75 164.953125 210 164.953125 L 216.128906 164.953125 C 216.527344 164.953125 216.851562 165.277344 216.851562 165.675781 L 216.851562 237.109375 C 216.851562 237.507812 216.527344 237.835938 216.128906 237.835938 L 210.148438 237.835938 C 208.898438 237.835938 207.886719 238.847656 207.886719 240.097656 L 207.886719 252.058594 C 207.886719 252.125 207.828125 252.179688 207.761719 252.179688 L 202.675781 252.179688 C 202.605469 252.179688 202.550781 252.125 202.550781 252.058594 L 202.550781 240.097656 C 202.550781 238.847656 201.535156 237.835938 200.285156 237.835938 L 193.710938 237.835938 C 192.460938 237.835938 191.445312 238.847656 191.445312 240.097656 L 191.445312 252.058594 C 191.445312 252.125 191.390625 252.179688 191.324219 252.179688 L 186.234375 252.179688 C 186.167969 252.179688 186.113281 252.125 186.113281 252.058594 L 186.113281 240.097656 C 186.113281 238.847656 185.097656 237.835938 183.847656 237.835938 L 177.273438 237.835938 C 176.019531 237.835938 175.007812 238.847656 175.007812 240.097656 L 175.007812 252.058594 C 175.007812 252.125 174.953125 252.179688 174.882812 252.179688 L 169.796875 252.179688 C 169.726562 252.179688 169.671875 252.125 169.671875 252.058594 L 169.671875 240.097656 C 169.671875 238.847656 168.660156 237.835938 167.410156 237.835938 L 160.832031 237.835938 C 159.582031 237.835938 158.570312 238.847656 158.570312 240.097656 L 158.570312 252.058594 C 158.570312 252.109375 158.539062 252.152344 158.492188 252.171875 C 158.480469 252.179688 158.460938 252.179688 158.445312 252.179688 L 153.355469 252.179688 C 153.289062 252.179688 153.234375 252.125 153.234375 252.058594 L 153.234375 240.097656 C 153.234375 238.847656 152.21875 237.835938 150.96875 237.835938 L 144.691406 237.835938 C 144.554688 237.835938 144.429688 237.792969 144.320312 237.726562 C 144.109375 237.601562 143.96875 237.371094 143.96875 237.109375 L 143.96875 165.675781 C 143.96875 165.277344 144.292969 164.953125 144.691406 164.953125 L 150.820312 164.953125 C 152.070312 164.953125 153.085938 163.9375 153.085938 162.6875 L 153.085938 150.730469 C 153.085938 150.660156 153.140625 150.605469 153.207031 150.605469 L 158.296875 150.605469 C 158.363281 150.605469 158.417969 150.660156 158.417969 150.730469 L 158.417969 162.6875 C 158.417969 163.9375 159.433594 164.953125 160.683594 164.953125 Z M 158.859375 290.644531 C 158.859375 302.894531 148.898438 312.855469 136.648438 312.855469 C 126.199219 312.855469 117.058594 305.445312 114.914062 295.238281 C 114.796875 294.671875 114.46875 294.195312 114.03125 293.875 C 114.019531 293.71875 113.992188 293.566406 113.949219 293.414062 C 112.0625 286.734375 111.304688 279.855469 111.707031 272.972656 C 111.796875 271.402344 111.949219 269.847656 112.15625 268.300781 C 112.328125 268.371094 112.578125 268.480469 112.855469 268.601562 C 117.46875 270.59375 123.613281 272.894531 129.234375 272.894531 C 131.296875 272.894531 133.292969 272.585938 135.117188 271.832031 C 139.335938 270.089844 142.976562 267.085938 145.652344 263.144531 C 147.40625 260.5625 148.683594 257.652344 149.445312 254.566406 C 150.273438 255.855469 151.71875 256.710938 153.355469 256.710938 L 158.445312 256.710938 C 158.585938 256.710938 158.722656 256.703125 158.859375 256.691406 Z M 221.378906 225.199219 L 259.347656 225.199219 L 259.347656 266.808594 L 255.9375 266.808594 L 255.9375 233.132812 C 255.9375 230.636719 253.90625 228.605469 251.410156 228.605469 L 221.378906 228.605469 Z M 268.777344 282.472656 C 268.777344 288.609375 263.78125 293.605469 257.640625 293.605469 C 251.503906 293.605469 246.507812 288.609375 246.507812 282.472656 C 246.507812 276.332031 251.503906 271.335938 257.640625 271.335938 C 263.78125 271.335938 268.777344 276.332031 268.777344 282.472656 Z M 221.378906 208.191406 L 296.476562 208.191406 L 296.476562 234.847656 L 293.066406 234.847656 L 293.066406 216.128906 C 293.066406 213.632812 291.035156 211.601562 288.539062 211.601562 L 221.378906 211.601562 Z M 305.902344 250.507812 C 305.902344 256.648438 300.910156 261.644531 294.769531 261.644531 C 288.632812 261.644531 283.636719 256.648438 283.636719 250.507812 C 283.636719 244.371094 288.632812 239.375 294.769531 239.375 C 300.910156 239.375 305.902344 244.371094 305.902344 250.507812 Z M 221.378906 191.1875 L 288.539062 191.1875 C 291.035156 191.1875 293.066406 189.15625 293.066406 186.660156 L 293.066406 169.332031 L 296.476562 169.332031 L 296.476562 194.59375 L 221.378906 194.59375 Z M 283.636719 153.667969 C 283.636719 147.53125 288.632812 142.535156 294.769531 142.535156 C 300.910156 142.535156 305.902344 147.53125 305.902344 153.667969 C 305.902344 159.808594 300.910156 164.804688 294.769531 164.804688 C 288.632812 164.804688 283.636719 159.808594 283.636719 153.667969 Z M 221.378906 174.183594 L 251.410156 174.183594 C 253.90625 174.183594 255.9375 172.148438 255.9375 169.652344 L 255.9375 137.273438 C 256.5 137.335938 257.066406 137.367188 257.640625 137.367188 C 258.21875 137.367188 258.785156 137.335938 259.347656 137.273438 L 259.347656 177.589844 L 221.378906 177.589844 Z M 246.507812 121.707031 C 246.507812 115.566406 251.503906 110.570312 257.640625 110.570312 C 263.78125 110.570312 268.777344 115.566406 268.777344 121.707031 C 268.777344 126.421875 265.828125 130.457031 261.683594 132.078125 C 261.660156 132.078125 261.636719 132.074219 261.609375 132.074219 L 253.675781 132.074219 C 253.652344 132.074219 253.625 132.078125 253.601562 132.078125 C 249.457031 130.457031 246.507812 126.421875 246.507812 121.707031 Z M 68.964844 216.117188 C 68.410156 218.121094 68.132812 220.1875 68.132812 222.28125 C 68.132812 228.171875 70.296875 233.6875 74.253906 237.96875 C 73.273438 240.789062 72.773438 243.738281 72.773438 246.757812 C 72.773438 257.65625 79.324219 267.347656 89.265625 271.460938 C 89.101562 272.570312 89.019531 273.695312 89.019531 274.820312 C 89.019531 287.164062 98.734375 297.285156 110.921875 297.941406 C 112.398438 303.152344 115.46875 307.851562 119.691406 311.320312 C 124.453125 315.230469 130.476562 317.382812 136.648438 317.382812 C 151.394531 317.382812 163.390625 305.390625 163.390625 290.644531 L 163.390625 242.363281 L 165.144531 242.363281 L 165.144531 252.058594 C 165.144531 254.621094 167.230469 256.710938 169.796875 256.710938 L 174.882812 256.710938 C 177.449219 256.710938 179.535156 254.621094 179.535156 252.058594 L 179.535156 242.363281 L 181.582031 242.363281 L 181.582031 252.058594 C 181.582031 254.621094 183.671875 256.710938 186.234375 256.710938 L 191.324219 256.710938 C 193.886719 256.710938 195.976562 254.621094 195.976562 252.058594 L 195.976562 242.363281 L 198.023438 242.363281 L 198.023438 252.058594 C 198.023438 254.621094 200.109375 256.710938 202.675781 256.710938 L 207.761719 256.710938 C 210.328125 256.710938 212.414062 254.621094 212.414062 252.058594 L 212.414062 242.363281 L 216.128906 242.363281 C 219.023438 242.363281 221.378906 240.007812 221.378906 237.109375 L 221.378906 233.132812 L 251.410156 233.132812 L 251.410156 268.105469 C 245.867188 270.519531 241.980469 276.050781 241.980469 282.472656 C 241.980469 291.109375 249.007812 298.132812 257.640625 298.132812 C 266.277344 298.132812 273.304688 291.109375 273.304688 282.472656 C 273.304688 276.050781 269.417969 270.519531 263.875 268.105469 L 263.875 225.199219 C 263.875 222.699219 261.84375 220.667969 259.347656 220.667969 L 221.378906 220.667969 L 221.378906 216.128906 L 288.539062 216.128906 L 288.539062 236.140625 C 282.996094 238.558594 279.109375 244.085938 279.109375 250.507812 C 279.109375 259.144531 286.132812 266.171875 294.769531 266.171875 C 303.40625 266.171875 310.433594 259.144531 310.433594 250.507812 C 310.433594 244.085938 306.546875 238.558594 301.003906 236.140625 L 301.003906 208.191406 C 301.003906 205.695312 298.972656 203.664062 296.476562 203.664062 L 221.378906 203.664062 L 221.378906 199.121094 L 296.476562 199.121094 C 298.972656 199.121094 301.003906 197.089844 301.003906 194.59375 L 301.003906 168.035156 C 306.546875 165.621094 310.433594 160.089844 310.433594 153.667969 C 310.433594 145.03125 303.40625 138.003906 294.769531 138.003906 C 286.132812 138.003906 279.109375 145.03125 279.109375 153.667969 C 279.109375 160.089844 282.996094 165.621094 288.539062 168.035156 L 288.539062 186.660156 L 221.378906 186.660156 L 221.378906 182.117188 L 259.347656 182.117188 C 261.84375 182.117188 263.875 180.085938 263.875 177.589844 L 263.875 136.070312 C 269.417969 133.65625 273.304688 128.128906 273.304688 121.707031 C 273.304688 113.070312 266.277344 106.042969 257.640625 106.042969 C 249.007812 106.042969 241.980469 113.070312 241.980469 121.707031 C 241.980469 128.128906 245.867188 133.65625 251.410156 136.070312 L 251.410156 169.652344 L 221.378906 169.652344 L 221.378906 165.675781 C 221.378906 162.78125 219.023438 160.421875 216.128906 160.421875 L 212.265625 160.421875 L 212.265625 150.730469 C 212.265625 148.164062 210.175781 146.078125 207.613281 146.078125 L 202.523438 146.078125 C 199.960938 146.078125 197.871094 148.164062 197.871094 150.730469 L 197.871094 160.421875 L 195.824219 160.421875 L 195.824219 150.730469 C 195.824219 148.164062 193.738281 146.078125 191.171875 146.078125 L 186.085938 146.078125 C 183.519531 146.078125 181.433594 148.164062 181.433594 150.730469 L 181.433594 160.421875 L 179.386719 160.421875 L 179.386719 150.730469 C 179.386719 148.164062 177.300781 146.078125 174.734375 146.078125 L 169.648438 146.078125 C 167.082031 146.078125 164.996094 148.164062 164.996094 150.730469 L 164.996094 160.421875 L 163.390625 160.421875 L 163.390625 112.140625 C 163.390625 97.398438 151.394531 85.402344 136.648438 85.402344 C 130.476562 85.402344 124.453125 87.554688 119.691406 91.46875 C 115.46875 94.933594 112.398438 99.632812 110.921875 104.847656 C 98.734375 105.5 89.019531 115.621094 89.019531 127.96875 C 89.019531 129.09375 89.101562 130.214844 89.265625 131.324219 C 79.324219 135.4375 72.773438 145.128906 72.773438 156.027344 C 72.773438 159.050781 73.273438 162 74.253906 164.820312 C 70.296875 169.101562 68.132812 174.613281 68.132812 180.503906 C 68.132812 182.597656 68.410156 184.667969 68.964844 186.667969 C 66.070312 191.042969 64.546875 196.109375 64.546875 201.394531 C 64.546875 206.679688 66.070312 211.746094 68.964844 216.117188 " fill-opacity="1" fill-rule="nonzero"/></g><path fill="#f61dc6" d="M 207.886719 174.644531 L 207.886719 228.144531 C 207.886719 228.542969 207.558594 228.867188 207.160156 228.867188 L 153.660156 228.867188 C 153.261719 228.867188 152.933594 228.542969 152.933594 228.144531 L 152.933594 174.644531 C 152.933594 174.242188 153.261719 173.917969 153.660156 173.917969 L 207.160156 173.917969 C 207.558594 173.917969 207.886719 174.242188 207.886719 174.644531 Z M 148.40625 174.644531 L 148.40625 228.144531 C 148.40625 231.039062 150.761719 233.398438 153.660156 233.398438 L 207.160156 233.398438 C 210.058594 233.398438 212.414062 231.039062 212.414062 228.144531 L 212.414062 174.644531 C 212.414062 171.746094 210.058594 169.390625 207.160156 169.390625 L 153.660156 169.390625 C 150.761719 169.390625 148.40625 171.746094 148.40625 174.644531 " fill-opacity="1" fill-rule="nonzero"/><g fill="#c1ff72" fill-opacity="1"><g transform="translate(49.166898, 201.996777)"><g><path d="M -3.113281 -29.105469 C -3.628906 -29.589844 -3.820312 -29.589844 -4.398438 -29.125 C -4.636719 -28.9375 -4.738281 -28.75 -4.742188 -28.511719 C -4.746094 -28.226562 -4.605469 -27.9375 -4.324219 -27.648438 C -2.308594 -25.566406 -1.132812 -21.691406 -1.171875 -19.308594 C -1.351562 -11.023438 -7.046875 -6.207031 -16.617188 -6.359375 C -26 -6.507812 -31.683594 -11.550781 -31.558594 -19.457031 C -31.507812 -22.503906 -30.214844 -25.914062 -27.660156 -27.824219 C -27.371094 -28.058594 -27.273438 -28.34375 -27.269531 -28.628906 C -27.265625 -28.914062 -27.402344 -29.203125 -27.589844 -29.445312 C -27.914062 -29.972656 -28.53125 -30.03125 -29.066406 -29.46875 C -31.917969 -26.65625 -33.402344 -23.25 -33.464844 -19.25 C -33.609375 -10.25 -27.035156 -4.238281 -16.605469 -4.074219 C -6.035156 -3.90625 0.527344 -9.230469 0.683594 -19.042969 C 0.738281 -22.660156 -0.4375 -26.539062 -3.113281 -29.105469 Z M -3.113281 -29.105469 "/></g></g></g><g fill="#c1ff72" fill-opacity="1"><g transform="translate(49.196619, 175.553771)"><g><path d="M -11.386719 -4.964844 C -4.246094 -3.527344 1.945312 -7.722656 3.308594 -14.492188 C 4.652344 -21.167969 0.558594 -27.382812 -6.398438 -28.785156 C -13.445312 -30.207031 -19.550781 -25.945312 -20.878906 -19.363281 C -22.203125 -12.777344 -18.625 -6.421875 -11.386719 -4.964844 Z M -10.554688 -6.933594 C -17.101562 -8.203125 -19.996094 -13.355469 -18.871094 -18.957031 C -17.769531 -24.421875 -12.785156 -27.933594 -6.578125 -26.683594 C -0.925781 -25.546875 2.410156 -20.40625 1.300781 -14.894531 C 0.207031 -9.480469 -4.800781 -5.824219 -10.554688 -6.933594 Z M -10.554688 -6.933594 "/></g></g></g><g fill="#c1ff72" fill-opacity="1"><g transform="translate(53.566808, 151.615865)"><g><path d="M 5.773438 -13.441406 C 6.78125 -16.011719 6.8125 -18.710938 6.078125 -21.144531 L 11.757812 -18.925781 C 14.328125 -17.917969 14.667969 -15.125 13.488281 -12.109375 C 13.261719 -11.53125 12.929688 -10.945312 12.578125 -10.316406 C 12.429688 -10.066406 12.300781 -9.863281 12.25 -9.730469 C 12.160156 -9.507812 12.199219 -9.339844 12.550781 -9.203125 L 13.511719 -8.773438 C 14.132812 -8.53125 14.242188 -8.949219 14.515625 -9.507812 C 14.800781 -10.113281 15.054688 -10.625 15.261719 -11.160156 C 17.640625 -17.234375 15.179688 -19.832031 11.675781 -21.207031 L -12.464844 -30.605469 C -13.085938 -30.847656 -13.40625 -31.078125 -13.648438 -30.457031 L -13.980469 -29.613281 C -14.222656 -28.992188 -13.832031 -28.941406 -13.210938 -28.699219 L -12.28125 -28.335938 C -14.515625 -27.0625 -16.28125 -25.042969 -17.285156 -22.46875 C -19.699219 -16.304688 -16.519531 -9.28125 -9.953125 -6.710938 C -3.390625 -4.140625 3.359375 -7.277344 5.773438 -13.441406 Z M -9.191406 -8.660156 C -14.601562 -10.78125 -17.382812 -16.472656 -15.378906 -21.722656 C -14.332031 -24.535156 -11.5625 -27.03125 -9.175781 -27.117188 L 2.355469 -22.605469 C 4.621094 -20.949219 5.097656 -17.335938 3.867188 -14.1875 C 1.816406 -8.953125 -3.824219 -6.5625 -9.191406 -8.660156 Z M -9.191406 -8.660156 "/></g></g></g><g fill="#c1ff72" fill-opacity="1"><g transform="translate(61.935353, 129.089023)"><g><path d="M 11.144531 -20.53125 L -2.570312 -28.777344 C -6.890625 -31.390625 -11.394531 -28.269531 -13.90625 -24.113281 C -15.066406 -22.199219 -15.769531 -20.121094 -15.964844 -18.234375 C -16.355469 -18.414062 -16.625 -18.523438 -16.894531 -18.074219 L -17.339844 -17.339844 C -17.683594 -16.769531 -17.292969 -16.589844 -16.722656 -16.242188 L 1.773438 -5.050781 C 2.34375 -4.703125 2.6875 -4.441406 3.03125 -5.011719 L 3.476562 -5.746094 C 3.796875 -6.273438 3.429688 -6.496094 2.859375 -6.84375 L -13.722656 -16.878906 C -14.066406 -18.699219 -13.453125 -21 -12.222656 -23.039062 C -10.222656 -26.339844 -6.710938 -28.832031 -3.753906 -27.097656 L 10.125 -18.753906 C 10.65625 -18.433594 11.039062 -18.148438 11.34375 -18.742188 L 11.785156 -19.476562 C 12.105469 -20.003906 11.714844 -20.1875 11.144531 -20.53125 Z M 11.144531 -20.53125 "/></g></g></g><g fill="#c1ff72" fill-opacity="1"><g transform="translate(74.44447, 108.77786)"><g><path d="M 2.375 -4.847656 C 2.902344 -4.441406 3.210938 -4.140625 3.617188 -4.667969 L 4.171875 -5.382812 C 4.550781 -5.871094 4.183594 -6.097656 3.65625 -6.503906 L -13.464844 -19.785156 C -14.03125 -20.222656 -14.265625 -20.464844 -14.644531 -19.972656 L -15.199219 -19.257812 C -15.609375 -18.730469 -15.277344 -18.535156 -14.75 -18.128906 Z M -19.300781 -22.984375 C -18.71875 -23.734375 -18.835938 -24.671875 -19.589844 -25.253906 C -20.378906 -25.867188 -21.277344 -25.71875 -21.863281 -24.96875 C -22.445312 -24.214844 -22.335938 -23.347656 -21.546875 -22.734375 C -20.792969 -22.148438 -19.886719 -22.230469 -19.300781 -22.984375 Z M -19.300781 -22.984375 "/></g></g></g><g fill="#c1ff72" fill-opacity="1"><g transform="translate(79.434894, 101.972246)"><g><path d="M -14.371094 -19.550781 C -14.402344 -19.515625 -14.433594 -19.480469 -14.5 -19.410156 C -14.851562 -19.019531 -15.070312 -18.707031 -14.644531 -18.324219 L -14.007812 -17.75 C -13.511719 -17.304688 -13.261719 -17.652344 -12.816406 -18.148438 L -12.464844 -18.539062 L -1.527344 -8.621094 C 1.9375 -5.496094 4.625 -5.0625 7.941406 -8.742188 C 8.453125 -9.308594 8.925781 -9.90625 9.460938 -10.644531 C 9.839844 -11.132812 10.128906 -11.453125 9.632812 -11.898438 L 8.851562 -12.601562 C 8.570312 -12.855469 8.402344 -12.8125 8.246094 -12.636719 C 8.117188 -12.496094 7.992188 -12.285156 7.867188 -12.078125 C 7.402344 -11.34375 6.902344 -10.578125 6.359375 -9.976562 C 4.796875 -8.242188 2.882812 -7.46875 0.792969 -9.347656 L -11.09375 -20.058594 L -7.875 -23.632812 C -7.839844 -23.667969 -7.777344 -23.738281 -7.746094 -23.773438 C -7.394531 -24.164062 -7.207031 -24.445312 -7.632812 -24.828125 L -8.269531 -25.398438 C -8.695312 -25.78125 -8.953125 -25.566406 -9.335938 -25.140625 C -9.367188 -25.105469 -9.398438 -25.070312 -9.429688 -25.035156 L -12.648438 -21.460938 L -18.949219 -27.136719 C -19.40625 -27.550781 -19.695312 -27.875 -20.109375 -27.414062 L -20.683594 -26.777344 C -21.128906 -26.28125 -20.777344 -26.03125 -20.285156 -25.582031 L -14.019531 -19.941406 Z M -14.371094 -19.550781 "/></g></g></g><g fill="#c1ff72" fill-opacity="1"><g transform="translate(87.368577, 93.031995)"><g><path d="M 3.0625 -4.445312 C 3.523438 -3.964844 3.785156 -3.621094 4.265625 -4.082031 L 4.917969 -4.710938 C 5.367188 -5.136719 5.035156 -5.414062 4.574219 -5.894531 L -10.410156 -21.546875 C -10.90625 -22.066406 -11.101562 -22.339844 -11.546875 -21.910156 L -12.203125 -21.285156 C -12.683594 -20.824219 -12.386719 -20.582031 -11.925781 -20.101562 Z M -15.710938 -25.570312 C -15.023438 -26.230469 -15.003906 -27.171875 -15.664062 -27.859375 C -16.355469 -28.582031 -17.261719 -28.570312 -17.953125 -27.910156 C -18.640625 -27.253906 -18.660156 -26.378906 -17.96875 -25.65625 C -17.308594 -24.964844 -16.398438 -24.914062 -15.710938 -25.570312 Z M -15.710938 -25.570312 "/></g></g></g><g fill="#c1ff72" fill-opacity="1"><g transform="translate(92.620133, 86.920407)"><g><path d="M -5.207031 -11.28125 C -0.828125 -5.457031 6.585938 -4.476562 12.105469 -8.628906 C 17.546875 -12.722656 18.621094 -20.085938 14.355469 -25.757812 C 10.035156 -31.503906 2.640625 -32.378906 -2.726562 -28.34375 C -8.089844 -24.304688 -9.644531 -17.179688 -5.207031 -11.28125 Z M -3.273438 -12.195312 C -7.320312 -17.496094 -6.0625 -23.269531 -1.492188 -26.707031 C 2.960938 -30.054688 9.019531 -29.367188 12.824219 -24.304688 C 16.289062 -19.699219 15.363281 -13.640625 10.871094 -10.265625 C 6.457031 -6.941406 0.285156 -7.542969 -3.273438 -12.195312 Z M -3.273438 -12.195312 "/></g></g></g><g fill="#c1ff72" fill-opacity="1"><g transform="translate(111.834271, 71.959044)"><g><path d="M 20.277344 -11.601562 L 12.949219 -25.824219 C 10.652344 -30.320312 5.179688 -30.035156 0.855469 -27.824219 C -1.136719 -26.804688 -2.828125 -25.40625 -3.988281 -23.90625 C -4.222656 -24.265625 -4.398438 -24.496094 -4.863281 -24.257812 L -5.625 -23.867188 C -6.21875 -23.566406 -5.980469 -23.203125 -5.679688 -22.609375 L 4.164062 -3.359375 C 4.46875 -2.765625 4.621094 -2.363281 5.214844 -2.667969 L 5.980469 -3.058594 C 6.53125 -3.339844 6.335938 -3.722656 6.03125 -4.316406 L -2.792969 -21.574219 C -2.128906 -23.304688 -0.394531 -24.9375 1.722656 -26.023438 C 5.160156 -27.777344 9.457031 -28.050781 11.0625 -25.019531 L 18.476562 -10.625 C 18.757812 -10.074219 18.933594 -9.628906 19.503906 -9.972656 L 20.269531 -10.363281 C 20.820312 -10.648438 20.582031 -11.007812 20.277344 -11.601562 Z M 20.277344 -11.601562 "/></g></g></g><g fill="#c1ff72" fill-opacity="1"><g transform="translate(133.067195, 61.242496)"><g/></g></g><g fill="#c1ff72" fill-opacity="1"><g transform="translate(143.017707, 57.472921)"><g><path d="M -3.054688 -33.796875 C -3.695312 -33.613281 -3.53125 -33.214844 -3.351562 -32.574219 L 5.195312 -2.621094 C 5.378906 -1.980469 5.449219 -1.554688 6.089844 -1.738281 L 6.914062 -1.972656 C 7.554688 -2.15625 7.394531 -2.554688 7.210938 -3.195312 L -1.335938 -33.148438 C -1.519531 -33.789062 -1.589844 -34.214844 -2.230469 -34.03125 Z M -3.054688 -33.796875 "/></g></g></g><g fill="#c1ff72" fill-opacity="1"><g transform="translate(151.570959, 54.58022)"><g><path d="M 13.992188 -23.855469 C 13.570312 -26.152344 8.613281 -26.265625 6.972656 -25.964844 C 5.144531 -25.628906 3.414062 -24.78125 2.175781 -23.34375 C -0.09375 -20.65625 -0.3125 -16.546875 3.179688 -14.136719 C 7.5 -11.148438 15.140625 -14.917969 15.144531 -7.996094 C 15.097656 -5.613281 12.59375 -3.945312 9.78125 -3.433594 C 7.625 -3.039062 5.351562 -3.300781 3.800781 -4.375 C 3.578125 -4.527344 3.421875 -4.59375 3.328125 -4.578125 C 3.1875 -4.550781 3.128906 -4.347656 3.195312 -3.972656 L 3.457031 -2.808594 C 3.585938 -2.105469 4.003906 -1.941406 4.570312 -1.753906 C 6.082031 -1.160156 8.136719 -1.050781 10.148438 -1.417969 C 13.335938 -2 16.4375 -3.824219 17.078125 -6.945312 C 17.550781 -9.402344 16.957031 -12.925781 13.257812 -14.089844 C 9.660156 -15.222656 3.328125 -13.582031 2.726562 -18.992188 C 2.492188 -21.078125 4.449219 -23.613281 7.402344 -24.15625 C 9.226562 -24.488281 11.378906 -24.105469 13.582031 -22.378906 C 13.8125 -22.179688 13.972656 -22.109375 14.0625 -22.128906 C 14.203125 -22.152344 14.265625 -22.359375 14.195312 -22.734375 Z M 13.992188 -23.855469 "/></g></g></g><g fill="#c1ff72" fill-opacity="1"><g transform="translate(169.084329, 51.337351)"><g/></g></g><g fill="#c1ff72" fill-opacity="1"><g transform="translate(179.059808, 49.660103)"><g><path d="M 29.203125 -1.976562 C 29.707031 -2.476562 29.71875 -2.664062 29.273438 -3.261719 C 29.097656 -3.511719 28.910156 -3.617188 28.671875 -3.628906 C 28.386719 -3.644531 28.09375 -3.515625 27.792969 -3.246094 C 25.636719 -1.316406 21.71875 -0.289062 19.339844 -0.417969 C 11.066406 -0.921875 6.476562 -6.800781 7 -16.359375 C 7.515625 -25.726562 12.773438 -31.210938 20.667969 -30.777344 C 23.710938 -30.609375 27.070312 -29.1875 28.878906 -26.558594 C 29.101562 -26.261719 29.382812 -26.148438 29.667969 -26.132812 C 29.953125 -26.117188 30.246094 -26.246094 30.496094 -26.421875 C 31.035156 -26.726562 31.117188 -27.34375 30.574219 -27.898438 C 27.875 -30.859375 24.53125 -32.472656 20.535156 -32.691406 C 11.546875 -33.183594 5.285156 -26.851562 4.714844 -16.433594 C 4.136719 -5.878906 9.203125 0.886719 19 1.421875 C 22.613281 1.621094 26.535156 0.59375 29.203125 -1.976562 Z M 29.203125 -1.976562 "/></g></g></g><g fill="#c1ff72" fill-opacity="1"><g transform="translate(205.481316, 50.71832)"><g><path d="M 5.40625 -11.1875 C 3.6875 -4.105469 7.640625 2.242188 14.351562 3.867188 C 20.972656 5.472656 27.339844 1.625 29.011719 -5.273438 C 30.707031 -12.261719 26.683594 -18.527344 20.160156 -20.109375 C 13.632812 -21.6875 7.140625 -18.359375 5.40625 -11.1875 Z M 7.339844 -10.277344 C 8.863281 -16.769531 14.121094 -19.464844 19.675781 -18.117188 C 25.09375 -16.804688 28.410156 -11.691406 26.917969 -5.535156 C 25.5625 0.0664062 20.296875 3.199219 14.832031 1.878906 C 9.464844 0.578125 6.007812 -4.570312 7.339844 -10.277344 Z M 7.339844 -10.277344 "/></g></g></g><g fill="#c1ff72" fill-opacity="1"><g transform="translate(229.153959, 55.320779)"><g><path d="M 14.539062 -18.226562 L 5.199219 1.273438 C 4.910156 1.875 4.683594 2.242188 5.28125 2.53125 L 6.054688 2.902344 C 6.613281 3.167969 6.800781 2.78125 7.085938 2.179688 L 15.480469 -15.34375 C 17.261719 -15.863281 19.375 -15.539062 21.179688 -14.671875 C 24.1875 -13.234375 26.324219 -10.308594 24.90625 -7.238281 L 17.933594 7.429688 C 17.667969 7.988281 17.417969 8.394531 18.039062 8.640625 L 18.8125 9.011719 C 19.371094 9.277344 19.511719 8.871094 19.800781 8.269531 L 26.671875 -6.183594 C 27.289062 -7.46875 27.523438 -8.730469 27.441406 -9.878906 C 29.160156 -10.269531 31.101562 -9.921875 32.777344 -9.117188 C 35.785156 -7.679688 37.921875 -4.753906 36.503906 -1.683594 L 29.53125 12.984375 C 29.261719 13.542969 29.015625 13.949219 29.636719 14.195312 L 30.410156 14.566406 C 30.96875 14.832031 31.109375 14.425781 31.398438 13.824219 L 38.269531 -0.628906 C 40.449219 -5.179688 37.722656 -8.96875 33.855469 -10.820312 C 31.667969 -11.867188 29.125 -12.292969 26.871094 -12 C 26.03125 -13.882812 24.277344 -15.40625 22.214844 -16.394531 C 20.5 -17.21875 18.488281 -17.652344 16.59375 -17.664062 C 16.734375 -18.070312 16.816406 -18.347656 16.34375 -18.574219 L 15.570312 -18.945312 C 14.96875 -19.234375 14.828125 -18.828125 14.539062 -18.226562 Z M 14.539062 -18.226562 "/></g></g></g><g fill="#c1ff72" fill-opacity="1"><g transform="translate(259.787559, 69.934818)"><g><path d="M 19.078125 -15.371094 C 18.585938 -15.75 18.402344 -15.351562 17.996094 -14.820312 L -0.980469 9.875 C -1.386719 10.40625 -1.648438 10.746094 -1.160156 11.121094 L -0.476562 11.644531 C 0.0507812 12.050781 0.273438 11.679688 0.679688 11.152344 L 7.0625 2.84375 C 7.445312 5.238281 9.300781 7.746094 11.417969 9.371094 C 16.703125 13.433594 24.328125 12.265625 28.535156 6.789062 C 32.742188 1.316406 31.832031 -6.171875 26.390625 -10.351562 C 24.238281 -12.007812 21.65625 -12.789062 19.078125 -12.789062 L 19.65625 -13.546875 C 20.0625 -14.074219 20.398438 -14.355469 19.871094 -14.761719 Z M 17.015625 -10.109375 C 18.988281 -11.113281 22.359375 -10.808594 25.039062 -8.75 C 29.648438 -5.207031 30.445312 0.867188 26.875 5.515625 C 23.21875 10.273438 16.894531 11 12.550781 7.660156 C 10.511719 6.09375 8.734375 3.167969 8.863281 0.503906 Z M 17.015625 -10.109375 "/></g></g></g><g fill="#c1ff72" fill-opacity="1"><g transform="translate(279.202211, 84.328836)"><g><path d="M 16.996094 16.070312 L 32.9375 1.394531 C 33.394531 0.972656 33.742188 0.71875 33.324219 0.265625 L 32.742188 -0.367188 C 32.289062 -0.855469 31.976562 -0.566406 31.519531 -0.148438 L 17.226562 13.011719 C 15.378906 12.835938 13.375 11.574219 11.761719 9.820312 C 9.148438 6.984375 7.734375 2.914062 10.21875 0.625 L 22.101562 -10.378906 C 22.589844 -10.828125 22.90625 -11.121094 22.488281 -11.574219 L 21.90625 -12.207031 C 21.417969 -12.664062 21.136719 -12.339844 20.679688 -11.921875 L 8.941406 -1.046875 C 5.222656 2.441406 6.96875 7.566406 10.257812 11.140625 C 11.773438 12.789062 13.542969 14.074219 15.332031 14.753906 C 15.015625 15.113281 14.835938 15.339844 15.222656 15.761719 L 15.804688 16.394531 C 16.222656 16.847656 16.542969 16.492188 16.996094 16.070312 Z M 16.996094 16.070312 "/></g></g></g><g fill="#c1ff72" fill-opacity="1"><g transform="translate(295.220011, 101.854483)"><g><path d="M 22.222656 -9.746094 C 22.195312 -9.785156 22.167969 -9.824219 22.113281 -9.902344 C 21.808594 -10.328125 21.550781 -10.613281 21.082031 -10.28125 L 20.382812 -9.785156 C 19.839844 -9.402344 20.128906 -9.078125 20.511719 -8.535156 L 20.816406 -8.105469 L 8.746094 0.394531 C 4.9375 3.09375 3.929688 5.621094 6.792969 9.660156 C 7.234375 10.28125 7.714844 10.878906 8.316406 11.558594 C 8.710938 12.039062 8.960938 12.386719 9.503906 12 L 10.359375 11.394531 C 10.667969 11.175781 10.664062 11.003906 10.527344 10.808594 C 10.417969 10.652344 10.238281 10.488281 10.0625 10.320312 C 9.449219 9.703125 8.8125 9.046875 8.34375 8.386719 C 6.992188 6.484375 6.65625 4.445312 8.949219 2.820312 L 22 -6.4375 L 24.785156 -2.511719 C 24.8125 -2.472656 24.867188 -2.398438 24.894531 -2.359375 C 25.195312 -1.929688 25.429688 -1.6875 25.894531 -2.015625 L 26.59375 -2.511719 C 27.058594 -2.84375 26.90625 -3.144531 26.574219 -3.609375 C 26.546875 -3.648438 26.519531 -3.6875 26.492188 -3.726562 L 23.710938 -7.648438 L 30.625 -12.554688 C 31.128906 -12.910156 31.507812 -13.121094 31.148438 -13.625 L 30.652344 -14.324219 C 30.265625 -14.867188 29.945312 -14.582031 29.402344 -14.195312 L 22.527344 -9.320312 Z M 22.222656 -9.746094 "/></g></g></g><g fill="#c1ff72" fill-opacity="1"><g transform="translate(302.389181, 110.854824)"><g><path d="M 28.382812 1.5 C 25.160156 -4.496094 17.894531 -6.648438 11.8125 -3.375 C 5.730469 -0.105469 3.347656 7.230469 6.503906 13.101562 C 7.789062 15.492188 9.945312 17.6875 12.246094 18.453125 L 11.40625 18.902344 C 10.820312 19.21875 10.417969 19.378906 10.734375 19.964844 L 11.140625 20.722656 C 11.433594 21.265625 11.8125 21.0625 12.398438 20.746094 L 31.441406 10.507812 C 32.03125 10.191406 32.429688 10.03125 32.136719 9.488281 L 31.707031 8.691406 C 31.394531 8.101562 31.039062 8.347656 30.449219 8.664062 L 29.613281 9.113281 C 30.046875 6.609375 29.691406 3.933594 28.382812 1.5 Z M 8.375 12.257812 C 5.78125 7.433594 7.519531 1.3125 12.804688 -1.53125 C 17.960938 -4.304688 23.832031 -2.539062 26.582031 2.578125 C 28.183594 5.554688 27.945312 8.929688 26.632812 10.714844 L 14.847656 17.054688 C 12.195312 16.75 9.59375 14.523438 8.375 12.257812 Z M 8.375 12.257812 "/></g></g></g><g fill="#c1ff72" fill-opacity="1"><g transform="translate(313.087592, 130.858537)"><g><path d="M 23.929688 -4.015625 C 23.914062 -4.058594 23.898438 -4.105469 23.863281 -4.191406 C 23.671875 -4.679688 23.492188 -5.019531 22.957031 -4.8125 L 22.160156 -4.503906 C 21.539062 -4.261719 21.738281 -3.878906 21.976562 -3.257812 L 22.167969 -2.769531 L 8.382812 2.523438 C 4.03125 4.207031 2.433594 6.410156 4.222656 11.03125 C 4.5 11.742188 4.820312 12.433594 5.234375 13.242188 C 5.503906 13.804688 5.660156 14.203125 6.28125 13.960938 L 7.257812 13.582031 C 7.613281 13.445312 7.648438 13.277344 7.5625 13.054688 C 7.496094 12.878906 7.363281 12.671875 7.234375 12.46875 C 6.789062 11.71875 6.332031 10.929688 6.039062 10.171875 C 5.195312 7.996094 5.367188 5.9375 7.988281 4.921875 L 22.90625 -0.859375 L 24.644531 3.625 C 24.664062 3.667969 24.695312 3.757812 24.714844 3.800781 C 24.902344 4.292969 25.070312 4.585938 25.601562 4.378906 L 26.402344 4.070312 C 26.933594 3.863281 26.859375 3.535156 26.652344 3 C 26.632812 2.957031 26.617188 2.910156 26.597656 2.867188 L 24.859375 -1.617188 L 32.765625 -4.679688 C 33.34375 -4.90625 33.757812 -5.015625 33.535156 -5.59375 L 33.226562 -6.390625 C 32.984375 -7.011719 32.601562 -6.8125 31.980469 -6.574219 L 24.121094 -3.527344 Z M 23.929688 -4.015625 "/></g></g></g><g fill="#c1ff72" fill-opacity="1"><g transform="translate(317.497939, 141.966639)"><g><path d="M 2.589844 4.738281 C 1.953125 4.929688 1.527344 5.011719 1.722656 5.648438 L 1.988281 6.515625 C 2.167969 7.105469 2.5625 6.9375 3.199219 6.742188 L 23.929688 0.421875 C 24.609375 0.210938 24.945312 0.160156 24.761719 -0.429688 L 24.5 -1.296875 C 24.304688 -1.933594 23.953125 -1.777344 23.316406 -1.582031 Z M 29.910156 -2.5 C 30.1875 -1.585938 31.019531 -1.144531 31.929688 -1.421875 C 32.886719 -1.714844 33.285156 -2.53125 33.007812 -3.441406 C 32.730469 -4.355469 31.957031 -4.765625 31 -4.472656 C 30.089844 -4.195312 29.632812 -3.410156 29.910156 -2.5 Z M 29.910156 -2.5 "/></g></g></g><g fill="#c1ff72" fill-opacity="1"><g transform="translate(320.58058, 149.412741)"><g><path d="M 12.414062 0.4375 C 5.242188 1.722656 1.027344 7.894531 2.246094 14.695312 C 3.445312 21.398438 9.535156 25.675781 16.519531 24.425781 C 23.597656 23.15625 27.710938 16.953125 26.527344 10.34375 C 25.34375 3.734375 19.683594 -0.863281 12.414062 0.4375 Z M 12.363281 2.574219 C 18.917969 1.351562 23.503906 5.078125 24.511719 10.703125 C 25.496094 16.191406 22.148438 21.289062 15.914062 22.40625 C 10.242188 23.421875 5.25 19.863281 4.261719 14.332031 C 3.285156 8.894531 6.605469 3.65625 12.363281 2.574219 Z M 12.363281 2.574219 "/></g></g></g><g fill="#c1ff72" fill-opacity="1"><g transform="translate(325.277332, 173.306398)"><g><path d="M 1.214844 23.332031 L 17.214844 23.203125 C 22.261719 23.175781 24.476562 18.164062 24.453125 13.304688 C 24.441406 11.066406 23.953125 8.925781 23.136719 7.21875 C 23.5625 7.167969 23.847656 7.117188 23.847656 6.59375 L 23.84375 5.738281 C 23.839844 5.070312 23.410156 5.121094 22.742188 5.125 L 1.121094 5.234375 C 0.457031 5.238281 0.0273438 5.191406 0.03125 5.859375 L 0.0351562 6.714844 C 0.0390625 7.335938 0.464844 7.332031 1.132812 7.328125 L 20.515625 7.230469 C 21.761719 8.605469 22.4375 10.886719 22.453125 13.269531 C 22.472656 17.125 20.777344 21.089844 17.347656 21.152344 L 1.15625 21.28125 C 0.535156 21.285156 0.0585938 21.242188 0.109375 21.90625 L 0.117188 22.765625 C 0.117188 23.382812 0.546875 23.332031 1.214844 23.332031 Z M 1.214844 23.332031 "/></g></g></g></svg>