<svg xmlns="http://www.w3.org/2000/svg" xmlns:xlink="http://www.w3.org/1999/xlink" width="500" zoomAndPan="magnify" viewBox="0 0 375 374.999991" height="500" preserveAspectRatio="xMidYMid meet" version="1.0"><defs><clipPath id="e495a7231f"><path d="M 6.757812 36 L 145 36 L 145 133 L 6.757812 133 Z M 6.757812 36 " clip-rule="nonzero"/></clipPath><clipPath id="077fbfdf2f"><path d="M 229 36 L 367.507812 36 L 367.507812 133 L 229 133 Z M 229 36 " clip-rule="nonzero"/></clipPath><clipPath id="3975cb68c5"><path d="M 148 10.484375 L 226 10.484375 L 226 114 L 148 114 Z M 148 10.484375 " clip-rule="nonzero"/></clipPath><clipPath id="40a11790e8"><path d="M 148 268 L 226 268 L 226 371.234375 L 148 371.234375 Z M 148 268 " clip-rule="nonzero"/></clipPath><clipPath id="d762320c5e"><path d="M 264 152 L 367.507812 152 L 367.507812 230 L 264 230 Z M 264 152 " clip-rule="nonzero"/></clipPath><clipPath id="59477729af"><path d="M 6.757812 152 L 110 152 L 110 230 L 6.757812 230 Z M 6.757812 152 " clip-rule="nonzero"/></clipPath><clipPath id="419b730b7d"><path d="M 229 249 L 367.507812 249 L 367.507812 346 L 229 346 Z M 229 249 " clip-rule="nonzero"/></clipPath><clipPath id="d8db1f030b"><path d="M 6.757812 249 L 145 249 L 145 346 L 6.757812 346 Z M 6.757812 249 " clip-rule="nonzero"/></clipPath><clipPath id="b46de28fec"><path d="M 14.339844 31.5625 L 367.589844 31.5625 L 367.589844 337.5625 L 14.339844 337.5625 Z M 14.339844 31.5625 " clip-rule="nonzero"/></clipPath></defs><path fill="#ffffff" d="M 122.714844 190.859375 C 122.714844 226.382812 151.613281 255.28125 187.132812 255.28125 C 222.65625 255.28125 251.554688 226.382812 251.554688 190.859375 C 251.554688 155.339844 222.65625 126.441406 187.132812 126.441406 C 151.613281 126.441406 122.714844 155.339844 122.714844 190.859375 Z M 187.132812 152.207031 C 208.445312 152.207031 225.785156 169.550781 225.785156 190.859375 C 225.785156 212.171875 208.445312 229.511719 187.132812 229.511719 C 165.824219 229.511719 148.480469 212.171875 148.480469 190.859375 C 148.480469 169.550781 165.824219 152.207031 187.132812 152.207031 Z M 187.132812 152.207031 " fill-opacity="1" fill-rule="nonzero"/><g clip-path="url(#e495a7231f)"><path fill="#ffffff" d="M 121.359375 69.144531 C 119.171875 64.777344 114.714844 62.019531 109.832031 62.019531 L 81.691406 62.019531 C 76.359375 47.0625 62.183594 36.253906 45.410156 36.253906 C 24.101562 36.253906 6.757812 53.59375 6.757812 74.90625 C 6.757812 96.214844 24.101562 113.558594 45.410156 113.558594 C 62.183594 113.558594 76.359375 102.746094 81.691406 87.789062 L 101.867188 87.789062 L 120.589844 125.230469 C 123.808594 131.660156 131.589844 134.132812 137.878906 130.988281 C 144.242188 127.804688 146.820312 120.0625 143.636719 113.699219 Z M 45.410156 87.789062 C 38.3125 87.789062 32.527344 82.003906 32.527344 74.90625 C 32.527344 67.804688 38.3125 62.019531 45.410156 62.019531 C 52.507812 62.019531 58.292969 67.804688 58.292969 74.90625 C 58.292969 82.003906 52.507812 87.789062 45.410156 87.789062 Z M 45.410156 87.789062 " fill-opacity="1" fill-rule="nonzero"/></g><g clip-path="url(#077fbfdf2f)"><path fill="#ffffff" d="M 328.855469 36.253906 C 312.082031 36.253906 297.910156 47.0625 292.574219 62.019531 L 264.4375 62.019531 C 259.554688 62.019531 255.097656 64.777344 252.90625 69.144531 L 230.628906 113.699219 C 227.449219 120.0625 230.039062 127.804688 236.390625 130.988281 C 242.714844 134.144531 250.472656 131.621094 253.679688 125.230469 L 272.398438 87.789062 L 292.574219 87.789062 C 297.910156 102.746094 312.082031 113.558594 328.855469 113.558594 C 350.167969 113.558594 367.507812 96.214844 367.507812 74.90625 C 367.507812 53.59375 350.167969 36.253906 328.855469 36.253906 Z M 328.855469 87.789062 C 321.757812 87.789062 315.972656 82.003906 315.972656 74.90625 C 315.972656 67.804688 321.757812 62.019531 328.855469 62.019531 C 335.957031 62.019531 341.742188 67.804688 341.742188 74.90625 C 341.742188 82.003906 335.957031 87.789062 328.855469 87.789062 Z M 328.855469 87.789062 " fill-opacity="1" fill-rule="nonzero"/></g><g clip-path="url(#3975cb68c5)"><path fill="#ffffff" d="M 187.132812 113.558594 C 194.246094 113.558594 200.019531 107.785156 200.019531 100.671875 L 200.019531 85.417969 C 214.976562 80.085938 225.785156 65.914062 225.785156 49.136719 C 225.785156 27.828125 208.445312 10.484375 187.132812 10.484375 C 165.824219 10.484375 148.480469 27.828125 148.480469 49.136719 C 148.480469 65.914062 159.292969 80.085938 174.25 85.417969 L 174.25 100.671875 C 174.25 107.785156 180.023438 113.558594 187.132812 113.558594 Z M 187.132812 36.253906 C 194.234375 36.253906 200.019531 42.039062 200.019531 49.136719 C 200.019531 56.234375 194.234375 62.019531 187.132812 62.019531 C 180.035156 62.019531 174.25 56.234375 174.25 49.136719 C 174.25 42.039062 180.035156 36.253906 187.132812 36.253906 Z M 187.132812 36.253906 " fill-opacity="1" fill-rule="nonzero"/></g><g clip-path="url(#40a11790e8)"><path fill="#ffffff" d="M 225.785156 332.582031 C 225.785156 315.808594 214.976562 301.636719 200.019531 296.300781 L 200.019531 281.046875 C 200.019531 273.9375 194.246094 268.164062 187.132812 268.164062 C 180.023438 268.164062 174.25 273.9375 174.25 281.046875 L 174.25 296.300781 C 159.292969 301.636719 148.480469 315.808594 148.480469 332.582031 C 148.480469 353.894531 165.824219 371.234375 187.132812 371.234375 C 208.445312 371.234375 225.785156 353.894531 225.785156 332.582031 Z M 187.132812 345.46875 C 180.035156 345.46875 174.25 339.683594 174.25 332.582031 C 174.25 325.484375 180.035156 319.699219 187.132812 319.699219 C 194.234375 319.699219 200.019531 325.484375 200.019531 332.582031 C 200.019531 339.683594 194.234375 345.46875 187.132812 345.46875 Z M 187.132812 345.46875 " fill-opacity="1" fill-rule="nonzero"/></g><g clip-path="url(#d762320c5e)"><path fill="#ffffff" d="M 328.855469 152.207031 C 312.082031 152.207031 297.910156 163.019531 292.574219 177.976562 L 277.320312 177.976562 C 270.210938 177.976562 264.4375 183.75 264.4375 190.859375 C 264.4375 197.972656 270.210938 203.746094 277.320312 203.746094 L 292.574219 203.746094 C 297.910156 218.703125 312.082031 229.511719 328.855469 229.511719 C 350.167969 229.511719 367.507812 212.171875 367.507812 190.859375 C 367.507812 169.550781 350.167969 152.207031 328.855469 152.207031 Z M 328.855469 203.746094 C 321.757812 203.746094 315.972656 197.960938 315.972656 190.859375 C 315.972656 183.761719 321.757812 177.976562 328.855469 177.976562 C 335.957031 177.976562 341.742188 183.761719 341.742188 190.859375 C 341.742188 197.960938 335.957031 203.746094 328.855469 203.746094 Z M 328.855469 203.746094 " fill-opacity="1" fill-rule="nonzero"/></g><g clip-path="url(#59477729af)"><path fill="#ffffff" d="M 45.410156 229.511719 C 62.183594 229.511719 76.359375 218.703125 81.691406 203.746094 L 96.945312 203.746094 C 104.058594 203.746094 109.832031 197.972656 109.832031 190.859375 C 109.832031 183.75 104.058594 177.976562 96.945312 177.976562 L 81.691406 177.976562 C 76.359375 163.019531 62.183594 152.207031 45.410156 152.207031 C 24.101562 152.207031 6.757812 169.550781 6.757812 190.859375 C 6.757812 212.171875 24.101562 229.511719 45.410156 229.511719 Z M 45.410156 177.976562 C 52.507812 177.976562 58.292969 183.761719 58.292969 190.859375 C 58.292969 197.960938 52.507812 203.746094 45.410156 203.746094 C 38.3125 203.746094 32.527344 197.960938 32.527344 190.859375 C 32.527344 183.761719 38.3125 177.976562 45.410156 177.976562 Z M 45.410156 177.976562 " fill-opacity="1" fill-rule="nonzero"/></g><g clip-path="url(#419b730b7d)"><path fill="#ffffff" d="M 328.855469 268.164062 C 312.082031 268.164062 297.910156 278.972656 292.574219 293.933594 L 272.398438 293.933594 L 253.679688 256.492188 C 250.496094 250.125 242.765625 247.550781 236.390625 250.730469 C 230.023438 253.914062 227.449219 261.65625 230.628906 268.023438 L 252.90625 312.574219 C 255.097656 316.941406 259.554688 319.699219 264.4375 319.699219 L 292.574219 319.699219 C 297.910156 334.65625 312.082031 345.46875 328.855469 345.46875 C 350.167969 345.46875 367.507812 328.125 367.507812 306.816406 C 367.507812 285.503906 350.167969 268.164062 328.855469 268.164062 Z M 328.855469 319.699219 C 321.757812 319.699219 315.972656 313.914062 315.972656 306.816406 C 315.972656 299.714844 321.757812 293.933594 328.855469 293.933594 C 335.957031 293.933594 341.742188 299.714844 341.742188 306.816406 C 341.742188 313.914062 335.957031 319.699219 328.855469 319.699219 Z M 328.855469 319.699219 " fill-opacity="1" fill-rule="nonzero"/></g><g clip-path="url(#d8db1f030b)"><path fill="#ffffff" d="M 45.410156 345.46875 C 62.183594 345.46875 76.359375 334.65625 81.691406 319.699219 L 109.832031 319.699219 C 114.714844 319.699219 119.171875 316.941406 121.359375 312.574219 L 143.636719 268.023438 C 146.820312 261.65625 144.230469 253.914062 137.878906 250.730469 C 131.5 247.550781 123.769531 250.140625 120.589844 256.492188 L 101.867188 293.933594 L 81.691406 293.933594 C 76.359375 278.972656 62.183594 268.164062 45.410156 268.164062 C 24.101562 268.164062 6.757812 285.503906 6.757812 306.816406 C 6.757812 328.125 24.101562 345.46875 45.410156 345.46875 Z M 45.410156 293.933594 C 52.507812 293.933594 58.292969 299.714844 58.292969 306.816406 C 58.292969 313.914062 52.507812 319.699219 45.410156 319.699219 C 38.3125 319.699219 32.527344 313.914062 32.527344 306.816406 C 32.527344 299.714844 38.3125 293.933594 45.410156 293.933594 Z M 45.410156 293.933594 " fill-opacity="1" fill-rule="nonzero"/></g><g clip-path="url(#b46de28fec)"><path fill="#000000" d="M 132.117188 78.640625 L 26.195312 78.640625 C 19.699219 78.640625 14.425781 83.910156 14.425781 90.410156 L 14.425781 325.792969 C 14.425781 332.289062 19.699219 337.5625 26.195312 337.5625 L 355.734375 337.5625 C 362.230469 337.5625 367.503906 332.289062 367.503906 325.792969 L 367.503906 90.410156 C 367.503906 83.910156 362.230469 78.640625 355.734375 78.640625 L 249.8125 78.640625 L 249.8125 43.332031 C 249.8125 36.835938 244.539062 31.5625 238.042969 31.5625 L 143.886719 31.5625 C 137.390625 31.5625 132.117188 36.835938 132.117188 43.332031 Z M 238.042969 196.332031 L 238.042969 208.101562 C 238.042969 214.597656 232.769531 219.871094 226.273438 219.871094 L 155.65625 219.871094 C 149.160156 219.871094 143.886719 214.597656 143.886719 208.101562 L 143.886719 196.332031 L 37.964844 196.332031 L 37.964844 314.023438 C 37.964844 314.023438 343.964844 314.023438 343.964844 314.023438 L 343.964844 196.332031 Z M 214.503906 172.792969 L 214.503906 196.332031 C 214.503906 196.332031 167.425781 196.332031 167.425781 196.332031 C 167.425781 196.332031 167.425781 172.792969 167.425781 172.792969 Z M 37.964844 172.792969 L 143.886719 172.792969 L 143.886719 161.023438 C 143.886719 154.527344 149.160156 149.253906 155.65625 149.253906 L 226.273438 149.253906 C 232.769531 149.253906 238.042969 154.527344 238.042969 161.023438 L 238.042969 172.792969 L 343.964844 172.792969 L 343.964844 102.179688 L 37.964844 102.179688 Z M 226.273438 78.640625 L 155.65625 78.640625 C 155.65625 78.640625 155.65625 55.101562 155.65625 55.101562 L 226.273438 55.101562 Z M 226.273438 78.640625 " fill-opacity="1" fill-rule="evenodd"/></g></svg>