<svg xmlns="http://www.w3.org/2000/svg" xmlns:xlink="http://www.w3.org/1999/xlink" width="500" zoomAndPan="magnify" viewBox="0 0 375 374.999991" height="500" preserveAspectRatio="xMidYMid meet" version="1.0"><defs><g/><clipPath id="e328ae209f"><path d="M 54.257812 101.878906 L 332.507812 101.878906 L 332.507812 298.378906 L 54.257812 298.378906 Z M 54.257812 101.878906 " clip-rule="nonzero"/></clipPath></defs><path fill="#8b0bef" d="M 280.875 194.238281 C 280.035156 195.726562 280.570312 197.605469 282.0625 198.4375 C 285.976562 200.625 289.8125 202.980469 293.472656 205.449219 C 293.996094 205.800781 294.59375 205.972656 295.191406 205.972656 C 296.183594 205.972656 297.15625 205.5 297.753906 204.613281 C 298.707031 203.199219 298.332031 201.285156 296.921875 200.324219 C 293.121094 197.765625 289.136719 195.320312 285.070312 193.046875 C 283.578125 192.21875 281.699219 192.746094 280.875 194.238281 " fill-opacity="1" fill-rule="nonzero"/><g clip-path="url(#e328ae209f)"><path fill="#8b0bef" d="M 61.84375 234.230469 C 84.945312 205.394531 120.457031 185.808594 160.753906 178.890625 C 141.851562 190.097656 129.152344 210.710938 129.152344 234.230469 C 129.152344 257.757812 141.851562 278.371094 160.753906 289.578125 C 120.457031 282.65625 84.945312 263.074219 61.84375 234.230469 Z M 251.558594 234.230469 C 251.558594 266.285156 225.488281 292.355469 193.441406 292.355469 C 161.394531 292.355469 135.324219 266.285156 135.324219 234.230469 C 135.324219 202.191406 161.394531 176.113281 193.441406 176.113281 C 225.488281 176.113281 251.558594 202.191406 251.558594 234.230469 Z M 89.003906 148.347656 C 86.09375 148.347656 83.726562 145.984375 83.726562 143.074219 C 83.726562 140.160156 86.09375 137.792969 89.003906 137.792969 C 91.914062 137.792969 94.28125 140.160156 94.28125 143.074219 C 94.28125 145.984375 91.914062 148.347656 89.003906 148.347656 Z M 283.875 108.050781 C 286.785156 108.050781 289.15625 110.414062 289.15625 113.332031 C 289.15625 116.238281 286.785156 118.605469 283.875 118.605469 C 280.96875 118.605469 278.597656 116.238281 278.597656 113.332031 C 278.597656 110.414062 280.96875 108.050781 283.875 108.050781 Z M 267.144531 143.21875 C 270.058594 143.21875 272.421875 145.589844 272.421875 148.5 C 272.421875 151.40625 270.058594 153.773438 267.144531 153.773438 C 264.238281 153.773438 261.871094 151.40625 261.871094 148.5 C 261.871094 145.589844 264.238281 143.21875 267.144531 143.21875 Z M 331.410156 232.347656 C 328.773438 228.929688 325.914062 225.574219 322.921875 222.375 C 322.921875 222.367188 322.914062 222.367188 322.914062 222.367188 C 321.492188 220.839844 320.019531 219.34375 318.523438 217.871094 C 317.308594 216.683594 315.347656 216.703125 314.152344 217.921875 C 312.964844 219.140625 312.984375 221.09375 314.203125 222.289062 C 315.640625 223.695312 317.042969 225.128906 318.410156 226.589844 L 318.410156 226.59375 C 320.722656 229.058594 322.945312 231.621094 325.035156 234.226562 C 301.9375 263.070312 266.421875 282.65625 226.128906 289.574219 C 245.027344 278.367188 257.730469 257.753906 257.730469 234.226562 C 257.730469 210.707031 245.035156 190.101562 226.132812 178.894531 C 234.925781 180.410156 243.554688 182.546875 251.953125 185.296875 C 251.957031 185.300781 251.964844 185.300781 251.964844 185.300781 C 253.894531 185.9375 255.800781 186.59375 257.6875 187.285156 C 258.039062 187.414062 258.402344 187.476562 258.753906 187.476562 C 260.011719 187.476562 261.191406 186.699219 261.65625 185.449219 C 262.242188 183.847656 261.414062 182.074219 259.820312 181.488281 C 257.859375 180.773438 255.882812 180.089844 253.886719 179.4375 L 253.878906 179.429688 C 235.601562 173.441406 216.320312 170.269531 196.527344 169.96875 L 196.527344 143.074219 C 196.527344 141.367188 195.148438 139.984375 193.441406 139.984375 L 151.550781 139.984375 L 151.550781 116.417969 L 224.953125 116.417969 L 224.953125 148.5 C 224.953125 150.207031 226.332031 151.585938 228.039062 151.585938 L 256.136719 151.585938 C 257.484375 156.402344 261.90625 159.949219 267.144531 159.949219 C 273.457031 159.949219 278.597656 154.8125 278.597656 148.5 C 278.597656 142.183594 273.457031 137.046875 267.144531 137.046875 C 261.90625 137.046875 257.484375 140.59375 256.136719 145.410156 L 231.125 145.410156 L 231.125 116.417969 L 272.859375 116.417969 C 274.210938 121.230469 278.632812 124.78125 283.875 124.78125 C 290.191406 124.78125 295.328125 119.640625 295.328125 113.328125 C 295.328125 107.011719 290.191406 101.875 283.875 101.875 C 278.632812 101.875 274.210938 105.425781 272.859375 110.242188 L 148.464844 110.242188 C 146.757812 110.242188 145.378906 111.625 145.378906 113.328125 L 145.378906 139.984375 L 100.019531 139.984375 C 98.667969 135.164062 94.25 131.621094 89.003906 131.621094 C 82.691406 131.621094 77.554688 136.757812 77.554688 143.074219 C 77.554688 149.382812 82.691406 154.523438 89.003906 154.523438 C 94.25 154.523438 98.667969 150.976562 100.019531 146.160156 L 190.359375 146.160156 L 190.351562 169.980469 C 135.3125 170.820312 85.070312 193.988281 55.46875 232.34375 C 54.613281 233.457031 54.613281 235.003906 55.472656 236.121094 C 85.320312 274.804688 136.179688 298.042969 191.769531 298.503906 C 192.324219 298.519531 192.878906 298.523438 193.441406 298.523438 C 194 298.523438 194.554688 298.519531 195.109375 298.503906 C 250.699219 298.042969 301.554688 274.804688 331.410156 236.121094 C 332.265625 235.003906 332.265625 233.457031 331.410156 232.347656 " fill-opacity="1" fill-rule="nonzero"/></g><path fill="#8b0bef" d="M 171.175781 232.820312 C 172.886719 233.394531 174.691406 233.6875 176.535156 233.6875 C 185.921875 233.6875 193.566406 226.042969 193.566406 216.648438 C 193.566406 215.054688 193.335938 213.464844 192.878906 211.925781 C 205.382812 211.671875 215.757812 221.742188 215.757812 234.230469 C 215.757812 246.539062 205.746094 256.550781 193.4375 256.550781 C 181.128906 256.550781 171.121094 246.539062 171.121094 234.230469 C 171.121094 233.769531 171.136719 233.292969 171.175781 232.820312 Z M 193.4375 262.722656 C 209.148438 262.722656 221.929688 249.945312 221.929688 234.230469 C 221.929688 218.523438 209.148438 205.746094 193.4375 205.746094 C 191.523438 205.746094 189.605469 205.9375 187.746094 206.316406 C 186.753906 206.519531 185.929688 207.191406 185.527344 208.125 C 185.128906 209.046875 185.207031 210.113281 185.738281 210.96875 C 186.824219 212.710938 187.394531 214.679688 187.394531 216.648438 C 187.394531 222.636719 182.523438 227.511719 176.535156 227.511719 C 174.371094 227.511719 172.285156 226.882812 170.496094 225.675781 C 169.652344 225.113281 168.59375 224.996094 167.65625 225.367188 C 166.714844 225.730469 166.011719 226.53125 165.777344 227.515625 C 165.222656 229.78125 164.945312 232.042969 164.945312 234.230469 C 164.945312 249.945312 177.730469 262.722656 193.4375 262.722656 " fill-opacity="1" fill-rule="nonzero"/><g fill="#c1ff72" fill-opacity="1"><g transform="translate(56.837808, 160.001245)"><g><path d="M -31.046875 -9.070312 L 2.070312 -11.574219 C 2.671875 -11.609375 3.097656 -11.546875 3.269531 -12.191406 L 3.875 -14.445312 C 4.046875 -15.085938 3.660156 -15.289062 3.167969 -15.667969 L -24.144531 -34.4375 C -24.679688 -34.828125 -25.089844 -35.132812 -25.261719 -34.488281 L -25.511719 -33.570312 C -25.683594 -32.925781 -25.292969 -32.722656 -24.746094 -32.378906 L 2.429688 -13.648438 L -30.445312 -11.128906 C -31.09375 -11.105469 -31.53125 -11.121094 -31.707031 -10.480469 L -31.964844 -9.511719 C -32.136719 -8.867188 -31.660156 -8.988281 -31.046875 -9.070312 Z M -31.046875 -9.070312 "/></g></g></g><g fill="#c1ff72" fill-opacity="1"><g transform="translate(62.957912, 137.80187)"><g><path d="M 0.914062 -5.320312 C 1.535156 -5.078125 1.917969 -4.875 2.160156 -5.496094 L 2.492188 -6.339844 C 2.71875 -6.914062 2.300781 -7.027344 1.679688 -7.269531 L -18.484375 -15.199219 C -19.148438 -15.460938 -19.441406 -15.628906 -19.667969 -15.050781 L -20 -14.210938 C -20.246094 -13.589844 -19.871094 -13.492188 -19.25 -13.25 Z M -24.984375 -16.628906 C -24.636719 -17.515625 -25.011719 -18.378906 -25.898438 -18.730469 C -26.832031 -19.09375 -27.648438 -18.699219 -28 -17.8125 C -28.347656 -16.929688 -27.996094 -16.125 -27.066406 -15.757812 C -26.179688 -15.410156 -25.332031 -15.742188 -24.984375 -16.628906 Z M -24.984375 -16.628906 "/></g></g></g><g fill="#c1ff72" fill-opacity="1"><g transform="translate(65.561269, 129.975406)"><g><path d="M -10.53125 -25.574219 C -12.613281 -26.628906 -15.699219 -22.746094 -16.453125 -21.261719 C -17.292969 -19.605469 -17.667969 -17.710938 -17.273438 -15.855469 C -16.503906 -12.421875 -13.363281 -9.765625 -9.332031 -11.082031 C -4.339844 -12.71875 -2.71875 -21.078125 2.796875 -16.894531 C 4.664062 -15.417969 4.476562 -12.414062 3.183594 -9.867188 C 2.195312 -7.910156 0.609375 -6.257812 -1.183594 -5.671875 C -1.4375 -5.589844 -1.589844 -5.503906 -1.632812 -5.417969 C -1.695312 -5.292969 -1.570312 -5.121094 -1.230469 -4.949219 L -0.144531 -4.453125 C 0.492188 -4.128906 0.875 -4.363281 1.367188 -4.699219 C 2.757812 -5.542969 4.085938 -7.113281 5.011719 -8.941406 C 6.476562 -11.828125 6.898438 -15.402344 4.804688 -17.800781 C 3.132812 -19.664062 -0.03125 -21.320312 -3.195312 -19.078125 C -6.277344 -16.902344 -8.800781 -10.867188 -13.472656 -13.664062 C -15.277344 -14.738281 -16.109375 -17.828125 -14.753906 -20.507812 C -13.914062 -22.164062 -12.308594 -23.644531 -9.601562 -24.355469 C -9.300781 -24.417969 -9.152344 -24.5 -9.109375 -24.585938 C -9.042969 -24.714844 -9.171875 -24.882812 -9.511719 -25.058594 Z M -10.53125 -25.574219 "/></g></g></g><g fill="#c1ff72" fill-opacity="1"><g transform="translate(72.891121, 114.184156)"><g><path d="M 12.183594 -19.96875 L -5.492188 -32.507812 C -5.996094 -32.867188 -6.316406 -33.152344 -6.675781 -32.648438 L -7.171875 -31.949219 C -7.558594 -31.40625 -7.207031 -31.15625 -6.703125 -30.800781 L 9.144531 -19.554688 C 9.355469 -17.714844 8.539062 -15.492188 7.160156 -13.546875 C 4.925781 -10.402344 1.242188 -8.171875 -1.515625 -10.125 L -14.75 -19.457031 C -15.292969 -19.84375 -15.644531 -20.089844 -16 -19.585938 L -16.496094 -18.886719 C -16.84375 -18.316406 -16.46875 -18.105469 -15.960938 -17.75 L -2.882812 -8.527344 C 1.300781 -5.617188 5.953125 -8.390625 8.761719 -12.351562 C 10.058594 -14.175781 10.949219 -16.171875 11.242188 -18.066406 C 11.65625 -17.832031 11.917969 -17.703125 12.25 -18.171875 L 12.746094 -18.871094 C 13.101562 -19.375 12.6875 -19.613281 12.183594 -19.96875 Z M 12.183594 -19.96875 "/></g></g></g><g fill="#c1ff72" fill-opacity="1"><g transform="translate(86.125214, 94.866028)"><g><path d="M -6.824219 -27.59375 C -11.625 -22.761719 -11.566406 -15.183594 -6.667969 -10.316406 C -1.769531 -5.449219 5.945312 -5.304688 10.644531 -10.035156 C 12.554688 -11.960938 14.027344 -14.660156 14.089844 -17.085938 L 14.765625 -16.414062 C 15.238281 -15.945312 15.507812 -15.609375 15.976562 -16.082031 L 16.582031 -16.691406 C 17.019531 -17.128906 16.714844 -17.429688 16.242188 -17.902344 L 0.902344 -33.140625 C 0.429688 -33.609375 0.160156 -33.945312 -0.277344 -33.507812 L -0.914062 -32.863281 C -1.382812 -32.390625 -1.046875 -32.125 -0.574219 -31.652344 L 0.101562 -30.980469 C -2.421875 -30.671875 -4.878906 -29.550781 -6.824219 -27.59375 Z M 9.289062 -11.582031 C 5.429688 -7.695312 -0.933594 -7.574219 -5.191406 -11.804688 C -9.347656 -15.933594 -9.367188 -22.0625 -5.269531 -26.183594 C -2.886719 -28.582031 0.410156 -29.332031 2.5 -28.597656 L 11.992188 -19.167969 C 12.472656 -16.542969 11.101562 -13.40625 9.289062 -11.582031 Z M 9.289062 -11.582031 "/></g></g></g><g fill="#c1ff72" fill-opacity="1"><g transform="translate(102.306451, 78.798911)"><g><path d="M -16.332031 -29.648438 C -16.851562 -29.230469 -16.546875 -28.925781 -16.128906 -28.40625 L 3.394531 -4.136719 C 3.8125 -3.617188 4.042969 -3.253906 4.5625 -3.671875 L 5.230469 -4.210938 C 5.75 -4.628906 5.445312 -4.929688 5.027344 -5.449219 L -14.496094 -29.71875 C -14.914062 -30.238281 -15.144531 -30.601562 -15.664062 -30.183594 Z M -16.332031 -29.648438 "/></g></g></g><g fill="#c1ff72" fill-opacity="1"><g transform="translate(108.782033, 73.426205)"><g><path d="M 3.683594 -3.949219 C 4.066406 -3.402344 4.277344 -3.027344 4.820312 -3.410156 L 5.558594 -3.933594 C 6.0625 -4.292969 5.777344 -4.613281 5.390625 -5.160156 L -7.128906 -22.84375 C -7.539062 -23.429688 -7.695312 -23.726562 -8.199219 -23.371094 L -8.9375 -22.847656 C -9.480469 -22.460938 -9.222656 -22.179688 -8.839844 -21.636719 Z M -11.78125 -27.605469 C -11.003906 -28.15625 -10.84375 -29.085938 -11.394531 -29.863281 C -11.972656 -30.679688 -12.875 -30.796875 -13.652344 -30.246094 C -14.429688 -29.699219 -14.574219 -28.835938 -14 -28.019531 C -13.449219 -27.242188 -12.558594 -27.054688 -11.78125 -27.605469 Z M -11.78125 -27.605469 "/></g></g></g><g fill="#c1ff72" fill-opacity="1"><g transform="translate(115.513512, 68.366244)"><g><path d="M 13.183594 -9.6875 C 12.824219 -10.191406 12.472656 -10.039062 11.980469 -9.742188 C 11.941406 -9.71875 11.941406 -9.71875 11.898438 -9.695312 L 2.097656 -3.8125 L 1.9375 -27.875 C 1.925781 -28.539062 1.566406 -28.765625 1.019531 -28.382812 L -10.535156 -21.449219 C -10.617188 -21.398438 -10.699219 -21.351562 -10.78125 -21.300781 C -11.269531 -21.007812 -11.449219 -20.84375 -11.15625 -20.355469 L -10.714844 -19.617188 C -10.445312 -19.167969 -10.175781 -19.277344 -9.726562 -19.546875 C -9.644531 -19.59375 -9.5625 -19.644531 -9.484375 -19.691406 L -0.15625 -25.34375 L 0.0390625 -1.136719 C 0.0507812 -0.472656 0.449219 -0.269531 0.980469 -0.589844 C 2.285156 -1.371094 3.59375 -2.15625 4.980469 -2.988281 C 7.675781 -4.605469 10.496094 -6.296875 13.027344 -7.816406 C 13.597656 -8.160156 13.917969 -8.460938 13.597656 -8.992188 Z M 13.183594 -9.6875 "/></g></g></g><g fill="#c1ff72" fill-opacity="1"><g transform="translate(125.398847, 61.606968)"><g><path d="M 17.878906 -23.253906 C 18.191406 -23.492188 18.273438 -23.894531 18.125 -24.242188 C 15.972656 -27.878906 10.226562 -30.933594 3.960938 -28.261719 C -2.195312 -25.582031 -5.0625 -18.207031 -2.289062 -11.832031 C 0.464844 -5.5 7.402344 -2.804688 13.691406 -5.539062 C 16.484375 -6.753906 18.53125 -8.734375 19.789062 -11.101562 C 20 -11.453125 19.992188 -11.707031 19.617188 -11.855469 L 18.507812 -12.257812 C 18.339844 -12.285156 18.230469 -12.292969 18.144531 -12.253906 C 17.96875 -12.179688 17.875 -12.035156 17.777344 -11.785156 C 16.9375 -10.015625 15.082031 -8.429688 12.8125 -7.441406 C 8.09375 -5.390625 2.953125 -6.945312 0.332031 -11.414062 Z M -0.617188 -13.234375 C -2.328125 -19.085938 0.0390625 -24.269531 4.710938 -26.304688 C 9.777344 -28.507812 13.917969 -26.152344 15.566406 -24.273438 Z M -0.617188 -13.234375 "/></g></g></g><g fill="#c1ff72" fill-opacity="1"><g transform="translate(147.558207, 52.118246)"><g/></g></g><g fill="#c1ff72" fill-opacity="1"><g transform="translate(157.166457, 48.616555)"><g><path d="M 23.863281 -5.113281 C 24.15625 -4.535156 24.320312 -4.128906 24.980469 -4.242188 L 25.917969 -4.398438 C 26.574219 -4.511719 26.308594 -4.949219 25.96875 -5.519531 L 9.847656 -34.472656 C 9.515625 -34.996094 9.351562 -35.402344 8.695312 -35.289062 L 6.863281 -34.980469 C 6.207031 -34.867188 6.230469 -34.4375 6.136719 -33.84375 L 0.535156 -1.105469 C 0.398438 -0.503906 0.234375 -0.0390625 0.890625 -0.152344 L 1.878906 -0.320312 C 2.535156 -0.429688 2.558594 -0.867188 2.640625 -1.511719 L 4.234375 -10.621094 L 19.355469 -13.1875 Z M 8.128906 -33.214844 L 18.253906 -15.125 L 4.636719 -12.816406 Z M 8.128906 -33.214844 "/></g></g></g><g fill="#c1ff72" fill-opacity="1"><g transform="translate(179.360947, 44.934165)"><g/></g></g><g fill="#c1ff72" fill-opacity="1"><g transform="translate(189.334506, 43.458009)"><g><path d="M 6.785156 0.601562 L 14.421875 1.28125 C 24.335938 2.164062 29.90625 -2.933594 30.828125 -13.847656 C 31.828125 -25.089844 27.382812 -31.03125 17.328125 -31.925781 L 9.738281 -32.601562 C 9.074219 -32.660156 8.609375 -32.273438 8.550781 -31.609375 L 5.789062 -0.585938 C 5.730469 0.078125 6.121094 0.542969 6.785156 0.601562 Z M 17.144531 -29.886719 C 25.925781 -29.15625 29.679688 -24.039062 28.785156 -13.984375 C 27.925781 -4.351562 23.183594 0.0546875 14.554688 -0.761719 L 7.964844 -1.394531 L 10.546875 -30.425781 Z M 17.144531 -29.886719 "/></g></g></g><g fill="#c1ff72" fill-opacity="1"><g transform="translate(217.590732, 46.326831)"><g><path d="M 5.398438 0.0859375 C 5.253906 0.734375 5.113281 1.144531 5.761719 1.289062 L 6.644531 1.484375 C 7.25 1.621094 7.296875 1.191406 7.441406 0.542969 L 12.171875 -20.605469 C 12.328125 -21.300781 12.445312 -21.617188 11.84375 -21.753906 L 10.960938 -21.949219 C 10.308594 -22.09375 10.273438 -21.714844 10.125 -21.0625 Z M 12.582031 -27.246094 C 13.511719 -27.039062 14.308594 -27.546875 14.515625 -28.476562 C 14.734375 -29.449219 14.21875 -30.199219 13.289062 -30.410156 C 12.359375 -30.617188 11.621094 -30.148438 11.402344 -29.171875 C 11.195312 -28.242188 11.652344 -27.457031 12.582031 -27.246094 Z M 12.582031 -27.246094 "/></g></g></g><g fill="#c1ff72" fill-opacity="1"><g transform="translate(225.834496, 47.896641)"><g><path d="M 11.453125 -19.398438 L 11.1875 -18.53125 C 11.003906 -17.941406 11.414062 -17.8125 12.050781 -17.617188 L 13.007812 -17.324219 L 7.378906 1.125 C 7.179688 1.761719 6.964844 2.144531 7.601562 2.339844 L 8.464844 2.605469 C 9.058594 2.789062 9.136719 2.363281 9.335938 1.726562 L 15.007812 -16.707031 L 18.878906 -15.515625 C 18.921875 -15.503906 18.96875 -15.488281 19.058594 -15.460938 C 19.5625 -15.304688 19.894531 -15.253906 20.0625 -15.800781 L 20.3125 -16.621094 C 20.480469 -17.164062 20.175781 -17.308594 19.632812 -17.476562 C 19.585938 -17.492188 19.539062 -17.503906 19.496094 -17.519531 L 15.578125 -18.722656 L 16.433594 -21.5 C 17.988281 -26.554688 19.546875 -26.921875 22.234375 -26.09375 C 22.960938 -25.871094 23.765625 -25.570312 24.710938 -25.230469 C 24.890625 -25.175781 25.058594 -25.074219 25.195312 -25.03125 C 25.515625 -24.933594 25.679688 -24.984375 25.804688 -25.394531 L 26.058594 -26.210938 C 26.253906 -26.851562 25.84375 -26.976562 25.265625 -27.203125 C 24.550781 -27.472656 23.929688 -27.714844 23.335938 -27.898438 C 18.328125 -29.4375 16.058594 -27.398438 14.726562 -23.074219 L 13.621094 -19.328125 L 12.667969 -19.621094 C 12.53125 -19.664062 12.4375 -19.691406 12.347656 -19.71875 C 11.894531 -19.859375 11.605469 -19.898438 11.453125 -19.398438 Z M 11.453125 -19.398438 "/></g></g></g><g fill="#c1ff72" fill-opacity="1"><g transform="translate(238.485414, 51.566106)"><g><path d="M 13.246094 -18.21875 L 12.898438 -17.382812 C 12.660156 -16.8125 13.058594 -16.648438 13.671875 -16.390625 L 14.597656 -16.007812 L 7.238281 1.820312 C 6.980469 2.4375 6.730469 2.796875 7.34375 3.050781 L 8.179688 3.398438 C 8.75 3.636719 8.871094 3.222656 9.128906 2.609375 L 16.53125 -15.203125 L 20.269531 -13.648438 C 20.3125 -13.632812 20.355469 -13.613281 20.445312 -13.578125 C 20.929688 -13.375 21.253906 -13.292969 21.472656 -13.820312 L 21.804688 -14.609375 C 22.023438 -15.136719 21.734375 -15.308594 21.207031 -15.53125 C 21.160156 -15.546875 21.117188 -15.566406 21.074219 -15.585938 L 17.292969 -17.15625 L 18.40625 -19.839844 C 20.433594 -24.71875 22.019531 -24.9375 24.617188 -23.859375 C 25.320312 -23.566406 26.09375 -23.195312 27 -22.765625 C 27.175781 -22.691406 27.332031 -22.574219 27.464844 -22.519531 C 27.769531 -22.394531 27.941406 -22.425781 28.105469 -22.824219 L 28.433594 -23.613281 C 28.6875 -24.230469 28.292969 -24.394531 27.738281 -24.675781 C 27.054688 -25.011719 26.457031 -25.3125 25.886719 -25.550781 C 21.046875 -27.558594 18.589844 -25.746094 16.855469 -21.566406 L 15.398438 -17.941406 L 14.476562 -18.328125 C 14.34375 -18.382812 14.257812 -18.417969 14.167969 -18.453125 C 13.730469 -18.636719 13.445312 -18.703125 13.246094 -18.21875 Z M 13.246094 -18.21875 "/></g></g></g><g fill="#c1ff72" fill-opacity="1"><g transform="translate(250.599727, 55.846077)"><g><path d="M 29.324219 0.648438 C 29.703125 0.757812 30.074219 0.585938 30.265625 0.257812 C 31.921875 -3.628906 30.988281 -10.066406 25.125 -13.535156 C 19.320312 -16.914062 11.679688 -14.859375 8.179688 -8.847656 C 4.707031 -2.878906 6.640625 4.304688 12.566406 7.753906 C 15.203125 9.289062 18.011719 9.765625 20.660156 9.378906 C 21.066406 9.339844 21.269531 9.183594 21.167969 8.792969 L 20.832031 7.660156 C 20.757812 7.507812 20.699219 7.417969 20.617188 7.371094 C 20.453125 7.273438 20.28125 7.285156 20.019531 7.355469 C 18.097656 7.722656 15.722656 7.167969 13.582031 5.921875 C 9.136719 3.332031 7.34375 -1.730469 9.398438 -6.488281 Z M 10.304688 -8.332031 C 14.003906 -13.175781 19.585938 -14.335938 23.988281 -11.773438 C 28.761719 -8.992188 29.316406 -4.261719 28.777344 -1.820312 Z M 10.304688 -8.332031 "/></g></g></g><g fill="#c1ff72" fill-opacity="1"><g transform="translate(271.316825, 67.869659)"><g><path d="M 18.175781 -14.597656 L 4.792969 2.382812 C 4.378906 2.90625 4.078125 3.214844 4.601562 3.625 L 5.273438 4.15625 C 5.761719 4.539062 6.027344 4.203125 6.4375 3.679688 L 18.9375 -12.179688 C 20.191406 -11.921875 21.421875 -11.253906 22.507812 -10.398438 C 23.777344 -9.394531 24.804688 -8.160156 25.417969 -7.011719 C 25.554688 -6.722656 25.679688 -6.5 25.867188 -6.355469 C 26.054688 -6.207031 26.292969 -6.199219 26.628906 -6.238281 L 27.316406 -6.421875 C 27.980469 -6.570312 28.019531 -7.082031 27.71875 -7.625 C 26.875 -9.015625 25.847656 -10.25 24.613281 -11.222656 C 23.265625 -12.285156 21.683594 -13.046875 20 -13.527344 C 20.324219 -13.9375 20.425781 -14.21875 20.015625 -14.546875 L 19.339844 -15.074219 C 18.816406 -15.488281 18.589844 -15.121094 18.175781 -14.597656 Z M 18.175781 -14.597656 "/></g></g></g><g fill="#c1ff72" fill-opacity="1"><g transform="translate(283.431915, 76.572622)"><g><path d="M 27.996094 8.746094 C 28.328125 8.957031 28.734375 8.898438 29.011719 8.636719 C 31.675781 5.359375 32.5625 -1.085938 27.890625 -6.042969 C 23.25 -10.894531 15.339844 -11.039062 10.3125 -6.234375 C 5.320312 -1.464844 5.1875 5.976562 9.925781 10.933594 C 12.03125 13.136719 14.597656 14.375 17.25 14.738281 C 17.652344 14.8125 17.890625 14.71875 17.902344 14.3125 L 17.894531 13.136719 C 17.863281 12.964844 17.832031 12.863281 17.765625 12.796875 C 17.636719 12.65625 17.46875 12.621094 17.199219 12.613281 C 15.25 12.4375 13.121094 11.242188 11.410156 9.453125 C 7.855469 5.734375 7.535156 0.371094 10.828125 -3.628906 Z M 12.207031 -5.148438 C 17.105469 -8.777344 22.789062 -8.347656 26.3125 -4.664062 C 30.128906 -0.667969 29.347656 4.027344 28.15625 6.226562 Z M 12.207031 -5.148438 "/></g></g></g><g fill="#c1ff72" fill-opacity="1"><g transform="translate(300.12381, 93.408512)"><g><path d="M 13.949219 18.738281 L 27.191406 9.757812 C 31.378906 6.9375 30.441406 1.539062 27.726562 -2.488281 C 26.476562 -4.34375 24.882812 -5.855469 23.253906 -6.824219 C 23.582031 -7.105469 23.792969 -7.304688 23.5 -7.738281 L 23.019531 -8.449219 C 22.648438 -9.003906 22.320312 -8.722656 21.765625 -8.351562 L 3.835938 3.730469 C 3.28125 4.105469 2.902344 4.304688 3.273438 4.859375 L 3.753906 5.570312 C 4.097656 6.082031 4.453125 5.84375 5.007812 5.46875 L 21.082031 -5.363281 C 22.878906 -4.910156 24.710938 -3.386719 26.042969 -1.410156 C 28.195312 1.789062 28.984375 6.023438 26.167969 7.980469 L 12.765625 17.070312 C 12.253906 17.414062 11.832031 17.640625 12.242188 18.167969 L 12.722656 18.878906 C 13.066406 19.390625 13.398438 19.113281 13.949219 18.738281 Z M 13.949219 18.738281 "/></g></g></g><g fill="#c1ff72" fill-opacity="1"><g transform="translate(313.507764, 112.641937)"><g><path d="M 28.414062 11.226562 C 29.019531 10.945312 29.097656 10.542969 29.183594 9.929688 C 29.507812 7.789062 29.125 5.238281 28.171875 3.160156 C 25.394531 -2.898438 18.105469 -5.421875 11.828125 -2.542969 C 5.507812 0.355469 2.882812 7.425781 5.722656 13.617188 C 6.714844 15.78125 8.234375 17.496094 10.136719 18.667969 C 10.65625 19.003906 10.96875 19.226562 11.617188 18.929688 L 13.132812 18.234375 C 13.4375 18.097656 13.589844 17.972656 13.550781 17.886719 C 13.511719 17.800781 13.320312 17.730469 13.023438 17.65625 C 11.0625 17.140625 8.859375 15.425781 7.667969 12.832031 C 5.246094 7.550781 7.375 1.804688 12.703125 -0.640625 C 18.15625 -3.140625 24.085938 -0.832031 26.371094 4.144531 C 27.304688 6.179688 27.550781 9 26.730469 11.210938 C 26.65625 11.507812 26.628906 11.675781 26.667969 11.761719 C 26.730469 11.894531 26.941406 11.898438 27.246094 11.761719 Z M 28.414062 11.226562 "/></g></g></g><g fill="#c1ff72" fill-opacity="1"><g transform="translate(323.003672, 132.131037)"><g><path d="M 20.445312 21.035156 C 20.636719 21.375 21.019531 21.519531 21.386719 21.417969 C 25.292969 19.808594 29.144531 14.566406 27.398438 7.980469 C 25.632812 1.503906 18.746094 -2.394531 12.039062 -0.566406 C 5.375 1.25 1.710938 7.726562 3.515625 14.34375 C 4.316406 17.285156 5.984375 19.59375 8.144531 21.179688 C 8.460938 21.4375 8.714844 21.464844 8.914062 21.117188 L 9.472656 20.074219 C 9.523438 19.914062 9.546875 19.808594 9.519531 19.714844 C 9.472656 19.53125 9.339844 19.421875 9.109375 19.285156 C 7.480469 18.199219 6.175781 16.136719 5.523438 13.746094 C 4.171875 8.785156 6.449219 3.917969 11.25 1.96875 Z M 13.1875 1.292969 C 19.222656 0.4375 24.011719 3.523438 25.351562 8.441406 C 26.804688 13.769531 23.882812 17.53125 21.785156 18.890625 Z M 13.1875 1.292969 "/></g></g></g></svg>