<svg xmlns="http://www.w3.org/2000/svg" xmlns:xlink="http://www.w3.org/1999/xlink" width="500" zoomAndPan="magnify" viewBox="0 0 375 374.999991" height="500" preserveAspectRatio="xMidYMid meet" version="1.0"><defs><clipPath id="6b25b90650"><path d="M 11 63.628906 L 362.839844 63.628906 L 362.839844 312.628906 L 11 312.628906 Z M 11 63.628906 " clip-rule="nonzero"/></clipPath></defs><path fill="#00f6ff" d="M 297.285156 180.570312 C 296.226562 182.460938 296.902344 184.839844 298.789062 185.890625 C 303.746094 188.660156 308.605469 191.640625 313.238281 194.769531 C 313.898438 195.214844 314.65625 195.433594 315.414062 195.433594 C 316.667969 195.433594 317.902344 194.832031 318.660156 193.707031 C 319.867188 191.921875 319.390625 189.496094 317.605469 188.277344 C 312.792969 185.042969 307.746094 181.945312 302.597656 179.066406 C 300.710938 178.011719 298.332031 178.683594 297.285156 180.570312 " fill-opacity="1" fill-rule="nonzero"/><g clip-path="url(#6b25b90650)"><path fill="#00f6ff" d="M 19.945312 231.210938 C 49.195312 194.699219 94.164062 169.902344 145.1875 161.140625 C 121.257812 175.332031 105.171875 201.429688 105.171875 231.210938 C 105.171875 261 121.257812 287.101562 145.1875 301.289062 C 94.164062 292.53125 49.195312 267.734375 19.945312 231.210938 Z M 260.164062 231.210938 C 260.164062 271.796875 227.15625 304.808594 186.578125 304.808594 C 146 304.808594 112.988281 271.796875 112.988281 231.210938 C 112.988281 190.640625 146 157.625 186.578125 157.625 C 227.15625 157.625 260.164062 190.640625 260.164062 231.210938 Z M 54.335938 122.46875 C 50.652344 122.46875 47.65625 119.472656 47.65625 115.789062 C 47.65625 112.097656 50.652344 109.101562 54.335938 109.101562 C 58.019531 109.101562 61.019531 112.097656 61.019531 115.789062 C 61.019531 119.472656 58.019531 122.46875 54.335938 122.46875 Z M 301.085938 71.441406 C 304.769531 71.441406 307.773438 74.4375 307.773438 78.125 C 307.773438 81.808594 304.769531 84.804688 301.085938 84.804688 C 297.40625 84.804688 294.402344 81.808594 294.402344 78.125 C 294.402344 74.4375 297.40625 71.441406 301.085938 71.441406 Z M 279.902344 115.972656 C 283.589844 115.972656 286.585938 118.972656 286.585938 122.660156 C 286.585938 126.339844 283.589844 129.335938 279.902344 129.335938 C 276.21875 129.335938 273.222656 126.339844 273.222656 122.660156 C 273.222656 118.972656 276.21875 115.972656 279.902344 115.972656 Z M 361.273438 228.828125 C 357.9375 224.5 354.316406 220.25 350.527344 216.199219 C 350.527344 216.191406 350.519531 216.191406 350.519531 216.191406 C 348.714844 214.257812 346.851562 212.363281 344.957031 210.5 C 343.417969 208.992188 340.9375 209.015625 339.425781 210.5625 C 337.921875 212.105469 337.945312 214.578125 339.488281 216.089844 C 341.304688 217.871094 343.082031 219.6875 344.816406 221.535156 L 344.816406 221.542969 C 347.742188 224.664062 350.554688 227.910156 353.199219 231.207031 C 323.957031 267.730469 278.988281 292.527344 227.964844 301.285156 C 251.898438 287.097656 267.980469 260.996094 267.980469 231.207031 C 267.980469 201.425781 251.90625 175.335938 227.972656 161.144531 C 239.105469 163.0625 250.03125 165.769531 260.664062 169.25 C 260.671875 169.257812 260.679688 169.257812 260.679688 169.257812 C 263.121094 170.0625 265.539062 170.894531 267.925781 171.769531 C 268.371094 171.933594 268.832031 172.011719 269.277344 172.011719 C 270.867188 172.011719 272.367188 171.027344 272.949219 169.445312 C 273.691406 167.417969 272.644531 165.171875 270.625 164.429688 C 268.144531 163.523438 265.640625 162.660156 263.113281 161.832031 L 263.105469 161.824219 C 239.960938 154.242188 215.546875 150.226562 190.484375 149.84375 L 190.484375 115.785156 C 190.484375 113.625 188.738281 111.878906 186.578125 111.878906 L 133.535156 111.878906 L 133.535156 82.035156 L 226.476562 82.035156 L 226.476562 122.65625 C 226.476562 124.816406 228.222656 126.566406 230.382812 126.566406 L 265.960938 126.566406 C 267.667969 132.664062 273.269531 137.15625 279.902344 137.15625 C 287.894531 137.15625 294.402344 130.652344 294.402344 122.65625 C 294.402344 114.660156 287.894531 108.15625 279.902344 108.15625 C 273.269531 108.15625 267.667969 112.648438 265.960938 118.75 L 234.292969 118.75 L 234.292969 82.035156 L 287.140625 82.035156 C 288.847656 88.132812 294.449219 92.625 301.085938 92.625 C 309.082031 92.625 315.585938 86.117188 315.585938 78.125 C 315.585938 70.128906 309.082031 63.621094 301.085938 63.621094 C 294.449219 63.621094 288.847656 68.117188 287.140625 74.214844 L 129.625 74.214844 C 127.464844 74.214844 125.71875 75.964844 125.71875 78.125 L 125.71875 111.878906 L 68.289062 111.878906 C 66.574219 105.773438 60.976562 101.285156 54.339844 101.285156 C 46.34375 101.285156 39.839844 107.789062 39.839844 115.785156 C 39.839844 123.777344 46.34375 130.285156 54.339844 130.285156 C 60.976562 130.285156 66.574219 125.792969 68.289062 119.695312 L 182.671875 119.695312 L 182.664062 149.859375 C 112.976562 150.917969 49.355469 180.257812 11.875 228.820312 C 10.792969 230.234375 10.792969 232.191406 11.878906 233.601562 C 49.671875 282.589844 114.070312 312.011719 184.460938 312.597656 C 185.164062 312.613281 185.867188 312.621094 186.574219 312.621094 C 187.285156 312.621094 187.988281 312.613281 188.6875 312.597656 C 259.078125 312.011719 323.472656 282.589844 361.273438 233.601562 C 362.355469 232.191406 362.355469 230.234375 361.273438 228.828125 " fill-opacity="1" fill-rule="nonzero"/></g><path fill="#00f6ff" d="M 158.382812 229.425781 C 160.550781 230.152344 162.839844 230.527344 165.171875 230.527344 C 177.058594 230.527344 186.738281 220.84375 186.738281 208.949219 C 186.738281 206.929688 186.441406 204.917969 185.863281 202.96875 C 201.699219 202.648438 214.835938 215.402344 214.835938 231.210938 C 214.835938 246.796875 202.160156 259.472656 186.574219 259.472656 C 170.988281 259.472656 158.3125 246.796875 158.3125 231.210938 C 158.3125 230.628906 158.335938 230.027344 158.382812 229.425781 Z M 186.574219 267.289062 C 206.464844 267.289062 222.652344 251.109375 222.652344 231.210938 C 222.652344 211.320312 206.464844 195.144531 186.574219 195.144531 C 184.148438 195.144531 181.722656 195.386719 179.367188 195.867188 C 178.109375 196.125 177.066406 196.976562 176.558594 198.152344 C 176.050781 199.324219 176.152344 200.671875 176.824219 201.757812 C 178.195312 203.964844 178.921875 206.453125 178.921875 208.949219 C 178.921875 216.53125 172.753906 222.703125 165.171875 222.703125 C 162.433594 222.703125 159.789062 221.90625 157.527344 220.378906 C 156.457031 219.667969 155.117188 219.519531 153.929688 219.988281 C 152.738281 220.449219 151.847656 221.460938 151.550781 222.710938 C 150.847656 225.582031 150.496094 228.441406 150.496094 231.210938 C 150.496094 251.109375 166.683594 267.289062 186.574219 267.289062 " fill-opacity="1" fill-rule="nonzero"/></svg>