<svg xmlns="http://www.w3.org/2000/svg" xmlns:xlink="http://www.w3.org/1999/xlink" width="500" zoomAndPan="magnify" viewBox="0 0 375 374.999991" height="500" preserveAspectRatio="xMidYMid meet" version="1.0"><defs><clipPath id="7a3a0862b0"><path d="M 18.785156 26.167969 L 356 26.167969 L 356 348.667969 L 18.785156 348.667969 Z M 18.785156 26.167969 " clip-rule="nonzero"/></clipPath></defs><g clip-path="url(#7a3a0862b0)"><path fill="#ffffff" d="M 77.058594 138.574219 L 104.53125 138.574219 L 108.753906 286.425781 L 73.359375 286.425781 L 77.058594 138.566406 Z M 51.164062 291.742188 L 323.792969 291.742188 L 323.792969 310.765625 L 340.128906 310.765625 L 340.128906 329.792969 L 355.96875 329.792969 L 355.96875 348.8125 L 18.988281 348.8125 L 18.988281 329.789062 L 34.828125 329.789062 L 34.828125 310.765625 L 51.164062 310.765625 Z M 338.007812 97.289062 L 187.472656 26.171875 L 36.933594 97.289062 L 36.933594 108.914062 L 338.007812 108.917969 Z M 65.957031 114.234375 L 308.992188 114.234375 L 308.992188 133.253906 L 65.957031 133.253906 Z M 269.894531 138.570312 L 297.371094 138.570312 L 301.59375 286.433594 L 266.199219 286.433594 L 269.894531 138.578125 Z M 205.617188 138.570312 L 233.089844 138.574219 L 237.316406 286.425781 L 201.917969 286.425781 L 205.617188 138.566406 Z M 141.335938 138.570312 L 168.808594 138.570312 L 173.035156 286.433594 L 137.640625 286.433594 L 141.335938 138.578125 Z M 141.335938 138.570312 " fill-opacity="1" fill-rule="nonzero"/></g></svg>