<svg xmlns="http://www.w3.org/2000/svg" xmlns:xlink="http://www.w3.org/1999/xlink" width="500" zoomAndPan="magnify" viewBox="0 0 375 374.999991" height="500" preserveAspectRatio="xMidYMid meet" version="1.0"><defs><clipPath id="71461c6a8c"><path d="M 25 95.699219 L 350.792969 95.699219 L 350.792969 278 L 25 278 Z M 25 95.699219 " clip-rule="nonzero"/></clipPath><clipPath id="e98490ce59"><path d="M 0 135 L 375 135 L 375 273 L 0 273 Z M 0 135 " clip-rule="nonzero"/></clipPath><clipPath id="db1f0a3b13"><path d="M -95.757812 220.699219 L 333.835938 74.613281 L 375.125 196.035156 L -54.46875 342.121094 Z M -95.757812 220.699219 " clip-rule="nonzero"/></clipPath><clipPath id="fa2571bbfb"><path d="M -95.757812 220.699219 L 333.835938 74.613281 L 375.125 196.035156 L -54.46875 342.121094 Z M -95.757812 220.699219 " clip-rule="nonzero"/></clipPath></defs><g clip-path="url(#71461c6a8c)"><path fill="#ffffff" d="M 232.886719 96.125 C 225.851562 98.027344 218.402344 107.238281 215.242188 117.933594 C 215.023438 118.679688 214.832031 119.296875 214.820312 119.308594 C 213.761719 120.367188 201.589844 125.886719 195.597656 128.019531 C 186.09375 131.410156 184.253906 131.855469 181.578125 131.410156 C 153.683594 126.773438 124.679688 130.5 96.574219 142.328125 C 84.761719 147.300781 72.859375 154.304688 65.6875 160.507812 C 61.746094 163.914062 58.429688 167.144531 55.628906 170.304688 C 52.183594 174.191406 48.605469 178.722656 46.65625 181.664062 C 45.664062 183.160156 45.238281 183.859375 42.472656 188.546875 L 41.226562 190.65625 L 41.191406 191.386719 C 41.128906 192.558594 41.601562 193.121094 42.644531 193.121094 C 43.640625 193.121094 44.078125 192.625 46.054688 189.25 C 50.683594 181.34375 54.101562 176.816406 60.890625 169.605469 C 82.164062 147.011719 128 130.757812 164.394531 132.902344 C 194.464844 134.675781 220.300781 144.152344 248.765625 163.855469 C 249.207031 164.164062 250.15625 164.820312 250.875 165.316406 C 251.597656 165.816406 253.8125 167.359375 255.800781 168.753906 C 274.957031 182.148438 286.664062 188.964844 302.585938 196.011719 C 306.242188 197.628906 313.554688 200.484375 314.875 200.8125 C 315.167969 200.886719 315.230469 201.007812 315.015625 201.089844 C 314.464844 201.300781 311.203125 204.15625 308.3125 206.949219 C 307.234375 207.996094 305.605469 209.484375 304.695312 210.257812 C 301.367188 213.085938 296.84375 217.710938 294.175781 221.011719 C 293.726562 221.5625 293.183594 222.1875 292.960938 222.398438 L 292.5625 222.785156 L 291.21875 222.414062 C 273.839844 217.628906 257.84375 209.59375 238.035156 195.699219 C 234.464844 193.195312 233.414062 192.445312 227.558594 188.246094 C 225.570312 186.816406 223.738281 185.507812 223.488281 185.332031 C 210.875 176.410156 203.824219 171.972656 196.203125 168.144531 C 176.691406 158.34375 157.707031 157.320312 139.542969 165.089844 L 138.160156 165.683594 L 134.917969 165.683594 C 114.449219 165.691406 95.351562 173.667969 83.722656 187.070312 C 83.160156 187.714844 82.464844 188.519531 82.175781 188.851562 C 77.636719 194.089844 73.171875 202.152344 66.484375 217.179688 C 61.929688 227.425781 57.253906 237.070312 56.453125 237.882812 C 56.402344 237.9375 55.589844 237.820312 54.523438 237.613281 C 39.902344 234.746094 29.964844 237.183594 26.347656 244.527344 C 24.574219 248.136719 24.800781 252.632812 26.898438 255.441406 C 30.421875 260.160156 36.621094 261.230469 42.734375 258.179688 C 47.511719 255.792969 52.773438 250.371094 57.296875 243.171875 C 57.734375 242.480469 58.09375 241.90625 58.101562 241.898438 C 58.105469 241.890625 58.949219 242.105469 59.96875 242.378906 C 67.648438 244.433594 77.160156 247.746094 96.152344 254.980469 C 123.71875 265.480469 136.265625 269.722656 149.921875 273.171875 C 169.667969 278.152344 187.535156 279.144531 205.046875 276.226562 C 234.652344 271.292969 265.4375 254.222656 292.113281 227.953125 C 293.722656 226.367188 293.25 226.492188 295.566406 227.03125 C 308.414062 230.019531 321.113281 230.945312 334.195312 229.847656 C 342.707031 229.136719 347.796875 227.851562 349.820312 225.910156 L 350.527344 225.230469 L 350.527344 224.589844 C 350.527344 223.289062 349.039062 222.644531 348.015625 223.507812 C 346.335938 224.921875 340.109375 226.101562 330.578125 226.808594 C 328.261719 226.984375 319.199219 226.984375 316.808594 226.808594 C 309.800781 226.304688 303.542969 225.390625 297.371094 223.96875 L 296.429688 223.75 L 297.933594 222.230469 C 299.726562 220.410156 303.5 216.5625 306.265625 213.734375 C 311.402344 208.476562 317.882812 204.929688 326.304688 202.761719 C 328.25 202.261719 328.433594 202.121094 328.5 201.101562 L 328.542969 200.433594 L 327.792969 199.710938 L 327.046875 198.988281 L 325.496094 198.519531 C 324.640625 198.261719 322.722656 197.714844 321.230469 197.300781 C 319.738281 196.886719 317.226562 196.167969 315.652344 195.699219 C 314.078125 195.230469 311.589844 194.503906 310.125 194.078125 C 299.417969 190.976562 291.285156 186.808594 285.835938 181.625 C 280.632812 176.671875 281.242188 169.320312 287.949219 156.273438 L 288.730469 154.75 L 289.652344 154.332031 C 298.265625 150.40625 307.121094 144.070312 310.585938 139.351562 C 314.015625 134.675781 311.667969 130.308594 306.453125 131.667969 C 300.992188 133.085938 292.960938 141.144531 286.601562 151.578125 L 286.242188 152.164062 L 283.835938 153.191406 C 268.140625 159.894531 254.875 162.101562 250.347656 158.761719 C 249.761719 158.324219 249.757812 158.328125 251.257812 156.824219 C 255.117188 152.945312 257.398438 148.414062 260.175781 139.117188 L 260.710938 137.328125 L 262.175781 136.59375 C 274.648438 130.332031 282.789062 120.367188 282.566406 111.628906 C 282.394531 105.054688 276.609375 103.445312 270.976562 108.40625 C 270.644531 108.699219 270.289062 109.007812 270.1875 109.09375 C 266.0625 112.546875 261.863281 120.980469 258.558594 132.441406 C 258.175781 133.773438 257.851562 134.871094 257.839844 134.886719 C 257.617188 135.105469 253.066406 136.855469 250.726562 137.621094 C 242.570312 140.296875 234.304688 141.601562 225.5 141.609375 C 218.894531 141.613281 216.515625 141.242188 216.167969 140.152344 C 215.515625 138.101562 216.316406 128.0625 217.578125 122.511719 L 217.785156 121.597656 L 219.582031 120.515625 C 228.636719 115.054688 235.585938 108.859375 238.160156 103.957031 C 239.960938 100.527344 239.566406 97.535156 237.144531 96.269531 C 236.421875 95.890625 234.054688 95.808594 232.886719 96.125 M 235.671875 99.363281 C 236.871094 100.003906 234.472656 104.183594 230.839844 107.792969 C 228.136719 110.476562 221.9375 115.25 219.496094 116.527344 L 219.269531 116.644531 L 219.484375 116.0625 C 221.289062 111.183594 224.328125 106.429688 227.660156 103.253906 C 230.554688 100.503906 234.355469 98.65625 235.671875 99.363281 M 278.164062 109.125 C 279.007812 109.554688 279.480469 111.160156 279.261719 112.867188 C 278.535156 118.609375 273.847656 124.976562 266.707031 129.921875 C 264.742188 131.28125 261.945312 132.941406 262.027344 132.703125 C 262.050781 132.628906 262.304688 131.804688 262.589844 130.867188 C 266 119.65625 270.382812 112.230469 275.101562 109.6875 C 276.5625 108.898438 277.414062 108.742188 278.164062 109.125 M 213.648438 125.089844 C 212.988281 129.234375 212.566406 134.867188 212.652344 138.40625 C 212.675781 139.3125 212.664062 140.054688 212.632812 140.054688 C 212.597656 140.054688 212.28125 139.9375 211.925781 139.796875 C 206.417969 137.601562 198.949219 135.210938 193.238281 133.816406 C 192.050781 133.527344 191.042969 133.261719 191.003906 133.230469 C 190.964844 133.195312 191.554688 132.976562 192.316406 132.746094 C 197.808594 131.085938 205.84375 127.8125 211.730469 124.835938 C 212.863281 124.265625 213.804688 123.808594 213.816406 123.820312 C 213.835938 123.832031 213.757812 124.40625 213.648438 125.089844 M 308.699219 134.878906 C 309.003906 134.96875 308.933594 135.316406 308.402344 136.335938 C 306.707031 139.613281 301.332031 144.015625 293.886719 148.238281 C 293.0625 148.703125 292.371094 149.070312 292.351562 149.046875 C 292.210938 148.90625 295.855469 144.300781 297.757812 142.214844 C 301.5625 138.042969 306.734375 134.398438 308.316406 134.777344 C 308.398438 134.796875 308.570312 134.84375 308.699219 134.878906 M 255.902344 141.332031 C 253.59375 148.214844 251.863281 151.359375 248.496094 154.792969 C 246.925781 156.398438 246.503906 157.027344 246.503906 157.800781 L 246.503906 158.148438 L 246.230469 157.996094 C 246.078125 157.914062 245.410156 157.484375 244.746094 157.046875 C 238.878906 153.164062 232.691406 149.550781 226.554688 146.417969 L 223.742188 144.984375 L 225.300781 144.980469 C 235.464844 144.957031 245.675781 143.191406 254.546875 139.917969 C 255.625 139.523438 256.519531 139.226562 256.535156 139.265625 C 256.554688 139.308594 256.269531 140.234375 255.902344 141.332031 M 283.597656 157.265625 C 283.550781 157.390625 283.320312 157.898438 283.089844 158.394531 C 278.742188 167.777344 277.835938 175.601562 280.542969 180.445312 C 280.742188 180.796875 280.863281 181.0625 280.816406 181.035156 C 273.289062 176.539062 267.132812 172.515625 258.4375 166.40625 C 257.152344 165.503906 255.722656 164.507812 255.257812 164.195312 L 254.414062 163.621094 L 257.46875 163.5625 C 261.8125 163.472656 264.808594 163.019531 270.023438 161.652344 C 273.699219 160.6875 282.105469 157.828125 283.28125 157.136719 C 283.570312 156.96875 283.695312 157.019531 283.597656 157.265625 M 169.671875 163.515625 C 185.507812 165.269531 198.078125 171.359375 223.691406 189.691406 C 225.433594 190.9375 228.371094 193.039062 230.222656 194.367188 C 254.191406 211.515625 270.203125 219.992188 288.339844 225.140625 C 289.097656 225.355469 289.714844 225.554688 289.707031 225.582031 C 289.695312 225.640625 286.929688 228.265625 285.097656 229.960938 C 282.542969 232.324219 279.402344 235.101562 277.609375 236.585938 C 277.277344 236.863281 276.984375 237.113281 276.957031 237.144531 C 276.929688 237.175781 276.070312 237.882812 275.046875 238.710938 C 253.535156 256.144531 230.433594 267.710938 208.113281 272.21875 C 189.75 275.925781 172.402344 275.261719 151.476562 270.046875 C 138.125 266.71875 125.054688 262.324219 99.316406 252.519531 C 78.429688 244.558594 65.417969 240.03125 60.207031 238.90625 L 59.890625 238.839844 L 60.695312 237.363281 C 62.921875 233.269531 65.398438 228.074219 69.300781 219.289062 C 74.785156 206.945312 77.746094 201.15625 81.40625 195.632812 C 91.578125 180.28125 108.621094 170.960938 129.851562 169.144531 C 130.894531 169.054688 131.761719 169 131.785156 169.023438 C 131.808594 169.042969 131.273438 169.414062 130.597656 169.84375 C 118.230469 177.679688 110.652344 188.257812 109.058594 199.90625 C 107.59375 210.625 111.203125 222.820312 118.960938 233.371094 C 124.558594 240.988281 131.464844 246.070312 140.121094 248.953125 C 156.984375 254.566406 174.765625 250.214844 185.144531 237.945312 C 201.160156 219.003906 196.945312 185.601562 177.40625 176.621094 C 174.25 175.167969 171.519531 174.621094 167.21875 174.574219 L 164.664062 174.542969 L 164 174.042969 C 159.453125 170.609375 153.449219 168.003906 147.203125 166.75 L 145.582031 166.425781 L 146.773438 166.054688 C 151.253906 164.664062 155.957031 163.753906 160.625 163.375 C 162.269531 163.242188 168 163.328125 169.671875 163.515625 M 141.40625 169.257812 C 146.964844 169.867188 152.117188 171.308594 156.476562 173.476562 C 157.824219 174.144531 159.789062 175.246094 159.734375 175.300781 C 159.71875 175.316406 159.148438 175.484375 158.457031 175.683594 C 140.398438 180.855469 130.324219 198.933594 137.402344 213.472656 C 142.15625 223.238281 152.589844 227.804688 162.421875 224.414062 C 178.96875 218.707031 182.785156 193.050781 169.222656 178.71875 L 168.390625 177.84375 L 168.878906 177.902344 C 177.40625 178.878906 183.398438 183.304688 187.625 191.742188 C 193.945312 204.355469 192.71875 221.183594 184.617188 233.019531 C 175.972656 245.652344 159.289062 251.046875 143.300781 246.375 C 131.261719 242.855469 123.015625 235.628906 116.714844 223.070312 C 106.1875 202.082031 113.925781 182.15625 137.359375 169.917969 C 139.148438 168.980469 139.050781 168.996094 141.40625 169.257812 M 164.308594 178.648438 C 172.105469 185.386719 175.628906 195.800781 173.484375 205.761719 C 171.589844 214.554688 166.414062 220.289062 158.988281 221.816406 C 146.660156 224.355469 135.804688 211.832031 139.070312 198.839844 C 141.648438 188.574219 150.765625 180.488281 162.230469 178.289062 C 163.703125 178.007812 163.535156 177.980469 164.308594 178.648438 M 46.550781 239.859375 C 48.882812 240.054688 53.628906 240.777344 54.355469 241.046875 C 54.546875 241.117188 54.464844 241.273438 53.332031 242.96875 C 48.839844 249.699219 44.34375 253.945312 39.816406 255.738281 C 31.910156 258.867188 25.511719 251.960938 29.957031 245.089844 C 31.695312 242.402344 35.394531 240.515625 40.019531 239.960938 C 40.515625 239.902344 41.035156 239.839844 41.175781 239.820312 C 41.742188 239.734375 45.429688 239.765625 46.550781 239.859375 " fill-opacity="1" fill-rule="evenodd"/></g><g clip-path="url(#e98490ce59)"><g clip-path="url(#db1f0a3b13)"><g clip-path="url(#fa2571bbfb)"><path fill="#ffffff" d="M 152.761719 188.878906 C 157.707031 188.457031 162.144531 188.597656 166.078125 189.304688 L 166.074219 189.308594 C 166.136719 190.566406 166.15625 191.871094 166.121094 193.214844 L 166.117188 193.21875 C 163.992188 203.894531 158.804688 213.199219 150.554688 221.128906 L 150.550781 221.128906 C 147.890625 223.53125 145.371094 225.136719 143 225.945312 C 139.167969 227.246094 135.714844 226.464844 132.644531 223.597656 L 132.640625 223.597656 C 125.949219 216.070312 127.339844 208.085938 136.8125 199.652344 C 140.761719 196.136719 146.078125 192.546875 152.757812 188.878906 Z M 131.824219 162.359375 C 134.210938 161.890625 136.617188 161.722656 139.039062 161.863281 L 139.035156 161.863281 C 155.117188 163.753906 164.042969 171.890625 165.8125 186.28125 C 161.75 185.65625 157.210938 185.566406 152.203125 186.015625 C 152.085938 186.027344 151.972656 186.050781 151.863281 186.085938 C 151.785156 186.113281 151.710938 186.148438 151.636719 186.1875 C 144.636719 190.011719 139.054688 193.777344 134.882812 197.488281 C 123.960938 207.210938 122.496094 216.5625 130.488281 225.539062 L 130.574219 225.628906 C 134.550781 229.398438 138.941406 230.46875 143.742188 228.835938 C 146.53125 227.886719 149.460938 226.023438 152.53125 223.246094 L 152.5625 223.21875 C 161.289062 214.828125 166.765625 204.964844 168.992188 193.628906 C 169.007812 193.550781 169.015625 193.46875 169.019531 193.386719 C 169.050781 192.21875 169.046875 191.078125 169.007812 189.964844 L 169.011719 189.964844 C 178.941406 192.664062 185.167969 199.492188 187.695312 210.453125 L 187.691406 210.453125 C 191.035156 228.660156 181.578125 243.207031 159.320312 254.089844 C 137.863281 261.152344 123.449219 253.550781 116.082031 231.285156 C 113.257812 222.742188 111.441406 212.078125 110.636719 199.285156 L 110.632812 199.285156 C 110.984375 182.382812 118.046875 170.074219 131.820312 162.363281 Z M 141.90625 157.929688 C 148.9375 155.539062 157.15625 153.957031 166.558594 153.191406 C 175.046875 152.667969 187.984375 155.371094 205.371094 161.308594 L 205.367188 161.3125 C 229.996094 173.902344 258.988281 186.765625 292.332031 199.902344 L 292.328125 199.902344 C 280.113281 204.695312 251.636719 219.492188 206.898438 244.289062 L 206.890625 244.289062 C 196.8125 248.828125 187.535156 252.539062 179.054688 255.421875 C 162.003906 261.21875 148.191406 263.671875 137.621094 262.773438 C 129.871094 262.109375 119.902344 259.992188 107.710938 256.425781 L 107.707031 256.425781 C 90.8125 249.199219 72.371094 242.617188 52.378906 236.675781 L 52.375 236.675781 C 56.265625 233.816406 60.246094 230.785156 64.316406 227.582031 C 64.390625 227.523438 64.457031 227.457031 64.519531 227.386719 L 104.179688 181.191406 C 108.164062 176.742188 111.492188 173.558594 114.164062 171.636719 L 114.265625 171.558594 C 116.371094 169.742188 118.492188 168.179688 120.625 166.871094 L 120.628906 166.871094 C 112.3125 174.859375 108.015625 185.648438 107.734375 199.234375 L 107.734375 199.355469 C 108.554688 212.445312 110.417969 223.394531 113.332031 232.195312 C 121.316406 256.328125 136.980469 264.535156 160.324219 256.8125 C 160.328125 256.808594 160.332031 256.808594 160.335938 256.808594 C 160.394531 256.789062 160.449219 256.765625 160.503906 256.738281 C 184.167969 245.195312 194.179688 229.570312 190.53125 209.863281 L 190.519531 209.800781 C 187.621094 197.226562 180.386719 189.582031 168.8125 186.859375 L 168.808594 186.863281 C 167.21875 170.371094 157.378906 161.074219 139.296875 158.972656 L 139.210938 158.96875 C 139.167969 158.964844 139.121094 158.960938 139.078125 158.960938 L 139.074219 158.960938 C 139.996094 158.601562 140.941406 158.257812 141.90625 157.929688 Z M 136.703125 141.699219 C 124.601562 145.816406 112.203125 152.457031 99.507812 161.621094 C 93.21875 165.957031 85.992188 171.65625 77.824219 178.714844 L 77.761719 178.773438 C 51.804688 204.070312 34.625 219.339844 26.222656 224.574219 C 26.144531 224.621094 26.070312 224.679688 26.003906 224.742188 C 23.769531 226.808594 22.679688 228.550781 22.726562 229.964844 C 22.742188 230.429688 22.867188 230.859375 23.097656 231.25 C 23.296875 231.582031 23.617188 231.824219 23.992188 231.917969 C 31.480469 233.800781 38.777344 235.761719 45.882812 237.796875 L 45.878906 237.800781 C 30.019531 249.097656 15.714844 257.421875 2.972656 262.777344 C 1.117188 263.542969 -0.742188 264.238281 -2.601562 264.871094 C -28.875 273.804688 -55.324219 269.71875 -81.949219 252.605469 C -82.335938 252.355469 -82.796875 252.316406 -83.199219 252.453125 C -83.5 252.554688 -83.765625 252.753906 -83.949219 253.042969 C -84.382812 253.714844 -84.1875 254.613281 -83.515625 255.046875 C -56.109375 272.660156 -28.835938 276.855469 -1.703125 267.628906 C 0.226562 266.972656 2.15625 266.25 4.085938 265.457031 L 4.097656 265.453125 C 17.53125 259.804688 32.640625 250.933594 49.421875 238.828125 L 49.425781 238.824219 C 70.152344 244.90625 89.222656 251.671875 106.628906 259.117188 C 106.683594 259.140625 106.734375 259.160156 106.792969 259.175781 C 119.214844 262.816406 129.40625 264.980469 137.375 265.664062 C 148.335938 266.59375 162.566406 264.085938 180.0625 258.132812 C 188.640625 255.21875 198 251.476562 208.148438 246.90625 L 208.253906 246.851562 C 256.082031 220.34375 285.179688 205.324219 295.550781 201.796875 C 296.042969 201.632812 296.492188 201.488281 296.898438 201.375 C 296.921875 201.367188 296.949219 201.359375 296.972656 201.351562 C 297.53125 201.160156 297.921875 200.644531 297.953125 200.050781 C 297.980469 199.425781 297.613281 198.855469 297.03125 198.628906 C 262.1875 185.011719 232.035156 171.695312 206.570312 158.671875 C 206.511719 158.640625 206.445312 158.613281 206.378906 158.589844 C 188.578125 152.507812 175.234375 149.742188 166.351562 150.296875 L 166.324219 150.300781 C 156.582031 151.09375 148.054688 152.738281 140.742188 155.222656 C 137.035156 156.484375 133.640625 157.960938 130.558594 159.65625 C 129.351562 159.921875 128.152344 160.257812 126.957031 160.664062 C 122.015625 162.34375 117.167969 165.234375 112.40625 169.332031 L 112.402344 169.332031 C 109.566406 171.382812 106.101562 174.699219 102 179.277344 L 101.980469 179.300781 L 62.40625 225.394531 L 62.402344 225.398438 C 57.777344 229.035156 53.265625 232.449219 48.875 235.644531 C 41.382812 233.464844 33.683594 231.375 25.765625 229.375 L 25.761719 229.378906 C 26.042969 228.820312 26.746094 228.015625 27.871094 226.964844 L 27.867188 226.964844 C 36.480469 221.558594 53.769531 206.203125 79.734375 180.898438 L 79.730469 180.902344 C 87.824219 173.90625 94.976562 168.269531 101.179688 163.988281 L 101.207031 163.972656 C 113.664062 154.976562 125.808594 148.46875 137.636719 144.445312 C 143.617188 142.414062 149.519531 141.015625 155.339844 140.253906 L 155.40625 140.242188 C 172.523438 137.171875 195.367188 139.214844 223.945312 146.371094 C 224.03125 146.394531 224.125 146.40625 224.214844 146.410156 C 232.367188 146.855469 259.933594 158.699219 306.917969 181.945312 C 306.972656 181.972656 307.027344 181.992188 307.082031 182.011719 C 324.984375 188.277344 346.890625 193.152344 372.808594 196.632812 C 373.035156 196.664062 373.261719 196.640625 373.464844 196.570312 C 373.96875 196.398438 374.359375 195.953125 374.4375 195.390625 C 374.542969 194.59375 373.988281 193.867188 373.191406 193.757812 C 347.53125 190.3125 325.851562 185.5 308.160156 179.316406 L 308.152344 179.320312 C 261.136719 156.0625 233.265625 144.128906 224.535156 143.527344 L 224.53125 143.527344 C 195.636719 136.300781 172.445312 134.25 154.949219 137.378906 L 154.945312 137.378906 C 148.941406 138.167969 142.859375 139.605469 136.703125 141.699219 Z M 136.703125 141.699219 " fill-opacity="1" fill-rule="nonzero"/></g></g></g></svg>