<svg xmlns="http://www.w3.org/2000/svg" xmlns:xlink="http://www.w3.org/1999/xlink" width="500" zoomAndPan="magnify" viewBox="0 0 375 374.999991" height="500" preserveAspectRatio="xMidYMid meet" version="1.0"><defs><clipPath id="79aba3be91"><path d="M 30.542969 52.609375 L 245.792969 52.609375 L 245.792969 241.609375 L 30.542969 241.609375 Z M 30.542969 52.609375 " clip-rule="nonzero"/></clipPath><clipPath id="e9bac94f4d"><path d="M 54 138 L 106 138 L 106 168 L 54 168 Z M 54 138 " clip-rule="nonzero"/></clipPath><clipPath id="0af12664a3"><path d="M 58.410156 135.882812 L 108.050781 143.6875 L 103.625 171.84375 L 53.984375 164.039062 Z M 58.410156 135.882812 " clip-rule="nonzero"/></clipPath><clipPath id="f033d81adc"><path d="M 58.410156 135.882812 L 108.050781 143.6875 L 103.625 171.84375 L 53.984375 164.039062 Z M 58.410156 135.882812 " clip-rule="nonzero"/></clipPath><clipPath id="693172d85d"><path d="M 54 183 L 193 183 L 193 255 L 54 255 Z M 54 183 " clip-rule="nonzero"/></clipPath><clipPath id="a649b88c64"><path d="M 198.394531 211.589844 L 138.921875 299.03125 L 37.214844 229.859375 L 96.6875 142.417969 Z M 198.394531 211.589844 " clip-rule="nonzero"/></clipPath><clipPath id="e54ebcadb6"><path d="M 96.859375 142.535156 L 37.390625 229.980469 L 139.097656 299.152344 L 198.566406 211.707031 Z M 96.859375 142.535156 " clip-rule="nonzero"/></clipPath><clipPath id="3b0b2f8ae1"><path d="M 111 205 L 130 205 L 130 225 L 111 225 Z M 111 205 " clip-rule="nonzero"/></clipPath><clipPath id="44d7c148df"><path d="M 198.394531 211.589844 L 138.921875 299.03125 L 37.214844 229.859375 L 96.6875 142.417969 Z M 198.394531 211.589844 " clip-rule="nonzero"/></clipPath><clipPath id="3f3fafa4cd"><path d="M 96.859375 142.535156 L 37.390625 229.980469 L 139.097656 299.152344 L 198.566406 211.707031 Z M 96.859375 142.535156 " clip-rule="nonzero"/></clipPath></defs><g clip-path="url(#79aba3be91)"><path fill="#ff00c7" d="M 242.226562 128.601562 C 239.898438 122.765625 236.453125 117.402344 231.949219 112.980469 C 230.972656 112.023438 229.855469 111.082031 228.640625 110.242188 C 228.621094 103.585938 227.058594 97.046875 224.0625 91.234375 C 221.046875 85.382812 216.605469 80.253906 210.871094 76.535156 C 207.347656 74.246094 203.375 72.347656 199.203125 70.996094 C 195.035156 69.664062 190.671875 68.882812 186.304688 68.882812 C 184.777344 68.882812 183.234375 68.980469 181.726562 69.175781 C 181.6875 69.117188 181.648438 69.058594 181.609375 69 C 179.355469 65.90625 176.402344 63.089844 173.40625 60.757812 C 171.898438 59.605469 170.394531 58.566406 168.925781 57.707031 C 167.457031 56.84375 166.066406 56.121094 164.792969 55.613281 C 159.628906 53.515625 154.246094 52.617188 148.863281 52.617188 C 142.167969 52.617188 135.453125 54.007812 129.113281 56.21875 C 127.859375 56.648438 126.46875 57.214844 125.082031 57.921875 C 118.972656 55.082031 112.359375 53.695312 105.761719 53.695312 C 97.265625 53.695312 88.773438 55.984375 81.316406 60.425781 C 78.261719 62.246094 73.78125 65.261719 70.003906 68.921875 C 68.121094 70.761719 66.402344 72.757812 65.148438 74.890625 C 65.011719 75.125 64.875 75.359375 64.757812 75.617188 C 61.058594 76.066406 57.554688 77.257812 54.34375 79.019531 C 48.296875 82.347656 43.246094 87.652344 39.703125 93.878906 C 36.160156 100.101562 34.105469 107.226562 34.105469 114.234375 C 34.105469 117.304688 34.496094 120.339844 35.339844 123.257812 C 35.082031 123.511719 34.847656 123.785156 34.632812 124.058594 C 33.203125 125.800781 32.1875 127.816406 31.519531 129.988281 C 30.855469 132.144531 30.542969 134.453125 30.542969 136.78125 C 30.542969 140.96875 31.539062 145.277344 33.339844 149.132812 C 34.242188 151.050781 35.339844 152.851562 36.628906 154.476562 C 37.921875 156.082031 39.390625 157.507812 41.035156 158.644531 C 43.363281 160.269531 45.867188 161.464844 48.492188 162.285156 C 51.113281 163.109375 53.835938 163.558594 56.59375 163.675781 C 57.140625 163.695312 57.613281 163.265625 57.632812 162.714844 C 57.652344 162.167969 57.222656 161.699219 56.671875 161.679688 C 54.089844 161.582031 51.523438 161.148438 49.097656 160.386719 C 46.652344 159.625 44.320312 158.507812 42.167969 157 C 40.699219 155.984375 39.371094 154.710938 38.195312 153.222656 C 36.433594 151.011719 35.003906 148.347656 34.046875 145.53125 C 33.066406 142.691406 32.558594 139.699219 32.558594 136.800781 C 32.558594 134.882812 32.792969 133.003906 33.261719 131.242188 C 33.617188 129.929688 34.105469 128.679688 34.75 127.523438 C 35.140625 126.800781 35.59375 126.113281 36.101562 125.488281 C 36.941406 127.757812 38.097656 129.929688 39.546875 131.945312 C 40.621094 133.453125 42.167969 134.6875 43.910156 135.566406 C 45.652344 136.449219 47.609375 136.957031 49.546875 136.957031 C 50.488281 136.957031 51.445312 136.839844 52.347656 136.566406 C 53.265625 136.292969 54.128906 135.882812 54.929688 135.3125 C 56.085938 134.472656 56.945312 133.394531 57.496094 132.222656 C 58.042969 131.027344 58.296875 129.753906 58.296875 128.464844 C 58.296875 127.171875 58.042969 125.878906 57.574219 124.683594 C 57.101562 123.472656 56.417969 122.355469 55.519531 121.417969 C 54.421875 120.261719 53.089844 119.441406 51.640625 118.890625 C 50.195312 118.34375 48.648438 118.089844 47.121094 118.089844 C 46.121094 118.089844 45.144531 118.207031 44.203125 118.402344 C 41.835938 118.929688 39.78125 119.832031 38.039062 121.003906 C 37.6875 121.242188 37.355469 121.496094 37.019531 121.75 C 36.414062 119.324219 36.121094 116.796875 36.121094 114.253906 C 36.121094 109.847656 36.980469 105.347656 38.566406 101.082031 C 40.9375 94.679688 44.929688 88.789062 49.960938 84.5 C 52.484375 82.367188 55.261719 80.605469 58.238281 79.394531 C 60.039062 78.648438 61.898438 78.121094 63.816406 77.789062 C 63.777344 77.925781 63.71875 78.0625 63.679688 78.199219 C 63.328125 79.335938 63.113281 80.488281 63.113281 81.644531 C 63.113281 82.660156 63.269531 83.699219 63.601562 84.71875 C 63.933594 85.734375 64.460938 86.753906 65.167969 87.730469 C 66.066406 88.984375 67.261719 89.960938 68.632812 90.648438 C 69.984375 91.332031 71.488281 91.703125 73.015625 91.703125 C 73.367188 91.703125 73.703125 91.683594 74.054688 91.644531 C 74.953125 91.546875 75.875 91.292969 76.714844 90.882812 C 77.558594 90.472656 78.339844 89.882812 78.945312 89.101562 C 79.378906 88.535156 79.691406 87.90625 79.90625 87.242188 C 80.101562 86.597656 80.199219 85.910156 80.199219 85.226562 C 80.199219 83.835938 79.828125 82.464844 79.164062 81.273438 C 78.613281 80.273438 77.890625 79.414062 77.066406 78.667969 C 75.835938 77.574219 74.347656 76.75 72.78125 76.222656 C 71.214844 75.695312 69.53125 75.417969 67.886719 75.417969 C 67.808594 75.417969 67.730469 75.417969 67.632812 75.417969 C 67.476562 75.417969 67.320312 75.417969 67.183594 75.4375 C 67.535156 74.890625 67.925781 74.324219 68.339844 73.796875 C 70.238281 71.328125 72.761719 68.980469 75.304688 66.984375 C 77.851562 64.988281 80.414062 63.324219 82.351562 62.167969 C 89.457031 57.882812 97.601562 55.691406 105.742188 55.691406 C 111.574219 55.691406 117.386719 56.824219 122.847656 59.117188 C 122.164062 59.507812 121.5 59.9375 120.851562 60.386719 C 119.128906 61.601562 117.546875 62.992188 116.351562 64.578125 C 115.765625 65.378906 115.273438 66.21875 114.921875 67.121094 C 114.589844 68.019531 114.394531 68.980469 114.394531 69.957031 C 114.394531 71.015625 114.609375 72.09375 115.097656 73.167969 C 115.566406 74.246094 116.292969 75.320312 117.269531 76.398438 C 118.230469 77.457031 119.425781 78.257812 120.714844 78.804688 C 122.007812 79.355469 123.417969 79.628906 124.808594 79.628906 C 126.3125 79.628906 127.820312 79.296875 129.191406 78.609375 C 130.875 77.769531 132.246094 76.417969 133.203125 74.832031 C 134.164062 73.246094 134.691406 71.40625 134.691406 69.546875 C 134.691406 68.921875 134.632812 68.316406 134.515625 67.6875 C 134.320312 66.75 134.007812 65.867188 133.574219 65.027344 C 132.929688 63.773438 132.070312 62.65625 131.050781 61.699219 C 130.050781 60.738281 128.898438 59.917969 127.703125 59.253906 C 127.585938 59.195312 127.449219 59.117188 127.332031 59.058594 C 128.171875 58.683594 128.996094 58.371094 129.757812 58.097656 C 135.945312 55.945312 142.421875 54.613281 148.84375 54.613281 C 153.992188 54.613281 159.117188 55.476562 164.011719 57.472656 C 165.773438 58.195312 167.90625 59.371094 170.097656 60.855469 C 173.386719 63.109375 176.792969 66.101562 179.355469 69.371094 C 179.414062 69.429688 179.457031 69.488281 179.496094 69.566406 C 176.617188 70.15625 173.816406 71.152344 171.15625 72.601562 C 169.609375 73.441406 168.21875 74.617188 167.144531 76.027344 C 166.066406 77.4375 165.285156 79.078125 165.011719 80.859375 C 164.914062 81.449219 164.875 82.015625 164.875 82.5625 C 164.875 83.914062 165.148438 85.148438 165.65625 86.222656 C 166.027344 87.027344 166.535156 87.730469 167.144531 88.359375 C 168.042969 89.277344 169.140625 89.960938 170.335938 90.414062 C 171.527344 90.863281 172.820312 91.097656 174.132812 91.097656 C 175.421875 91.097656 176.734375 90.882812 177.988281 90.414062 C 179.238281 89.941406 180.414062 89.238281 181.433594 88.300781 C 182.859375 86.96875 183.917969 85.519531 184.582031 84.03125 C 185.269531 82.523438 185.5625 80.980469 185.5625 79.433594 C 185.5625 78.121094 185.347656 76.808594 184.957031 75.539062 C 184.503906 74.011719 183.800781 72.523438 182.9375 71.074219 C 184.054688 70.957031 185.171875 70.898438 186.285156 70.898438 C 190.398438 70.898438 194.566406 71.621094 198.578125 72.914062 C 202.570312 74.1875 206.386719 76.027344 209.773438 78.21875 C 215.214844 81.742188 219.421875 86.578125 222.28125 92.15625 C 224.921875 97.300781 226.410156 103.078125 226.605469 108.96875 C 226.019531 108.636719 225.414062 108.304688 224.785156 108.007812 C 223.4375 107.363281 222.027344 106.835938 220.597656 106.484375 C 219.167969 106.109375 217.71875 105.914062 216.273438 105.914062 C 215.214844 105.914062 214.160156 106.03125 213.140625 106.265625 C 211.613281 106.640625 210.144531 107.304688 208.816406 108.34375 C 207.503906 109.359375 206.328125 110.75 205.390625 112.492188 C 204.488281 114.136719 204.058594 115.9375 204.058594 117.699219 C 204.058594 119.480469 204.488281 121.222656 205.332031 122.785156 C 206.171875 124.351562 207.425781 125.722656 209.03125 126.722656 C 210.007812 127.328125 211.007812 127.777344 211.984375 128.050781 C 212.984375 128.34375 213.960938 128.484375 214.941406 128.484375 C 216.703125 128.484375 218.386719 128.03125 219.914062 127.269531 C 222.203125 126.113281 224.179688 124.253906 225.648438 122.0625 C 227.117188 119.851562 228.09375 117.304688 228.367188 114.703125 C 228.445312 114.039062 228.484375 113.351562 228.523438 112.6875 C 229.230469 113.234375 229.894531 113.824219 230.5 114.410156 C 234.789062 118.617188 238.097656 123.765625 240.328125 129.363281 C 242.558594 134.960938 243.714844 141.007812 243.714844 147.058594 C 243.714844 148.625 243.636719 150.1875 243.480469 151.753906 C 243.324219 153.242188 243.046875 154.789062 242.636719 156.277344 C 242.011719 158.507812 241.03125 160.621094 239.703125 162.363281 C 239.035156 163.226562 238.273438 164.007812 237.410156 164.671875 C 236.550781 165.339844 235.589844 165.867188 234.496094 166.257812 C 232.675781 166.925781 230.855469 167.199219 229.015625 167.199219 C 227.46875 167.199219 225.921875 166.984375 224.375 166.609375 C 222.066406 166.0625 219.796875 165.125 217.601562 164.007812 C 215.410156 162.871094 213.296875 161.542969 211.320312 160.191406 C 201.003906 153.085938 190.867188 144.867188 179.984375 138.09375 C 174.542969 134.707031 168.90625 131.691406 162.972656 129.363281 C 157.316406 127.152344 151.367188 125.566406 145.066406 124.882812 C 146.414062 121.125 148.214844 117.5625 150.449219 114.351562 C 151.875 115.054688 153.324219 115.742188 154.773438 116.347656 C 161.09375 118.988281 167.769531 120.632812 174.5625 120.632812 C 176.460938 120.632812 178.359375 120.496094 180.277344 120.242188 C 181.667969 120.046875 183.097656 119.734375 184.484375 119.265625 C 186.558594 118.578125 188.578125 117.582031 190.199219 116.191406 C 191.023438 115.484375 191.746094 114.703125 192.316406 113.804688 C 192.902344 112.902344 193.351562 111.902344 193.605469 110.789062 C 193.761719 110.101562 193.839844 109.4375 193.839844 108.753906 C 193.839844 107.753906 193.683594 106.777344 193.390625 105.835938 C 192.960938 104.425781 192.238281 103.097656 191.296875 101.941406 C 190.378906 100.785156 189.242188 99.769531 187.96875 99.003906 C 186.519531 98.125 184.957031 97.539062 183.351562 97.164062 C 181.746094 96.792969 180.082031 96.636719 178.4375 96.636719 C 177.300781 96.636719 176.167969 96.714844 175.050781 96.832031 C 170.882812 97.320312 166.988281 98.515625 163.464844 100.277344 C 158.160156 102.921875 153.65625 106.816406 150.074219 111.511719 C 149.996094 111.609375 149.917969 111.707031 149.859375 111.804688 C 145.789062 109.652344 141.894531 107.128906 138.253906 104.40625 C 135.90625 102.644531 133.59375 100.785156 131.207031 98.984375 C 128.839844 97.183594 126.390625 95.421875 123.789062 93.898438 C 121.324219 92.449219 118.738281 91.292969 116.097656 90.492188 C 113.453125 89.6875 110.734375 89.257812 107.972656 89.257812 C 105.3125 89.257812 102.609375 89.667969 99.890625 90.53125 C 93.980469 92.410156 88.539062 95.835938 84.074219 100.257812 C 79.613281 104.683594 76.128906 110.082031 74.132812 115.957031 C 73.484375 117.855469 72.996094 119.96875 72.996094 122.082031 C 72.996094 123.101562 73.113281 124.136719 73.386719 125.117188 C 73.664062 126.113281 74.113281 127.054688 74.777344 127.914062 C 74.953125 128.148438 75.148438 128.386719 75.34375 128.601562 C 74.894531 129.226562 74.464844 129.832031 74.054688 130.382812 C 71.683594 133.667969 69.570312 137.308594 68.0625 141.167969 C 66.539062 145.023438 65.617188 149.113281 65.617188 153.28125 C 65.617188 155.433594 65.871094 157.589844 66.421875 159.742188 C 67.085938 162.402344 68.144531 164.808594 69.511719 166.925781 C 71.566406 170.113281 74.328125 172.679688 77.539062 174.578125 C 80.746094 176.496094 84.425781 177.769531 88.324219 178.414062 C 90.730469 178.804688 93.136719 178.980469 95.546875 178.980469 C 98.285156 178.980469 101.027344 178.765625 103.765625 178.453125 C 108.207031 177.945312 112.476562 176.828125 116.703125 175.851562 C 120.929688 174.871094 125.101562 174.050781 129.386719 174.050781 C 129.953125 174.050781 130.523438 174.070312 131.089844 174.089844 C 133.652344 174.226562 136.179688 174.363281 138.683594 174.558594 C 138.878906 176.417969 139.351562 178.257812 139.996094 180.058594 C 141.347656 183.777344 143.5 187.300781 146.003906 190.453125 C 148.511719 193.601562 151.328125 196.34375 154.03125 198.476562 C 156.4375 200.375 158.921875 202.15625 161.332031 203.976562 C 163.738281 205.796875 166.046875 207.675781 168.121094 209.789062 C 170.863281 212.570312 172.742188 215.582031 173.957031 218.832031 C 175.167969 222.082031 175.714844 225.566406 175.714844 229.265625 C 175.714844 230.554688 175.65625 231.886719 175.519531 233.238281 C 175.34375 235.175781 174.679688 237.484375 173.601562 239.992188 C 173.386719 240.5 173.621094 241.085938 174.132812 241.300781 C 174.640625 241.519531 175.226562 241.28125 175.441406 240.773438 C 176.578125 238.132812 177.300781 235.644531 177.515625 233.414062 C 177.65625 232.003906 177.714844 230.617188 177.714844 229.246094 C 177.714844 225.351562 177.144531 221.613281 175.835938 218.109375 C 174.523438 214.605469 172.46875 211.335938 169.550781 208.359375 C 167.378906 206.148438 164.972656 204.210938 162.542969 202.371094 C 160.097656 200.53125 157.613281 198.769531 155.261719 196.890625 C 151.835938 194.191406 148.117188 190.351562 145.300781 186.066406 C 143.890625 183.914062 142.695312 181.664062 141.875 179.351562 C 141.308594 177.808594 140.914062 176.261719 140.71875 174.714844 C 142.226562 174.871094 143.734375 175.066406 145.203125 175.300781 C 149.742188 176.046875 154.089844 177.316406 158.101562 179.589844 C 162.757812 182.230469 167.457031 185.246094 172.390625 187.671875 C 174.855469 188.886719 177.378906 189.941406 179.984375 190.726562 C 182.585938 191.507812 185.289062 192.015625 188.085938 192.09375 C 188.359375 192.09375 188.65625 192.113281 188.929688 192.113281 C 190.964844 192.113281 193.058594 191.859375 195.035156 191.292969 C 197.011719 190.707031 198.910156 189.804688 200.554688 188.492188 C 202.433594 186.988281 203.84375 185.03125 204.761719 182.875 C 205.683594 180.722656 206.152344 178.335938 206.152344 175.96875 C 206.152344 173.519531 205.664062 171.054688 204.703125 168.804688 C 203.296875 165.515625 201.023438 162.734375 198.304688 160.503906 C 195.582031 158.273438 192.394531 156.570312 189.066406 155.453125 C 187.363281 154.886719 185.621094 154.671875 183.878906 154.671875 C 181.195312 154.671875 178.515625 155.160156 175.875 155.6875 C 173.230469 156.199219 170.648438 156.726562 168.199219 156.84375 C 167.613281 156.863281 167.007812 156.882812 166.398438 156.882812 C 164.953125 156.882812 163.40625 156.824219 161.839844 156.765625 C 160.253906 156.707031 158.628906 156.628906 157.023438 156.628906 C 154.207031 156.628906 151.386719 156.824219 148.804688 157.589844 C 147.511719 157.980469 146.277344 158.507812 145.144531 159.230469 C 144.007812 159.957031 142.992188 160.894531 142.109375 162.050781 C 140.875 163.695312 139.996094 165.398438 139.429688 167.160156 C 138.859375 168.902344 138.605469 170.703125 138.605469 172.484375 C 138.605469 172.503906 138.605469 172.542969 138.605469 172.5625 C 136.160156 172.367188 133.691406 172.230469 131.226562 172.109375 C 130.621094 172.070312 130.011719 172.070312 129.40625 172.070312 C 124.867188 172.070312 120.539062 172.953125 116.292969 173.929688 C 112.027344 174.910156 107.835938 176.007812 103.589844 176.496094 C 100.90625 176.808594 98.246094 177.003906 95.605469 177.003906 C 93.292969 177.003906 91.003906 176.847656 88.714844 176.476562 C 83.800781 175.671875 79.339844 173.792969 75.816406 170.9375 C 74.054688 169.507812 72.507812 167.804688 71.253906 165.867188 C 70.003906 163.929688 69.042969 161.738281 68.417969 159.269531 C 67.90625 157.292969 67.691406 155.296875 67.691406 153.300781 C 67.691406 149.445312 68.554688 145.589844 70.003906 141.910156 C 71.449219 138.230469 73.464844 134.726562 75.757812 131.554688 C 76.128906 131.046875 76.519531 130.5 76.910156 129.949219 C 76.929688 129.949219 76.929688 129.96875 76.949219 129.96875 C 78.125 130.832031 79.4375 131.417969 80.84375 131.808594 C 82.253906 132.203125 83.742188 132.359375 85.25 132.359375 C 88.265625 132.359375 91.394531 131.691406 94.195312 130.617188 C 95.605469 130.066406 96.914062 129.441406 98.109375 128.71875 C 99.304688 127.992188 100.359375 127.191406 101.242188 126.347656 C 102.199219 125.410156 102.964844 124.3125 103.492188 123.160156 C 104.019531 122.003906 104.3125 120.769531 104.3125 119.539062 C 104.3125 118.851562 104.214844 118.167969 104.019531 117.523438 C 103.707031 116.542969 103.160156 115.625 102.335938 114.878906 C 101.515625 114.136719 100.457031 113.566406 99.144531 113.234375 C 98.070312 112.941406 97.011719 112.824219 95.976562 112.824219 C 94.742188 112.824219 93.546875 113 92.394531 113.332031 C 90.378906 113.921875 88.480469 114.9375 86.699219 116.230469 C 84.035156 118.167969 81.648438 120.671875 79.554688 123.21875 C 78.515625 124.488281 77.539062 125.742188 76.636719 126.957031 C 76.578125 126.878906 76.519531 126.800781 76.460938 126.722656 C 75.972656 126.074219 75.621094 125.351562 75.402344 124.566406 C 75.1875 123.785156 75.070312 122.945312 75.070312 122.082031 C 75.070312 120.300781 75.503906 118.363281 76.089844 116.601562 C 77.96875 111.0625 81.296875 105.894531 85.542969 101.6875 C 89.789062 97.480469 94.976562 94.210938 100.574219 92.449219 C 103.082031 91.644531 105.585938 91.273438 108.050781 91.273438 C 110.597656 91.273438 113.121094 91.664062 115.609375 92.410156 C 118.074219 93.152344 120.5 94.25 122.867188 95.621094 C 125.375 97.085938 127.742188 98.789062 130.089844 100.570312 C 132.441406 102.351562 134.75 104.210938 137.136719 106.011719 C 140.777344 108.734375 144.691406 111.277344 148.765625 113.449219 C 146.414062 116.894531 144.515625 120.710938 143.128906 124.722656 C 141.503906 124.605469 139.878906 124.546875 138.253906 124.546875 C 132.050781 124.546875 125.84375 125.429688 119.933594 127.210938 C 114.023438 128.992188 108.386719 131.691406 103.375 135.351562 C 101.691406 136.566406 100.046875 137.957031 98.636719 139.582031 C 97.933594 140.382812 97.304688 141.246094 96.757812 142.183594 C 96.210938 143.105469 95.78125 144.101562 95.464844 145.160156 C 95.132812 146.273438 94.996094 147.390625 94.996094 148.507812 C 94.996094 150.011719 95.269531 151.5 95.761719 152.910156 C 96.503906 155.023438 97.738281 157 99.304688 158.664062 C 100.867188 160.328125 102.765625 161.679688 104.882812 162.578125 C 107.464844 163.65625 110.207031 164.125 112.945312 164.125 C 117.191406 164.125 121.441406 163.007812 125.296875 161.328125 C 127.78125 160.230469 130.191406 158.859375 132.363281 157.15625 C 134.535156 155.472656 136.453125 153.457031 137.921875 151.109375 C 139.035156 149.308594 139.859375 147.429688 140.484375 145.511719 C 141.425781 142.613281 141.953125 139.640625 142.441406 136.683594 C 142.929688 133.726562 143.402344 130.8125 144.183594 128.070312 C 144.300781 127.679688 144.417969 127.289062 144.535156 126.878906 C 150.820312 127.503906 156.710938 129.050781 162.367188 131.261719 C 171.058594 134.667969 179.140625 139.621094 187.011719 145.082031 C 194.878906 150.542969 202.511719 156.492188 210.300781 161.875 C 212.984375 163.734375 215.980469 165.554688 219.128906 166.925781 C 220.714844 167.609375 222.339844 168.175781 224.023438 168.589844 C 225.6875 169 227.390625 169.214844 229.132812 169.214844 C 231.167969 169.214844 233.242188 168.882812 235.277344 168.15625 C 236.980469 167.550781 238.449219 166.609375 239.703125 165.476562 C 241.5625 163.753906 242.910156 161.582031 243.851562 159.230469 C 244.789062 156.882812 245.339844 154.398438 245.574219 151.988281 C 245.730469 150.367188 245.828125 148.722656 245.828125 147.097656 C 245.75 140.734375 244.535156 134.433594 242.226562 128.601562 Z M 38.546875 123.003906 C 40.171875 121.769531 42.167969 120.828125 44.597656 120.28125 C 45.398438 120.105469 46.238281 120.007812 47.082031 120.007812 C 48.394531 120.007812 49.703125 120.222656 50.898438 120.671875 C 52.09375 121.125 53.167969 121.808594 54.03125 122.707031 C 54.734375 123.453125 55.300781 124.351562 55.675781 125.332031 C 56.066406 126.308594 56.261719 127.367188 56.261719 128.386719 C 56.261719 129.421875 56.066406 130.421875 55.636719 131.300781 C 55.222656 132.203125 54.597656 132.984375 53.71875 133.609375 C 53.109375 134.042969 52.445312 134.375 51.742188 134.570312 C 51.035156 134.785156 50.273438 134.882812 49.488281 134.882812 C 47.902344 134.882812 46.21875 134.453125 44.734375 133.707031 C 43.246094 132.964844 41.953125 131.90625 41.09375 130.714844 C 39.546875 128.5625 38.371094 126.210938 37.570312 123.765625 C 37.882812 123.53125 38.195312 123.277344 38.546875 123.003906 Z M 67.632812 77.398438 C 67.710938 77.398438 67.769531 77.398438 67.847656 77.398438 C 69.746094 77.398438 71.722656 77.808594 73.40625 78.628906 C 74.25 79.039062 75.03125 79.550781 75.699219 80.136719 C 76.363281 80.742188 76.929688 81.429688 77.363281 82.210938 C 77.871094 83.113281 78.144531 84.1875 78.144531 85.207031 C 78.144531 85.695312 78.085938 86.183594 77.949219 86.636719 C 77.8125 87.085938 77.597656 87.496094 77.324219 87.847656 C 76.929688 88.359375 76.402344 88.75 75.796875 89.0625 C 75.1875 89.355469 74.484375 89.550781 73.78125 89.628906 C 73.503906 89.667969 73.25 89.667969 72.976562 89.667969 C 71.78125 89.667969 70.570312 89.375 69.492188 88.828125 C 68.417969 88.28125 67.457031 87.496094 66.753906 86.519531 C 66.144531 85.695312 65.734375 84.875 65.460938 84.050781 C 65.1875 83.230469 65.070312 82.425781 65.070312 81.605469 C 65.070312 80.664062 65.226562 79.726562 65.539062 78.765625 C 65.675781 78.335938 65.851562 77.90625 66.046875 77.457031 C 66.558594 77.4375 67.085938 77.398438 67.632812 77.398438 Z M 126.746094 61.015625 C 128.152344 61.796875 129.464844 62.816406 130.503906 64.027344 C 131.011719 64.636719 131.460938 65.28125 131.8125 65.964844 C 132.167969 66.652344 132.421875 67.355469 132.578125 68.117188 C 132.675781 68.589844 132.714844 69.078125 132.714844 69.566406 C 132.714844 71.035156 132.285156 72.542969 131.5 73.835938 C 130.738281 75.125 129.621094 76.203125 128.308594 76.847656 C 127.234375 77.378906 126.039062 77.652344 124.808594 77.652344 C 123.671875 77.652344 122.515625 77.417969 121.480469 76.984375 C 120.421875 76.554688 119.484375 75.910156 118.71875 75.085938 C 117.859375 74.148438 117.269531 73.246094 116.898438 72.40625 C 116.527344 71.5625 116.371094 70.761719 116.371094 69.976562 C 116.371094 69.332031 116.488281 68.707031 116.683594 68.078125 C 117.054688 66.984375 117.742188 65.90625 118.660156 64.890625 C 120.03125 63.363281 121.910156 61.953125 123.90625 60.796875 C 124.296875 60.582031 124.6875 60.367188 125.0625 60.152344 C 125.648438 60.425781 126.195312 60.699219 126.746094 61.015625 Z M 182.429688 74.402344 C 183.175781 76.105469 183.585938 77.789062 183.585938 79.414062 C 183.585938 80.703125 183.332031 81.957031 182.78125 83.191406 C 182.214844 84.421875 181.355469 85.636719 180.082031 86.832031 C 179.257812 87.59375 178.300781 88.160156 177.28125 88.535156 C 176.265625 88.90625 175.1875 89.101562 174.132812 89.101562 C 173.171875 89.101562 172.234375 88.945312 171.371094 88.652344 C 170.726562 88.4375 170.117188 88.140625 169.570312 87.769531 C 168.75 87.222656 168.082031 86.519531 167.613281 85.65625 C 167.144531 84.796875 166.871094 83.777344 166.871094 82.5625 C 166.871094 82.132812 166.910156 81.664062 166.988281 81.175781 C 167.222656 79.746094 167.847656 78.394531 168.75 77.21875 C 169.648438 76.046875 170.824219 75.046875 172.136719 74.324219 C 174.328125 73.128906 176.636719 72.25 179.003906 71.699219 C 179.59375 71.5625 180.179688 71.445312 180.785156 71.328125 C 181.433594 72.367188 182 73.382812 182.429688 74.402344 Z M 226.429688 114.507812 C 226.273438 115.996094 225.84375 117.503906 225.199219 118.929688 C 224.21875 121.0625 222.710938 122.984375 220.929688 124.332031 C 220.050781 125.019531 219.089844 125.566406 218.09375 125.9375 C 217.09375 126.308594 216.058594 126.503906 215 126.503906 C 214.21875 126.503906 213.414062 126.386719 212.613281 126.152344 C 211.808594 125.917969 210.96875 125.546875 210.144531 125.039062 C 208.835938 124.214844 207.835938 123.121094 207.152344 121.847656 C 206.464844 120.574219 206.113281 119.144531 206.113281 117.699219 C 206.113281 116.25 206.464844 114.78125 207.191406 113.429688 C 207.738281 112.414062 208.363281 111.550781 209.050781 110.847656 C 210.066406 109.789062 211.183594 109.066406 212.417969 108.597656 C 213.628906 108.125 214.941406 107.910156 216.332031 107.910156 C 217.5625 107.910156 218.855469 108.085938 220.148438 108.421875 C 222.085938 108.910156 224.023438 109.75 225.804688 110.789062 C 226.097656 110.964844 226.371094 111.140625 226.644531 111.316406 C 226.605469 112.375 226.527344 113.429688 226.429688 114.507812 Z M 140.5625 172.464844 C 140.5625 170.878906 140.796875 169.292969 141.289062 167.765625 C 141.796875 166.21875 142.558594 164.710938 143.675781 163.246094 C 144.398438 162.265625 145.261719 161.503906 146.199219 160.894531 C 147.628906 159.976562 149.292969 159.410156 151.113281 159.054688 C 152.953125 158.703125 154.949219 158.605469 156.984375 158.605469 C 158.550781 158.605469 160.15625 158.664062 161.722656 158.722656 C 163.308594 158.78125 164.875 158.859375 166.359375 158.859375 C 167.007812 158.859375 167.632812 158.839844 168.257812 158.820312 C 170.921875 158.703125 173.582031 158.136719 176.207031 157.628906 C 178.828125 157.117188 181.394531 156.648438 183.820312 156.648438 C 185.40625 156.648438 186.914062 156.84375 188.378906 157.332031 C 191.492188 158.390625 194.46875 159.976562 196.972656 162.050781 C 199.476562 164.125 201.535156 166.648438 202.804688 169.605469 C 203.667969 171.582031 204.097656 173.792969 204.097656 175.988281 C 204.097656 178.101562 203.6875 180.214844 202.882812 182.113281 C 202.082031 184.011719 200.867188 185.675781 199.261719 186.96875 C 197.855469 188.101562 196.210938 188.886719 194.429688 189.414062 C 192.667969 189.921875 190.769531 190.15625 188.890625 190.15625 C 188.636719 190.15625 188.359375 190.15625 188.105469 190.136719 C 185.503906 190.058594 182.996094 189.589844 180.511719 188.847656 C 176.8125 187.730469 173.210938 186.007812 169.648438 184.050781 C 166.085938 182.09375 162.582031 179.902344 159.039062 177.90625 C 154.773438 175.476562 150.191406 174.167969 145.496094 173.382812 C 143.851562 173.109375 142.1875 172.914062 140.523438 172.738281 C 140.5625 172.621094 140.5625 172.542969 140.5625 172.464844 Z M 79.613281 126.210938 C 81.804688 123.394531 84.347656 120.496094 87.109375 118.324219 C 88.5 117.246094 89.925781 116.347656 91.394531 115.742188 C 92.863281 115.113281 94.371094 114.78125 95.898438 114.78125 C 96.757812 114.78125 97.640625 114.898438 98.539062 115.132812 C 99.226562 115.308594 99.8125 115.5625 100.261719 115.859375 C 100.964844 116.308594 101.4375 116.835938 101.75 117.445312 C 102.0625 118.050781 102.21875 118.753906 102.21875 119.5 C 102.21875 120.378906 102.003906 121.359375 101.574219 122.277344 C 101.144531 123.21875 100.515625 124.117188 99.753906 124.882812 C 99.007812 125.605469 98.089844 126.308594 96.992188 126.976562 C 95.367188 127.953125 93.429688 128.796875 91.394531 129.402344 C 89.359375 129.988281 87.207031 130.34375 85.171875 130.34375 C 83.351562 130.34375 81.609375 130.066406 80.121094 129.480469 C 79.378906 129.1875 78.671875 128.816406 78.046875 128.34375 C 78.027344 128.34375 78.027344 128.324219 78.007812 128.304688 C 78.535156 127.621094 79.0625 126.917969 79.613281 126.210938 Z M 155.398438 108.5 C 158.0625 105.894531 161.054688 103.703125 164.402344 102.039062 C 167.730469 100.375 171.390625 99.261719 175.324219 98.789062 C 176.363281 98.671875 177.4375 98.59375 178.496094 98.59375 C 180.023438 98.59375 181.53125 98.730469 182.957031 99.0625 C 184.386719 99.398438 185.757812 99.925781 187.011719 100.667969 C 188.417969 101.511719 189.652344 102.742188 190.535156 104.152344 C 190.964844 104.859375 191.316406 105.601562 191.550781 106.363281 C 191.785156 107.128906 191.902344 107.910156 191.902344 108.695312 C 191.902344 109.222656 191.84375 109.75 191.726562 110.28125 C 191.453125 111.433594 190.925781 112.453125 190.199219 113.351562 C 189.652344 114.019531 188.988281 114.644531 188.242188 115.171875 C 187.128906 115.996094 185.796875 116.640625 184.386719 117.148438 C 182.976562 117.660156 181.492188 118.011719 180.042969 118.207031 C 178.222656 118.460938 176.421875 118.578125 174.601562 118.578125 C 168.140625 118.578125 161.722656 117.011719 155.574219 114.449219 C 154.265625 113.902344 152.953125 113.292969 151.660156 112.667969 C 152.816406 111.21875 154.070312 109.808594 155.398438 108.5 Z M 142.1875 127.445312 C 141.089844 131.320312 140.621094 135.332031 139.898438 139.1875 C 139.527344 141.105469 139.113281 143.007812 138.527344 144.808594 C 137.941406 146.605469 137.175781 148.347656 136.160156 149.972656 C 134.828125 152.109375 133.066406 153.949219 131.050781 155.511719 C 129.035156 157.078125 126.765625 158.371094 124.394531 159.429688 C 120.753906 161.03125 116.742188 162.070312 112.847656 162.070312 C 110.324219 162.070312 107.855469 161.640625 105.566406 160.679688 C 103.140625 159.664062 100.945312 157.863281 99.382812 155.6875 C 98.597656 154.59375 97.972656 153.417969 97.542969 152.207031 C 97.109375 150.992188 96.875 149.71875 96.875 148.46875 C 96.875 147.527344 97.011719 146.585938 97.265625 145.667969 C 97.523438 144.785156 97.914062 143.945312 98.363281 143.144531 C 99.066406 141.949219 99.988281 140.832031 101.027344 139.796875 C 102.0625 138.757812 103.238281 137.820312 104.429688 136.9375 C 109.246094 133.414062 114.667969 130.8125 120.402344 129.089844 C 126.117188 127.367188 132.148438 126.503906 138.15625 126.523438 C 139.566406 126.523438 140.972656 126.566406 142.382812 126.664062 C 142.34375 126.917969 142.265625 127.171875 142.1875 127.445312 Z M 142.1875 127.445312 " fill-opacity="1" fill-rule="nonzero"/></g><g clip-path="url(#e9bac94f4d)"><g clip-path="url(#0af12664a3)"><g clip-path="url(#f033d81adc)"><path fill="#ff00c7" d="M 105.355469 160.144531 C 105.050781 159.550781 104.125 159.472656 103.703125 159.980469 C 102.96875 161.082031 102.152344 162.132812 101.199219 163.054688 C 99.542969 164.582031 97.351562 165.675781 95.066406 165.628906 C 93.292969 165.5625 91.667969 165.027344 89.894531 164.140625 C 89.539062 163.957031 89.214844 163.726562 88.894531 163.492188 C 92.773438 160.148438 97.675781 150.269531 93.128906 146.015625 C 92.027344 144.765625 90.277344 144.226562 88.664062 144.601562 C 86.835938 144.972656 85.398438 146.402344 84.398438 147.910156 C 81.21875 152.566406 82.191406 159.292969 85.902344 163.359375 C 83.789062 164.660156 81.585938 165.363281 78.964844 165.324219 C 75.054688 165.136719 71.179688 163.402344 69.917969 159.414062 C 74.457031 156.457031 77.921875 151.777344 79.203125 146.484375 C 79.789062 144 79.535156 140.765625 77.113281 139.359375 C 75.828125 138.621094 74.203125 138.773438 72.960938 139.527344 C 67.886719 142.472656 66.070312 153.261719 67.585938 158.5625 C 64.417969 160.417969 59.25 162.023438 55.40625 161.6875 C 55.03125 161.628906 54.59375 161.78125 54.40625 162.121094 C 54.265625 162.28125 54.253906 162.519531 54.261719 162.722656 C 54.289062 162.976562 54.441406 163.1875 54.628906 163.351562 C 55.148438 163.796875 57.375 163.601562 58.109375 163.546875 C 61.632812 163.195312 65.074219 162.128906 68.183594 160.441406 C 69.785156 164.914062 74.652344 167.15625 79.152344 167.210938 C 82.054688 167.273438 84.941406 166.324219 87.355469 164.730469 C 89.046875 166.078125 91.132812 166.863281 93.230469 167.324219 C 96.5625 168.039062 100.054688 166.792969 102.511719 164.5 C 103.585938 163.527344 104.46875 162.390625 105.269531 161.195312 C 105.515625 160.914062 105.574219 160.460938 105.355469 160.144531 Z M 69.761719 148.667969 C 70.527344 145.699219 71.90625 141.699219 74.886719 140.800781 C 75.996094 140.589844 76.78125 141.316406 77.152344 142.308594 C 77.742188 143.8125 77.414062 145.496094 77 147.003906 C 75.664062 151.230469 72.964844 154.921875 69.363281 157.433594 C 68.757812 154.621094 69.109375 151.554688 69.761719 148.667969 Z M 85.011719 157.890625 C 84 154.523438 84.402344 150.519531 86.976562 147.816406 C 87.460938 147.300781 88.035156 146.835938 88.695312 146.570312 C 89.054688 146.433594 89.4375 146.390625 89.820312 146.378906 C 90.683594 146.410156 91.210938 146.777344 91.785156 147.398438 C 92.425781 148.050781 92.824219 148.90625 92.914062 149.816406 C 93.085938 151.65625 92.660156 153.507812 91.972656 155.207031 C 90.957031 157.816406 89.558594 160.300781 87.4375 162.171875 C 86.277344 160.808594 85.699219 159.949219 85.011719 157.890625 Z M 85.011719 157.890625 " fill-opacity="1" fill-rule="nonzero"/></g></g></g><g clip-path="url(#693172d85d)"><g clip-path="url(#a649b88c64)"><g clip-path="url(#e54ebcadb6)"><path fill="#ff00c7" d="M 62.871094 246.519531 C 61.445312 245.476562 60.507812 243.957031 60.230469 242.214844 C 59.65625 238.625 62.136719 235.25 65.726562 234.675781 L 91.378906 230.636719 L 87.96875 209.035156 L 62.320312 213.078125 C 58.738281 213.636719 55.355469 211.171875 54.78125 207.582031 C 54.496094 205.855469 54.914062 204.144531 55.949219 202.691406 C 56.992188 201.261719 58.511719 200.324219 60.253906 200.046875 L 85.902344 196.007812 L 84.570312 187.558594 C 84.320312 186.019531 85.390625 184.546875 86.945312 184.304688 L 94.226562 183.152344 C 95.78125 182.910156 97.242188 183.972656 97.484375 185.53125 L 97.84375 187.792969 L 122.742188 183.867188 C 129.632812 182.777344 136.121094 187.261719 137.6875 193.964844 L 142.394531 193.21875 C 144.417969 192.902344 146.429688 193.390625 148.082031 194.582031 C 149.730469 195.773438 150.816406 197.554688 151.132812 199.578125 L 151.511719 202.019531 L 157.828125 201.023438 C 159.261719 200.792969 160.695312 201.140625 161.867188 202.007812 C 163.050781 202.859375 163.816406 204.125 164.035156 205.546875 L 164.25 206.96875 L 182.777344 204.050781 C 184.832031 203.726562 186.886719 204.21875 188.554688 205.449219 C 190.238281 206.660156 191.328125 208.46875 191.648438 210.523438 L 192.574219 216.394531 C 192.917969 218.414062 192.410156 220.390625 191.339844 221.960938 C 190.175781 223.675781 188.328125 224.921875 186.125 225.257812 L 171.984375 227.496094 C 168.789062 227.992188 166.613281 230.992188 167.109375 234.183594 L 167.347656 235.710938 C 167.84375 238.90625 170.839844 241.082031 174.03125 240.585938 C 174.554688 240.5 175.050781 240.859375 175.136719 241.382812 C 175.222656 241.90625 174.863281 242.402344 174.339844 242.488281 C 170.101562 243.15625 166.128906 240.265625 165.460938 236.03125 L 165.222656 234.5 C 164.554688 230.265625 167.445312 226.289062 171.679688 225.621094 L 185.824219 223.382812 C 187.363281 223.132812 188.730469 222.320312 189.636719 221.054688 C 190.574219 219.746094 190.921875 218.242188 190.6875 216.714844 L 189.761719 210.839844 C 189.507812 209.300781 188.6875 207.953125 187.417969 207.019531 C 186.164062 206.097656 184.605469 205.730469 183.074219 205.96875 L 164.546875 208.886719 L 164.878906 210.992188 C 165.105469 212.398438 164.746094 213.78125 164 214.875 C 163.191406 216.066406 161.894531 216.945312 160.367188 217.183594 L 154.050781 218.179688 L 154.433594 220.617188 C 154.746094 222.546875 154.300781 224.496094 153.210938 226.097656 C 153.167969 226.164062 153.113281 226.242188 153.070312 226.304688 C 151.878906 227.953125 150.097656 229.039062 148.074219 229.355469 L 143.296875 230.101562 C 143.386719 232.96875 142.554688 235.695312 141.023438 237.949219 C 139.035156 240.867188 135.894531 243 132.125 243.59375 L 107.226562 247.519531 L 107.636719 250.09375 C 107.75 250.84375 107.570312 251.554688 107.179688 252.125 C 106.75 252.761719 106.074219 253.207031 105.269531 253.332031 L 97.988281 254.484375 C 97.238281 254.597656 96.484375 254.410156 95.875 253.976562 C 95.253906 253.527344 94.863281 252.871094 94.734375 252.105469 L 93.402344 243.660156 L 67.761719 247.6875 C 66.035156 247.972656 64.285156 247.546875 62.871094 246.519531 Z M 60.558594 201.949219 C 59.328125 202.15625 58.238281 202.808594 57.503906 203.816406 C 56.777344 204.785156 56.46875 206.058594 56.675781 207.289062 C 57.074219 209.835938 59.464844 211.578125 62.011719 211.175781 L 87.660156 207.132812 L 86.210938 197.910156 Z M 160.074219 215.292969 C 161.976562 214.984375 163.292969 213.1875 162.996094 211.269531 L 162.140625 205.839844 C 162.007812 204.910156 161.492188 204.097656 160.753906 203.546875 C 159.984375 203.003906 159.074219 202.777344 158.144531 202.910156 L 151.832031 203.90625 L 153.769531 216.269531 Z M 147.78125 227.464844 C 149.285156 227.234375 150.632812 226.410156 151.515625 225.179688 C 152.390625 223.964844 152.789062 222.421875 152.539062 220.910156 L 149.777344 203.277344 L 149.246094 199.898438 C 148.996094 198.382812 148.191406 197.046875 146.957031 196.160156 C 145.722656 195.25 144.203125 194.890625 142.691406 195.136719 L 138.039062 195.871094 L 143.117188 228.214844 Z M 131.84375 241.683594 C 138.011719 240.703125 142.238281 234.902344 141.273438 228.746094 L 135.988281 195.199219 C 135.007812 189.03125 129.203125 184.808594 123.050781 185.773438 L 98.152344 189.699219 L 106.949219 245.609375 Z M 97.003906 252.421875 C 97.207031 252.5625 97.441406 252.628906 97.699219 252.59375 L 104.976562 251.441406 C 105.472656 251.359375 105.824219 250.878906 105.742188 250.382812 L 105.195312 246.855469 L 96.09375 189.039062 L 95.589844 185.820312 C 95.511719 185.324219 95.03125 184.976562 94.535156 185.054688 L 87.253906 186.207031 C 86.757812 186.289062 86.40625 186.769531 86.488281 187.265625 L 89.71875 207.792969 L 93.421875 231.28125 L 95.164062 242.398438 L 96.636719 251.800781 C 96.660156 252.070312 96.796875 252.28125 97.003906 252.421875 Z M 67.460938 245.808594 L 93.097656 241.785156 L 91.648438 232.558594 L 65.996094 236.601562 C 63.449219 237.003906 61.710938 239.390625 62.113281 241.941406 C 62.300781 243.160156 62.96875 244.261719 63.976562 244.996094 C 64.988281 245.730469 66.242188 246 67.460938 245.808594 Z M 67.460938 245.808594 " fill-opacity="1" fill-rule="nonzero"/></g></g></g><g clip-path="url(#3b0b2f8ae1)"><g clip-path="url(#44d7c148df)"><g clip-path="url(#3f3fafa4cd)"><path fill="#ff00c7" d="M 129.675781 213.386719 C 130.0625 215.785156 129.457031 218.109375 128.183594 219.984375 C 126.800781 222.011719 124.621094 223.476562 122.011719 223.90625 C 119.585938 224.296875 117.152344 223.710938 115.175781 222.25 C 113.199219 220.792969 111.886719 218.667969 111.507812 216.253906 C 110.71875 211.238281 114.148438 206.539062 119.160156 205.75 C 124.175781 204.960938 128.875 208.386719 129.675781 213.386719 Z M 114.570312 210.726562 C 113.566406 212.199219 113.105469 214.042969 113.394531 215.933594 C 113.691406 217.851562 114.730469 219.535156 116.304688 220.699219 C 117.875 221.835938 119.800781 222.308594 121.71875 222.015625 C 125.675781 221.386719 128.402344 217.648438 127.773438 213.695312 C 127.144531 209.738281 123.40625 207.011719 119.453125 207.640625 C 117.386719 207.953125 115.660156 209.121094 114.570312 210.726562 Z M 114.570312 210.726562 " fill-opacity="1" fill-rule="nonzero"/></g></g></g></svg>