<svg xmlns="http://www.w3.org/2000/svg" xmlns:xlink="http://www.w3.org/1999/xlink" width="1000" zoomAndPan="magnify" viewBox="0 0 750 187.499995" height="250" preserveAspectRatio="xMidYMid meet" version="1.0"><defs><g/></defs><g fill="#32c8bf" fill-opacity="1"><g transform="translate(27.407024, 111.901021)"><g><path d="M 1.671875 0.78125 L 17.28125 -44.59375 L 47.5625 -44.59375 L 52.578125 -36.78125 L 52.515625 -36.546875 L 54 -34.390625 L 51.328125 -26.640625 L 46.203125 -22.828125 L 47.8125 -22.828125 L 47.6875 -22.46875 L 49.125 -20.265625 L 43.75 -4.703125 L 33.5 2.984375 L 3.453125 2.984375 L 2.03125 0.78125 Z M 51.5625 -36.359375 L 46.796875 -43.6875 L 17.828125 -43.6875 L 2.859375 -0.125 L 31.828125 -0.125 L 41.609375 -7.453125 L 46.609375 -21.9375 L 39.21875 -21.9375 L 49.171875 -29.390625 Z M 19.734375 -7.328125 L 24.796875 -22.0625 L 32.1875 -22.0625 L 27.125 -7.328125 Z M 34.6875 -29.265625 L 27.296875 -29.265625 L 29.8125 -36.484375 L 37.203125 -36.484375 Z M 26.828125 -18.953125 L 23.1875 -8.21875 L 26.578125 -8.21875 L 30.21875 -18.953125 Z M 31.828125 -33.4375 L 30.703125 -30.15625 L 34.09375 -30.15625 L 35.234375 -33.4375 Z M 31.828125 -33.4375 "/></g></g></g><g fill="#32c8bf" fill-opacity="1"><g transform="translate(66.627788, 111.901021)"><g><path d="M 10.484375 -22.40625 L 20.203125 -29.6875 L 41.84375 -29.6875 L 39.40625 -22.53125 L 24.96875 -22.53125 L 17.28125 -0.125 L 2.859375 -0.125 Z M 20.140625 -30.578125 L 9.78125 -22.828125 L 1.671875 0.78125 L 2.03125 0.78125 L 3.453125 2.984375 L 19.3125 2.984375 L 27 -19.4375 L 41.421875 -19.4375 L 44.40625 -28.015625 L 42.984375 -30.21875 L 43.09375 -30.578125 Z M 20.140625 -30.578125 "/></g></g></g><g fill="#32c8bf" fill-opacity="1"><g transform="translate(98.45732, 111.901021)"><g><path d="M 9.421875 0.78125 L 4.34375 -7.03125 L 9.78125 -22.828125 L 20.203125 -30.578125 L 50.484375 -30.578125 L 50.375 -30.21875 L 51.796875 -28.015625 L 41.125 2.984375 L 11.03125 2.984375 L 9.65625 0.78125 Z M 5.359375 -7.453125 L 10.140625 -0.125 L 39.109375 -0.125 L 49.234375 -29.6875 L 20.265625 -29.6875 L 10.484375 -22.40625 Z M 24.96875 -22.53125 L 32.375 -22.53125 L 27.125 -7.328125 L 19.734375 -7.328125 Z M 27 -19.4375 L 23.1875 -8.21875 L 26.578125 -8.21875 L 30.40625 -19.4375 Z M 27 -19.4375 "/></g></g></g><g fill="#32c8bf" fill-opacity="1"><g transform="translate(137.678084, 111.901021)"><g><path d="M 28.609375 -30.640625 L 28.5 -30.28125 L 29.921875 -28.078125 L 19.25 2.984375 L 11.03125 2.984375 L 9.59375 0.78125 L 9.359375 0.78125 L 4.34375 -7.03125 L 12.453125 -30.640625 Z M 5.359375 -7.453125 L 10.078125 -0.125 L 17.234375 -0.125 L 27.421875 -29.75 L 13.046875 -29.75 Z M 16.03125 -33.5625 L 14.546875 -35.703125 L 14.1875 -35.703125 L 17.28125 -44.640625 L 33.4375 -44.640625 L 33.328125 -44.296875 L 34.75 -42.078125 L 31.828125 -33.5625 Z M 17.890625 -43.75 L 15.375 -36.59375 L 29.75 -36.59375 L 32.25 -43.75 Z M 17.890625 -43.75 "/></g></g></g><g fill="#32c8bf" fill-opacity="1"><g transform="translate(155.023175, 111.901021)"><g><path d="M 42.734375 -30.578125 L 47.8125 -22.828125 L 47.75 -22.59375 L 49.171875 -20.390625 L 41.125 2.984375 L 25.28125 2.984375 L 23.84375 0.78125 L 23.484375 0.78125 L 30.40625 -19.4375 L 27 -19.4375 L 19.3125 2.984375 L 3.453125 2.984375 L 2.03125 0.78125 L 1.671875 0.78125 L 12.453125 -30.578125 Z M 46.734375 -22.40625 L 41.96875 -29.6875 L 13 -29.6875 L 2.859375 -0.125 L 17.28125 -0.125 L 24.96875 -22.53125 L 32.375 -22.53125 L 24.671875 -0.125 L 39.109375 -0.125 Z M 46.734375 -22.40625 "/></g></g></g><g fill="#32c8bf" fill-opacity="1"><g transform="translate(194.243939, 111.901021)"><g><path d="M 1.671875 0.78125 L 4.765625 -8.21875 L 14.84375 -8.21875 L 13.46875 -10.3125 L 13.234375 -10.3125 L 8.171875 -18.125 L 9.78125 -22.828125 L 20.203125 -30.578125 L 50.375 -30.578125 L 50.25 -30.21875 L 51.6875 -28.015625 L 48.703125 -19.4375 L 27 -19.4375 L 27 -19.3125 L 38.75 -19.3125 L 43.75 -11.5 L 43.6875 -11.265625 L 45.125 -9.0625 L 43.640625 -4.703125 L 33.375 2.984375 L 3.453125 2.984375 L 2.03125 0.78125 Z M 42.734375 -11.09375 L 37.96875 -18.421875 L 23.546875 -18.421875 L 24.96875 -22.53125 L 46.671875 -22.53125 L 49.125 -29.6875 L 20.203125 -29.6875 L 10.484375 -22.40625 L 9.1875 -18.53125 L 13.890625 -11.203125 L 28.375 -11.203125 L 27 -7.328125 L 5.3125 -7.328125 L 2.859375 -0.125 L 31.71875 -0.125 L 41.484375 -7.453125 Z M 42.734375 -11.09375 "/></g></g></g><g fill="#32c8bf" fill-opacity="1"><g transform="translate(233.345487, 111.901021)"><g/></g></g><g fill="#32c8bf" fill-opacity="1"><g transform="translate(251.942325, 111.901021)"><g><path d="M 23.1875 -8.21875 L 26.828125 -18.953125 L 30.21875 -18.953125 L 26.578125 -8.21875 Z M 32.1875 -22.0625 L 24.796875 -22.0625 L 19.734375 -7.328125 L 27.125 -7.328125 Z M 44.34375 -36.484375 L 29.8125 -36.484375 L 27.296875 -29.265625 L 49.125 -29.265625 L 41.609375 -7.453125 L 31.828125 -0.125 L 10.140625 -0.125 L 5.359375 -7.453125 L 10.375 -21.9375 L 17.703125 -21.9375 L 12.9375 -29.390625 L 15.3125 -36.359375 L 25.09375 -43.6875 L 46.796875 -43.6875 Z M 9.65625 0.78125 L 11.03125 2.984375 L 33.5 2.984375 L 43.75 -4.703125 L 51.625 -27.59375 L 50.1875 -29.8125 L 50.3125 -30.15625 L 30.703125 -30.15625 L 31.828125 -33.4375 L 46.375 -33.4375 L 49.359375 -42.03125 L 47.859375 -44.234375 L 48.046875 -44.59375 L 25.03125 -44.59375 L 14.546875 -36.78125 L 11.859375 -28.96875 L 15.859375 -22.828125 L 9.78125 -22.828125 L 4.34375 -7.03125 L 9.421875 0.78125 Z M 9.65625 0.78125 "/></g></g></g><g fill="#32c8bf" fill-opacity="1"><g transform="translate(291.163089, 111.901021)"><g/></g></g><g fill="#32c8bf" fill-opacity="1"><g transform="translate(309.759927, 111.901021)"><g><path d="M 11.03125 2.984375 L 9.65625 0.78125 L 9.421875 0.78125 L 4.34375 -7.03125 L 14.546875 -36.78125 L 25.03125 -44.59375 L 55.3125 -44.59375 L 55.140625 -44.234375 L 56.625 -42.03125 L 51.203125 -26.28125 L 35.34375 -26.28125 L 33.921875 -28.5 L 33.5625 -28.5 L 35.234375 -33.4375 L 31.828125 -33.4375 L 23.1875 -8.21875 L 42.796875 -8.21875 L 42.625 -7.875 L 44.109375 -5.65625 L 41.125 2.984375 Z M 19.734375 -7.328125 L 29.8125 -36.484375 L 37.203125 -36.484375 L 34.75 -29.390625 L 49.171875 -29.390625 L 54.0625 -43.6875 L 25.09375 -43.6875 L 15.3125 -36.359375 L 5.359375 -7.453125 L 10.140625 -0.125 L 39.109375 -0.125 L 41.546875 -7.328125 Z M 19.734375 -7.328125 "/></g></g></g><g fill="#32c8bf" fill-opacity="1"><g transform="translate(348.980691, 111.901021)"><g><path d="M 9.421875 0.78125 L 4.34375 -7.03125 L 9.78125 -22.828125 L 20.203125 -30.578125 L 42.734375 -30.578125 L 47.8125 -22.828125 L 47.75 -22.59375 L 49.171875 -20.390625 L 43.75 -4.703125 L 33.5 2.984375 L 11.03125 2.984375 L 9.65625 0.78125 Z M 5.359375 -7.453125 L 10.140625 -0.125 L 31.828125 -0.125 L 41.609375 -7.453125 L 46.734375 -22.40625 L 41.96875 -29.6875 L 20.265625 -29.6875 L 10.484375 -22.40625 Z M 24.96875 -22.53125 L 32.375 -22.53125 L 27.125 -7.328125 L 19.734375 -7.328125 Z M 27 -19.4375 L 23.1875 -8.21875 L 26.578125 -8.21875 L 30.40625 -19.4375 Z M 27 -19.4375 "/></g></g></g><g fill="#32c8bf" fill-opacity="1"><g transform="translate(388.201455, 111.901021)"><g><path d="M 57.34375 -30.578125 L 62.40625 -22.828125 L 62.34375 -22.59375 L 63.78125 -20.390625 L 55.734375 2.984375 L 39.875 2.984375 L 38.453125 0.78125 L 38.09375 0.78125 L 45 -19.4375 L 44.765625 -19.4375 L 37.078125 2.984375 L 22.0625 2.984375 L 20.625 0.78125 L 20.265625 0.78125 L 27.1875 -19.4375 L 27 -19.4375 L 19.3125 2.984375 L 3.453125 2.984375 L 2.03125 0.78125 L 1.671875 0.78125 L 9.78125 -22.828125 L 20.203125 -30.578125 Z M 61.34375 -22.40625 L 56.5625 -29.6875 L 20.265625 -29.6875 L 10.484375 -22.40625 L 2.859375 -0.125 L 17.28125 -0.125 L 24.96875 -22.53125 L 29.15625 -22.53125 L 21.453125 -0.125 L 35.046875 -0.125 L 42.734375 -22.53125 L 46.96875 -22.53125 L 39.28125 -0.125 L 53.703125 -0.125 Z M 61.34375 -22.40625 "/></g></g></g><g fill="#32c8bf" fill-opacity="1"><g transform="translate(442.025875, 111.901021)"><g><path d="M -1.1875 16.515625 L -2.6875 14.3125 L -3.046875 14.3125 L 12.453125 -30.640625 L 42.734375 -30.640625 L 47.8125 -22.828125 L 47.75 -22.59375 L 49.171875 -20.390625 L 43.75 -4.703125 L 33.5 2.984375 L 19.3125 2.984375 L 14.65625 16.515625 Z M 31.828125 -0.125 L 41.609375 -7.453125 L 46.734375 -22.40625 L 42.03125 -29.75 L 13.046875 -29.75 L -1.78125 13.40625 L 12.640625 13.40625 L 17.28125 -0.125 Z M 24.96875 -22.53125 L 32.375 -22.53125 L 27.125 -7.328125 L 19.734375 -7.328125 Z M 27 -19.4375 L 23.1875 -8.21875 L 26.578125 -8.21875 L 30.40625 -19.4375 Z M 27 -19.4375 "/></g></g></g><g fill="#32c8bf" fill-opacity="1"><g transform="translate(481.246617, 111.901021)"><g><path d="M 9.421875 0.78125 L 4.34375 -7.03125 L 12.453125 -30.578125 L 28.671875 -30.578125 L 28.546875 -30.21875 L 29.984375 -28.015625 L 23.1875 -8.21875 L 26.578125 -8.21875 L 34.28125 -30.578125 L 50.484375 -30.578125 L 50.375 -30.21875 L 51.796875 -28.015625 L 41.125 2.984375 L 11.03125 2.984375 L 9.65625 0.78125 Z M 5.359375 -7.453125 L 10.140625 -0.125 L 39.109375 -0.125 L 49.234375 -29.6875 L 34.8125 -29.6875 L 27.125 -7.328125 L 19.734375 -7.328125 L 27.421875 -29.6875 L 13 -29.6875 Z M 5.359375 -7.453125 "/></g></g></g><g fill="#32c8bf" fill-opacity="1"><g transform="translate(520.467404, 111.901021)"><g><path d="M 12.453125 -30.640625 L 17.34375 -30.640625 L 22.171875 -44.59375 L 38.390625 -44.59375 L 38.203125 -44.234375 L 39.640625 -42.03125 L 35.703125 -30.640625 L 43.09375 -30.640625 L 42.984375 -30.28125 L 44.40625 -28.078125 L 41.421875 -19.4375 L 31.828125 -19.4375 L 28.015625 -8.21875 L 35.40625 -8.21875 L 35.234375 -7.875 L 36.71875 -5.65625 L 33.734375 2.984375 L 15.921875 2.984375 L 14.484375 0.78125 L 14.25 0.78125 L 9.234375 -7.03125 L 13.46875 -19.4375 L 11.140625 -19.4375 L 9.71875 -21.640625 L 9.359375 -21.640625 Z M 17.9375 -29.75 L 13.046875 -29.75 L 10.546875 -22.53125 L 15.4375 -22.53125 L 10.25 -7.453125 L 14.96875 -0.125 L 31.71875 -0.125 L 34.15625 -7.328125 L 24.625 -7.328125 L 29.859375 -22.53125 L 39.40625 -22.53125 L 41.90625 -29.75 L 32.375 -29.75 L 37.140625 -43.6875 L 22.71875 -43.6875 Z M 17.9375 -29.75 "/></g></g></g><g fill="#32c8bf" fill-opacity="1"><g transform="translate(552.296936, 111.901021)"><g><path d="M 9.421875 0.78125 L 4.34375 -7.03125 L 9.78125 -22.828125 L 20.203125 -30.578125 L 50.484375 -30.578125 L 50.375 -30.21875 L 51.796875 -28.015625 L 41.125 2.984375 L 11.03125 2.984375 L 9.65625 0.78125 Z M 5.359375 -7.453125 L 10.140625 -0.125 L 39.109375 -0.125 L 49.234375 -29.6875 L 20.265625 -29.6875 L 10.484375 -22.40625 Z M 24.96875 -22.53125 L 32.375 -22.53125 L 27.125 -7.328125 L 19.734375 -7.328125 Z M 27 -19.4375 L 23.1875 -8.21875 L 26.578125 -8.21875 L 30.40625 -19.4375 Z M 27 -19.4375 "/></g></g></g><g fill="#32c8bf" fill-opacity="1"><g transform="translate(591.517677, 111.901021)"><g><path d="M 12.453125 -30.640625 L 17.34375 -30.640625 L 22.171875 -44.59375 L 38.390625 -44.59375 L 38.203125 -44.234375 L 39.640625 -42.03125 L 35.703125 -30.640625 L 43.09375 -30.640625 L 42.984375 -30.28125 L 44.40625 -28.078125 L 41.421875 -19.4375 L 31.828125 -19.4375 L 28.015625 -8.21875 L 35.40625 -8.21875 L 35.234375 -7.875 L 36.71875 -5.65625 L 33.734375 2.984375 L 15.921875 2.984375 L 14.484375 0.78125 L 14.25 0.78125 L 9.234375 -7.03125 L 13.46875 -19.4375 L 11.140625 -19.4375 L 9.71875 -21.640625 L 9.359375 -21.640625 Z M 17.9375 -29.75 L 13.046875 -29.75 L 10.546875 -22.53125 L 15.4375 -22.53125 L 10.25 -7.453125 L 14.96875 -0.125 L 31.71875 -0.125 L 34.15625 -7.328125 L 24.625 -7.328125 L 29.859375 -22.53125 L 39.40625 -22.53125 L 41.90625 -29.75 L 32.375 -29.75 L 37.140625 -43.6875 L 22.71875 -43.6875 Z M 17.9375 -29.75 "/></g></g></g><g fill="#32c8bf" fill-opacity="1"><g transform="translate(623.34721, 111.901021)"><g><path d="M 28.609375 -30.640625 L 28.5 -30.28125 L 29.921875 -28.078125 L 19.25 2.984375 L 11.03125 2.984375 L 9.59375 0.78125 L 9.359375 0.78125 L 4.34375 -7.03125 L 12.453125 -30.640625 Z M 5.359375 -7.453125 L 10.078125 -0.125 L 17.234375 -0.125 L 27.421875 -29.75 L 13.046875 -29.75 Z M 16.03125 -33.5625 L 14.546875 -35.703125 L 14.1875 -35.703125 L 17.28125 -44.640625 L 33.4375 -44.640625 L 33.328125 -44.296875 L 34.75 -42.078125 L 31.828125 -33.5625 Z M 17.890625 -43.75 L 15.375 -36.59375 L 29.75 -36.59375 L 32.25 -43.75 Z M 17.890625 -43.75 "/></g></g></g><g fill="#32c8bf" fill-opacity="1"><g transform="translate(640.692313, 111.901021)"><g><path d="M 9.421875 0.78125 L 4.34375 -7.03125 L 9.78125 -22.828125 L 20.203125 -30.578125 L 42.734375 -30.578125 L 47.8125 -22.828125 L 47.75 -22.59375 L 49.171875 -20.390625 L 43.75 -4.703125 L 33.5 2.984375 L 11.03125 2.984375 L 9.65625 0.78125 Z M 5.359375 -7.453125 L 10.140625 -0.125 L 31.828125 -0.125 L 41.609375 -7.453125 L 46.734375 -22.40625 L 41.96875 -29.6875 L 20.265625 -29.6875 L 10.484375 -22.40625 Z M 24.96875 -22.53125 L 32.375 -22.53125 L 27.125 -7.328125 L 19.734375 -7.328125 Z M 27 -19.4375 L 23.1875 -8.21875 L 26.578125 -8.21875 L 30.40625 -19.4375 Z M 27 -19.4375 "/></g></g></g><g fill="#32c8bf" fill-opacity="1"><g transform="translate(679.913054, 111.901021)"><g><path d="M 42.734375 -30.578125 L 47.8125 -22.828125 L 47.75 -22.59375 L 49.171875 -20.390625 L 41.125 2.984375 L 25.28125 2.984375 L 23.84375 0.78125 L 23.484375 0.78125 L 30.40625 -19.4375 L 27 -19.4375 L 19.3125 2.984375 L 3.453125 2.984375 L 2.03125 0.78125 L 1.671875 0.78125 L 12.453125 -30.578125 Z M 46.734375 -22.40625 L 41.96875 -29.6875 L 13 -29.6875 L 2.859375 -0.125 L 17.28125 -0.125 L 24.96875 -22.53125 L 32.375 -22.53125 L 24.671875 -0.125 L 39.109375 -0.125 Z M 46.734375 -22.40625 "/></g></g></g><path stroke-linecap="butt" transform="matrix(0.748005, 0, 0, 0.748005, -0.731481, 51.986366)" fill="none" stroke-linejoin="miter" d="M 39.846912 81.030566 L 60.720135 20.390117 L 101.208027 20.390117 L 107.902916 30.834563 L 107.824583 31.147896 L 109.809028 34.025341 L 106.226583 44.375786 L 99.35936 49.472675 L 101.52136 49.472675 L 101.364694 49.958342 L 103.270805 52.898453 L 96.090249 73.698566 L 82.397581 83.986344 L 42.23869 83.986344 L 40.311689 81.030566 Z M 106.539916 31.382896 L 100.15836 21.596451 L 61.440802 21.596451 L 41.439689 79.845122 L 80.157248 79.845122 L 93.233693 70.037788 L 99.92336 50.679008 L 90.042915 50.679008 L 103.349138 40.72023 Z M 63.989247 70.194454 L 70.762469 50.506675 L 80.642914 50.506675 L 73.874914 70.194454 Z M 83.990359 40.876897 L 74.109914 40.876897 L 77.452136 31.226229 L 87.337804 31.226229 Z M 73.467581 54.647898 L 68.600469 69.00901 L 73.154247 69.00901 L 78.016136 54.647898 Z M 80.157248 35.289118 L 78.642803 39.670563 L 83.191359 39.670563 L 84.711026 35.289118 Z M 104.069805 50.036675 L 117.067917 40.312897 L 145.978141 40.312897 L 142.70903 49.885231 L 123.428584 49.885231 L 113.156472 79.845122 L 93.876026 79.845122 Z M 116.968695 39.12223 L 103.11936 49.472675 L 92.278026 81.030566 L 92.748026 81.030566 L 94.675027 83.986344 L 115.861584 83.986344 L 126.133695 54.026453 L 145.43503 54.026453 L 149.419586 42.548008 L 147.497808 39.59223 L 147.649252 39.12223 Z M 145.184363 81.030566 L 138.411141 70.601788 L 145.67003 49.472675 L 159.618587 39.12223 L 200.085589 39.12223 L 199.928923 39.59223 L 201.840256 42.548008 L 187.578366 83.986344 L 147.341141 83.986344 L 145.513363 81.030566 Z M 139.774141 70.037788 L 146.134808 79.845122 L 184.873255 79.845122 L 198.414478 40.312897 L 159.69692 40.312897 L 146.625697 50.036675 Z M 165.979254 49.885231 L 175.864921 49.885231 L 168.861921 70.194454 L 158.976253 70.194454 Z M 168.684365 54.026453 L 163.587476 69.00901 L 168.141254 69.00901 L 173.238143 54.026453 Z M 223.27748 39.043896 L 223.126036 39.513897 L 225.032147 42.469674 L 210.770257 83.986344 L 199.777478 83.986344 L 197.850478 81.030566 L 197.537145 81.030566 L 190.847478 70.601788 L 201.68359 39.043896 Z M 192.210478 70.037788 L 198.492812 79.845122 L 208.065146 79.845122 L 221.684702 40.234563 L 202.48259 40.234563 Z M 206.467145 35.137674 L 204.467034 32.275896 L 203.997034 32.275896 L 208.143479 20.311784 L 229.737369 20.311784 L 229.580703 20.797451 L 231.492036 23.73234 L 227.580591 35.137674 Z M 208.942479 21.518117 L 205.595034 31.069563 L 224.797147 31.069563 L 228.144591 21.518117 Z M 265.35815 39.12223 L 272.131372 49.472675 L 272.053039 49.806897 L 273.95915 52.741786 L 263.201372 83.986344 L 242.014815 83.986344 L 240.087814 81.030566 L 239.617814 81.030566 L 248.861148 54.026453 L 244.30737 54.026453 L 234.035258 83.986344 L 212.848701 83.986344 L 210.921701 81.030566 L 210.456924 81.030566 L 224.870258 39.12223 Z M 270.690039 50.036675 L 264.329372 40.312897 L 225.590925 40.312897 L 212.049701 79.845122 L 231.330147 79.845122 L 241.602259 49.885231 L 251.487926 49.885231 L 241.215815 79.845122 L 260.49626 79.845122 Z M 262.888038 81.030566 L 267.034483 69.00901 L 280.497373 69.00901 L 278.669595 66.204676 L 278.335373 66.204676 L 271.567372 55.775898 L 273.72415 49.472675 L 287.677929 39.12223 L 327.988265 39.12223 L 327.831598 39.59223 L 329.73771 42.548008 L 325.747932 54.026453 L 296.743707 54.026453 L 296.743707 54.18312 L 312.441708 54.18312 L 319.136598 64.611898 L 319.058264 64.940898 L 320.985265 67.88101 L 318.979931 73.698566 L 305.282041 83.986344 L 265.279816 83.986344 L 263.358038 81.030566 Z M 317.794487 65.175898 L 311.412931 55.368564 L 292.132485 55.368564 L 294.038596 49.885231 L 323.048042 49.885231 L 326.311932 40.312897 L 287.677929 40.312897 L 274.679817 50.036675 L 272.930372 55.211898 L 279.212706 65.019232 L 298.592374 65.019232 L 296.743707 70.194454 L 267.75515 70.194454 L 264.486038 79.845122 L 303.04693 79.845122 L 316.118153 70.037788 Z M 368.779046 69.00901 L 373.646157 54.647898 L 378.199935 54.647898 L 373.332824 69.00901 Z M 380.821491 50.506675 L 370.941046 50.506675 L 364.167823 70.194454 L 374.053491 70.194454 Z M 397.067825 31.226229 L 377.630713 31.226229 L 374.288491 40.876897 L 403.449381 40.876897 L 393.41227 70.037788 L 380.335824 79.845122 L 351.3316 79.845122 L 344.965711 70.037788 L 351.6606 50.679008 L 361.467934 50.679008 L 355.086378 40.72023 L 358.277156 31.382896 L 371.32749 21.596451 L 400.336937 21.596451 Z M 350.704933 81.030566 L 352.537933 83.986344 L 382.576158 83.986344 L 396.274048 73.698566 L 406.796826 43.112008 L 404.890715 40.15623 L 405.047382 39.670563 L 378.82138 39.670563 L 380.335824 35.289118 L 399.793826 35.289118 L 403.762715 23.810673 L 401.77827 20.875784 L 402.01327 20.390117 L 371.249157 20.390117 L 357.222267 30.834563 L 353.645045 41.263341 L 358.992601 49.472675 L 350.8616 49.472675 L 343.607933 70.601788 L 350.375933 81.030566 Z M 429.83205 83.986344 L 428.004272 81.030566 L 427.67005 81.030566 L 420.902049 70.601788 L 434.521606 30.834563 L 448.548496 20.390117 L 489.036387 20.390117 L 488.801387 20.875784 L 490.785832 23.810673 L 483.526943 44.861452 L 462.340386 44.861452 L 460.434274 41.905674 L 459.948608 41.905674 L 462.183719 35.289118 L 457.635163 35.289118 L 446.078384 69.00901 L 472.304386 69.00901 L 472.069386 69.473787 L 474.053831 72.429565 L 470.064053 83.986344 Z M 441.467162 70.194454 L 454.930052 31.226229 L 464.810497 31.226229 L 461.541386 40.72023 L 480.821831 40.72023 L 487.360054 21.596451 L 448.626829 21.596451 L 435.571273 31.382896 L 422.265049 70.037788 L 428.625717 79.845122 L 467.358941 79.845122 L 470.628053 70.194454 Z M 480.106387 81.030566 L 473.333164 70.601788 L 480.592054 49.472675 L 494.54061 39.12223 L 524.657168 39.12223 L 531.43039 49.472675 L 531.352057 49.806897 L 533.258168 52.741786 L 525.999279 73.698566 L 512.306611 83.986344 L 482.263165 83.986344 L 480.435387 81.030566 Z M 474.696164 70.037788 L 481.056831 79.845122 L 510.066278 79.845122 L 523.142723 70.037788 L 529.989057 50.036675 L 523.62839 40.312897 L 494.618943 40.312897 L 481.54772 50.036675 Z M 500.901277 49.885231 L 510.786945 49.885231 L 503.783944 70.194454 L 493.898277 70.194454 Z M 503.606388 54.026453 L 498.509499 69.00901 L 503.063277 69.00901 L 508.160167 54.026453 Z M 596.608951 39.12223 L 603.39784 49.472675 L 603.298618 49.806897 L 605.225618 52.741786 L 594.467839 83.986344 L 573.260393 83.986344 L 571.354282 81.030566 L 570.868615 81.030566 L 580.106727 54.026453 L 579.798616 54.026453 L 569.526504 83.986344 L 549.447058 83.986344 L 547.520058 81.030566 L 547.05528 81.030566 L 556.293392 54.026453 L 556.042725 54.026453 L 545.770614 83.986344 L 524.584057 83.986344 L 522.657056 81.030566 L 522.187056 81.030566 L 533.023168 49.472675 L 546.976947 39.12223 Z M 601.956506 50.036675 L 595.57495 40.312897 L 547.05528 40.312897 L 533.978835 50.036675 L 523.785057 79.845122 L 543.065502 79.845122 L 553.337614 49.885231 L 558.92017 49.885231 L 548.648058 79.845122 L 566.800504 79.845122 L 577.093505 49.885231 L 582.754394 49.885231 L 572.461393 79.845122 L 591.741839 79.845122 Z M 590.31095 102.081345 L 588.326505 99.125567 L 587.840839 99.125567 L 608.562618 39.043896 L 649.05051 39.043896 L 655.81851 49.472675 L 655.740177 49.806897 L 657.65151 52.741786 L 650.392621 73.698566 L 636.694731 83.986344 L 617.727619 83.986344 L 611.518396 102.081345 Z M 634.45962 79.845122 L 647.530843 70.037788 L 654.382399 50.036675 L 648.094843 40.234563 L 609.361618 40.234563 L 589.517172 97.940123 L 608.797618 97.940123 L 615.022507 79.845122 Z M 625.294619 49.885231 L 635.180287 49.885231 L 628.172064 70.194454 L 618.291619 70.194454 Z M 627.99973 54.026453 L 622.902841 69.00901 L 627.456619 69.00901 L 632.553509 54.026453 Z M 656.930844 81.030566 L 650.157621 70.601788 L 660.998955 39.12223 L 682.671179 39.12223 L 682.514512 39.59223 L 684.420623 42.548008 L 675.333956 69.00901 L 679.887734 69.00901 L 690.159846 39.12223 L 711.83207 39.12223 L 711.680625 39.59223 L 713.586736 42.548008 L 699.324847 83.986344 L 659.087622 83.986344 L 657.259844 81.030566 Z M 651.520621 70.037788 L 657.881288 79.845122 L 696.619735 79.845122 L 710.160958 40.312897 L 690.880513 40.312897 L 680.608401 70.194454 L 670.722733 70.194454 L 680.994845 40.312897 L 661.7144 40.312897 Z M 713.43007 39.043896 L 719.968292 39.043896 L 726.428182 20.390117 L 748.100406 20.390117 L 747.865406 20.875784 L 749.771517 23.810673 L 744.502294 39.043896 L 754.382739 39.043896 L 754.226073 39.513897 L 756.153073 42.469674 L 752.168517 54.026453 L 739.327072 54.026453 L 734.230182 69.00901 L 744.110627 69.00901 L 743.88085 69.473787 L 745.865294 72.429565 L 741.875516 83.986344 L 718.062181 83.986344 L 716.135181 81.030566 L 715.821848 81.030566 L 709.132181 70.601788 L 714.79307 54.026453 L 711.680625 54.026453 L 709.774514 51.070675 L 709.288847 51.070675 Z M 720.767293 40.234563 L 714.22907 40.234563 L 710.881625 49.885231 L 717.419848 49.885231 L 710.489958 70.037788 L 716.777514 79.845122 L 739.170405 79.845122 L 742.439516 70.194454 L 729.697293 70.194454 L 736.700294 49.885231 L 749.442517 49.885231 L 752.789961 40.234563 L 740.047738 40.234563 L 746.429294 21.596451 L 727.148849 21.596451 Z M 751.91785 81.030566 L 745.144628 70.601788 L 752.403517 49.472675 L 766.352073 39.12223 L 806.819076 39.12223 L 806.66241 39.59223 L 808.573743 42.548008 L 794.311853 83.986344 L 754.074628 83.986344 L 752.24685 81.030566 Z M 746.507628 70.037788 L 752.868295 79.845122 L 791.606742 79.845122 L 805.147965 40.312897 L 766.430407 40.312897 L 753.353961 50.036675 Z M 772.712741 49.885231 L 782.598408 49.885231 L 775.595407 70.194454 L 765.70974 70.194454 Z M 775.417852 54.026453 L 770.320963 69.00901 L 774.874741 69.00901 L 779.97163 54.026453 Z M 808.417076 39.043896 L 814.955299 39.043896 L 821.415188 20.390117 L 843.087412 20.390117 L 842.852412 20.875784 L 844.758523 23.810673 L 839.489301 39.043896 L 849.369746 39.043896 L 849.213079 39.513897 L 851.140079 42.469674 L 847.150301 54.026453 L 834.314078 54.026453 L 829.217189 69.00901 L 839.097634 69.00901 L 838.862634 69.473787 L 840.847079 72.429565 L 836.862523 83.986344 L 813.049188 83.986344 L 811.122188 81.030566 L 810.808854 81.030566 L 804.119187 70.601788 L 809.780077 54.026453 L 806.667632 54.026453 L 804.761521 51.070675 L 804.270632 51.070675 Z M 815.749077 40.234563 L 809.216076 40.234563 L 805.868632 49.885231 L 812.406854 49.885231 L 805.476965 70.037788 L 811.764521 79.845122 L 834.157412 79.845122 L 837.426523 70.194454 L 824.679078 70.194454 L 831.6873 49.885231 L 844.429523 49.885231 L 847.776968 40.234563 L 835.029523 40.234563 L 841.411079 21.596451 L 822.130633 21.596451 Z M 872.566859 39.043896 L 872.410192 39.513897 L 874.316303 42.469674 L 860.054413 83.986344 L 849.061635 83.986344 L 847.134635 81.030566 L 846.826524 81.030566 L 840.131634 70.601788 L 850.967746 39.043896 Z M 841.494634 70.037788 L 847.776968 79.845122 L 857.349302 79.845122 L 870.968859 40.234563 L 851.766746 40.234563 Z M 855.756524 35.137674 L 853.751191 32.275896 L 853.286413 32.275896 L 857.427635 20.311784 L 879.026748 20.311784 L 878.870081 20.797451 L 880.776193 23.73234 L 876.864748 35.137674 Z M 858.226635 21.518117 L 854.879191 31.069563 L 874.081303 31.069563 L 877.428748 21.518117 Z M 870.091525 81.030566 L 863.323525 70.601788 L 870.577192 49.472675 L 884.525748 39.12223 L 914.642306 39.12223 L 921.415529 49.472675 L 921.337195 49.806897 L 923.243307 52.741786 L 915.98964 73.698566 L 902.29175 83.986344 L 872.253525 83.986344 L 870.420525 81.030566 Z M 864.681303 70.037788 L 871.047192 79.845122 L 900.051416 79.845122 L 913.127862 70.037788 L 919.974195 50.036675 L 913.613528 40.312897 L 884.604082 40.312897 L 871.532859 50.036675 Z M 890.891638 49.885231 L 900.772083 49.885231 L 893.769082 70.194454 L 883.883415 70.194454 Z M 893.591527 54.026453 L 888.494638 69.00901 L 893.048416 69.00901 L 898.145305 54.026453 Z M 967.078643 39.12223 L 973.846644 49.472675 L 973.773532 49.806897 L 975.679644 52.741786 L 964.916643 83.986344 L 943.730086 83.986344 L 941.808308 81.030566 L 941.338308 81.030566 L 950.581642 54.026453 L 946.027864 54.026453 L 935.755752 83.986344 L 914.569195 83.986344 L 912.642195 81.030566 L 912.177417 81.030566 L 926.590751 39.12223 Z M 972.410532 50.036675 L 966.049865 40.312897 L 927.311418 40.312897 L 913.770195 79.845122 L 933.050641 79.845122 L 943.322753 49.885231 L 953.20842 49.885231 L 942.936308 79.845122 L 962.216754 79.845122 Z M 972.410532 50.036675 " stroke="#18f8d7" stroke-width="1.743405" stroke-opacity="1" stroke-miterlimit="4"/></svg>