<svg xmlns="http://www.w3.org/2000/svg" xmlns:xlink="http://www.w3.org/1999/xlink" width="500" zoomAndPan="magnify" viewBox="0 0 375 374.999991" height="500" preserveAspectRatio="xMidYMid meet" version="1.0"><defs><clipPath id="28f433bfd6"><path d="M 6.757812 33 L 145 33 L 145 130 L 6.757812 130 Z M 6.757812 33 " clip-rule="nonzero"/></clipPath><clipPath id="ba2db659bd"><path d="M 229 33 L 367.507812 33 L 367.507812 130 L 229 130 Z M 229 33 " clip-rule="nonzero"/></clipPath><clipPath id="589d386e5f"><path d="M 148 7.484375 L 226 7.484375 L 226 111 L 148 111 Z M 148 7.484375 " clip-rule="nonzero"/></clipPath><clipPath id="8efa1afc03"><path d="M 148 265 L 226 265 L 226 368.234375 L 148 368.234375 Z M 148 265 " clip-rule="nonzero"/></clipPath><clipPath id="feea4c29df"><path d="M 264 149 L 367.507812 149 L 367.507812 227 L 264 227 Z M 264 149 " clip-rule="nonzero"/></clipPath><clipPath id="46ccffb33a"><path d="M 6.757812 149 L 110 149 L 110 227 L 6.757812 227 Z M 6.757812 149 " clip-rule="nonzero"/></clipPath><clipPath id="abcfe7a006"><path d="M 229 246 L 367.507812 246 L 367.507812 343 L 229 343 Z M 229 246 " clip-rule="nonzero"/></clipPath><clipPath id="9cb2058e44"><path d="M 6.757812 246 L 145 246 L 145 343 L 6.757812 343 Z M 6.757812 246 " clip-rule="nonzero"/></clipPath></defs><path fill="#ffffff" d="M 122.714844 187.859375 C 122.714844 223.382812 151.613281 252.28125 187.132812 252.28125 C 222.65625 252.28125 251.554688 223.382812 251.554688 187.859375 C 251.554688 152.339844 222.65625 123.441406 187.132812 123.441406 C 151.613281 123.441406 122.714844 152.339844 122.714844 187.859375 Z M 187.132812 149.207031 C 208.445312 149.207031 225.785156 166.550781 225.785156 187.859375 C 225.785156 209.171875 208.445312 226.511719 187.132812 226.511719 C 165.824219 226.511719 148.480469 209.171875 148.480469 187.859375 C 148.480469 166.550781 165.824219 149.207031 187.132812 149.207031 Z M 187.132812 149.207031 " fill-opacity="1" fill-rule="nonzero"/><g clip-path="url(#28f433bfd6)"><path fill="#ffffff" d="M 121.359375 66.144531 C 119.171875 61.777344 114.714844 59.019531 109.832031 59.019531 L 81.691406 59.019531 C 76.359375 44.0625 62.183594 33.253906 45.410156 33.253906 C 24.101562 33.253906 6.757812 50.59375 6.757812 71.90625 C 6.757812 93.214844 24.101562 110.558594 45.410156 110.558594 C 62.183594 110.558594 76.359375 99.746094 81.691406 84.789062 L 101.867188 84.789062 L 120.589844 122.230469 C 123.808594 128.660156 131.589844 131.132812 137.878906 127.988281 C 144.242188 124.804688 146.820312 117.0625 143.636719 110.699219 Z M 45.410156 84.789062 C 38.3125 84.789062 32.527344 79.003906 32.527344 71.90625 C 32.527344 64.804688 38.3125 59.019531 45.410156 59.019531 C 52.507812 59.019531 58.292969 64.804688 58.292969 71.90625 C 58.292969 79.003906 52.507812 84.789062 45.410156 84.789062 Z M 45.410156 84.789062 " fill-opacity="1" fill-rule="nonzero"/></g><g clip-path="url(#ba2db659bd)"><path fill="#ffffff" d="M 328.855469 33.253906 C 312.082031 33.253906 297.910156 44.0625 292.574219 59.019531 L 264.4375 59.019531 C 259.554688 59.019531 255.097656 61.777344 252.90625 66.144531 L 230.628906 110.699219 C 227.449219 117.0625 230.039062 124.804688 236.390625 127.988281 C 242.714844 131.144531 250.472656 128.621094 253.679688 122.230469 L 272.398438 84.789062 L 292.574219 84.789062 C 297.910156 99.746094 312.082031 110.558594 328.855469 110.558594 C 350.167969 110.558594 367.507812 93.214844 367.507812 71.90625 C 367.507812 50.59375 350.167969 33.253906 328.855469 33.253906 Z M 328.855469 84.789062 C 321.757812 84.789062 315.972656 79.003906 315.972656 71.90625 C 315.972656 64.804688 321.757812 59.019531 328.855469 59.019531 C 335.957031 59.019531 341.742188 64.804688 341.742188 71.90625 C 341.742188 79.003906 335.957031 84.789062 328.855469 84.789062 Z M 328.855469 84.789062 " fill-opacity="1" fill-rule="nonzero"/></g><g clip-path="url(#589d386e5f)"><path fill="#ffffff" d="M 187.132812 110.558594 C 194.246094 110.558594 200.019531 104.785156 200.019531 97.671875 L 200.019531 82.417969 C 214.976562 77.085938 225.785156 62.914062 225.785156 46.136719 C 225.785156 24.828125 208.445312 7.484375 187.132812 7.484375 C 165.824219 7.484375 148.480469 24.828125 148.480469 46.136719 C 148.480469 62.914062 159.292969 77.085938 174.25 82.417969 L 174.25 97.671875 C 174.25 104.785156 180.023438 110.558594 187.132812 110.558594 Z M 187.132812 33.253906 C 194.234375 33.253906 200.019531 39.039062 200.019531 46.136719 C 200.019531 53.234375 194.234375 59.019531 187.132812 59.019531 C 180.035156 59.019531 174.25 53.234375 174.25 46.136719 C 174.25 39.039062 180.035156 33.253906 187.132812 33.253906 Z M 187.132812 33.253906 " fill-opacity="1" fill-rule="nonzero"/></g><g clip-path="url(#8efa1afc03)"><path fill="#ffffff" d="M 225.785156 329.582031 C 225.785156 312.808594 214.976562 298.636719 200.019531 293.300781 L 200.019531 278.046875 C 200.019531 270.9375 194.246094 265.164062 187.132812 265.164062 C 180.023438 265.164062 174.25 270.9375 174.25 278.046875 L 174.25 293.300781 C 159.292969 298.636719 148.480469 312.808594 148.480469 329.582031 C 148.480469 350.894531 165.824219 368.234375 187.132812 368.234375 C 208.445312 368.234375 225.785156 350.894531 225.785156 329.582031 Z M 187.132812 342.46875 C 180.035156 342.46875 174.25 336.683594 174.25 329.582031 C 174.25 322.484375 180.035156 316.699219 187.132812 316.699219 C 194.234375 316.699219 200.019531 322.484375 200.019531 329.582031 C 200.019531 336.683594 194.234375 342.46875 187.132812 342.46875 Z M 187.132812 342.46875 " fill-opacity="1" fill-rule="nonzero"/></g><g clip-path="url(#feea4c29df)"><path fill="#ffffff" d="M 328.855469 149.207031 C 312.082031 149.207031 297.910156 160.019531 292.574219 174.976562 L 277.320312 174.976562 C 270.210938 174.976562 264.4375 180.75 264.4375 187.859375 C 264.4375 194.972656 270.210938 200.746094 277.320312 200.746094 L 292.574219 200.746094 C 297.910156 215.703125 312.082031 226.511719 328.855469 226.511719 C 350.167969 226.511719 367.507812 209.171875 367.507812 187.859375 C 367.507812 166.550781 350.167969 149.207031 328.855469 149.207031 Z M 328.855469 200.746094 C 321.757812 200.746094 315.972656 194.960938 315.972656 187.859375 C 315.972656 180.761719 321.757812 174.976562 328.855469 174.976562 C 335.957031 174.976562 341.742188 180.761719 341.742188 187.859375 C 341.742188 194.960938 335.957031 200.746094 328.855469 200.746094 Z M 328.855469 200.746094 " fill-opacity="1" fill-rule="nonzero"/></g><g clip-path="url(#46ccffb33a)"><path fill="#ffffff" d="M 45.410156 226.511719 C 62.183594 226.511719 76.359375 215.703125 81.691406 200.746094 L 96.945312 200.746094 C 104.058594 200.746094 109.832031 194.972656 109.832031 187.859375 C 109.832031 180.75 104.058594 174.976562 96.945312 174.976562 L 81.691406 174.976562 C 76.359375 160.019531 62.183594 149.207031 45.410156 149.207031 C 24.101562 149.207031 6.757812 166.550781 6.757812 187.859375 C 6.757812 209.171875 24.101562 226.511719 45.410156 226.511719 Z M 45.410156 174.976562 C 52.507812 174.976562 58.292969 180.761719 58.292969 187.859375 C 58.292969 194.960938 52.507812 200.746094 45.410156 200.746094 C 38.3125 200.746094 32.527344 194.960938 32.527344 187.859375 C 32.527344 180.761719 38.3125 174.976562 45.410156 174.976562 Z M 45.410156 174.976562 " fill-opacity="1" fill-rule="nonzero"/></g><g clip-path="url(#abcfe7a006)"><path fill="#ffffff" d="M 328.855469 265.164062 C 312.082031 265.164062 297.910156 275.972656 292.574219 290.933594 L 272.398438 290.933594 L 253.679688 253.492188 C 250.496094 247.125 242.765625 244.550781 236.390625 247.730469 C 230.023438 250.914062 227.449219 258.65625 230.628906 265.023438 L 252.90625 309.574219 C 255.097656 313.941406 259.554688 316.699219 264.4375 316.699219 L 292.574219 316.699219 C 297.910156 331.65625 312.082031 342.46875 328.855469 342.46875 C 350.167969 342.46875 367.507812 325.125 367.507812 303.816406 C 367.507812 282.503906 350.167969 265.164062 328.855469 265.164062 Z M 328.855469 316.699219 C 321.757812 316.699219 315.972656 310.914062 315.972656 303.816406 C 315.972656 296.714844 321.757812 290.933594 328.855469 290.933594 C 335.957031 290.933594 341.742188 296.714844 341.742188 303.816406 C 341.742188 310.914062 335.957031 316.699219 328.855469 316.699219 Z M 328.855469 316.699219 " fill-opacity="1" fill-rule="nonzero"/></g><g clip-path="url(#9cb2058e44)"><path fill="#ffffff" d="M 45.410156 342.46875 C 62.183594 342.46875 76.359375 331.65625 81.691406 316.699219 L 109.832031 316.699219 C 114.714844 316.699219 119.171875 313.941406 121.359375 309.574219 L 143.636719 265.023438 C 146.820312 258.65625 144.230469 250.914062 137.878906 247.730469 C 131.5 244.550781 123.769531 247.140625 120.589844 253.492188 L 101.867188 290.933594 L 81.691406 290.933594 C 76.359375 275.972656 62.183594 265.164062 45.410156 265.164062 C 24.101562 265.164062 6.757812 282.503906 6.757812 303.816406 C 6.757812 325.125 24.101562 342.46875 45.410156 342.46875 Z M 45.410156 290.933594 C 52.507812 290.933594 58.292969 296.714844 58.292969 303.816406 C 58.292969 310.914062 52.507812 316.699219 45.410156 316.699219 C 38.3125 316.699219 32.527344 310.914062 32.527344 303.816406 C 32.527344 296.714844 38.3125 290.933594 45.410156 290.933594 Z M 45.410156 290.933594 " fill-opacity="1" fill-rule="nonzero"/></g></svg>