<svg xmlns="http://www.w3.org/2000/svg" xmlns:xlink="http://www.w3.org/1999/xlink" width="500" zoomAndPan="magnify" viewBox="0 0 375 374.999991" height="500" preserveAspectRatio="xMidYMid meet" version="1.0"><defs><clipPath id="e23241216d"><path d="M 6.816406 93.304688 L 367.566406 93.304688 L 367.566406 281 L 6.816406 281 Z M 6.816406 93.304688 " clip-rule="nonzero"/></clipPath></defs><g clip-path="url(#e23241216d)"><path fill="#ffffff" d="M 187.472656 93.363281 C 87.898438 93.363281 6.816406 174.445312 6.816406 273.84375 C 6.816406 273.84375 6.816406 274.375 6.816406 274.734375 C 6.816406 276.15625 7.347656 277.222656 8.238281 278.289062 C 9.125 279.179688 10.371094 279.890625 11.972656 279.890625 L 144.441406 279.890625 C 150.488281 279.890625 147.464844 281.667969 148.175781 271.53125 C 149.777344 252.863281 165.425781 238.101562 184.449219 238.101562 C 203.476562 238.101562 220.011719 253.574219 220.902344 272.953125 C 221.257812 280.066406 220.191406 280.066406 225.703125 279.890625 L 362.265625 279.890625 C 363.507812 279.890625 364.574219 279.355469 365.640625 278.644531 C 365.996094 278.289062 366.175781 277.933594 366.53125 277.578125 C 367.597656 276.6875 368.308594 275.265625 368.308594 273.84375 C 368.132812 174.445312 287.050781 93.363281 187.472656 93.363281 Z M 231.039062 269.753906 L 230.683594 269.753906 C 228.371094 246.28125 208.457031 227.96875 184.449219 227.96875 C 160.445312 227.96875 140.53125 246.28125 138.21875 269.753906 L 104.613281 269.753906 C 106.925781 227.613281 141.953125 194.003906 184.628906 194.003906 C 227.304688 194.003906 262.332031 227.613281 264.644531 269.753906 L 230.859375 269.753906 Z M 276.378906 269.753906 L 274.78125 269.753906 C 272.46875 222.101562 232.992188 183.871094 184.628906 183.871094 C 136.261719 183.871094 96.789062 221.921875 94.476562 269.753906 L 60.691406 269.753906 C 62.46875 200.761719 119.015625 145.285156 188.363281 145.285156 C 257.710938 145.285156 314.253906 200.761719 316.03125 269.753906 Z M 329.191406 269.753906 L 326.167969 269.753906 C 324.390625 195.25 263.398438 135.148438 188.363281 135.148438 C 113.324219 135.148438 52.511719 195.25 50.734375 269.753906 L 17.128906 269.753906 C 19.441406 177.648438 94.832031 103.5 187.472656 103.5 C 280.113281 103.5 355.683594 177.824219 357.820312 269.753906 Z M 329.191406 269.753906 " fill-opacity="1" fill-rule="nonzero"/></g></svg>