<svg xmlns="http://www.w3.org/2000/svg" xmlns:xlink="http://www.w3.org/1999/xlink" width="500" zoomAndPan="magnify" viewBox="0 0 375 374.999991" height="500" preserveAspectRatio="xMidYMid meet" version="1.0"><defs><clipPath id="b83e71b32e"><path d="M 30 11.582031 L 106 11.582031 L 106 87 L 30 87 Z M 30 11.582031 " clip-rule="nonzero"/></clipPath><clipPath id="7136ca38f4"><path d="M 11.582031 99 L 125 99 L 125 188 L 11.582031 188 Z M 11.582031 99 " clip-rule="nonzero"/></clipPath><clipPath id="01bf3f5d3d"><path d="M 250 275 L 363.332031 275 L 363.332031 363.332031 L 250 363.332031 Z M 250 275 " clip-rule="nonzero"/></clipPath></defs><path fill="#ffffff" d="M 344.417969 118.539062 L 300.589844 162.367188 L 256.761719 118.539062 C 254.386719 116.164062 256.070312 112.105469 259.425781 112.105469 L 288.023438 112.105469 L 288.023438 86.976562 C 288.023438 73.089844 276.777344 61.84375 262.890625 61.84375 L 156.085938 61.84375 C 152.617188 61.84375 149.804688 59.03125 149.804688 55.5625 L 149.804688 42.996094 C 149.804688 39.527344 152.617188 36.714844 156.085938 36.714844 L 262.890625 36.714844 C 290.648438 36.714844 313.152344 59.21875 313.152344 86.976562 L 313.152344 112.105469 L 341.753906 112.105469 C 345.109375 112.105469 346.792969 116.164062 344.417969 118.539062 Z M 344.417969 118.539062 " fill-opacity="1" fill-rule="nonzero"/><path fill="#ffffff" d="M 218.914062 313.152344 C 222.382812 313.152344 225.195312 315.96875 225.195312 319.4375 L 225.195312 332 C 225.195312 335.46875 222.382812 338.285156 218.914062 338.285156 L 112.105469 338.285156 C 84.351562 338.285156 61.84375 315.78125 61.84375 288.023438 L 61.84375 262.890625 L 33.246094 262.890625 C 29.890625 262.890625 28.207031 258.832031 30.582031 256.457031 L 74.410156 212.628906 L 118.238281 256.457031 C 120.613281 258.832031 118.929688 262.890625 115.574219 262.890625 L 86.976562 262.890625 L 86.976562 288.023438 C 86.976562 301.90625 98.222656 313.152344 112.105469 313.152344 Z M 218.914062 313.152344 " fill-opacity="1" fill-rule="nonzero"/><g clip-path="url(#b83e71b32e)"><path fill="#ffffff" d="M 105.824219 49.28125 C 105.824219 70.101562 88.949219 86.976562 68.128906 86.976562 C 47.308594 86.976562 30.429688 70.101562 30.429688 49.28125 C 30.429688 28.457031 47.308594 11.582031 68.128906 11.582031 C 88.949219 11.582031 105.824219 28.457031 105.824219 49.28125 Z M 105.824219 49.28125 " fill-opacity="1" fill-rule="nonzero"/></g><g clip-path="url(#7136ca38f4)"><path fill="#ffffff" d="M 124.671875 187.5 L 11.582031 187.5 L 11.582031 156.085938 C 11.582031 124.859375 36.902344 99.542969 68.128906 99.542969 C 99.351562 99.542969 124.671875 124.859375 124.671875 156.085938 Z M 124.671875 187.5 " fill-opacity="1" fill-rule="nonzero"/></g><path fill="#ffffff" d="M 344.566406 225.195312 C 344.566406 246.015625 327.691406 262.890625 306.871094 262.890625 C 286.050781 262.890625 269.175781 246.015625 269.175781 225.195312 C 269.175781 204.375 286.050781 187.5 306.871094 187.5 C 327.691406 187.5 344.566406 204.375 344.566406 225.195312 Z M 344.566406 225.195312 " fill-opacity="1" fill-rule="nonzero"/><g clip-path="url(#01bf3f5d3d)"><path fill="#ffffff" d="M 363.414062 363.414062 L 250.328125 363.414062 L 250.328125 332 C 250.328125 300.777344 275.644531 275.457031 306.871094 275.457031 C 338.097656 275.457031 363.414062 300.777344 363.414062 332 Z M 363.414062 363.414062 " fill-opacity="1" fill-rule="nonzero"/></g></svg>