<svg xmlns="http://www.w3.org/2000/svg" xmlns:xlink="http://www.w3.org/1999/xlink" width="500" zoomAndPan="magnify" viewBox="0 0 375 374.999991" height="500" preserveAspectRatio="xMidYMid meet" version="1.0"><defs><g/><clipPath id="d54ba4f784"><path d="M 72 93.578125 L 182 93.578125 L 182 326 L 72 326 Z M 72 93.578125 " clip-rule="nonzero"/></clipPath><clipPath id="93b022be43"><path d="M 191 93.578125 L 301 93.578125 L 301 326 L 191 326 Z M 191 93.578125 " clip-rule="nonzero"/></clipPath></defs><g clip-path="url(#d54ba4f784)"><path fill="#aab1ff" d="M 181.578125 121.808594 C 181.578125 101.859375 162.566406 93.578125 152.390625 93.578125 C 146.277344 93.578125 134.140625 97.703125 127.496094 106.550781 C 124.234375 110.894531 122.769531 115.835938 123.152344 121.0625 C 117.09375 120.179688 107.25 119.964844 101.261719 129.589844 C 96.949219 136.519531 96.5 142.226562 96.96875 145.949219 C 90.679688 146.71875 79.464844 149.800781 75.136719 161.792969 C 71.878906 170.804688 72.449219 180.101562 75.210938 187.507812 C 75.214844 187.523438 75.214844 187.539062 75.21875 187.554688 C 75.835938 189.636719 76.941406 191.882812 78.542969 194.066406 C 78.5625 194.097656 78.585938 194.125 78.605469 194.15625 C 78.722656 194.3125 78.828125 194.464844 78.949219 194.621094 C 79.605469 195.53125 80.292969 196.390625 81.023438 197.160156 C 78.167969 199.476562 76.53125 202.832031 76.148438 208.980469 C 75.71875 215.886719 78.714844 224.21875 83.941406 228.507812 C 80.378906 232.148438 77.234375 237.628906 78.007812 249.148438 C 78.714844 256.246094 82.691406 263.449219 88.382812 267.945312 C 91.378906 270.3125 94.707031 271.75 98.078125 272.277344 C 98.296875 272.347656 98.527344 272.398438 98.765625 272.421875 C 98.84375 272.429688 98.9375 272.429688 99.019531 272.433594 C 99.113281 272.445312 99.210938 272.476562 99.308594 272.484375 C 99.882812 275.8125 101.726562 279.535156 103.878906 282.328125 C 107.410156 286.902344 111.9375 289.550781 116.863281 289.980469 C 118.308594 295.632812 121.550781 304.109375 131.101562 305.261719 C 131.84375 310.617188 133.695312 315.0625 136.667969 318.515625 C 140.375 322.820312 145.65625 325.324219 151.933594 325.757812 C 152.566406 325.800781 153.199219 325.824219 153.835938 325.824219 C 161.34375 325.824219 169.097656 322.835938 174.457031 317.800781 C 179.078125 313.457031 181.601562 307.863281 181.566406 302.070312 L 181.566406 177.941406 C 181.566406 177.941406 181.566406 177.9375 181.566406 177.9375 L 181.566406 122.128906 C 181.566406 122.019531 181.578125 121.917969 181.578125 121.808594 Z M 174.871094 169.832031 C 172.105469 168.214844 168.734375 167.015625 165.246094 166.546875 C 155.820312 165.289062 147.796875 169.589844 143.160156 178.460938 C 137.851562 189.636719 142.046875 198.0625 145.019531 202.089844 C 148.878906 207.3125 154.757812 210.792969 159.496094 210.792969 C 159.929688 210.792969 160.355469 210.761719 160.769531 210.703125 C 162.597656 210.4375 163.867188 208.738281 163.601562 206.910156 C 163.335938 205.082031 161.628906 203.800781 159.808594 204.078125 C 158.199219 204.3125 153.660156 202.523438 150.40625 198.113281 C 147.859375 194.664062 145.585938 188.957031 149.148438 181.449219 C 153.183594 173.738281 159.347656 172.65625 163.808594 173.117188 C 170.054688 173.757812 174.304688 177.28125 174.871094 178.566406 L 174.871094 302.089844 C 174.90625 307.132812 172.171875 310.761719 169.875 312.921875 C 165.371094 317.152344 158.667969 319.5 152.394531 319.078125 C 149.285156 318.867188 144.917969 317.835938 141.738281 314.148438 C 138.367188 310.234375 136.925781 303.957031 137.550781 296.152344 C 138.003906 292.574219 142.472656 285.476562 148.4375 282.492188 C 151.863281 280.78125 155.132812 280.785156 158.15625 282.5 C 159.761719 283.417969 161.808594 282.851562 162.71875 281.246094 C 163.632812 279.640625 163.070312 277.597656 161.464844 276.683594 C 156.449219 273.832031 150.910156 273.769531 145.441406 276.503906 C 145.324219 276.5625 145.214844 276.648438 145.097656 276.710938 C 143.65625 275.230469 141.488281 274.21875 138.769531 273.90625 C 134.191406 273.386719 129.144531 274.9375 128.320312 278.914062 C 127.945312 280.722656 129.109375 282.496094 130.917969 282.871094 C 132.503906 283.203125 134.066406 282.339844 134.679688 280.90625 C 135.320312 280.609375 136.964844 280.316406 138.636719 280.660156 C 138.929688 280.71875 139.175781 280.789062 139.382812 280.859375 C 134.722656 285.253906 131.445312 291.085938 130.890625 295.464844 C 130.8125 296.460938 130.777344 297.421875 130.753906 298.378906 C 125.714844 297.085938 124.121094 291.96875 122.789062 285.921875 L 122.15625 283.042969 L 119.21875 283.308594 C 114.953125 283.699219 111.804688 281.257812 109.933594 279.148438 C 107.800781 276.746094 106.609375 274.035156 106.101562 272.191406 C 115.519531 270.804688 127.132812 264.945312 130.195312 248.957031 C 131.238281 248.582031 132.285156 248.128906 133.332031 247.492188 C 133.386719 247.460938 133.433594 247.417969 133.484375 247.378906 C 137.3125 245.242188 141.320312 241.773438 144.007812 237.324219 C 147.148438 232.136719 147.976562 226.558594 146.40625 221.195312 C 145.882812 219.421875 144.027344 218.40625 142.253906 218.925781 C 140.480469 219.445312 139.460938 221.304688 139.980469 223.078125 C 141.027344 226.640625 140.453125 230.269531 138.28125 233.859375 C 136.105469 237.457031 132.628906 240.363281 129.570312 241.914062 C 129.492188 241.957031 129.414062 241.988281 129.335938 242.03125 C 128.351562 242.507812 127.410156 242.851562 126.585938 243.019531 C 119.425781 244.378906 112.265625 237.53125 112.183594 237.453125 C 110.863281 236.164062 108.75 236.179688 107.453125 237.496094 C 106.160156 238.816406 106.175781 240.9375 107.496094 242.230469 C 107.882812 242.613281 114.65625 249.140625 123.105469 249.882812 C 120.367188 259.867188 113.277344 263.652344 107.554688 265.042969 L 102.226562 265.761719 C 101.894531 265.808594 101.578125 265.808594 101.257812 265.824219 C 100.5 265.828125 99.945312 265.800781 99.648438 265.777344 C 99.617188 265.777344 99.585938 265.773438 99.550781 265.773438 C 99.5 265.765625 99.457031 265.761719 99.429688 265.761719 C 99.421875 265.761719 99.414062 265.761719 99.40625 265.761719 C 96.558594 265.398438 94.175781 263.992188 92.535156 262.695312 C 88.28125 259.335938 85.195312 253.757812 84.679688 248.59375 C 83.90625 237.039062 87.613281 233.953125 91.539062 230.691406 L 97.046875 226.09375 L 90.515625 224.5625 C 86.300781 223.574219 82.421875 215.921875 82.828125 209.394531 C 83.164062 203.976562 84.386719 202.550781 86.714844 201.363281 C 90.175781 203.40625 94.414062 204.984375 99.523438 205.683594 C 100.703125 205.847656 101.847656 205.921875 102.964844 205.921875 C 106.8125 205.921875 110.261719 205.011719 113.28125 203.695312 C 114.8125 204.609375 117.984375 207.308594 117.796875 210.984375 C 117.511719 216.539062 113.617188 220.753906 113.519531 220.855469 C 112.246094 222.1875 112.289062 224.300781 113.617188 225.582031 C 114.265625 226.207031 115.101562 226.515625 115.9375 226.515625 C 116.816406 226.515625 117.691406 226.175781 118.347656 225.492188 C 118.582031 225.25 124.0625 219.476562 124.480469 211.328125 C 124.71875 206.640625 122.328125 202.722656 119.492188 200.082031 C 123.8125 196.882812 126.328125 193.507812 126.535156 193.21875 C 127.621094 191.722656 127.289062 189.628906 125.792969 188.542969 C 124.296875 187.457031 122.203125 187.789062 121.117188 189.285156 C 121.066406 189.359375 117.460938 194.207031 111.570312 197.101562 C 111.566406 197.101562 111.566406 197.105469 111.566406 197.105469 C 108.4375 198.640625 104.675781 199.636719 100.433594 199.054688 C 97.03125 198.585938 94.179688 197.652344 91.78125 196.472656 L 89.429688 195.164062 C 87.113281 193.675781 85.359375 191.953125 84.089844 190.277344 C 80.105469 184.355469 77.769531 174.191406 81.429688 164.066406 C 85.097656 153.910156 96.078125 152.578125 99.832031 152.417969 L 109.734375 162.640625 C 107.589844 163.882812 105.027344 164.636719 101.976562 164.777344 C 100.128906 164.863281 98.703125 166.425781 98.785156 168.273438 C 98.871094 170.066406 100.351562 171.46875 102.128906 171.46875 C 102.179688 171.46875 102.230469 171.464844 102.285156 171.464844 C 108.824219 171.164062 114.042969 168.890625 117.800781 164.710938 C 124.347656 157.421875 123.789062 147.015625 123.761719 146.578125 C 123.648438 144.730469 122.066406 143.339844 120.214844 143.441406 C 118.371094 143.554688 116.964844 145.144531 117.078125 146.988281 C 117.082031 147.054688 117.335938 152.988281 114.480469 157.917969 L 104.0625 147.164062 C 103.566406 145.867188 102.171875 140.789062 106.941406 133.125 C 111.214844 126.257812 118.363281 126.941406 124.730469 128.117188 C 125.132812 128.191406 125.503906 128.257812 125.851562 128.320312 L 134.019531 135.335938 C 134.652344 135.878906 135.425781 136.144531 136.199219 136.144531 C 137.140625 136.144531 138.078125 135.75 138.738281 134.980469 C 139.945312 133.578125 139.785156 131.464844 138.382812 130.257812 L 130.28125 123.300781 C 129.171875 118.628906 130.015625 114.34375 132.847656 110.570312 C 137.996094 103.714844 148.152344 100.273438 152.390625 100.273438 C 158.386719 100.273438 174.832031 105.367188 174.878906 121.742188 C 174.878906 121.761719 174.871094 121.78125 174.871094 121.800781 L 174.871094 122.046875 C 174.765625 136.738281 165.222656 140.214844 164.0625 140.570312 C 162.574219 140.488281 161.292969 141.433594 160.816406 142.859375 C 160.230469 144.613281 161.179688 146.507812 162.933594 147.09375 C 165.929688 148.085938 170.851562 144.644531 171.402344 144.25 C 172.429688 143.511719 173.644531 142.480469 174.871094 141.125 Z M 174.871094 169.832031 " fill-opacity="1" fill-rule="nonzero"/></g><g clip-path="url(#93b022be43)"><path fill="#aab1ff" d="M 297.933594 209.039062 L 297.914062 208.808594 C 297.238281 202.851562 294.976562 199.40625 292.242188 197.183594 C 299.261719 189.84375 303.101562 175.472656 298.15625 161.792969 C 293.828125 149.800781 282.613281 146.71875 276.324219 145.949219 C 276.792969 142.226562 276.34375 136.515625 272.03125 129.589844 C 266.0625 119.996094 256.261719 120.175781 250.203125 121.050781 C 250.757812 115.355469 249.308594 110.070312 245.917969 105.554688 C 239.738281 97.328125 228.621094 93.578125 220.902344 93.578125 C 210.726562 93.578125 191.71875 101.859375 191.71875 121.808594 C 191.71875 121.90625 191.726562 121.996094 191.726562 122.09375 L 191.726562 302.046875 C 191.6875 307.867188 194.210938 313.460938 198.835938 317.800781 C 204.195312 322.839844 211.949219 325.820312 219.453125 325.820312 C 220.089844 325.820312 220.726562 325.800781 221.355469 325.757812 C 232.835938 324.96875 240.449219 317.378906 242.179688 305.261719 C 251.695312 304.121094 254.957031 295.707031 256.410156 290.054688 C 261.265625 289.863281 265.570312 288.058594 268.734375 284.832031 C 271.933594 281.570312 273.820312 276.972656 274.050781 272.085938 C 286.679688 270.265625 294.226562 262.847656 295.410156 250.941406 C 296.304688 241.898438 294.144531 234.359375 288.980469 228.460938 C 293.972656 224.96875 298.394531 219.410156 297.933594 209.039062 Z M 204.421875 306.523438 C 202.71875 306.523438 201.335938 305.140625 201.335938 303.4375 C 201.335938 301.730469 202.71875 300.347656 204.421875 300.347656 C 206.128906 300.347656 207.511719 301.730469 207.511719 303.4375 C 207.511719 305.140625 206.128906 306.523438 204.421875 306.523438 Z M 202.957031 309.253906 L 202.957031 312.460938 C 201.429688 310.925781 199.828125 308.769531 198.996094 305.996094 C 199.757812 307.601562 201.199219 308.8125 202.957031 309.253906 Z M 281.992188 224.851562 L 277.535156 227.171875 L 281.394531 230.390625 C 285.089844 233.476562 289.878906 238.890625 288.75 250.28125 C 287.785156 259.925781 281.785156 264.984375 270.394531 265.738281 L 266.910156 265.972656 L 267.289062 269.445312 C 267.742188 273.558594 266.496094 277.554688 263.957031 280.144531 C 262.074219 282.058594 259.5625 283.140625 256.585938 283.335938 L 255.535156 248.414062 L 265.25 239.589844 C 266.492188 240.429688 267.984375 240.925781 269.59375 240.925781 C 273.867188 240.925781 277.34375 237.449219 277.34375 233.175781 C 277.34375 228.902344 273.867188 225.429688 269.59375 225.429688 C 265.324219 225.429688 261.847656 228.902344 261.847656 233.175781 C 261.847656 234.78125 262.335938 236.273438 263.175781 237.511719 L 252.5625 247.148438 L 253.652344 283.269531 L 251.136719 283.042969 L 250.503906 285.921875 C 249.03125 292.605469 247.226562 298.152344 240.832031 298.660156 L 240.832031 268.441406 L 236.589844 264.464844 L 236.589844 249.113281 L 245.902344 239.929688 C 246.882812 240.617188 248.066406 241.027344 249.347656 241.027344 C 252.664062 241.027344 255.367188 238.324219 255.367188 235.003906 C 255.367188 231.6875 252.667969 228.984375 249.347656 228.984375 C 246.027344 228.984375 243.324219 231.6875 243.324219 235.003906 C 243.324219 235.980469 243.582031 236.886719 243.992188 237.699219 L 233.65625 247.890625 L 233.65625 261.710938 L 228.109375 256.507812 L 228.109375 235.554688 C 230.71875 234.894531 232.664062 232.542969 232.664062 229.734375 C 232.664062 226.414062 229.960938 223.714844 226.644531 223.714844 C 223.324219 223.714844 220.621094 226.414062 220.621094 229.734375 C 220.621094 232.542969 222.566406 234.894531 225.175781 235.554688 L 225.175781 257.773438 L 237.898438 269.710938 L 237.898438 298.917969 C 237.59375 299.042969 237.3125 299.214844 237.058594 299.425781 C 237.007812 299.464844 236.953125 299.496094 236.90625 299.539062 C 236.894531 299.550781 236.886719 299.566406 236.875 299.578125 C 236.414062 300.007812 236.074219 300.566406 235.914062 301.203125 C 235.898438 301.273438 235.894531 301.347656 235.882812 301.417969 C 235.855469 301.558594 235.824219 301.695312 235.816406 301.839844 C 235.371094 309.3125 232.546875 314.554688 227.722656 317.183594 L 221.828125 311.746094 L 221.828125 297.320312 C 224.4375 296.660156 226.382812 294.3125 226.382812 291.5 C 226.382812 288.183594 223.683594 285.480469 220.363281 285.480469 C 217.042969 285.480469 214.339844 288.179688 214.339844 291.5 C 214.339844 294.3125 216.285156 296.660156 218.894531 297.320312 L 218.894531 313.03125 L 224.722656 318.40625 C 223.53125 318.75 222.261719 318.984375 220.894531 319.078125 C 215.6875 319.429688 210.191406 317.84375 205.890625 314.875 L 205.890625 309.253906 C 208.496094 308.59375 210.441406 306.246094 210.441406 303.4375 C 210.441406 300.117188 207.742188 297.414062 204.421875 297.414062 C 201.316406 297.414062 198.777344 299.789062 198.464844 302.816406 C 198.453125 302.566406 198.417969 302.328125 198.417969 302.070312 L 198.417969 273.46875 L 201.085938 276.359375 L 217.472656 276.359375 C 218.160156 279.078125 220.613281 281.109375 223.542969 281.109375 C 227.007812 281.109375 229.824219 278.289062 229.824219 274.828125 C 229.824219 271.363281 227.007812 268.546875 223.542969 268.546875 C 220.613281 268.546875 218.160156 270.578125 217.472656 273.296875 L 202.421875 273.296875 L 198.417969 268.957031 L 198.417969 250.433594 L 204.003906 250.433594 C 204.6875 253.445312 207.378906 255.707031 210.59375 255.707031 C 214.328125 255.707031 217.367188 252.671875 217.367188 248.9375 C 217.367188 245.203125 214.328125 242.164062 210.59375 242.164062 C 207.378906 242.164062 204.6875 244.425781 204.003906 247.441406 L 198.417969 247.441406 L 198.417969 203.53125 C 201.828125 203.507812 205.0625 203.503906 208.457031 203.503906 L 208.457031 218.304688 C 206.542969 218.738281 205.105469 220.445312 205.105469 222.488281 C 205.105469 224.855469 207.03125 226.78125 209.402344 226.78125 C 211.773438 226.78125 213.699219 224.855469 213.699219 222.488281 C 213.699219 220.445312 212.265625 218.738281 210.351562 218.304688 L 210.351562 204.148438 C 213.800781 207.621094 217.160156 211.089844 220.53125 214.585938 L 221.835938 215.9375 L 223.199219 214.621094 L 221.898438 213.269531 C 220.007812 211.308594 218.121094 209.355469 216.222656 207.40625 L 231.015625 207.40625 C 231.449219 209.320312 233.152344 210.753906 235.199219 210.753906 C 237.570312 210.753906 239.496094 208.828125 239.496094 206.460938 C 239.496094 204.089844 237.570312 202.160156 235.199219 202.160156 C 233.152344 202.160156 231.449219 203.597656 231.015625 205.511719 L 214.351562 205.511719 C 213.164062 204.300781 211.988281 203.089844 210.777344 201.882812 L 210.5 201.605469 L 210.109375 201.605469 C 206.082031 201.605469 202.378906 201.605469 198.417969 201.632812 L 198.417969 196.976562 C 209.332031 196.886719 220.273438 196.917969 231.011719 197.074219 C 231.441406 198.992188 233.148438 200.433594 235.199219 200.433594 C 237.570312 200.433594 239.496094 198.507812 239.496094 196.136719 C 239.496094 193.765625 237.570312 191.839844 235.199219 191.839844 C 233.160156 191.839844 231.457031 193.269531 231.019531 195.175781 C 220.273438 195.019531 209.332031 194.992188 198.417969 195.078125 L 198.417969 186.886719 L 201.144531 189.839844 L 211.316406 189.839844 C 211.742188 191.527344 213.261719 192.789062 215.082031 192.789062 C 217.230469 192.789062 218.976562 191.039062 218.976562 188.890625 C 218.976562 186.742188 217.230469 184.992188 215.082031 184.992188 C 213.261719 184.992188 211.742188 186.253906 211.316406 187.941406 L 201.976562 187.941406 L 198.417969 184.089844 L 198.417969 173.453125 L 203.128906 171.234375 L 221.652344 178.113281 L 246.375 166.453125 C 247.007812 167.265625 247.851562 167.894531 248.847656 168.25 C 249.453125 168.46875 250.085938 168.578125 250.710938 168.578125 C 251.511719 168.578125 252.3125 168.402344 253.058594 168.046875 C 255.808594 166.753906 256.988281 163.460938 255.695312 160.710938 C 255.066406 159.378906 253.957031 158.371094 252.570312 157.875 C 251.1875 157.375 249.6875 157.449219 248.359375 158.078125 C 247.023438 158.703125 246.019531 159.8125 245.519531 161.199219 C 245.164062 162.195312 245.109375 163.246094 245.335938 164.25 L 221.539062 175.476562 L 206.207031 169.78125 L 220.671875 162.957031 L 224.820312 151.207031 L 243.566406 142.367188 C 244.621094 143.710938 246.210938 144.5 247.882812 144.5 C 248.671875 144.5 249.46875 144.332031 250.222656 143.976562 C 252.972656 142.679688 254.152344 139.386719 252.859375 136.640625 L 252.859375 136.636719 C 251.5625 133.890625 248.265625 132.710938 245.523438 134.003906 C 243.152344 135.125 241.957031 137.722656 242.5 140.179688 L 222.867188 149.441406 L 218.714844 161.191406 L 198.421875 170.761719 L 198.421875 141.125 C 199.644531 142.480469 200.859375 143.507812 201.886719 144.25 C 202.4375 144.644531 207.339844 148.097656 210.359375 147.09375 C 212.113281 146.511719 213.058594 144.613281 212.476562 142.859375 C 212.007812 141.457031 210.703125 140.570312 209.300781 140.570312 C 209.277344 140.570312 209.253906 140.570312 209.230469 140.570312 C 208.070312 140.214844 198.515625 136.738281 198.421875 122.019531 L 198.421875 121.800781 C 198.421875 121.78125 198.414062 121.765625 198.414062 121.75 C 198.453125 106.886719 211.96875 101.332031 218.960938 100.425781 L 216.808594 102.414062 L 216.808594 118.460938 C 214.167969 119.023438 212.175781 121.371094 212.175781 124.175781 C 212.175781 127.398438 214.800781 130.019531 218.023438 130.019531 C 221.246094 130.019531 223.871094 127.398438 223.871094 124.175781 C 223.871094 121.371094 221.878906 119.023438 219.238281 118.460938 L 219.238281 103.480469 L 222.605469 100.378906 C 228.707031 100.878906 236.375 103.996094 240.566406 109.574219 C 243.503906 113.484375 244.304688 118.117188 243.003906 123.34375 L 239.121094 127.117188 C 237.796875 128.40625 237.765625 130.523438 239.054688 131.851562 C 239.710938 132.523438 240.585938 132.863281 241.457031 132.863281 C 242.296875 132.863281 243.136719 132.550781 243.789062 131.917969 L 247.5 128.308594 C 247.832031 128.253906 248.179688 128.191406 248.558594 128.121094 C 254.929688 126.941406 262.078125 126.261719 266.351562 133.125 C 270.984375 140.570312 269.800781 145.5625 269.292969 147 L 265.847656 149.910156 C 264.4375 151.101562 264.257812 153.214844 265.453125 154.625 C 266.113281 155.410156 267.058594 155.8125 268.011719 155.8125 C 268.773438 155.8125 269.539062 155.554688 270.167969 155.023438 L 273.265625 152.40625 C 276.753906 152.523438 287.640625 153.710938 291.597656 163.464844 L 262.597656 163.464844 L 246.175781 180.375 L 246.175781 197.476562 C 243.296875 198.128906 241.132812 200.699219 241.132812 203.777344 C 241.132812 207.34375 244.039062 210.246094 247.605469 210.246094 C 251.171875 210.246094 254.078125 207.34375 254.078125 203.777344 C 254.078125 200.699219 251.914062 198.128906 249.035156 197.476562 L 249.035156 181.535156 L 263.804688 166.324219 L 292.566406 166.324219 C 294.621094 173.753906 293.609375 181.019531 291.261719 186.449219 L 267.964844 186.449219 L 258.453125 197.429688 L 258.453125 207.929688 C 255.570312 208.585938 253.410156 211.15625 253.410156 214.230469 C 253.410156 217.796875 256.3125 220.703125 259.882812 220.703125 C 263.449219 220.703125 266.351562 217.796875 266.351562 214.230469 C 266.351562 211.15625 264.191406 208.585938 261.3125 207.929688 L 261.3125 198.492188 L 269.265625 189.304688 L 289.804688 189.304688 C 288.5 191.484375 286.980469 193.179688 285.40625 194.238281 L 275.882812 194.238281 C 274.035156 194.238281 272.535156 195.734375 272.535156 197.585938 C 272.535156 199.433594 274.035156 200.933594 275.882812 200.933594 L 285.632812 200.933594 C 288.859375 202.484375 290.652344 204.382812 291.253906 209.453125 C 291.601562 218.070312 287.964844 221.738281 281.992188 224.851562 Z M 264.78125 233.175781 C 264.78125 230.519531 266.941406 228.359375 269.597656 228.359375 C 272.253906 228.359375 274.410156 230.519531 274.410156 233.175781 C 274.410156 235.832031 272.253906 237.992188 269.597656 237.992188 C 266.941406 237.992188 264.78125 235.832031 264.78125 233.175781 Z M 246.261719 235.003906 C 246.261719 233.300781 247.644531 231.917969 249.347656 231.917969 C 251.050781 231.917969 252.4375 233.300781 252.4375 235.003906 C 252.4375 236.710938 251.050781 238.09375 249.347656 238.09375 C 247.644531 238.09375 246.261719 236.710938 246.261719 235.003906 Z M 226.644531 232.820312 C 224.941406 232.820312 223.554688 231.4375 223.554688 229.734375 C 223.554688 228.03125 224.941406 226.644531 226.644531 226.644531 C 228.347656 226.644531 229.730469 228.03125 229.730469 229.734375 C 229.730469 231.4375 228.347656 232.820312 226.644531 232.820312 Z M 220.363281 294.589844 C 218.660156 294.589844 217.277344 293.203125 217.277344 291.5 C 217.277344 289.796875 218.660156 288.414062 220.363281 288.414062 C 222.066406 288.414062 223.453125 289.796875 223.453125 291.5 C 223.453125 293.203125 222.066406 294.589844 220.363281 294.589844 Z M 220.324219 274.828125 C 220.324219 273.050781 221.769531 271.609375 223.542969 271.609375 C 225.324219 271.609375 226.769531 273.050781 226.769531 274.828125 C 226.769531 276.605469 225.324219 278.050781 223.542969 278.050781 C 221.769531 278.050781 220.324219 276.605469 220.324219 274.828125 Z M 206.816406 248.9375 C 206.816406 246.851562 208.511719 245.15625 210.597656 245.15625 C 212.683594 245.15625 214.378906 246.855469 214.378906 248.9375 C 214.378906 251.023438 212.683594 252.71875 210.597656 252.71875 C 208.511719 252.71875 206.816406 251.023438 206.816406 248.9375 Z M 209.40625 220.085938 C 210.726562 220.085938 211.804688 221.164062 211.804688 222.488281 C 211.804688 223.8125 210.726562 224.886719 209.40625 224.886719 C 208.082031 224.886719 207.003906 223.8125 207.003906 222.488281 C 207.003906 221.167969 208.082031 220.085938 209.40625 220.085938 Z M 232.796875 206.460938 C 232.796875 205.136719 233.875 204.058594 235.199219 204.058594 C 236.519531 204.058594 237.601562 205.136719 237.601562 206.460938 C 237.601562 207.78125 236.519531 208.859375 235.199219 208.859375 C 233.875 208.859375 232.796875 207.78125 232.796875 206.460938 Z M 232.796875 196.136719 C 232.796875 194.816406 233.875 193.738281 235.199219 193.738281 C 236.519531 193.738281 237.601562 194.816406 237.601562 196.136719 C 237.601562 197.460938 236.519531 198.539062 235.199219 198.539062 C 233.875 198.539062 232.796875 197.460938 232.796875 196.136719 Z M 213.082031 188.890625 C 213.082031 187.789062 213.980469 186.890625 215.082031 186.890625 C 216.183594 186.890625 217.082031 187.789062 217.082031 188.890625 C 217.082031 189.992188 216.183594 190.890625 215.082031 190.890625 C 213.980469 190.890625 213.082031 189.992188 213.082031 188.890625 Z M 247.8125 162.023438 C 248.089844 161.25 248.652344 160.628906 249.394531 160.277344 C 249.816406 160.082031 250.257812 159.984375 250.707031 159.984375 C 251.054688 159.984375 251.410156 160.042969 251.75 160.164062 C 252.523438 160.441406 253.140625 161.003906 253.492188 161.75 C 254.214844 163.285156 253.554688 165.121094 252.023438 165.847656 C 251.277344 166.195312 250.445312 166.242188 249.667969 165.957031 C 248.894531 165.679688 248.277344 165.117188 247.925781 164.375 C 247.574219 163.632812 247.53125 162.796875 247.8125 162.023438 Z M 246.558594 136.207031 C 246.980469 136.007812 247.429688 135.914062 247.867188 135.914062 C 249.023438 135.914062 250.132812 136.566406 250.65625 137.675781 C 251.382812 139.210938 250.722656 141.050781 249.1875 141.773438 C 247.652344 142.496094 245.8125 141.839844 245.085938 140.304688 C 244.363281 138.769531 245.023438 136.929688 246.558594 136.207031 Z M 218.023438 120.765625 C 219.902344 120.765625 221.433594 122.296875 221.433594 124.175781 C 221.433594 126.054688 219.902344 127.585938 218.023438 127.585938 C 216.140625 127.585938 214.609375 126.054688 214.609375 124.175781 C 214.609375 122.296875 216.140625 120.765625 218.023438 120.765625 Z M 247.605469 200.160156 C 249.597656 200.160156 251.21875 201.78125 251.21875 203.777344 C 251.21875 205.765625 249.597656 207.386719 247.605469 207.386719 C 245.613281 207.386719 243.992188 205.765625 243.992188 203.777344 C 243.992188 201.78125 245.613281 200.160156 247.605469 200.160156 Z M 259.878906 210.617188 C 261.871094 210.617188 263.492188 212.238281 263.492188 214.230469 C 263.492188 216.222656 261.871094 217.84375 259.878906 217.84375 C 257.886719 217.84375 256.265625 216.222656 256.265625 214.230469 C 256.265625 212.238281 257.886719 210.617188 259.878906 210.617188 Z M 259.878906 210.617188 " fill-opacity="1" fill-rule="nonzero"/></g><g fill="#c1ff72" fill-opacity="1"><g transform="translate(53.041947, 175.964436)"><g><path d="M 0.375 -5.808594 C 1.019531 -5.640625 1.542969 -5.945312 1.710938 -6.59375 L 5.65625 -21.804688 C 5.65625 -21.804688 4.148438 -27.363281 -3.230469 -29.078125 C -6.191406 -29.800781 -9.269531 -29.121094 -11.425781 -27.269531 C -12.308594 -28.976562 -15.144531 -30.941406 -17.601562 -31.53125 C -25.394531 -33.355469 -27.171875 -28.011719 -27.171875 -28.011719 L -30.558594 -14.964844 C -30.726562 -14.320312 -30.417969 -13.796875 -29.773438 -13.628906 Z M -0.0664062 -8.085938 L -14.355469 -11.792969 L -10.898438 -25.117188 C -10.898438 -25.117188 -8.621094 -28.019531 -3.894531 -27.085938 C 1.765625 -25.964844 3.496094 -21.824219 3.496094 -21.824219 Z M -16.339844 -12.308594 L -28.324219 -15.417969 L -25.074219 -27.761719 C -24.703125 -29.191406 -21.570312 -30.445312 -17.882812 -29.488281 C -15.625 -28.902344 -12.65625 -26.507812 -12.894531 -25.585938 Z M -16.339844 -12.308594 "/></g></g></g><g fill="#c1ff72" fill-opacity="1"><g transform="translate(59.768628, 150.287848)"><g><path d="M -18.796875 -13.792969 L 1.066406 -5.246094 C 1.675781 -4.980469 2.050781 -4.769531 2.316406 -5.378906 L 2.65625 -6.167969 C 2.898438 -6.738281 2.507812 -6.90625 1.894531 -7.167969 L -16.652344 -15.152344 C -16.726562 -16.429688 -16.398438 -17.792969 -15.855469 -19.058594 C -15.214844 -20.546875 -14.285156 -21.859375 -13.335938 -22.746094 C -13.089844 -22.953125 -12.910156 -23.132812 -12.8125 -23.351562 C -12.71875 -23.570312 -12.777344 -23.800781 -12.902344 -24.113281 L -13.257812 -24.734375 C -13.566406 -25.335938 -14.074219 -25.242188 -14.519531 -24.8125 C -15.648438 -23.636719 -16.574219 -22.324219 -17.195312 -20.882812 C -17.875 -19.308594 -18.203125 -17.582031 -18.230469 -15.832031 C -18.710938 -16.039062 -19.011719 -16.0625 -19.21875 -15.582031 L -19.554688 -14.796875 C -19.820312 -14.183594 -19.40625 -14.058594 -18.796875 -13.792969 Z M -18.796875 -13.792969 "/></g></g></g><g fill="#c1ff72" fill-opacity="1"><g transform="translate(65.109461, 136.345927)"><g><path d="M -13.121094 -25.214844 C -16.652344 -19.390625 -14.8125 -12.039062 -8.90625 -8.460938 C -3 -4.882812 4.527344 -6.554688 7.984375 -12.257812 C 9.390625 -14.578125 10.1875 -17.546875 9.675781 -19.917969 L 10.492188 -19.425781 C 11.0625 -19.082031 11.402344 -18.816406 11.75 -19.386719 L 12.191406 -20.121094 C 12.511719 -20.648438 12.148438 -20.871094 11.578125 -21.21875 L -6.914062 -32.421875 C -7.484375 -32.769531 -7.828125 -33.03125 -8.148438 -32.503906 L -8.617188 -31.726562 C -8.960938 -31.160156 -8.570312 -30.976562 -8 -30.632812 L -7.1875 -30.136719 C -9.566406 -29.242188 -11.691406 -27.578125 -13.121094 -25.214844 Z M 6.308594 -13.441406 C 3.46875 -8.757812 -2.6875 -7.140625 -7.820312 -10.253906 C -12.832031 -13.289062 -14.289062 -19.242188 -11.28125 -24.210938 C -9.527344 -27.101562 -6.5 -28.605469 -4.292969 -28.386719 L 7.152344 -21.449219 C 8.234375 -19.011719 7.640625 -15.640625 6.308594 -13.441406 Z M 6.308594 -13.441406 "/></g></g></g><g fill="#c1ff72" fill-opacity="1"><g transform="translate(77.044914, 116.951282)"><g><path d="M 2.371094 -4.851562 C 2.898438 -4.441406 3.207031 -4.144531 3.613281 -4.667969 L 4.167969 -5.386719 C 4.546875 -5.875 4.179688 -6.101562 3.652344 -6.507812 L -13.484375 -19.773438 C -14.046875 -20.210938 -14.28125 -20.453125 -14.660156 -19.960938 L -15.214844 -19.246094 C -15.625 -18.71875 -15.292969 -18.523438 -14.765625 -18.113281 Z M -19.320312 -22.964844 C -18.738281 -23.71875 -18.855469 -24.65625 -19.609375 -25.238281 C -20.402344 -25.851562 -21.300781 -25.703125 -21.882812 -24.949219 C -22.464844 -24.195312 -22.355469 -23.328125 -21.5625 -22.714844 C -20.808594 -22.132812 -19.902344 -22.214844 -19.320312 -22.964844 Z M -19.320312 -22.964844 "/></g></g></g><g fill="#c1ff72" fill-opacity="1"><g transform="translate(81.368815, 110.147795)"><g><path d="M 15.570312 -17.414062 L 4.121094 -28.59375 C 0.519531 -32.132812 -4.582031 -30.132812 -7.984375 -26.667969 C -9.554688 -25.070312 -10.714844 -23.207031 -11.339844 -21.417969 C -11.679688 -21.683594 -11.914062 -21.851562 -12.28125 -21.476562 L -12.882812 -20.867188 C -13.351562 -20.390625 -13.011719 -20.125 -12.535156 -19.65625 L 2.890625 -4.503906 C 3.367188 -4.039062 3.636719 -3.703125 4.105469 -4.179688 L 4.707031 -4.789062 C 5.140625 -5.230469 4.832031 -5.53125 4.359375 -6 L -9.46875 -19.582031 C -9.386719 -21.4375 -8.257812 -23.535156 -6.589844 -25.234375 C -3.886719 -27.984375 0.105469 -29.601562 2.585938 -27.234375 L 14.171875 -15.921875 C 14.613281 -15.488281 14.917969 -15.121094 15.351562 -15.628906 L 15.953125 -16.242188 C 16.386719 -16.683594 16.046875 -16.949219 15.570312 -17.414062 Z M 15.570312 -17.414062 "/></g></g></g><g fill="#c1ff72" fill-opacity="1"><g transform="translate(98.108205, 93.288112)"><g/></g></g><g fill="#c1ff72" fill-opacity="1"><g transform="translate(105.725945, 86.467971)"><g><path d="M 9.078125 -26.257812 C 8.726562 -26.824219 8.71875 -26.929688 8.152344 -26.582031 L -2.96875 -19.753906 L -9.722656 -30.75 L 4.886719 -39.722656 C 5.453125 -40.074219 5.363281 -40.128906 5.011719 -40.695312 L 4.738281 -41.144531 C 4.390625 -41.710938 4.355469 -41.859375 3.789062 -41.507812 L -11.648438 -31.96875 C -12.214844 -31.621094 -12.355469 -31.03125 -12.007812 -30.464844 L 4.296875 -3.925781 C 4.644531 -3.355469 4.828125 -2.964844 5.316406 -3.265625 L 6.25 -3.839844 C 6.695312 -4.113281 6.429688 -4.453125 6.082031 -5.023438 L -1.871094 -17.964844 L 9.222656 -24.835938 C 9.789062 -25.1875 9.726562 -25.203125 9.375 -25.769531 Z M 9.078125 -26.257812 "/></g></g></g><g fill="#c1ff72" fill-opacity="1"><g transform="translate(124.414213, 75.133677)"><g><path d="M 4.316406 -3.242188 C 4.601562 -2.640625 4.738281 -2.234375 5.34375 -2.515625 L 6.160156 -2.902344 C 6.722656 -3.167969 6.496094 -3.535156 6.210938 -4.136719 L -3.023438 -23.738281 C -3.328125 -24.386719 -3.425781 -24.707031 -3.988281 -24.445312 L -4.804688 -24.058594 C -5.410156 -23.773438 -5.203125 -23.449219 -4.917969 -22.847656 Z M -6.773438 -29.238281 C -5.910156 -29.644531 -5.589844 -30.53125 -5.996094 -31.394531 C -6.421875 -32.296875 -7.289062 -32.574219 -8.152344 -32.167969 C -9.011719 -31.761719 -9.308594 -30.9375 -8.882812 -30.035156 C -8.476562 -29.171875 -7.632812 -28.832031 -6.773438 -29.238281 Z M -6.773438 -29.238281 "/></g></g></g><g fill="#c1ff72" fill-opacity="1"><g transform="translate(131.774511, 71.279138)"><g><path d="M -2.929688 -23.128906 L 4.539062 -2.835938 C 4.769531 -2.210938 4.871094 -1.792969 5.496094 -2.023438 L 6.300781 -2.320312 C 6.882812 -2.53125 6.734375 -2.933594 6.503906 -3.5625 L -0.46875 -22.511719 C 0.40625 -23.441406 1.621094 -24.144531 2.914062 -24.621094 C 4.433594 -25.179688 6.027344 -25.410156 7.324219 -25.328125 C 7.640625 -25.292969 7.898438 -25.285156 8.121094 -25.367188 C 8.34375 -25.449219 8.472656 -25.652344 8.613281 -25.957031 L 8.820312 -26.640625 C 9.042969 -27.28125 8.625 -27.582031 8.007812 -27.609375 C 6.378906 -27.621094 4.789062 -27.390625 3.3125 -26.847656 C 1.703125 -26.253906 0.226562 -25.304688 -1.0625 -24.121094 C -1.242188 -24.613281 -1.429688 -24.847656 -1.921875 -24.667969 L -2.726562 -24.371094 C -3.351562 -24.140625 -3.160156 -23.753906 -2.929688 -23.128906 Z M -2.929688 -23.128906 "/></g></g></g><g fill="#c1ff72" fill-opacity="1"><g transform="translate(145.790655, 65.732822)"><g><path d="M 12.753906 -24.542969 C 12.214844 -26.8125 7.257812 -26.667969 5.636719 -26.285156 C 3.828125 -25.859375 2.140625 -24.921875 0.976562 -23.425781 C -1.148438 -20.625 -1.15625 -16.511719 2.453125 -14.28125 C 6.921875 -11.519531 14.355469 -15.671875 14.714844 -8.757812 C 14.789062 -6.378906 12.375 -4.585938 9.59375 -3.929688 C 7.460938 -3.425781 5.175781 -3.570312 3.570312 -4.5625 C 3.34375 -4.703125 3.183594 -4.761719 3.089844 -4.742188 C 2.949219 -4.707031 2.902344 -4.5 2.988281 -4.128906 L 3.308594 -2.984375 C 3.472656 -2.289062 3.898438 -2.144531 4.472656 -1.984375 C 6.015625 -1.46875 8.070312 -1.464844 10.0625 -1.933594 C 13.214844 -2.679688 16.222656 -4.660156 16.703125 -7.808594 C 17.046875 -10.289062 16.273438 -13.773438 12.519531 -14.75 C 8.871094 -15.699219 2.628906 -13.734375 1.753906 -19.105469 C 1.410156 -21.179688 3.234375 -23.8125 6.15625 -24.5 C 7.964844 -24.929688 10.132812 -24.65625 12.421875 -23.042969 C 12.660156 -22.855469 12.820312 -22.796875 12.914062 -22.816406 C 13.054688 -22.851562 13.101562 -23.058594 13.015625 -23.429688 Z M 12.753906 -24.542969 "/></g></g></g><g fill="#c1ff72" fill-opacity="1"><g transform="translate(163.042561, 61.571757)"><g><path d="M 1.945312 -24.1875 C 1.898438 -24.183594 1.851562 -24.175781 1.757812 -24.164062 C 1.238281 -24.101562 0.863281 -24.003906 0.933594 -23.4375 L 1.039062 -22.585938 C 1.121094 -21.925781 1.542969 -22.027344 2.203125 -22.109375 L 2.722656 -22.171875 L 4.492188 -7.515625 C 5.066406 -2.882812 6.8125 -0.796875 11.726562 -1.40625 C 12.484375 -1.5 13.234375 -1.640625 14.121094 -1.84375 C 14.730469 -1.96875 15.152344 -2.023438 15.070312 -2.683594 L 14.941406 -3.722656 C 14.894531 -4.101562 14.742188 -4.179688 14.507812 -4.148438 C 14.316406 -4.125 14.085938 -4.050781 13.855469 -3.972656 C 13.023438 -3.726562 12.144531 -3.472656 11.339844 -3.371094 C 9.023438 -3.085938 7.070312 -3.753906 6.722656 -6.542969 L 4.753906 -22.425781 L 9.53125 -23.015625 C 9.578125 -23.023438 9.671875 -23.035156 9.71875 -23.039062 C 10.238281 -23.105469 10.5625 -23.191406 10.492188 -23.757812 L 10.386719 -24.609375 C 10.316406 -25.175781 9.980469 -25.183594 9.414062 -25.113281 C 9.367188 -25.105469 9.320312 -25.101562 9.273438 -25.09375 L 4.5 -24.503906 L 3.457031 -32.917969 C 3.378906 -33.53125 3.375 -33.960938 2.757812 -33.886719 L 1.910156 -33.78125 C 1.246094 -33.699219 1.347656 -33.28125 1.429688 -32.617188 L 2.464844 -24.253906 Z M 1.945312 -24.1875 "/></g></g></g><g fill="#c1ff72" fill-opacity="1"><g transform="translate(174.7981, 59.9604)"><g/></g></g><g fill="#c1ff72" fill-opacity="1"><g transform="translate(184.87421, 58.773024)"><g><path d="M 22.761719 -31.457031 L 9.242188 -32.652344 C 8.578125 -32.710938 8.585938 -32.277344 8.527344 -31.613281 L 5.789062 -0.589844 C 5.730469 0.0742188 5.644531 0.5 6.308594 0.558594 L 7.164062 0.632812 C 7.828125 0.691406 7.816406 0.261719 7.875 -0.402344 L 9.015625 -13.308594 L 20.542969 -12.289062 C 20.542969 -12.289062 27.859375 -12.3125 28.667969 -21.46875 C 29.476562 -30.625 22.761719 -31.457031 22.761719 -31.457031 Z M 20.871094 -14.363281 L 9.199219 -15.394531 L 10.527344 -30.433594 L 22.007812 -29.421875 C 22.007812 -29.421875 27.347656 -29.234375 26.691406 -21.789062 C 26.023438 -14.246094 20.871094 -14.363281 20.871094 -14.363281 Z M 20.871094 -14.363281 "/></g></g></g><g fill="#c1ff72" fill-opacity="1"><g transform="translate(209.101484, 60.523315)"><g><path d="M 21.394531 5.722656 C 21.992188 5.882812 22.054688 5.457031 22.226562 4.8125 L 26.453125 -11.164062 C 27.5625 -15.304688 23.929688 -18.492188 19.375 -19.710938 C 17.304688 -20.265625 15.019531 -20.386719 12.957031 -20.050781 L 15.445312 -29.34375 C 15.617188 -29.988281 15.726562 -30.402344 15.128906 -30.5625 L 14.300781 -30.78125 C 13.65625 -30.953125 13.589844 -30.527344 13.417969 -29.882812 L 5.34375 0.296875 C 5.171875 0.941406 5.015625 1.34375 5.660156 1.515625 L 6.488281 1.734375 C 7.085938 1.894531 7.195312 1.480469 7.367188 0.835938 L 12.367188 -17.839844 C 14.328125 -18.351562 16.714844 -18.253906 18.878906 -17.675781 C 22.375 -16.742188 25.179688 -14.511719 24.425781 -11.507812 L 20.25 4.285156 C 20.078125 4.929688 19.921875 5.332031 20.566406 5.503906 Z M 21.394531 5.722656 "/></g></g></g><g fill="#c1ff72" fill-opacity="1"><g transform="translate(231.502517, 66.689439)"><g><path d="M 5.316406 0.929688 C 5.074219 1.546875 4.871094 1.929688 5.492188 2.175781 L 6.332031 2.507812 C 6.90625 2.734375 7.019531 2.320312 7.265625 1.699219 L 15.246094 -18.449219 C 15.507812 -19.113281 15.675781 -19.40625 15.097656 -19.632812 L 14.257812 -19.964844 C 13.636719 -20.210938 13.542969 -19.839844 13.296875 -19.21875 Z M 16.691406 -24.945312 C 17.574219 -24.59375 18.441406 -24.96875 18.792969 -25.855469 C 19.160156 -26.785156 18.769531 -27.605469 17.882812 -27.957031 C 16.996094 -28.304688 16.191406 -27.957031 15.824219 -27.027344 C 15.472656 -26.144531 15.804688 -25.296875 16.691406 -24.945312 Z M 16.691406 -24.945312 "/></g></g></g><g fill="#c1ff72" fill-opacity="1"><g transform="translate(239.49371, 69.717284)"><g><path d="M 19.492188 -27.671875 C 18.890625 -27.957031 18.75 -27.546875 18.464844 -26.945312 L 5.207031 1.238281 C 4.921875 1.84375 4.699219 2.210938 5.300781 2.492188 L 6.078125 2.859375 C 6.679688 3.140625 6.820312 2.734375 7.101562 2.132812 L 20.363281 -26.050781 C 20.644531 -26.65625 20.871094 -27.023438 20.269531 -27.308594 Z M 19.492188 -27.671875 "/></g></g></g><g fill="#c1ff72" fill-opacity="1"><g transform="translate(246.944291, 72.339631)"><g><path d="M 8.671875 -8.894531 C 4.800781 -2.722656 6.535156 4.550781 12.382812 8.21875 C 18.152344 11.839844 25.414062 10.210938 29.1875 4.203125 C 33.007812 -1.890625 31.183594 -9.105469 25.496094 -12.675781 C 19.808594 -16.246094 12.597656 -15.148438 8.671875 -8.894531 Z M 10.222656 -7.417969 C 13.722656 -13.089844 19.566406 -13.980469 24.40625 -10.941406 C 29.128906 -7.980469 30.652344 -2.074219 27.285156 3.289062 C 24.222656 8.171875 18.234375 9.472656 13.472656 6.484375 C 8.792969 3.550781 7.148438 -2.429688 10.222656 -7.417969 Z M 10.222656 -7.417969 "/></g></g></g><g fill="#c1ff72" fill-opacity="1"><g transform="translate(267.751547, 85.256735)"><g><path d="M 27.367188 -3.996094 C 28.894531 -5.757812 25.882812 -9.695312 24.625 -10.789062 C 23.222656 -12.007812 21.476562 -12.828125 19.578125 -12.898438 C 16.0625 -12.984375 12.722656 -10.589844 13.019531 -6.355469 C 13.390625 -1.117188 21.109375 2.492188 15.707031 6.824219 C 13.820312 8.273438 10.953125 7.363281 8.792969 5.488281 C 7.140625 4.050781 5.921875 2.113281 5.789062 0.230469 C 5.769531 -0.0351562 5.726562 -0.203125 5.652344 -0.265625 C 5.546875 -0.359375 5.347656 -0.277344 5.097656 0.0117188 L 4.355469 0.941406 C 3.886719 1.480469 4.015625 1.910156 4.226562 2.46875 C 4.707031 4.023438 5.90625 5.691406 7.453125 7.035156 C 9.898438 9.15625 13.261719 10.4375 16.097656 8.988281 C 18.3125 7.820312 20.6875 5.152344 19.285156 1.539062 C 17.921875 -1.976562 12.683594 -5.894531 16.527344 -9.746094 C 18.007812 -11.234375 21.210938 -11.292969 23.480469 -9.324219 C 24.882812 -8.105469 25.929688 -6.1875 25.957031 -3.390625 C 25.945312 -3.085938 25.992188 -2.917969 26.0625 -2.855469 C 26.171875 -2.761719 26.367188 -2.84375 26.617188 -3.132812 Z M 27.367188 -3.996094 "/></g></g></g><g fill="#c1ff72" fill-opacity="1"><g transform="translate(281.286275, 96.121555)"><g><path d="M 10.964844 -5.839844 C 5.402344 -1.136719 4.84375 6.320312 9.300781 11.59375 C 13.695312 16.796875 21.109375 17.453125 26.53125 12.871094 C 32.023438 8.230469 32.476562 0.800781 28.140625 -4.328125 C 23.808594 -9.457031 16.605469 -10.601562 10.964844 -5.839844 Z M 11.992188 -3.960938 C 17.054688 -8.300781 22.890625 -7.371094 26.578125 -3.007812 C 30.175781 1.25 29.832031 7.335938 24.996094 11.425781 C 20.59375 15.144531 14.492188 14.566406 10.863281 10.273438 C 7.296875 6.054688 7.546875 -0.144531 11.992188 -3.960938 Z M 11.992188 -3.960938 "/></g></g></g><g fill="#c1ff72" fill-opacity="1"><g transform="translate(297.323357, 114.37697)"><g><path d="M 23.507812 -6.90625 C 23.195312 -7.441406 22.875 -7.144531 22.296875 -6.8125 L -4.683594 8.75 C -5.261719 9.082031 -5.632812 9.296875 -5.324219 9.832031 L -4.894531 10.574219 C -4.5625 11.152344 -4.214844 10.898438 -3.636719 10.566406 L 5.4375 5.328125 C 4.875 7.6875 5.632812 10.714844 6.964844 13.027344 C 10.296875 18.800781 17.789062 20.640625 23.769531 17.1875 C 29.75 13.738281 31.773438 6.46875 28.34375 0.527344 C 26.988281 -1.824219 24.902344 -3.53125 22.519531 -4.523438 L 23.34375 -4.996094 C 23.921875 -5.332031 24.339844 -5.460938 24.007812 -6.039062 Z M 19.589844 -2.832031 C 21.796875 -3.007812 24.792969 -1.433594 26.480469 1.492188 C 29.386719 6.527344 27.796875 12.445312 22.722656 15.375 C 17.523438 18.371094 11.402344 16.625 8.667969 11.878906 C 7.382812 9.652344 6.859375 6.269531 7.996094 3.855469 Z M 19.589844 -2.832031 "/></g></g></g><g fill="#c1ff72" fill-opacity="1"><g transform="translate(309.729064, 135.100287)"><g><path d="M 7.601562 20.800781 C 7.8125 21.382812 8.199219 21.191406 8.824219 20.960938 L 24.332031 15.246094 C 28.355469 13.773438 28.882812 8.96875 27.265625 4.539062 C 26.527344 2.527344 25.3125 0.585938 23.855469 -0.90625 L 32.890625 -4.210938 C 33.515625 -4.4375 33.917969 -4.585938 33.707031 -5.167969 L 33.414062 -5.972656 C 33.183594 -6.597656 32.796875 -6.40625 32.171875 -6.175781 L 2.828125 4.542969 C 2.199219 4.773438 1.78125 4.875 2.011719 5.503906 L 2.304688 6.308594 C 2.515625 6.890625 2.917969 6.742188 3.546875 6.511719 L 21.707031 -0.121094 C 23.25 1.1875 24.542969 3.199219 25.3125 5.304688 C 26.554688 8.703125 26.339844 12.28125 23.449219 13.386719 L 8.121094 19.039062 C 7.496094 19.265625 7.078125 19.371094 7.304688 19.996094 Z M 7.601562 20.800781 "/></g></g></g><g fill="#c1ff72" fill-opacity="1"><g transform="translate(317.674328, 156.703633)"><g><path d="M 26.953125 12.082031 C 26.824219 11.476562 26.386719 11.472656 25.777344 11.359375 L 5.453125 8.8125 L 22.914062 -1.957031 C 23.433594 -2.261719 23.820312 -2.492188 23.679688 -3.144531 L 23.46875 -4.121094 C 23.339844 -4.726562 22.960938 -4.449219 22.441406 -4.144531 L 2.738281 7.984375 C 2.574219 8.117188 2.453125 8.242188 2.34375 8.410156 L -7.277344 7.167969 C -7.875 7.101562 -8.332031 7.003906 -8.203125 7.609375 L -8.003906 8.539062 C -7.863281 9.191406 -7.414062 9.242188 -6.816406 9.308594 L 26.238281 13.503906 C 26.847656 13.613281 27.296875 13.664062 27.15625 13.011719 Z M 26.953125 12.082031 "/></g></g></g></svg>