<svg xmlns="http://www.w3.org/2000/svg" xmlns:xlink="http://www.w3.org/1999/xlink" width="500" zoomAndPan="magnify" viewBox="0 0 375 374.999991" height="500" preserveAspectRatio="xMidYMid meet" version="1.0"><defs><clipPath id="65761afd19"><path d="M 7.605469 8 L 366 8 L 366 368.429688 L 7.605469 368.429688 Z M 7.605469 8 " clip-rule="nonzero"/></clipPath></defs><g clip-path="url(#65761afd19)"><path fill="#ffffff" d="M 326.929688 187.359375 C 315.988281 186.667969 305.875 190.269531 298.117188 196.503906 C 292.714844 200.9375 284.679688 196.917969 284.679688 189.992188 L 284.679688 99.25 C 284.679688 94.679688 280.9375 90.9375 276.367188 90.9375 L 183.269531 90.9375 C 176.066406 90.9375 172.464844 82.625 177.175781 77.085938 C 183.683594 69.605469 187.425781 59.769531 187.148438 49.101562 C 186.734375 27.765625 169.554688 9.894531 148.21875 8.507812 C 124.113281 6.984375 104.027344 26.101562 104.027344 49.929688 C 104.027344 60.320312 107.769531 69.742188 114 76.945312 C 118.710938 82.347656 114.972656 90.800781 107.769531 90.800781 L 15.917969 90.800781 C 11.347656 90.800781 7.605469 94.539062 7.605469 99.113281 L 7.605469 189.992188 C 7.605469 196.917969 15.78125 200.9375 21.183594 196.503906 C 28.941406 190.128906 39.191406 186.527344 50.136719 187.21875 C 70.917969 188.46875 87.820312 205.507812 88.925781 226.289062 C 90.3125 250.394531 71.472656 270.34375 47.644531 270.34375 C 37.667969 270.34375 28.386719 266.878906 21.320312 260.921875 C 15.917969 256.488281 7.746094 260.367188 7.746094 267.292969 L 7.746094 359.558594 C 7.746094 364.128906 11.484375 367.871094 16.058594 367.871094 L 107.769531 367.871094 C 114.832031 367.871094 118.710938 359.558594 114 354.15625 C 107.492188 346.535156 103.75 336.839844 104.164062 326.035156 C 104.859375 305.113281 121.207031 287.660156 141.984375 285.859375 C 166.644531 283.78125 187.148438 303.3125 187.148438 327.558594 C 187.148438 337.949219 183.410156 347.089844 177.175781 354.433594 C 172.601562 359.699219 176.621094 368.007812 183.546875 368.007812 L 276.367188 368.007812 C 280.9375 368.007812 284.679688 364.269531 284.679688 359.699219 L 284.679688 267.710938 C 284.679688 260.78125 292.714844 256.765625 298.117188 261.199219 C 305.320312 267.015625 314.324219 270.480469 324.300781 270.480469 C 348.128906 270.480469 367.382812 250.394531 365.722656 226.148438 C 364.335938 205.367188 347.574219 188.746094 326.929688 187.359375 Z M 326.929688 187.359375 " fill-opacity="1" fill-rule="nonzero"/></g></svg>