<svg xmlns="http://www.w3.org/2000/svg" xmlns:xlink="http://www.w3.org/1999/xlink" width="500" zoomAndPan="magnify" viewBox="0 0 375 374.999991" height="500" preserveAspectRatio="xMidYMid meet" version="1.0"><defs><clipPath id="0ecd75863e"><path d="M 29.855469 229 L 196 229 L 196 359.898438 L 29.855469 359.898438 Z M 29.855469 229 " clip-rule="nonzero"/></clipPath><clipPath id="614049d8b0"><path d="M 150 195 L 283 195 L 283 359.898438 L 150 359.898438 Z M 150 195 " clip-rule="nonzero"/></clipPath><clipPath id="8cc915a3fd"><path d="M 29.855469 108 L 162 108 L 162 273 L 29.855469 273 Z M 29.855469 108 " clip-rule="nonzero"/></clipPath><clipPath id="7b25afa59b"><path d="M 174 15 L 344.855469 15 L 344.855469 184 L 174 184 Z M 174 15 " clip-rule="nonzero"/></clipPath></defs><g clip-path="url(#0ecd75863e)"><path fill="#ffffff" d="M 156.050781 360.097656 L 34.917969 360.097656 C 32.085938 360.097656 29.863281 357.871094 29.863281 355.039062 L 29.863281 234.3125 C 29.863281 231.480469 32.085938 229.257812 34.917969 229.257812 C 37.75 229.257812 39.972656 231.480469 39.972656 234.3125 L 39.972656 350.390625 L 151.199219 350.390625 L 151.199219 309.339844 C 151.199219 307.519531 152.410156 305.699219 154.027344 304.890625 C 155.644531 304.082031 157.871094 304.28125 159.285156 305.699219 C 161.308594 307.71875 164.949219 309.742188 169.800781 309.742188 C 178.09375 309.742188 184.96875 302.867188 184.96875 294.574219 C 184.96875 286.082031 178.09375 279.410156 169.800781 279.410156 C 165.757812 279.410156 162.117188 280.824219 159.285156 283.25 C 157.871094 284.667969 155.644531 285.070312 154.027344 284.058594 C 152.410156 283.25 151.199219 281.632812 151.199219 279.609375 L 151.199219 234.3125 C 151.199219 231.480469 153.421875 229.257812 156.253906 229.257812 C 159.085938 229.257812 161.308594 231.480469 161.308594 234.3125 L 161.308594 271.320312 C 164.140625 270.511719 166.972656 269.902344 170.003906 269.902344 C 183.753906 269.902344 195.082031 281.027344 195.082031 294.777344 C 195.082031 308.527344 183.753906 319.855469 170.003906 319.855469 C 166.972656 319.855469 164.140625 319.246094 161.308594 318.4375 L 161.308594 355.648438 C 161.105469 357.871094 158.882812 360.097656 156.050781 360.097656 Z M 156.050781 360.097656 " fill-opacity="1" fill-rule="evenodd"/></g><g clip-path="url(#614049d8b0)"><path fill="#ffffff" d="M 277.183594 360.097656 L 156.050781 360.097656 C 153.21875 360.097656 150.996094 357.871094 150.996094 355.039062 C 150.996094 352.210938 153.21875 349.984375 156.050781 349.984375 L 272.128906 349.984375 L 272.128906 239.367188 L 231.480469 239.367188 C 229.457031 239.367188 227.839844 238.15625 227.03125 236.535156 C 226.019531 234.714844 226.425781 232.492188 227.839844 231.078125 C 230.269531 228.246094 231.683594 224.605469 231.683594 220.761719 C 231.683594 212.269531 225.011719 205.597656 216.515625 205.597656 C 208.226562 205.597656 201.347656 212.269531 201.347656 220.761719 C 201.347656 224.402344 202.765625 228.042969 205.394531 231.078125 C 206.808594 232.492188 207.011719 234.714844 206.203125 236.535156 C 205.394531 238.15625 203.777344 239.367188 201.753906 239.367188 L 156.050781 239.367188 C 153.21875 239.367188 150.996094 236.941406 150.996094 234.3125 C 150.996094 231.480469 153.21875 229.257812 156.050781 229.257812 L 193.058594 229.257812 C 191.84375 226.425781 191.644531 223.59375 191.644531 220.5625 C 191.644531 206.808594 202.765625 195.484375 216.515625 195.484375 C 230.269531 195.484375 241.59375 206.808594 241.59375 220.5625 C 241.59375 223.59375 240.984375 226.425781 240.175781 229.257812 L 277.386719 229.257812 C 280.21875 229.257812 282.441406 231.480469 282.441406 234.3125 L 282.441406 355.039062 C 282.238281 357.871094 280.015625 360.097656 277.183594 360.097656 Z M 277.183594 360.097656 " fill-opacity="1" fill-rule="evenodd"/></g><g clip-path="url(#8cc915a3fd)"><path fill="#ffffff" d="M 95.789062 272.734375 C 82.035156 272.734375 70.710938 261.410156 70.710938 247.660156 C 70.710938 244.828125 71.316406 241.996094 72.128906 239.367188 L 34.917969 239.367188 C 32.085938 239.367188 29.863281 236.941406 29.863281 234.3125 L 29.863281 112.976562 C 29.863281 110.347656 32.085938 108.125 34.917969 108.125 L 156.050781 108.125 C 158.882812 108.125 161.105469 110.347656 161.105469 112.976562 L 161.105469 158.882812 C 161.105469 160.703125 159.894531 162.523438 157.871094 163.332031 C 156.253906 164.140625 154.027344 163.535156 152.613281 162.523438 C 150.1875 159.894531 146.140625 158.476562 142.5 158.476562 C 134.414062 158.476562 127.335938 165.554688 127.335938 173.644531 C 127.335938 182.136719 134.414062 188.8125 142.5 188.8125 C 146.546875 188.8125 150.1875 187.394531 152.613281 184.96875 C 154.027344 183.554688 156.253906 183.148438 157.871094 183.957031 C 159.691406 184.96875 161.105469 186.585938 161.105469 188.609375 L 161.105469 234.3125 C 161.105469 236.941406 158.882812 239.367188 156.050781 239.367188 L 119.042969 239.367188 C 120.054688 241.996094 120.460938 244.828125 120.460938 247.660156 C 120.660156 261.410156 109.539062 272.734375 95.789062 272.734375 Z M 39.972656 229.457031 L 81.023438 229.457031 C 83.046875 229.457031 84.867188 230.671875 85.675781 232.492188 C 86.484375 234.3125 85.878906 236.535156 84.867188 237.953125 C 82.238281 240.378906 80.824219 244.421875 80.824219 248.0625 C 80.824219 256.355469 87.496094 263.027344 95.988281 263.027344 C 104.484375 263.027344 111.15625 256.355469 111.15625 248.0625 C 111.15625 244.421875 109.742188 240.785156 107.113281 237.953125 C 105.898438 236.535156 105.496094 234.3125 106.304688 232.492188 C 107.113281 230.875 108.933594 229.457031 110.753906 229.457031 L 151.601562 229.457031 L 151.601562 197.304688 C 148.769531 198.316406 145.941406 198.519531 142.90625 198.519531 C 129.15625 198.519531 117.832031 187.394531 117.832031 173.644531 C 117.832031 159.894531 129.15625 148.769531 142.90625 148.769531 C 145.941406 148.769531 148.769531 149.175781 151.601562 150.1875 L 151.601562 118.03125 L 39.972656 118.03125 Z M 39.972656 229.457031 " fill-opacity="1" fill-rule="evenodd"/></g><g clip-path="url(#7b25afa59b)"><path fill="#ffffff" d="M 238.761719 183.957031 C 237.144531 183.957031 235.324219 183.148438 234.515625 181.53125 L 216.921875 150.996094 C 215.101562 153.21875 212.875 154.835938 210.652344 156.253906 C 198.921875 162.925781 184.363281 158.882812 177.6875 147.355469 C 174.453125 141.691406 173.644531 135.222656 175.261719 128.75 C 177.082031 122.683594 180.925781 117.222656 186.585938 114.191406 C 188.8125 112.773438 191.644531 111.964844 194.070312 111.359375 L 176.476562 80.621094 C 175.058594 78.394531 175.867188 75.160156 178.09375 73.746094 L 278.800781 15.707031 C 280.015625 15.101562 281.429688 14.898438 282.441406 15.503906 C 283.65625 15.707031 284.667969 16.515625 285.675781 17.730469 L 343.714844 118.4375 C 345.132812 120.660156 344.121094 123.695312 341.894531 125.109375 L 303.878906 147.355469 C 302.058594 148.164062 300.238281 148.164062 298.417969 146.949219 C 296.800781 145.941406 296.191406 143.917969 296.597656 141.894531 C 297.40625 138.253906 296.800781 134.613281 295.183594 131.582031 C 293.160156 128.144531 289.722656 125.71875 286.082031 124.910156 C 282.441406 124.097656 278.800781 124.503906 275.769531 126.324219 C 272.332031 128.144531 269.902344 131.378906 269.09375 135.019531 C 268.285156 138.660156 268.488281 142.5 270.511719 145.941406 C 272.128906 148.972656 275.160156 151.199219 278.601562 152.410156 C 280.621094 152.816406 281.632812 154.636719 281.835938 156.457031 C 282.238281 158.476562 281.027344 160.5 279.410156 161.308594 L 241.59375 183.148438 C 240.378906 183.757812 239.570312 183.957031 238.761719 183.957031 Z M 216.921875 136.03125 C 218.539062 136.03125 220.15625 136.839844 221.167969 138.660156 L 240.785156 172.230469 L 267.074219 157.0625 C 264.847656 155.445312 263.230469 153.21875 261.816406 150.996094 C 258.578125 145.332031 257.769531 138.863281 259.1875 132.796875 C 260.804688 126.527344 264.847656 121.269531 270.511719 118.03125 C 275.769531 115 282.238281 113.988281 288.304688 115.605469 C 294.777344 117.222656 300.238281 121.269531 303.472656 127.132812 C 304.890625 129.558594 305.699219 132.1875 306.304688 134.613281 L 332.796875 119.246094 L 279.410156 26.625 L 187.394531 80.015625 L 207.011719 114.191406 C 207.820312 115.808594 207.820312 117.832031 206.808594 119.449219 C 205.597656 121.269531 203.777344 121.671875 201.753906 121.46875 C 198.113281 120.660156 194.472656 121.269531 191.441406 122.886719 C 188.003906 124.910156 185.777344 127.738281 184.566406 131.582031 C 183.554688 135.222656 183.957031 139.0625 185.980469 142.5 C 190.023438 149.175781 198.71875 151.804688 205.597656 147.757812 C 208.832031 146.140625 211.054688 143.109375 212.066406 139.671875 C 212.675781 137.851562 214.292969 136.636719 216.3125 136.433594 C 216.515625 136.03125 216.515625 136.03125 216.921875 136.03125 Z M 216.921875 136.03125 " fill-opacity="1" fill-rule="evenodd"/></g></svg>